%
M48
M72
T01C0.0100
T02C0.0100
T03C0.0100
T04C0.0100
T05C0.0100
T06C0.0100
T07C0.0100
%
T01
X9880Y12700
T02
X7480Y1060
X9820Y2680
X9080Y3500
X9320Y3920
X8560Y4720
X6640Y5620
X6280Y4600
X3580Y5620
X5380Y7300
X9700Y6400
X10690Y4990
X7960Y3100
X6080Y2900
X8300Y12200
X7580Y10580
X7220Y9080
X5380Y9040
X9100Y8126
T03
X1600Y10600
X2100Y11350
X2600Y10600
T04
X3600Y7600
X3600Y10600
X7700Y9600
X10500Y9600
T05
X1600Y2100
X4880Y1220
X5880Y1220
X8380Y1220
X9380Y1220
X1600Y5100
X1600Y7600
X1600Y8600
X4600Y11600
X5600Y11600
X6600Y11600
X7600Y11600
X7100Y7100
X8080Y7100
X9060Y7100
X14150Y11100
X20050Y11100
X24100Y11600
X24100Y9600
X24100Y7600
X24100Y5600
T06
X21600Y9600
X20600Y9600
X19600Y9600
T07
X20600Y2700
M30
