G75*
%MOIN*%
%OFA0B0*%
%FSLAX25Y25*%
%IPPOS*%
%LPD*%
%AMOC8*
5,1,8,0,0,1.08239X$1,22.5*
%
%ADD10R,0.05906X0.05118*%
%ADD11R,0.04331X0.03937*%
%ADD12R,0.07087X0.06299*%
%ADD13C,0.06000*%
%ADD14R,0.07008X0.06102*%
%ADD15R,0.05984X0.07008*%
%ADD16R,0.03937X0.04331*%
%ADD17R,0.07098X0.06299*%
%ADD18R,0.06299X0.07098*%
%ADD19R,0.05000X0.02500*%
%ADD20C,0.06600*%
%ADD21R,0.04724X0.02165*%
%ADD22R,0.03900X0.01200*%
%ADD23R,0.02165X0.04724*%
%ADD24R,0.06693X0.02756*%
%ADD25OC8,0.06000*%
%ADD26C,0.05543*%
%ADD27R,0.04724X0.04724*%
%ADD28R,0.02480X0.03268*%
%ADD29OC8,0.05200*%
%ADD30C,0.07400*%
%ADD31R,0.06299X0.11811*%
%ADD32R,0.19000X0.22500*%
%ADD33R,0.03937X0.05512*%
%ADD34R,0.03150X0.03543*%
%ADD35R,0.03150X0.03150*%
%ADD36R,0.06693X0.07087*%
%ADD37C,0.00800*%
%ADD38C,0.03543*%
%ADD39C,0.05000*%
%ADD40C,0.02781*%
%ADD41C,0.00600*%
%ADD42C,0.01200*%
%ADD43C,0.02400*%
%ADD44C,0.05000*%
D10*
X0081600Y0081060D03*
X0091000Y0081260D03*
X0091000Y0088740D03*
X0081600Y0088540D03*
X0046000Y0097260D03*
X0046000Y0104740D03*
D11*
X0054200Y0104346D03*
X0054200Y0097654D03*
X0037800Y0089346D03*
X0046000Y0084346D03*
X0037800Y0082654D03*
X0046000Y0077654D03*
X0101454Y0067800D03*
X0108146Y0067800D03*
X0114800Y0040346D03*
X0114800Y0033654D03*
X0114600Y0028746D03*
X0114600Y0022054D03*
X0101000Y0015946D03*
X0101000Y0009254D03*
X0074200Y0016054D03*
X0074200Y0022746D03*
X0073746Y0035200D03*
X0067054Y0035200D03*
X0053000Y0030546D03*
X0053000Y0023854D03*
D12*
X0226400Y0103888D03*
X0226400Y0114912D03*
D13*
X0076000Y0113000D02*
X0076000Y0119000D01*
X0066000Y0119000D02*
X0066000Y0113000D01*
X0056000Y0113000D02*
X0056000Y0119000D01*
X0046000Y0119000D02*
X0046000Y0113000D01*
D14*
X0116000Y0074780D03*
X0126000Y0074780D03*
X0126000Y0047220D03*
X0116000Y0047220D03*
D15*
X0122713Y0036000D03*
X0122713Y0026000D03*
X0122713Y0016000D03*
X0159287Y0016000D03*
X0159287Y0026000D03*
X0159287Y0036000D03*
D16*
X0115346Y0014400D03*
X0108654Y0014400D03*
X0073746Y0027600D03*
X0067054Y0027600D03*
X0067054Y0042800D03*
X0073746Y0042800D03*
X0054346Y0066000D03*
X0047654Y0066000D03*
X0039346Y0066000D03*
X0032654Y0066000D03*
X0029346Y0076000D03*
X0022654Y0076000D03*
X0022654Y0084200D03*
X0029346Y0084200D03*
X0027654Y0096000D03*
X0034346Y0096000D03*
X0019346Y0096000D03*
X0012654Y0096000D03*
X0052654Y0081000D03*
X0059346Y0081000D03*
X0067654Y0081000D03*
X0074346Y0081000D03*
X0069346Y0101000D03*
X0062654Y0101000D03*
X0082654Y0106000D03*
X0089346Y0106000D03*
X0089346Y0116000D03*
X0082654Y0116000D03*
X0024346Y0121000D03*
X0017654Y0121000D03*
X0117654Y0081000D03*
X0124346Y0081000D03*
D17*
X0156200Y0065798D03*
X0166000Y0060402D03*
X0176000Y0060402D03*
X0156200Y0054602D03*
X0166000Y0071598D03*
X0176000Y0071598D03*
X0176000Y0085402D03*
X0166200Y0085602D03*
X0166200Y0096798D03*
X0176000Y0096598D03*
X0226600Y0094198D03*
X0226600Y0083002D03*
D18*
X0179598Y0015400D03*
X0168402Y0015400D03*
D19*
X0086000Y0052500D03*
X0086000Y0056000D03*
X0086000Y0059500D03*
D20*
X0196000Y0092700D02*
X0196000Y0099300D01*
X0206000Y0099300D02*
X0206000Y0092700D01*
X0216000Y0092700D02*
X0216000Y0099300D01*
D21*
X0071119Y0094740D03*
X0060881Y0094740D03*
X0060881Y0091000D03*
X0060881Y0087260D03*
X0071119Y0087260D03*
D22*
X0084513Y0042516D03*
X0084513Y0039957D03*
X0084513Y0037398D03*
X0084513Y0034839D03*
X0084513Y0032280D03*
X0084513Y0029720D03*
X0084513Y0027161D03*
X0084513Y0024602D03*
X0084513Y0022043D03*
X0084513Y0019484D03*
X0107487Y0019484D03*
X0107487Y0022043D03*
X0107487Y0024602D03*
X0107487Y0027161D03*
X0107487Y0029720D03*
X0107487Y0032280D03*
X0107487Y0034839D03*
X0107487Y0037398D03*
X0107487Y0039957D03*
X0107487Y0042516D03*
D23*
X0108540Y0075881D03*
X0101060Y0075881D03*
X0101060Y0086119D03*
X0104800Y0086119D03*
X0108540Y0086119D03*
D24*
X0076000Y0060724D03*
X0076000Y0056000D03*
X0076000Y0051276D03*
D25*
X0080800Y0071000D03*
X0071000Y0071000D03*
X0090600Y0071000D03*
X0141500Y0111000D03*
X0200500Y0111000D03*
X0241000Y0116000D03*
X0241000Y0096000D03*
X0241000Y0076000D03*
X0241000Y0056000D03*
X0093800Y0012200D03*
X0083800Y0012200D03*
X0058800Y0012200D03*
X0048800Y0012200D03*
X0016000Y0021000D03*
X0016000Y0051000D03*
X0016000Y0076000D03*
X0016000Y0086000D03*
D26*
X0077000Y0096000D03*
X0105000Y0096000D03*
D27*
X0098992Y0105882D03*
X0098992Y0116118D03*
X0123008Y0116118D03*
X0123008Y0105882D03*
X0133992Y0086118D03*
X0133992Y0075882D03*
X0158008Y0075882D03*
X0158008Y0086118D03*
D28*
X0125528Y0091000D03*
X0116472Y0091000D03*
D29*
X0026000Y0106000D03*
X0016000Y0106000D03*
X0021000Y0113500D03*
D30*
X0036000Y0106000D03*
X0036000Y0076000D03*
D31*
X0027024Y0056906D03*
X0044976Y0056906D03*
D32*
X0036000Y0029748D03*
D33*
X0052260Y0036669D03*
X0059740Y0036669D03*
X0056000Y0045331D03*
D34*
X0052260Y0052063D03*
X0059740Y0052063D03*
X0056000Y0060331D03*
D35*
X0068200Y0016153D03*
X0068200Y0010247D03*
X0106647Y0009000D03*
X0112553Y0009000D03*
X0119647Y0009000D03*
X0125553Y0009000D03*
D36*
X0016000Y0027729D03*
X0016000Y0043871D03*
D37*
X0006000Y0006000D02*
X0006000Y0136000D01*
X0101000Y0136000D01*
X0111000Y0126000D01*
X0111000Y0086000D01*
X0110823Y0085823D01*
X0110823Y0088978D01*
X0110120Y0089681D01*
X0106960Y0089681D01*
X0106811Y0089532D01*
X0106742Y0089601D01*
X0106423Y0089785D01*
X0106067Y0089881D01*
X0104941Y0089881D01*
X0104941Y0086260D01*
X0104659Y0086260D01*
X0104659Y0089881D01*
X0103533Y0089881D01*
X0103177Y0089785D01*
X0102858Y0089601D01*
X0102788Y0089532D01*
X0102640Y0089681D01*
X0099480Y0089681D01*
X0098777Y0088978D01*
X0098777Y0088086D01*
X0098063Y0088800D01*
X0096523Y0090340D01*
X0095153Y0090340D01*
X0095153Y0091796D01*
X0094450Y0092499D01*
X0092600Y0092499D01*
X0092600Y0094000D01*
X0093263Y0094000D01*
X0094200Y0094937D01*
X0096000Y0096737D01*
X0096000Y0102267D01*
X0096090Y0102215D01*
X0096446Y0102120D01*
X0098592Y0102120D01*
X0098592Y0105482D01*
X0099392Y0105482D01*
X0099392Y0102120D01*
X0101539Y0102120D01*
X0101895Y0102215D01*
X0102214Y0102399D01*
X0102475Y0102660D01*
X0102659Y0102979D01*
X0102754Y0103335D01*
X0102754Y0105482D01*
X0099392Y0105482D01*
X0099392Y0106282D01*
X0098592Y0106282D01*
X0098592Y0109644D01*
X0096446Y0109644D01*
X0096090Y0109549D01*
X0096000Y0109497D01*
X0096000Y0112689D01*
X0096133Y0112556D01*
X0101851Y0112556D01*
X0102554Y0113259D01*
X0102554Y0118977D01*
X0101851Y0119680D01*
X0100792Y0119680D01*
X0100792Y0123820D01*
X0100896Y0123863D01*
X0101937Y0124904D01*
X0102500Y0126264D01*
X0102500Y0127736D01*
X0101937Y0129096D01*
X0100896Y0130137D01*
X0099536Y0130700D01*
X0098064Y0130700D01*
X0096704Y0130137D01*
X0095663Y0129096D01*
X0095100Y0127736D01*
X0095100Y0126264D01*
X0095663Y0124904D01*
X0096704Y0123863D01*
X0097192Y0123661D01*
X0097192Y0119680D01*
X0096133Y0119680D01*
X0095430Y0118977D01*
X0095430Y0117718D01*
X0094455Y0117718D01*
X0093737Y0117000D01*
X0092800Y0116063D01*
X0092800Y0098063D01*
X0091937Y0097200D01*
X0080802Y0097200D01*
X0080367Y0098250D01*
X0079250Y0099367D01*
X0079170Y0099400D01*
X0089063Y0099400D01*
X0090263Y0100600D01*
X0091200Y0101537D01*
X0091200Y0102635D01*
X0091812Y0102635D01*
X0092515Y0103338D01*
X0092515Y0108662D01*
X0091812Y0109365D01*
X0090946Y0109365D01*
X0090946Y0112635D01*
X0091812Y0112635D01*
X0092515Y0113338D01*
X0092515Y0118662D01*
X0091812Y0119365D01*
X0086881Y0119365D01*
X0086178Y0118662D01*
X0086178Y0113338D01*
X0086881Y0112635D01*
X0087746Y0112635D01*
X0087746Y0109365D01*
X0086881Y0109365D01*
X0086178Y0108662D01*
X0086178Y0103338D01*
X0086881Y0102635D01*
X0087772Y0102635D01*
X0087737Y0102600D01*
X0072515Y0102600D01*
X0072515Y0103662D01*
X0071812Y0104365D01*
X0068244Y0104365D01*
X0067209Y0105400D01*
X0073209Y0105400D01*
X0073209Y0105285D01*
X0073604Y0104333D01*
X0074333Y0103604D01*
X0075285Y0103209D01*
X0072515Y0103209D01*
X0072169Y0104008D02*
X0073928Y0104008D01*
X0073408Y0104806D02*
X0067803Y0104806D01*
X0065822Y0102262D02*
X0066178Y0101906D01*
X0066178Y0098338D01*
X0066881Y0097635D01*
X0069519Y0097635D01*
X0069519Y0097023D01*
X0068259Y0097023D01*
X0067556Y0096320D01*
X0067556Y0093160D01*
X0068259Y0092457D01*
X0069670Y0092457D01*
X0069228Y0091391D01*
X0069228Y0090209D01*
X0069504Y0089543D01*
X0068259Y0089543D01*
X0067556Y0088840D01*
X0067556Y0085680D01*
X0068259Y0084977D01*
X0069519Y0084977D01*
X0069519Y0084365D01*
X0065188Y0084365D01*
X0064485Y0083662D01*
X0064485Y0082600D01*
X0062515Y0082600D01*
X0062515Y0083662D01*
X0062481Y0083696D01*
X0062481Y0084977D01*
X0063741Y0084977D01*
X0064444Y0085680D01*
X0064444Y0088840D01*
X0064295Y0088988D01*
X0064364Y0089058D01*
X0064548Y0089377D01*
X0064644Y0089733D01*
X0064644Y0090859D01*
X0061023Y0090859D01*
X0061023Y0091141D01*
X0064644Y0091141D01*
X0064644Y0092267D01*
X0064548Y0092623D01*
X0064364Y0092942D01*
X0064295Y0093011D01*
X0064444Y0093160D01*
X0064444Y0096320D01*
X0063741Y0097023D01*
X0062481Y0097023D01*
X0062481Y0097635D01*
X0065119Y0097635D01*
X0065822Y0098338D01*
X0065822Y0102262D01*
X0065822Y0101612D02*
X0066178Y0101612D01*
X0066178Y0100814D02*
X0065822Y0100814D01*
X0065822Y0100015D02*
X0066178Y0100015D01*
X0066178Y0099217D02*
X0065822Y0099217D01*
X0065822Y0098418D02*
X0066178Y0098418D01*
X0068058Y0096821D02*
X0063942Y0096821D01*
X0064444Y0096023D02*
X0067556Y0096023D01*
X0067556Y0095224D02*
X0064444Y0095224D01*
X0064444Y0094426D02*
X0067556Y0094426D01*
X0067556Y0093627D02*
X0064444Y0093627D01*
X0064429Y0092829D02*
X0067888Y0092829D01*
X0069493Y0092030D02*
X0064644Y0092030D01*
X0064644Y0091232D02*
X0069228Y0091232D01*
X0069228Y0090433D02*
X0064644Y0090433D01*
X0064617Y0089635D02*
X0069466Y0089635D01*
X0071119Y0089719D02*
X0072200Y0090800D01*
X0071119Y0089719D02*
X0071119Y0087260D01*
X0071119Y0084228D01*
X0074346Y0081000D01*
X0077200Y0085000D02*
X0080200Y0085000D01*
X0081400Y0083800D01*
X0081400Y0081260D01*
X0081600Y0081060D01*
X0081800Y0080860D01*
X0081800Y0077000D01*
X0063200Y0077000D01*
X0059740Y0073540D01*
X0059740Y0065000D01*
X0078800Y0065000D01*
X0084300Y0059500D01*
X0086000Y0059500D01*
X0083000Y0063800D02*
X0089000Y0063800D01*
X0092600Y0060200D01*
X0092600Y0045200D01*
X0097843Y0039957D01*
X0107487Y0039957D01*
X0107487Y0042516D02*
X0098884Y0042516D01*
X0095000Y0046400D01*
X0095000Y0061400D01*
X0090800Y0065600D01*
X0090800Y0070800D01*
X0090600Y0071000D01*
X0087325Y0073665D02*
X0084075Y0073665D01*
X0083277Y0074463D02*
X0088123Y0074463D01*
X0088860Y0075200D02*
X0086400Y0072740D01*
X0086400Y0069260D01*
X0088860Y0066800D01*
X0089200Y0066800D01*
X0089200Y0065400D01*
X0083663Y0065400D01*
X0082400Y0066663D01*
X0082400Y0066800D01*
X0082540Y0066800D01*
X0085000Y0069260D01*
X0085000Y0072740D01*
X0082540Y0075200D01*
X0079060Y0075200D01*
X0076600Y0072740D01*
X0076600Y0069260D01*
X0079060Y0066800D01*
X0079200Y0066800D01*
X0079200Y0066600D01*
X0061340Y0066600D01*
X0061340Y0072877D01*
X0063863Y0075400D01*
X0096863Y0075400D01*
X0097800Y0076337D01*
X0098777Y0077314D01*
X0098777Y0073022D01*
X0099460Y0072340D01*
X0099460Y0070968D01*
X0098791Y0070968D01*
X0098088Y0070266D01*
X0098088Y0065334D01*
X0098791Y0064631D01*
X0104116Y0064631D01*
X0104713Y0065228D01*
X0104861Y0064972D01*
X0105121Y0064711D01*
X0105441Y0064527D01*
X0105797Y0064431D01*
X0107746Y0064431D01*
X0107746Y0067400D01*
X0108546Y0067400D01*
X0108546Y0064431D01*
X0110496Y0064431D01*
X0110852Y0064527D01*
X0111171Y0064711D01*
X0111432Y0064972D01*
X0111616Y0065291D01*
X0111636Y0065364D01*
X0121000Y0056000D01*
X0136000Y0056000D01*
X0136000Y0006000D01*
X0006000Y0006000D01*
X0006000Y0006590D02*
X0097833Y0006590D01*
X0097635Y0006788D02*
X0098338Y0006085D01*
X0103662Y0006085D01*
X0104189Y0006612D01*
X0104575Y0006225D01*
X0108719Y0006225D01*
X0109422Y0006928D01*
X0109422Y0011035D01*
X0109652Y0011035D01*
X0109578Y0010759D01*
X0109578Y0009387D01*
X0112165Y0009387D01*
X0112165Y0008613D01*
X0109578Y0008613D01*
X0109578Y0007241D01*
X0109673Y0006885D01*
X0109858Y0006566D01*
X0110118Y0006305D01*
X0110438Y0006121D01*
X0110794Y0006025D01*
X0112165Y0006025D01*
X0112165Y0008613D01*
X0112940Y0008613D01*
X0112940Y0006025D01*
X0114312Y0006025D01*
X0114668Y0006121D01*
X0114987Y0006305D01*
X0115248Y0006566D01*
X0115432Y0006885D01*
X0115528Y0007241D01*
X0115528Y0007810D01*
X0115800Y0007537D01*
X0116737Y0006600D01*
X0117201Y0006600D01*
X0117575Y0006225D01*
X0121719Y0006225D01*
X0122422Y0006928D01*
X0122422Y0011072D01*
X0122198Y0011296D01*
X0122778Y0011296D01*
X0122673Y0011115D01*
X0122578Y0010759D01*
X0122578Y0009387D01*
X0125165Y0009387D01*
X0125165Y0008613D01*
X0122578Y0008613D01*
X0122578Y0007241D01*
X0122673Y0006885D01*
X0122858Y0006566D01*
X0123118Y0006305D01*
X0123438Y0006121D01*
X0123794Y0006025D01*
X0125165Y0006025D01*
X0125165Y0008613D01*
X0125940Y0008613D01*
X0125940Y0009387D01*
X0128528Y0009387D01*
X0128528Y0010759D01*
X0128432Y0011115D01*
X0128248Y0011434D01*
X0127987Y0011695D01*
X0127668Y0011879D01*
X0127312Y0011975D01*
X0126880Y0011975D01*
X0126905Y0011999D01*
X0126905Y0020001D01*
X0126202Y0020704D01*
X0120000Y0020704D01*
X0120000Y0021025D01*
X0120271Y0021296D01*
X0126202Y0021296D01*
X0126905Y0021999D01*
X0126905Y0029200D01*
X0127463Y0029200D01*
X0128063Y0029800D01*
X0129000Y0030737D01*
X0129000Y0042263D01*
X0128293Y0042969D01*
X0130001Y0042969D01*
X0130704Y0043672D01*
X0130704Y0050769D01*
X0130001Y0051472D01*
X0121999Y0051472D01*
X0121296Y0050769D01*
X0121296Y0043672D01*
X0121999Y0042969D01*
X0124600Y0042969D01*
X0124600Y0042137D01*
X0125537Y0041200D01*
X0125800Y0040937D01*
X0125800Y0040704D01*
X0124313Y0040704D01*
X0124313Y0040950D01*
X0123600Y0041663D01*
X0122663Y0042600D01*
X0118165Y0042600D01*
X0118165Y0042769D01*
X0119688Y0042769D01*
X0120044Y0042865D01*
X0120364Y0043049D01*
X0120624Y0043310D01*
X0120809Y0043629D01*
X0120904Y0043985D01*
X0120904Y0046820D01*
X0116400Y0046820D01*
X0116400Y0047620D01*
X0120904Y0047620D01*
X0120904Y0050456D01*
X0120809Y0050812D01*
X0120624Y0051131D01*
X0120364Y0051392D01*
X0120044Y0051576D01*
X0119688Y0051672D01*
X0116400Y0051672D01*
X0116400Y0047621D01*
X0115600Y0047621D01*
X0115600Y0051672D01*
X0112312Y0051672D01*
X0111956Y0051576D01*
X0111636Y0051392D01*
X0111376Y0051131D01*
X0111191Y0050812D01*
X0111096Y0050456D01*
X0111096Y0047620D01*
X0115600Y0047620D01*
X0115600Y0046820D01*
X0111096Y0046820D01*
X0111096Y0043985D01*
X0111191Y0043629D01*
X0111376Y0043310D01*
X0111636Y0043049D01*
X0111659Y0043036D01*
X0111435Y0042812D01*
X0111435Y0037881D01*
X0112138Y0037178D01*
X0117462Y0037178D01*
X0118165Y0037881D01*
X0118165Y0039400D01*
X0118520Y0039400D01*
X0118520Y0032400D01*
X0118165Y0032400D01*
X0118165Y0036119D01*
X0117462Y0036822D01*
X0112138Y0036822D01*
X0111435Y0036119D01*
X0111435Y0033880D01*
X0110637Y0033880D01*
X0110637Y0035936D01*
X0110455Y0036118D01*
X0110637Y0036301D01*
X0110637Y0038495D01*
X0110455Y0038677D01*
X0110637Y0038860D01*
X0110637Y0041054D01*
X0110455Y0041236D01*
X0110637Y0041419D01*
X0110637Y0043613D01*
X0109934Y0044316D01*
X0105040Y0044316D01*
X0104840Y0044116D01*
X0099547Y0044116D01*
X0096600Y0047063D01*
X0096600Y0062063D01*
X0092400Y0066263D01*
X0092400Y0066860D01*
X0094800Y0069260D01*
X0094800Y0072740D01*
X0092340Y0075200D01*
X0088860Y0075200D01*
X0086526Y0072866D02*
X0084874Y0072866D01*
X0085000Y0072068D02*
X0086400Y0072068D01*
X0086400Y0071269D02*
X0085000Y0071269D01*
X0085000Y0070470D02*
X0086400Y0070470D01*
X0086400Y0069672D02*
X0085000Y0069672D01*
X0084613Y0068873D02*
X0086787Y0068873D01*
X0087585Y0068075D02*
X0083815Y0068075D01*
X0083016Y0067276D02*
X0088384Y0067276D01*
X0089200Y0066478D02*
X0082585Y0066478D01*
X0083383Y0065679D02*
X0089200Y0065679D01*
X0092400Y0066478D02*
X0098088Y0066478D01*
X0098088Y0067276D02*
X0092816Y0067276D01*
X0093615Y0068075D02*
X0098088Y0068075D01*
X0098088Y0068873D02*
X0094413Y0068873D01*
X0094800Y0069672D02*
X0098088Y0069672D01*
X0098293Y0070470D02*
X0094800Y0070470D01*
X0094800Y0071269D02*
X0099460Y0071269D01*
X0099460Y0072068D02*
X0094800Y0072068D01*
X0094674Y0072866D02*
X0098933Y0072866D01*
X0098777Y0073665D02*
X0093875Y0073665D01*
X0093077Y0074463D02*
X0098777Y0074463D01*
X0098777Y0075262D02*
X0072961Y0075262D01*
X0072823Y0075400D02*
X0071400Y0075400D01*
X0071400Y0071400D01*
X0075400Y0071400D01*
X0075400Y0072823D01*
X0072823Y0075400D01*
X0073759Y0074463D02*
X0078323Y0074463D01*
X0077525Y0073665D02*
X0074558Y0073665D01*
X0075356Y0072866D02*
X0076726Y0072866D01*
X0076600Y0072068D02*
X0075400Y0072068D01*
X0076600Y0071269D02*
X0071400Y0071269D01*
X0071400Y0071400D02*
X0071400Y0070600D01*
X0075400Y0070600D01*
X0075400Y0069177D01*
X0072823Y0066600D01*
X0071400Y0066600D01*
X0071400Y0070600D01*
X0070600Y0070600D01*
X0070600Y0066600D01*
X0069177Y0066600D01*
X0066600Y0069177D01*
X0066600Y0070600D01*
X0070600Y0070600D01*
X0070600Y0071400D01*
X0070600Y0075400D01*
X0069177Y0075400D01*
X0066600Y0072823D01*
X0066600Y0071400D01*
X0070600Y0071400D01*
X0071400Y0071400D01*
X0071400Y0072068D02*
X0070600Y0072068D01*
X0070600Y0072866D02*
X0071400Y0072866D01*
X0071400Y0073665D02*
X0070600Y0073665D01*
X0070600Y0074463D02*
X0071400Y0074463D01*
X0071400Y0075262D02*
X0070600Y0075262D01*
X0069039Y0075262D02*
X0063724Y0075262D01*
X0062926Y0074463D02*
X0068241Y0074463D01*
X0067442Y0073665D02*
X0062127Y0073665D01*
X0061340Y0072866D02*
X0066643Y0072866D01*
X0066600Y0072068D02*
X0061340Y0072068D01*
X0061340Y0071269D02*
X0070600Y0071269D01*
X0070600Y0070470D02*
X0071400Y0070470D01*
X0071400Y0069672D02*
X0070600Y0069672D01*
X0070600Y0068873D02*
X0071400Y0068873D01*
X0071400Y0068075D02*
X0070600Y0068075D01*
X0070600Y0067276D02*
X0071400Y0067276D01*
X0073499Y0067276D02*
X0078584Y0067276D01*
X0077785Y0068075D02*
X0074297Y0068075D01*
X0075096Y0068873D02*
X0076987Y0068873D01*
X0076600Y0069672D02*
X0075400Y0069672D01*
X0075400Y0070470D02*
X0076600Y0070470D01*
X0080800Y0071000D02*
X0080800Y0066000D01*
X0083000Y0063800D01*
X0078235Y0063302D02*
X0072156Y0063302D01*
X0071454Y0062599D01*
X0071454Y0058849D01*
X0071801Y0058502D01*
X0071794Y0058498D01*
X0071533Y0058238D01*
X0071349Y0057918D01*
X0071254Y0057562D01*
X0071254Y0056289D01*
X0075711Y0056289D01*
X0075711Y0055711D01*
X0071254Y0055711D01*
X0071254Y0054438D01*
X0071349Y0054082D01*
X0071533Y0053762D01*
X0071794Y0053502D01*
X0071801Y0053498D01*
X0071454Y0053151D01*
X0071454Y0049401D01*
X0072156Y0048698D01*
X0074300Y0048698D01*
X0074300Y0047579D01*
X0075179Y0046700D01*
X0075713Y0046165D01*
X0071281Y0046165D01*
X0070578Y0045462D01*
X0070578Y0040138D01*
X0071281Y0039435D01*
X0072246Y0039435D01*
X0072246Y0038368D01*
X0071084Y0038368D01*
X0070487Y0037772D01*
X0070339Y0038028D01*
X0070079Y0038289D01*
X0069759Y0038473D01*
X0069403Y0038568D01*
X0067454Y0038568D01*
X0067454Y0035600D01*
X0066654Y0035600D01*
X0066654Y0038568D01*
X0064704Y0038568D01*
X0064348Y0038473D01*
X0064029Y0038289D01*
X0063768Y0038028D01*
X0063584Y0037709D01*
X0063488Y0037353D01*
X0063488Y0035600D01*
X0066653Y0035600D01*
X0066653Y0034800D01*
X0063488Y0034800D01*
X0063488Y0033047D01*
X0063584Y0032691D01*
X0063768Y0032372D01*
X0064029Y0032111D01*
X0064348Y0031927D01*
X0064704Y0031831D01*
X0066654Y0031831D01*
X0066654Y0034800D01*
X0067454Y0034800D01*
X0067454Y0031831D01*
X0069403Y0031831D01*
X0069759Y0031927D01*
X0070079Y0032111D01*
X0070339Y0032372D01*
X0070487Y0032628D01*
X0071084Y0032031D01*
X0076409Y0032031D01*
X0077112Y0032734D01*
X0077112Y0033967D01*
X0077738Y0033341D01*
X0077081Y0032683D01*
X0076628Y0031591D01*
X0076628Y0030549D01*
X0076212Y0030965D01*
X0071281Y0030965D01*
X0070578Y0030262D01*
X0070578Y0024938D01*
X0070835Y0024681D01*
X0070835Y0021084D01*
X0061978Y0021084D01*
X0057609Y0025454D01*
X0056365Y0025454D01*
X0056365Y0026319D01*
X0055662Y0027022D01*
X0050338Y0027022D01*
X0049635Y0026319D01*
X0049635Y0021388D01*
X0050338Y0020685D01*
X0055662Y0020685D01*
X0056365Y0021388D01*
X0056365Y0022172D01*
X0060653Y0017884D01*
X0065425Y0017884D01*
X0065425Y0014081D01*
X0066128Y0013378D01*
X0070272Y0013378D01*
X0070835Y0013941D01*
X0070835Y0013588D01*
X0071538Y0012885D01*
X0076862Y0012885D01*
X0077565Y0013588D01*
X0077565Y0017884D01*
X0081866Y0017884D01*
X0082066Y0017684D01*
X0086960Y0017684D01*
X0087663Y0018387D01*
X0087663Y0020581D01*
X0087480Y0020764D01*
X0087663Y0020946D01*
X0087663Y0023140D01*
X0087480Y0023323D01*
X0087663Y0023505D01*
X0087663Y0025561D01*
X0088176Y0025561D01*
X0088800Y0024937D01*
X0088800Y0019463D01*
X0085638Y0016301D01*
X0085540Y0016400D01*
X0082060Y0016400D01*
X0079600Y0013940D01*
X0079600Y0010460D01*
X0082060Y0008000D01*
X0085540Y0008000D01*
X0088000Y0010460D01*
X0088000Y0013940D01*
X0087901Y0014038D01*
X0092000Y0018137D01*
X0092000Y0026263D01*
X0091063Y0027200D01*
X0090142Y0028120D01*
X0090417Y0028120D01*
X0092400Y0026137D01*
X0092400Y0016400D01*
X0092060Y0016400D01*
X0089600Y0013940D01*
X0089600Y0010460D01*
X0092060Y0008000D01*
X0095540Y0008000D01*
X0097635Y0010095D01*
X0097635Y0006788D01*
X0097635Y0007388D02*
X0070350Y0007388D01*
X0070315Y0007368D02*
X0070634Y0007552D01*
X0070895Y0007813D01*
X0071079Y0008132D01*
X0071175Y0008488D01*
X0071175Y0009860D01*
X0068587Y0009860D01*
X0068587Y0007272D01*
X0069959Y0007272D01*
X0070315Y0007368D01*
X0071094Y0008187D02*
X0081874Y0008187D01*
X0081075Y0008985D02*
X0071175Y0008985D01*
X0071175Y0009784D02*
X0080277Y0009784D01*
X0079600Y0010582D02*
X0068587Y0010582D01*
X0068587Y0010635D02*
X0071175Y0010635D01*
X0071175Y0012006D01*
X0071079Y0012362D01*
X0070895Y0012682D01*
X0070634Y0012942D01*
X0070315Y0013127D01*
X0069959Y0013222D01*
X0068587Y0013222D01*
X0068587Y0010635D01*
X0067813Y0010635D01*
X0067813Y0013222D01*
X0066441Y0013222D01*
X0066085Y0013127D01*
X0065766Y0012942D01*
X0065505Y0012682D01*
X0065321Y0012362D01*
X0065225Y0012006D01*
X0065225Y0010635D01*
X0067813Y0010635D01*
X0067813Y0009860D01*
X0068587Y0009860D01*
X0068587Y0010635D01*
X0068200Y0010247D02*
X0072753Y0010247D01*
X0073000Y0010000D01*
X0073600Y0010600D01*
X0074800Y0010600D01*
X0076955Y0012978D02*
X0079600Y0012978D01*
X0079600Y0013776D02*
X0077565Y0013776D01*
X0077565Y0014575D02*
X0080235Y0014575D01*
X0081034Y0015373D02*
X0077565Y0015373D01*
X0077565Y0016172D02*
X0081832Y0016172D01*
X0081981Y0017769D02*
X0077565Y0017769D01*
X0077565Y0016970D02*
X0086308Y0016970D01*
X0087044Y0017769D02*
X0087106Y0017769D01*
X0087663Y0018567D02*
X0087905Y0018567D01*
X0087663Y0019366D02*
X0088703Y0019366D01*
X0088800Y0020164D02*
X0087663Y0020164D01*
X0087663Y0020963D02*
X0088800Y0020963D01*
X0088800Y0021761D02*
X0087663Y0021761D01*
X0087663Y0022560D02*
X0088800Y0022560D01*
X0088800Y0023358D02*
X0087516Y0023358D01*
X0087663Y0024157D02*
X0088800Y0024157D01*
X0088782Y0024955D02*
X0087663Y0024955D01*
X0088839Y0027161D02*
X0090400Y0025600D01*
X0090400Y0018800D01*
X0083800Y0012200D01*
X0079600Y0012179D02*
X0071128Y0012179D01*
X0071175Y0011381D02*
X0079600Y0011381D01*
X0086525Y0008985D02*
X0091075Y0008985D01*
X0090277Y0009784D02*
X0087323Y0009784D01*
X0088000Y0010582D02*
X0089600Y0010582D01*
X0089600Y0011381D02*
X0088000Y0011381D01*
X0088000Y0012179D02*
X0089600Y0012179D01*
X0089600Y0012978D02*
X0088000Y0012978D01*
X0088000Y0013776D02*
X0089600Y0013776D01*
X0090235Y0014575D02*
X0088437Y0014575D01*
X0089236Y0015373D02*
X0091034Y0015373D01*
X0091832Y0016172D02*
X0090034Y0016172D01*
X0090833Y0016970D02*
X0092400Y0016970D01*
X0092400Y0017769D02*
X0091631Y0017769D01*
X0092000Y0018567D02*
X0092400Y0018567D01*
X0092400Y0019366D02*
X0092000Y0019366D01*
X0092000Y0020164D02*
X0092400Y0020164D01*
X0092400Y0020963D02*
X0092000Y0020963D01*
X0092000Y0021761D02*
X0092400Y0021761D01*
X0092400Y0022560D02*
X0092000Y0022560D01*
X0092000Y0023358D02*
X0092400Y0023358D01*
X0092400Y0024157D02*
X0092000Y0024157D01*
X0092000Y0024955D02*
X0092400Y0024955D01*
X0092400Y0025754D02*
X0092000Y0025754D01*
X0091985Y0026552D02*
X0091710Y0026552D01*
X0091186Y0027351D02*
X0090912Y0027351D01*
X0088839Y0027161D02*
X0084513Y0027161D01*
X0084513Y0029720D02*
X0091080Y0029720D01*
X0094000Y0026800D01*
X0094000Y0012400D01*
X0093800Y0012200D01*
X0096566Y0015373D02*
X0097635Y0015373D01*
X0097635Y0014575D02*
X0097365Y0014575D01*
X0097635Y0014305D02*
X0095600Y0016340D01*
X0095600Y0027463D01*
X0094663Y0028400D01*
X0092383Y0030680D01*
X0104184Y0030680D01*
X0104137Y0030505D01*
X0104137Y0029721D01*
X0107487Y0029721D01*
X0107487Y0029720D01*
X0104137Y0029720D01*
X0104137Y0028936D01*
X0104233Y0028580D01*
X0104389Y0028310D01*
X0104337Y0028258D01*
X0104337Y0026202D01*
X0101940Y0026202D01*
X0100537Y0024800D01*
X0099600Y0023863D01*
X0099600Y0019115D01*
X0098338Y0019115D01*
X0097635Y0018412D01*
X0097635Y0014305D01*
X0097635Y0016172D02*
X0095768Y0016172D01*
X0095600Y0016970D02*
X0097635Y0016970D01*
X0097635Y0017769D02*
X0095600Y0017769D01*
X0095600Y0018567D02*
X0097790Y0018567D01*
X0099600Y0019366D02*
X0095600Y0019366D01*
X0095600Y0020164D02*
X0099600Y0020164D01*
X0099600Y0020963D02*
X0095600Y0020963D01*
X0095600Y0021761D02*
X0099600Y0021761D01*
X0099600Y0022560D02*
X0095600Y0022560D01*
X0095600Y0023358D02*
X0099600Y0023358D01*
X0099894Y0024157D02*
X0095600Y0024157D01*
X0095600Y0024955D02*
X0100693Y0024955D01*
X0101491Y0025754D02*
X0095600Y0025754D01*
X0095600Y0026552D02*
X0104337Y0026552D01*
X0104337Y0027351D02*
X0095600Y0027351D01*
X0094913Y0028149D02*
X0104337Y0028149D01*
X0104137Y0028948D02*
X0094115Y0028948D01*
X0093316Y0029746D02*
X0104137Y0029746D01*
X0104148Y0030545D02*
X0092518Y0030545D01*
X0090961Y0034839D02*
X0090800Y0035000D01*
X0090961Y0034839D02*
X0107487Y0034839D01*
X0110637Y0034537D02*
X0111435Y0034537D01*
X0111435Y0035336D02*
X0110637Y0035336D01*
X0110471Y0036134D02*
X0111450Y0036134D01*
X0110637Y0036933D02*
X0118520Y0036933D01*
X0118520Y0036134D02*
X0118150Y0036134D01*
X0118165Y0035336D02*
X0118520Y0035336D01*
X0118520Y0034537D02*
X0118165Y0034537D01*
X0118165Y0033739D02*
X0118520Y0033739D01*
X0118520Y0032940D02*
X0118165Y0032940D01*
X0118400Y0030800D02*
X0126800Y0030800D01*
X0127400Y0031400D01*
X0127400Y0041600D01*
X0126200Y0042800D01*
X0126200Y0047020D01*
X0126000Y0047220D01*
X0130704Y0047314D02*
X0136000Y0047314D01*
X0136000Y0048112D02*
X0130704Y0048112D01*
X0130704Y0048911D02*
X0136000Y0048911D01*
X0136000Y0049709D02*
X0130704Y0049709D01*
X0130704Y0050508D02*
X0136000Y0050508D01*
X0136000Y0051306D02*
X0130166Y0051306D01*
X0136000Y0052105D02*
X0096600Y0052105D01*
X0096600Y0052903D02*
X0136000Y0052903D01*
X0136000Y0053702D02*
X0096600Y0053702D01*
X0096600Y0054500D02*
X0136000Y0054500D01*
X0136000Y0055299D02*
X0096600Y0055299D01*
X0096600Y0056097D02*
X0120903Y0056097D01*
X0120104Y0056896D02*
X0096600Y0056896D01*
X0096600Y0057694D02*
X0119306Y0057694D01*
X0118507Y0058493D02*
X0096600Y0058493D01*
X0096600Y0059291D02*
X0117709Y0059291D01*
X0116910Y0060090D02*
X0096600Y0060090D01*
X0096600Y0060888D02*
X0116112Y0060888D01*
X0115313Y0061687D02*
X0096600Y0061687D01*
X0096177Y0062485D02*
X0114515Y0062485D01*
X0113716Y0063284D02*
X0095379Y0063284D01*
X0094580Y0064082D02*
X0112918Y0064082D01*
X0112119Y0064881D02*
X0111341Y0064881D01*
X0108546Y0064881D02*
X0107746Y0064881D01*
X0107746Y0065679D02*
X0108546Y0065679D01*
X0108546Y0066478D02*
X0107746Y0066478D01*
X0107746Y0067276D02*
X0108546Y0067276D01*
X0104952Y0064881D02*
X0104365Y0064881D01*
X0101454Y0067800D02*
X0101060Y0068194D01*
X0101060Y0075881D01*
X0098777Y0076060D02*
X0097523Y0076060D01*
X0098321Y0076859D02*
X0098777Y0076859D01*
X0098600Y0079400D02*
X0096200Y0077000D01*
X0081800Y0077000D01*
X0085753Y0078600D02*
X0085753Y0084116D01*
X0085156Y0084713D01*
X0085412Y0084861D01*
X0085673Y0085121D01*
X0085857Y0085441D01*
X0085953Y0085797D01*
X0085953Y0088140D01*
X0082000Y0088140D01*
X0082000Y0088940D01*
X0085953Y0088940D01*
X0085953Y0091284D01*
X0085857Y0091640D01*
X0085673Y0091959D01*
X0085412Y0092219D01*
X0085093Y0092404D01*
X0084737Y0092499D01*
X0082000Y0092499D01*
X0082000Y0088940D01*
X0081200Y0088940D01*
X0081200Y0088140D01*
X0077247Y0088140D01*
X0077247Y0087215D01*
X0077000Y0087463D01*
X0077000Y0092028D01*
X0077597Y0092028D01*
X0077527Y0091959D01*
X0077343Y0091640D01*
X0077247Y0091284D01*
X0077247Y0088940D01*
X0081200Y0088940D01*
X0081200Y0092499D01*
X0078927Y0092499D01*
X0079250Y0092633D01*
X0080367Y0093750D01*
X0080470Y0094000D01*
X0089400Y0094000D01*
X0089400Y0092499D01*
X0087550Y0092499D01*
X0086847Y0091796D01*
X0086847Y0085684D01*
X0087444Y0085087D01*
X0087188Y0084939D01*
X0086927Y0084679D01*
X0086743Y0084359D01*
X0086647Y0084003D01*
X0086647Y0081660D01*
X0090600Y0081660D01*
X0090600Y0084981D01*
X0091400Y0084981D01*
X0091400Y0081660D01*
X0090600Y0081660D01*
X0090600Y0080860D01*
X0086647Y0080860D01*
X0086647Y0078600D01*
X0085753Y0078600D01*
X0085753Y0079254D02*
X0086647Y0079254D01*
X0086647Y0080053D02*
X0085753Y0080053D01*
X0085753Y0080851D02*
X0086647Y0080851D01*
X0085753Y0081650D02*
X0090600Y0081650D01*
X0090600Y0080860D02*
X0090600Y0078600D01*
X0091400Y0078600D01*
X0091400Y0080860D01*
X0091400Y0081660D01*
X0095353Y0081660D01*
X0095353Y0084003D01*
X0095257Y0084359D01*
X0095073Y0084679D01*
X0094812Y0084939D01*
X0094556Y0085087D01*
X0095153Y0085684D01*
X0095153Y0087140D01*
X0095197Y0087140D01*
X0095800Y0086537D01*
X0095800Y0081737D01*
X0097000Y0080537D01*
X0097237Y0080300D01*
X0095537Y0078600D01*
X0095353Y0078600D01*
X0095353Y0080860D01*
X0091400Y0080860D01*
X0090600Y0080860D01*
X0090600Y0080851D02*
X0091400Y0080851D01*
X0091400Y0080053D02*
X0090600Y0080053D01*
X0090600Y0079254D02*
X0091400Y0079254D01*
X0091400Y0081650D02*
X0095888Y0081650D01*
X0095800Y0082448D02*
X0095353Y0082448D01*
X0095353Y0083247D02*
X0095800Y0083247D01*
X0095800Y0084045D02*
X0095341Y0084045D01*
X0094908Y0084844D02*
X0095800Y0084844D01*
X0095800Y0085642D02*
X0095111Y0085642D01*
X0095153Y0086441D02*
X0095800Y0086441D01*
X0097400Y0087200D02*
X0097400Y0082400D01*
X0098600Y0081200D01*
X0101000Y0081200D01*
X0101060Y0081260D01*
X0101060Y0086119D01*
X0104659Y0086441D02*
X0104941Y0086441D01*
X0104941Y0087239D02*
X0104659Y0087239D01*
X0104659Y0088038D02*
X0104941Y0088038D01*
X0104941Y0088836D02*
X0104659Y0088836D01*
X0104659Y0089635D02*
X0104941Y0089635D01*
X0106684Y0089635D02*
X0106914Y0089635D01*
X0106282Y0092030D02*
X0111000Y0092030D01*
X0111000Y0091232D02*
X0095153Y0091232D01*
X0095153Y0090433D02*
X0111000Y0090433D01*
X0111000Y0089635D02*
X0110166Y0089635D01*
X0110823Y0088836D02*
X0111000Y0088836D01*
X0111000Y0088038D02*
X0110823Y0088038D01*
X0110823Y0087239D02*
X0111000Y0087239D01*
X0111000Y0086441D02*
X0110823Y0086441D01*
X0108800Y0085859D02*
X0108540Y0086119D01*
X0108800Y0085859D02*
X0108800Y0081800D01*
X0108200Y0081200D01*
X0101000Y0081200D01*
X0098600Y0079400D02*
X0108200Y0079400D01*
X0108540Y0079060D01*
X0108540Y0075881D01*
X0116000Y0074780D02*
X0116000Y0071000D01*
X0118400Y0068600D01*
X0132200Y0068600D01*
X0134000Y0070400D01*
X0134000Y0075874D01*
X0133992Y0075882D01*
X0126000Y0074780D02*
X0124346Y0076433D01*
X0124346Y0081000D01*
X0124400Y0081054D01*
X0124400Y0084800D01*
X0125528Y0085928D01*
X0125528Y0086600D01*
X0126009Y0086118D01*
X0133992Y0086118D01*
X0125528Y0086600D02*
X0125528Y0091000D01*
X0116472Y0091000D02*
X0116472Y0082181D01*
X0117654Y0081000D01*
X0117654Y0076433D01*
X0116000Y0074780D01*
X0098542Y0064881D02*
X0093782Y0064881D01*
X0092983Y0065679D02*
X0098088Y0065679D01*
X0078235Y0063302D02*
X0078137Y0063400D01*
X0061340Y0063400D01*
X0061340Y0055035D01*
X0061812Y0055035D01*
X0062515Y0054332D01*
X0062515Y0053663D01*
X0065400Y0053663D01*
X0068663Y0050400D01*
X0069600Y0049463D01*
X0069600Y0046084D01*
X0070222Y0045462D01*
X0070222Y0040138D01*
X0069519Y0039435D01*
X0064588Y0039435D01*
X0064423Y0039600D01*
X0063109Y0039600D01*
X0063109Y0037069D01*
X0060140Y0037069D01*
X0060140Y0036269D01*
X0060140Y0032700D01*
X0060064Y0032700D01*
X0058704Y0032137D01*
X0057663Y0031096D01*
X0057100Y0029736D01*
X0057100Y0028264D01*
X0057663Y0026904D01*
X0058704Y0025863D01*
X0060064Y0025300D01*
X0061536Y0025300D01*
X0062896Y0025863D01*
X0063268Y0026235D01*
X0063432Y0026048D01*
X0063494Y0026044D01*
X0063537Y0026000D01*
X0063885Y0026000D01*
X0063885Y0024938D01*
X0064588Y0024235D01*
X0069519Y0024235D01*
X0070222Y0024938D01*
X0070222Y0030262D01*
X0069519Y0030965D01*
X0064588Y0030965D01*
X0064166Y0030543D01*
X0063937Y0031096D01*
X0062896Y0032137D01*
X0061950Y0032529D01*
X0062249Y0032609D01*
X0062568Y0032793D01*
X0062829Y0033054D01*
X0063013Y0033373D01*
X0063109Y0033729D01*
X0063109Y0036269D01*
X0060140Y0036269D01*
X0059340Y0036269D01*
X0059340Y0032513D01*
X0057587Y0032513D01*
X0057231Y0032609D01*
X0056912Y0032793D01*
X0056651Y0033054D01*
X0056467Y0033373D01*
X0056372Y0033729D01*
X0056372Y0036269D01*
X0059340Y0036269D01*
X0059340Y0037069D01*
X0056372Y0037069D01*
X0056372Y0039610D01*
X0056467Y0039966D01*
X0056651Y0040285D01*
X0056912Y0040545D01*
X0057231Y0040730D01*
X0057587Y0040825D01*
X0059340Y0040825D01*
X0059340Y0037069D01*
X0060140Y0037069D01*
X0060140Y0040825D01*
X0061512Y0040825D01*
X0061200Y0041137D01*
X0061200Y0043446D01*
X0061117Y0043481D01*
X0060281Y0044317D01*
X0059828Y0045409D01*
X0059828Y0046591D01*
X0060281Y0047683D01*
X0061117Y0048519D01*
X0062209Y0048972D01*
X0063391Y0048972D01*
X0064483Y0048519D01*
X0065319Y0047683D01*
X0065772Y0046591D01*
X0065772Y0046165D01*
X0066400Y0046165D01*
X0066400Y0048137D01*
X0064074Y0050463D01*
X0062515Y0050463D01*
X0062515Y0049794D01*
X0061812Y0049091D01*
X0058661Y0049091D01*
X0059168Y0048584D01*
X0059168Y0042078D01*
X0058466Y0041375D01*
X0053760Y0041375D01*
X0053760Y0040625D01*
X0054725Y0040625D01*
X0055428Y0039922D01*
X0055428Y0033715D01*
X0055662Y0033715D01*
X0056365Y0033012D01*
X0056365Y0028081D01*
X0055662Y0027378D01*
X0050338Y0027378D01*
X0049635Y0028081D01*
X0049635Y0032873D01*
X0049091Y0033416D01*
X0049091Y0039922D01*
X0049794Y0040625D01*
X0050760Y0040625D01*
X0050760Y0049091D01*
X0050188Y0049091D01*
X0049485Y0049794D01*
X0049485Y0054332D01*
X0050188Y0055035D01*
X0054332Y0055035D01*
X0054500Y0054866D01*
X0054500Y0057359D01*
X0053928Y0057359D01*
X0053225Y0058062D01*
X0053225Y0062599D01*
X0053260Y0062635D01*
X0051881Y0062635D01*
X0051178Y0063338D01*
X0051178Y0068662D01*
X0051881Y0069365D01*
X0056812Y0069365D01*
X0057515Y0068662D01*
X0057515Y0063338D01*
X0057500Y0063323D01*
X0057500Y0063302D01*
X0058072Y0063302D01*
X0058140Y0063234D01*
X0058140Y0074203D01*
X0061572Y0077635D01*
X0056881Y0077635D01*
X0056178Y0078338D01*
X0056178Y0083662D01*
X0056881Y0084365D01*
X0059281Y0084365D01*
X0059281Y0084977D01*
X0058022Y0084977D01*
X0057319Y0085680D01*
X0057319Y0088840D01*
X0057468Y0088988D01*
X0057399Y0089058D01*
X0057215Y0089377D01*
X0057119Y0089733D01*
X0057119Y0090859D01*
X0060740Y0090859D01*
X0060740Y0091141D01*
X0057119Y0091141D01*
X0057119Y0092267D01*
X0057215Y0092623D01*
X0057399Y0092942D01*
X0057468Y0093011D01*
X0057319Y0093160D01*
X0057319Y0094659D01*
X0057225Y0094565D01*
X0056906Y0094380D01*
X0056550Y0094285D01*
X0054600Y0094285D01*
X0054600Y0097253D01*
X0053800Y0097253D01*
X0053800Y0094285D01*
X0051850Y0094285D01*
X0051494Y0094380D01*
X0051175Y0094565D01*
X0050914Y0094825D01*
X0050730Y0095145D01*
X0050635Y0095501D01*
X0050635Y0097254D01*
X0053800Y0097254D01*
X0053800Y0098054D01*
X0053800Y0101022D01*
X0051850Y0101022D01*
X0051494Y0100927D01*
X0051175Y0100742D01*
X0050914Y0100482D01*
X0050730Y0100162D01*
X0050635Y0099806D01*
X0050635Y0098054D01*
X0053800Y0098054D01*
X0054600Y0098054D01*
X0054600Y0101022D01*
X0056550Y0101022D01*
X0056906Y0100927D01*
X0057225Y0100742D01*
X0057486Y0100482D01*
X0057670Y0100162D01*
X0057765Y0099806D01*
X0057765Y0098054D01*
X0054600Y0098054D01*
X0054600Y0097254D01*
X0057765Y0097254D01*
X0057765Y0096766D01*
X0058022Y0097023D01*
X0059281Y0097023D01*
X0059281Y0099891D01*
X0059485Y0100094D01*
X0059485Y0101906D01*
X0058644Y0102746D01*
X0057565Y0102746D01*
X0057565Y0101881D01*
X0056862Y0101178D01*
X0051538Y0101178D01*
X0050835Y0101881D01*
X0050835Y0106812D01*
X0051538Y0107515D01*
X0056862Y0107515D01*
X0057565Y0106812D01*
X0057565Y0105946D01*
X0059970Y0105946D01*
X0061551Y0104365D01*
X0063718Y0104365D01*
X0058512Y0109572D01*
X0058379Y0109439D01*
X0056835Y0108800D01*
X0055165Y0108800D01*
X0053621Y0109439D01*
X0052439Y0110621D01*
X0051800Y0112165D01*
X0051800Y0119835D01*
X0052439Y0121379D01*
X0053460Y0122400D01*
X0048806Y0122400D01*
X0048866Y0122356D01*
X0049356Y0121866D01*
X0049763Y0121306D01*
X0050078Y0120689D01*
X0050292Y0120030D01*
X0050400Y0119346D01*
X0050400Y0116400D01*
X0046400Y0116400D01*
X0046400Y0115600D01*
X0050400Y0115600D01*
X0050400Y0112654D01*
X0050292Y0111970D01*
X0050078Y0111311D01*
X0049763Y0110694D01*
X0049356Y0110134D01*
X0048866Y0109644D01*
X0048306Y0109237D01*
X0047689Y0108922D01*
X0047030Y0108708D01*
X0046973Y0108699D01*
X0049137Y0108699D01*
X0049493Y0108604D01*
X0049812Y0108419D01*
X0050073Y0108159D01*
X0050257Y0107840D01*
X0050353Y0107484D01*
X0050353Y0105140D01*
X0046400Y0105140D01*
X0046400Y0104340D01*
X0050353Y0104340D01*
X0050353Y0101997D01*
X0050257Y0101641D01*
X0050073Y0101321D01*
X0049812Y0101061D01*
X0049556Y0100913D01*
X0050153Y0100316D01*
X0050153Y0094204D01*
X0049450Y0093501D01*
X0042550Y0093501D01*
X0041847Y0094204D01*
X0041847Y0095660D01*
X0037515Y0095660D01*
X0037515Y0095094D01*
X0039400Y0093209D01*
X0039400Y0092515D01*
X0040462Y0092515D01*
X0041165Y0091812D01*
X0041165Y0087600D01*
X0045009Y0087600D01*
X0045094Y0087515D01*
X0048662Y0087515D01*
X0049365Y0086812D01*
X0049365Y0083244D01*
X0049485Y0083124D01*
X0049485Y0083662D01*
X0050188Y0084365D01*
X0055119Y0084365D01*
X0055822Y0083662D01*
X0055822Y0078338D01*
X0055119Y0077635D01*
X0050188Y0077635D01*
X0049565Y0078257D01*
X0049565Y0078054D01*
X0046400Y0078054D01*
X0045600Y0078054D01*
X0045600Y0081022D01*
X0043650Y0081022D01*
X0043294Y0080927D01*
X0042975Y0080742D01*
X0042714Y0080482D01*
X0042530Y0080162D01*
X0042435Y0079806D01*
X0042435Y0078054D01*
X0045600Y0078054D01*
X0045600Y0077254D01*
X0042435Y0077254D01*
X0042435Y0075501D01*
X0042530Y0075145D01*
X0042714Y0074825D01*
X0042975Y0074565D01*
X0043294Y0074380D01*
X0043650Y0074285D01*
X0045600Y0074285D01*
X0045600Y0077253D01*
X0046400Y0077253D01*
X0046400Y0074285D01*
X0048350Y0074285D01*
X0048706Y0074380D01*
X0049025Y0074565D01*
X0049286Y0074825D01*
X0049470Y0075145D01*
X0049565Y0075501D01*
X0049565Y0077254D01*
X0046400Y0077254D01*
X0046400Y0078054D01*
X0046400Y0081022D01*
X0047062Y0081022D01*
X0046906Y0081178D01*
X0043338Y0081178D01*
X0042635Y0081881D01*
X0042635Y0084400D01*
X0041165Y0084400D01*
X0041165Y0080188D01*
X0040462Y0079485D01*
X0039445Y0079485D01*
X0040154Y0078776D01*
X0040900Y0076975D01*
X0040900Y0075025D01*
X0040154Y0073224D01*
X0038776Y0071846D01*
X0036975Y0071100D01*
X0035025Y0071100D01*
X0033224Y0071846D01*
X0032265Y0072805D01*
X0032175Y0072714D01*
X0031855Y0072530D01*
X0031499Y0072435D01*
X0029746Y0072435D01*
X0029746Y0075600D01*
X0028946Y0075600D01*
X0025978Y0075600D01*
X0025978Y0073650D01*
X0026073Y0073294D01*
X0026258Y0072975D01*
X0026518Y0072714D01*
X0026838Y0072530D01*
X0027194Y0072435D01*
X0028946Y0072435D01*
X0028946Y0075600D01*
X0028946Y0076400D01*
X0025978Y0076400D01*
X0025978Y0078350D01*
X0026073Y0078706D01*
X0026258Y0079025D01*
X0026518Y0079286D01*
X0026838Y0079470D01*
X0027194Y0079565D01*
X0028946Y0079565D01*
X0028946Y0076400D01*
X0029746Y0076400D01*
X0029746Y0079565D01*
X0031499Y0079565D01*
X0031855Y0079470D01*
X0032175Y0079286D01*
X0032265Y0079195D01*
X0033224Y0080154D01*
X0034400Y0080641D01*
X0034400Y0081516D01*
X0034435Y0081551D01*
X0034435Y0082600D01*
X0032515Y0082600D01*
X0032515Y0081538D01*
X0031812Y0080835D01*
X0026881Y0080835D01*
X0026178Y0081538D01*
X0026178Y0086862D01*
X0026716Y0087400D01*
X0025284Y0087400D01*
X0025822Y0086862D01*
X0025822Y0081538D01*
X0025119Y0080835D01*
X0024254Y0080835D01*
X0024254Y0079365D01*
X0025119Y0079365D01*
X0025822Y0078662D01*
X0025822Y0073338D01*
X0025119Y0072635D01*
X0020188Y0072635D01*
X0019485Y0073338D01*
X0019485Y0073545D01*
X0017740Y0071800D01*
X0014260Y0071800D01*
X0011800Y0074260D01*
X0011800Y0077740D01*
X0014260Y0080200D01*
X0017740Y0080200D01*
X0019485Y0078455D01*
X0019485Y0078662D01*
X0020188Y0079365D01*
X0021054Y0079365D01*
X0021054Y0080835D01*
X0020188Y0080835D01*
X0019485Y0081538D01*
X0019485Y0083545D01*
X0017740Y0081800D01*
X0014260Y0081800D01*
X0011800Y0084260D01*
X0011800Y0087740D01*
X0014260Y0090200D01*
X0017737Y0090200D01*
X0018137Y0090600D01*
X0032663Y0090600D01*
X0034435Y0088828D01*
X0034435Y0091812D01*
X0035138Y0092515D01*
X0035569Y0092515D01*
X0035449Y0092635D01*
X0031881Y0092635D01*
X0031178Y0093338D01*
X0031178Y0096906D01*
X0030822Y0097262D01*
X0030822Y0093338D01*
X0030119Y0092635D01*
X0025188Y0092635D01*
X0024485Y0093338D01*
X0024485Y0094400D01*
X0022515Y0094400D01*
X0022515Y0093338D01*
X0021812Y0092635D01*
X0016881Y0092635D01*
X0016178Y0093338D01*
X0016178Y0098662D01*
X0016881Y0099365D01*
X0018000Y0099365D01*
X0018000Y0101263D01*
X0018937Y0102200D01*
X0019200Y0102463D01*
X0019200Y0103826D01*
X0017574Y0102200D01*
X0014463Y0102200D01*
X0014254Y0101991D01*
X0014254Y0099365D01*
X0015119Y0099365D01*
X0015822Y0098662D01*
X0015822Y0093338D01*
X0015119Y0092635D01*
X0010188Y0092635D01*
X0009485Y0093338D01*
X0009485Y0098662D01*
X0010188Y0099365D01*
X0011054Y0099365D01*
X0011054Y0103316D01*
X0012200Y0104463D01*
X0012200Y0107574D01*
X0014400Y0109774D01*
X0014400Y0120009D01*
X0014485Y0120094D01*
X0014485Y0123662D01*
X0015188Y0124365D01*
X0020119Y0124365D01*
X0020822Y0123662D01*
X0020822Y0118338D01*
X0020119Y0117635D01*
X0017600Y0117635D01*
X0017600Y0115757D01*
X0019343Y0117500D01*
X0020600Y0117500D01*
X0020600Y0113900D01*
X0021400Y0113900D01*
X0021400Y0117500D01*
X0021950Y0117500D01*
X0021838Y0117530D01*
X0021518Y0117714D01*
X0021258Y0117975D01*
X0021073Y0118294D01*
X0020978Y0118650D01*
X0020978Y0120600D01*
X0023946Y0120600D01*
X0023946Y0121400D01*
X0020978Y0121400D01*
X0020978Y0123350D01*
X0021073Y0123706D01*
X0021258Y0124025D01*
X0021518Y0124286D01*
X0021838Y0124470D01*
X0022194Y0124565D01*
X0023946Y0124565D01*
X0023946Y0121400D01*
X0024746Y0121400D01*
X0024746Y0124565D01*
X0026499Y0124565D01*
X0026855Y0124470D01*
X0027175Y0124286D01*
X0027435Y0124025D01*
X0027620Y0123706D01*
X0027715Y0123350D01*
X0027715Y0121400D01*
X0024746Y0121400D01*
X0024746Y0120600D01*
X0024746Y0117435D01*
X0026499Y0117435D01*
X0026855Y0117530D01*
X0027175Y0117714D01*
X0027435Y0117975D01*
X0027620Y0118294D01*
X0027715Y0118650D01*
X0027715Y0120600D01*
X0024746Y0120600D01*
X0023946Y0120600D01*
X0023946Y0117435D01*
X0022722Y0117435D01*
X0025000Y0115157D01*
X0025000Y0113900D01*
X0021400Y0113900D01*
X0021400Y0113100D01*
X0024437Y0113100D01*
X0025800Y0114463D01*
X0025800Y0114463D01*
X0026737Y0115400D01*
X0030937Y0115400D01*
X0040200Y0124663D01*
X0041137Y0125600D01*
X0055663Y0125600D01*
X0056600Y0124663D01*
X0056600Y0124663D01*
X0056863Y0124400D01*
X0056863Y0124400D01*
X0057800Y0123463D01*
X0057800Y0122800D01*
X0058379Y0122561D01*
X0059561Y0121379D01*
X0060200Y0119835D01*
X0060200Y0112409D01*
X0064400Y0108209D01*
X0064400Y0109117D01*
X0063621Y0109439D01*
X0062439Y0110621D01*
X0061800Y0112165D01*
X0061800Y0119835D01*
X0062439Y0121379D01*
X0063621Y0122561D01*
X0065165Y0123200D01*
X0066835Y0123200D01*
X0068379Y0122561D01*
X0069561Y0121379D01*
X0070200Y0119835D01*
X0070200Y0112165D01*
X0069561Y0110621D01*
X0068379Y0109439D01*
X0067600Y0109117D01*
X0067600Y0109063D01*
X0068063Y0108600D01*
X0075263Y0108600D01*
X0075472Y0108391D01*
X0076315Y0108391D01*
X0077267Y0107996D01*
X0077864Y0107400D01*
X0079485Y0107400D01*
X0079485Y0108662D01*
X0080188Y0109365D01*
X0085119Y0109365D01*
X0085822Y0108662D01*
X0085822Y0103338D01*
X0085119Y0102635D01*
X0080188Y0102635D01*
X0079485Y0103338D01*
X0079485Y0104200D01*
X0077864Y0104200D01*
X0077267Y0103604D01*
X0076315Y0103209D01*
X0079613Y0103209D01*
X0079485Y0104008D02*
X0077672Y0104008D01*
X0076315Y0103209D02*
X0075285Y0103209D01*
X0075800Y0105800D02*
X0074600Y0107000D01*
X0067400Y0107000D01*
X0066000Y0108400D01*
X0066000Y0116000D01*
X0061800Y0115986D02*
X0060200Y0115986D01*
X0060200Y0116784D02*
X0061800Y0116784D01*
X0061800Y0117583D02*
X0060200Y0117583D01*
X0060200Y0118381D02*
X0061800Y0118381D01*
X0061800Y0119180D02*
X0060200Y0119180D01*
X0060141Y0119978D02*
X0061859Y0119978D01*
X0062190Y0120777D02*
X0059810Y0120777D01*
X0059364Y0121575D02*
X0062636Y0121575D01*
X0063434Y0122374D02*
X0058566Y0122374D01*
X0057800Y0123172D02*
X0065098Y0123172D01*
X0066902Y0123172D02*
X0075098Y0123172D01*
X0075165Y0123200D02*
X0073621Y0122561D01*
X0072439Y0121379D01*
X0071800Y0119835D01*
X0071800Y0112165D01*
X0072439Y0110621D01*
X0073621Y0109439D01*
X0075165Y0108800D01*
X0076835Y0108800D01*
X0078379Y0109439D01*
X0079561Y0110621D01*
X0080200Y0112165D01*
X0080200Y0112635D01*
X0085119Y0112635D01*
X0085822Y0113338D01*
X0085822Y0118662D01*
X0085359Y0119126D01*
X0086137Y0119904D01*
X0086700Y0121264D01*
X0086700Y0122736D01*
X0086137Y0124096D01*
X0085096Y0125137D01*
X0083736Y0125700D01*
X0082264Y0125700D01*
X0080904Y0125137D01*
X0079863Y0124096D01*
X0079300Y0122736D01*
X0079300Y0121640D01*
X0078379Y0122561D01*
X0076835Y0123200D01*
X0075165Y0123200D01*
X0076902Y0123172D02*
X0079481Y0123172D01*
X0079300Y0122374D02*
X0078566Y0122374D01*
X0079811Y0123971D02*
X0057292Y0123971D01*
X0056493Y0124769D02*
X0080537Y0124769D01*
X0081945Y0125568D02*
X0055695Y0125568D01*
X0055000Y0124000D02*
X0056200Y0122800D01*
X0056200Y0116200D01*
X0056000Y0116000D01*
X0056000Y0114346D01*
X0069346Y0101000D01*
X0088400Y0101000D01*
X0089600Y0102200D01*
X0089600Y0105746D01*
X0089346Y0106000D01*
X0089346Y0116000D01*
X0086178Y0115986D02*
X0085822Y0115986D01*
X0085822Y0116784D02*
X0086178Y0116784D01*
X0086178Y0117583D02*
X0085822Y0117583D01*
X0085822Y0118381D02*
X0086178Y0118381D01*
X0086695Y0119180D02*
X0085412Y0119180D01*
X0086167Y0119978D02*
X0097192Y0119978D01*
X0097192Y0120777D02*
X0086498Y0120777D01*
X0086700Y0121575D02*
X0097192Y0121575D01*
X0097192Y0122374D02*
X0086700Y0122374D01*
X0086519Y0123172D02*
X0097192Y0123172D01*
X0096597Y0123971D02*
X0086189Y0123971D01*
X0085463Y0124769D02*
X0095798Y0124769D01*
X0095388Y0125568D02*
X0084055Y0125568D01*
X0083000Y0122000D02*
X0083000Y0116346D01*
X0082654Y0116000D01*
X0076000Y0116000D01*
X0071800Y0115986D02*
X0070200Y0115986D01*
X0070200Y0116784D02*
X0071800Y0116784D01*
X0071800Y0117583D02*
X0070200Y0117583D01*
X0070200Y0118381D02*
X0071800Y0118381D01*
X0071800Y0119180D02*
X0070200Y0119180D01*
X0070141Y0119978D02*
X0071859Y0119978D01*
X0072190Y0120777D02*
X0069810Y0120777D01*
X0069364Y0121575D02*
X0072636Y0121575D01*
X0073434Y0122374D02*
X0068566Y0122374D01*
X0070200Y0115187D02*
X0071800Y0115187D01*
X0071800Y0114389D02*
X0070200Y0114389D01*
X0070200Y0113590D02*
X0071800Y0113590D01*
X0071800Y0112792D02*
X0070200Y0112792D01*
X0070129Y0111993D02*
X0071871Y0111993D01*
X0072202Y0111195D02*
X0069798Y0111195D01*
X0069336Y0110396D02*
X0072664Y0110396D01*
X0073463Y0109598D02*
X0068537Y0109598D01*
X0067864Y0108799D02*
X0079622Y0108799D01*
X0079485Y0108001D02*
X0077257Y0108001D01*
X0078537Y0109598D02*
X0087746Y0109598D01*
X0087746Y0110396D02*
X0079336Y0110396D01*
X0079798Y0111195D02*
X0087746Y0111195D01*
X0087746Y0111993D02*
X0080129Y0111993D01*
X0085276Y0112792D02*
X0086724Y0112792D01*
X0086178Y0113590D02*
X0085822Y0113590D01*
X0085822Y0114389D02*
X0086178Y0114389D01*
X0086178Y0115187D02*
X0085822Y0115187D01*
X0091969Y0112792D02*
X0092800Y0112792D01*
X0092800Y0113590D02*
X0092515Y0113590D01*
X0092515Y0114389D02*
X0092800Y0114389D01*
X0092800Y0115187D02*
X0092515Y0115187D01*
X0092515Y0115986D02*
X0092800Y0115986D01*
X0092515Y0116784D02*
X0093521Y0116784D01*
X0094320Y0117583D02*
X0092515Y0117583D01*
X0092515Y0118381D02*
X0095430Y0118381D01*
X0095632Y0119180D02*
X0091998Y0119180D01*
X0095118Y0116118D02*
X0094400Y0115400D01*
X0094400Y0097400D01*
X0092600Y0095600D01*
X0090800Y0095600D01*
X0091000Y0095400D01*
X0091000Y0088740D01*
X0095860Y0088740D01*
X0097400Y0087200D01*
X0098026Y0088836D02*
X0098777Y0088836D01*
X0099434Y0089635D02*
X0097228Y0089635D01*
X0094919Y0092030D02*
X0103718Y0092030D01*
X0104023Y0091931D02*
X0104600Y0091840D01*
X0104600Y0095600D01*
X0105400Y0095600D01*
X0105400Y0096400D01*
X0109160Y0096400D01*
X0109069Y0096977D01*
X0108866Y0097601D01*
X0108568Y0098186D01*
X0108182Y0098718D01*
X0107718Y0099182D01*
X0107186Y0099568D01*
X0106601Y0099866D01*
X0105977Y0100069D01*
X0105400Y0100160D01*
X0105400Y0096400D01*
X0104600Y0096400D01*
X0104600Y0100160D01*
X0104023Y0100069D01*
X0103399Y0099866D01*
X0102814Y0099568D01*
X0102282Y0099182D01*
X0101818Y0098718D01*
X0101432Y0098186D01*
X0101134Y0097601D01*
X0100931Y0096977D01*
X0100840Y0096400D01*
X0104600Y0096400D01*
X0104600Y0095600D01*
X0100840Y0095600D01*
X0100931Y0095023D01*
X0101134Y0094399D01*
X0101432Y0093814D01*
X0101818Y0093282D01*
X0102282Y0092818D01*
X0102814Y0092432D01*
X0103399Y0092134D01*
X0104023Y0091931D01*
X0104600Y0092030D02*
X0105400Y0092030D01*
X0105400Y0091840D02*
X0105977Y0091931D01*
X0106601Y0092134D01*
X0107186Y0092432D01*
X0107718Y0092818D01*
X0108182Y0093282D01*
X0108568Y0093814D01*
X0108866Y0094399D01*
X0109069Y0095023D01*
X0109160Y0095600D01*
X0105400Y0095600D01*
X0105400Y0091840D01*
X0105400Y0092829D02*
X0104600Y0092829D01*
X0104600Y0093627D02*
X0105400Y0093627D01*
X0105400Y0094426D02*
X0104600Y0094426D01*
X0104600Y0095224D02*
X0105400Y0095224D01*
X0105400Y0096023D02*
X0111000Y0096023D01*
X0111000Y0096821D02*
X0109094Y0096821D01*
X0108857Y0097620D02*
X0111000Y0097620D01*
X0111000Y0098418D02*
X0108399Y0098418D01*
X0107670Y0099217D02*
X0111000Y0099217D01*
X0111000Y0100015D02*
X0106142Y0100015D01*
X0105400Y0100015D02*
X0104600Y0100015D01*
X0103858Y0100015D02*
X0096000Y0100015D01*
X0096000Y0099217D02*
X0102330Y0099217D01*
X0101601Y0098418D02*
X0096000Y0098418D01*
X0096000Y0097620D02*
X0101143Y0097620D01*
X0100906Y0096821D02*
X0096000Y0096821D01*
X0095286Y0096023D02*
X0104600Y0096023D01*
X0104600Y0096821D02*
X0105400Y0096821D01*
X0105400Y0097620D02*
X0104600Y0097620D01*
X0104600Y0098418D02*
X0105400Y0098418D01*
X0105400Y0099217D02*
X0104600Y0099217D01*
X0100899Y0095224D02*
X0094487Y0095224D01*
X0093689Y0094426D02*
X0101125Y0094426D01*
X0101567Y0093627D02*
X0092600Y0093627D01*
X0092600Y0092829D02*
X0102272Y0092829D01*
X0102686Y0089635D02*
X0102916Y0089635D01*
X0107728Y0092829D02*
X0111000Y0092829D01*
X0111000Y0093627D02*
X0108433Y0093627D01*
X0108875Y0094426D02*
X0111000Y0094426D01*
X0111000Y0095224D02*
X0109101Y0095224D01*
X0111000Y0100814D02*
X0096000Y0100814D01*
X0096000Y0101612D02*
X0111000Y0101612D01*
X0111000Y0102411D02*
X0102225Y0102411D01*
X0102721Y0103209D02*
X0111000Y0103209D01*
X0111000Y0104008D02*
X0102754Y0104008D01*
X0102754Y0104806D02*
X0111000Y0104806D01*
X0111000Y0105605D02*
X0099392Y0105605D01*
X0099392Y0106282D02*
X0102754Y0106282D01*
X0102754Y0108428D01*
X0102659Y0108784D01*
X0102475Y0109104D01*
X0102214Y0109364D01*
X0101895Y0109549D01*
X0101539Y0109644D01*
X0099392Y0109644D01*
X0099392Y0106282D01*
X0099392Y0106403D02*
X0098592Y0106403D01*
X0098592Y0107202D02*
X0099392Y0107202D01*
X0099392Y0108001D02*
X0098592Y0108001D01*
X0098592Y0108799D02*
X0099392Y0108799D01*
X0099392Y0109598D02*
X0098592Y0109598D01*
X0096272Y0109598D02*
X0096000Y0109598D01*
X0096000Y0110396D02*
X0111000Y0110396D01*
X0111000Y0109598D02*
X0101712Y0109598D01*
X0102651Y0108799D02*
X0111000Y0108799D01*
X0111000Y0108001D02*
X0102754Y0108001D01*
X0102754Y0107202D02*
X0111000Y0107202D01*
X0111000Y0106403D02*
X0102754Y0106403D01*
X0099392Y0104806D02*
X0098592Y0104806D01*
X0098592Y0104008D02*
X0099392Y0104008D01*
X0099392Y0103209D02*
X0098592Y0103209D01*
X0098592Y0102411D02*
X0099392Y0102411D01*
X0092800Y0102411D02*
X0091200Y0102411D01*
X0091200Y0101612D02*
X0092800Y0101612D01*
X0092800Y0100814D02*
X0090477Y0100814D01*
X0089678Y0100015D02*
X0092800Y0100015D01*
X0092800Y0099217D02*
X0079400Y0099217D01*
X0080198Y0098418D02*
X0092800Y0098418D01*
X0092357Y0097620D02*
X0080628Y0097620D01*
X0077400Y0095600D02*
X0077000Y0096000D01*
X0077400Y0095600D02*
X0090800Y0095600D01*
X0089400Y0093627D02*
X0080244Y0093627D01*
X0079446Y0092829D02*
X0089400Y0092829D01*
X0087081Y0092030D02*
X0085602Y0092030D01*
X0085953Y0091232D02*
X0086847Y0091232D01*
X0086847Y0090433D02*
X0085953Y0090433D01*
X0085953Y0089635D02*
X0086847Y0089635D01*
X0086847Y0088836D02*
X0082000Y0088836D01*
X0082000Y0089635D02*
X0081200Y0089635D01*
X0081200Y0090433D02*
X0082000Y0090433D01*
X0082000Y0091232D02*
X0081200Y0091232D01*
X0081200Y0092030D02*
X0082000Y0092030D01*
X0081200Y0088836D02*
X0077000Y0088836D01*
X0077000Y0088038D02*
X0077247Y0088038D01*
X0077223Y0087239D02*
X0077247Y0087239D01*
X0075400Y0086800D02*
X0077200Y0085000D01*
X0075400Y0086800D02*
X0075400Y0091600D01*
X0072260Y0094740D01*
X0071119Y0094740D01*
X0071119Y0099228D01*
X0069346Y0101000D01*
X0069519Y0097620D02*
X0062481Y0097620D01*
X0060881Y0099228D02*
X0062654Y0101000D01*
X0059307Y0104346D01*
X0054200Y0104346D01*
X0057565Y0102411D02*
X0058980Y0102411D01*
X0059485Y0101612D02*
X0057297Y0101612D01*
X0057101Y0100814D02*
X0059485Y0100814D01*
X0059406Y0100015D02*
X0057709Y0100015D01*
X0057765Y0099217D02*
X0059281Y0099217D01*
X0059281Y0098418D02*
X0057765Y0098418D01*
X0057765Y0096821D02*
X0057821Y0096821D01*
X0059281Y0097620D02*
X0054600Y0097620D01*
X0054200Y0097654D02*
X0054200Y0090800D01*
X0053800Y0090400D01*
X0057119Y0090433D02*
X0041165Y0090433D01*
X0041165Y0089635D02*
X0057146Y0089635D01*
X0057319Y0088836D02*
X0041165Y0088836D01*
X0041165Y0088038D02*
X0057319Y0088038D01*
X0057319Y0087239D02*
X0048938Y0087239D01*
X0049365Y0086441D02*
X0057319Y0086441D01*
X0057357Y0085642D02*
X0049365Y0085642D01*
X0049365Y0084844D02*
X0059281Y0084844D01*
X0060881Y0082535D02*
X0059346Y0081000D01*
X0067654Y0081000D01*
X0064485Y0083247D02*
X0062515Y0083247D01*
X0062481Y0084045D02*
X0064868Y0084045D01*
X0064406Y0085642D02*
X0067594Y0085642D01*
X0067556Y0086441D02*
X0064444Y0086441D01*
X0064444Y0087239D02*
X0067556Y0087239D01*
X0067556Y0088038D02*
X0064444Y0088038D01*
X0064444Y0088836D02*
X0067556Y0088836D01*
X0069519Y0084844D02*
X0062481Y0084844D01*
X0060881Y0082535D02*
X0060881Y0087260D01*
X0056561Y0084045D02*
X0055439Y0084045D01*
X0055822Y0083247D02*
X0056178Y0083247D01*
X0056178Y0082448D02*
X0055822Y0082448D01*
X0055822Y0081650D02*
X0056178Y0081650D01*
X0056178Y0080851D02*
X0055822Y0080851D01*
X0055822Y0080053D02*
X0056178Y0080053D01*
X0056178Y0079254D02*
X0055822Y0079254D01*
X0055822Y0078456D02*
X0056178Y0078456D01*
X0056858Y0077657D02*
X0055142Y0077657D01*
X0053800Y0073600D02*
X0049600Y0077800D01*
X0046146Y0077800D01*
X0046000Y0077654D01*
X0046400Y0077657D02*
X0050166Y0077657D01*
X0049565Y0076859D02*
X0060796Y0076859D01*
X0059997Y0076060D02*
X0049565Y0076060D01*
X0049501Y0075262D02*
X0059199Y0075262D01*
X0058400Y0074463D02*
X0048849Y0074463D01*
X0046400Y0074463D02*
X0045600Y0074463D01*
X0045600Y0075262D02*
X0046400Y0075262D01*
X0046400Y0076060D02*
X0045600Y0076060D01*
X0045600Y0076859D02*
X0046400Y0076859D01*
X0045600Y0077657D02*
X0040617Y0077657D01*
X0040900Y0076859D02*
X0042435Y0076859D01*
X0042435Y0076060D02*
X0040900Y0076060D01*
X0040900Y0075262D02*
X0042499Y0075262D01*
X0043151Y0074463D02*
X0040667Y0074463D01*
X0040336Y0073665D02*
X0058140Y0073665D01*
X0058140Y0072866D02*
X0039796Y0072866D01*
X0038997Y0072068D02*
X0058140Y0072068D01*
X0058140Y0071269D02*
X0037383Y0071269D01*
X0034617Y0071269D02*
X0006000Y0071269D01*
X0006000Y0072068D02*
X0013993Y0072068D01*
X0013194Y0072866D02*
X0006000Y0072866D01*
X0006000Y0073665D02*
X0012396Y0073665D01*
X0011800Y0074463D02*
X0006000Y0074463D01*
X0006000Y0075262D02*
X0011800Y0075262D01*
X0011800Y0076060D02*
X0006000Y0076060D01*
X0006000Y0076859D02*
X0011800Y0076859D01*
X0011800Y0077657D02*
X0006000Y0077657D01*
X0006000Y0078456D02*
X0012516Y0078456D01*
X0013314Y0079254D02*
X0006000Y0079254D01*
X0006000Y0080053D02*
X0014113Y0080053D01*
X0017887Y0080053D02*
X0021054Y0080053D01*
X0020171Y0080851D02*
X0006000Y0080851D01*
X0006000Y0081650D02*
X0019485Y0081650D01*
X0019485Y0082448D02*
X0018388Y0082448D01*
X0019186Y0083247D02*
X0019485Y0083247D01*
X0022654Y0084200D02*
X0022654Y0076000D01*
X0016000Y0076000D01*
X0018806Y0072866D02*
X0019957Y0072866D01*
X0018007Y0072068D02*
X0033003Y0072068D01*
X0033054Y0069565D02*
X0034806Y0069565D01*
X0035162Y0069470D01*
X0035482Y0069286D01*
X0035742Y0069025D01*
X0035927Y0068706D01*
X0036022Y0068350D01*
X0036022Y0066400D01*
X0033054Y0066400D01*
X0033054Y0065600D01*
X0036022Y0065600D01*
X0036022Y0063650D01*
X0035927Y0063294D01*
X0035742Y0062975D01*
X0035482Y0062714D01*
X0035162Y0062530D01*
X0034806Y0062435D01*
X0033054Y0062435D01*
X0033054Y0065600D01*
X0032254Y0065600D01*
X0032254Y0062435D01*
X0031573Y0062435D01*
X0031573Y0057305D01*
X0027424Y0057305D01*
X0027424Y0056506D01*
X0031573Y0056506D01*
X0031573Y0050816D01*
X0031478Y0050460D01*
X0031293Y0050140D01*
X0031033Y0049880D01*
X0030714Y0049695D01*
X0030358Y0049600D01*
X0027424Y0049600D01*
X0027424Y0056505D01*
X0026624Y0056505D01*
X0026624Y0049600D01*
X0023690Y0049600D01*
X0023334Y0049695D01*
X0023014Y0049880D01*
X0022754Y0050140D01*
X0022569Y0050460D01*
X0022474Y0050816D01*
X0022474Y0056506D01*
X0026624Y0056506D01*
X0026624Y0057305D01*
X0022474Y0057305D01*
X0022474Y0062995D01*
X0022569Y0063351D01*
X0022754Y0063671D01*
X0023014Y0063931D01*
X0023334Y0064116D01*
X0023690Y0064211D01*
X0026624Y0064211D01*
X0026624Y0057306D01*
X0027424Y0057306D01*
X0027424Y0064211D01*
X0029285Y0064211D01*
X0029285Y0065600D01*
X0032253Y0065600D01*
X0032253Y0066400D01*
X0029285Y0066400D01*
X0029285Y0068350D01*
X0029380Y0068706D01*
X0029565Y0069025D01*
X0029825Y0069286D01*
X0030145Y0069470D01*
X0030501Y0069565D01*
X0032254Y0069565D01*
X0032254Y0066400D01*
X0033054Y0066400D01*
X0033054Y0069565D01*
X0033054Y0068873D02*
X0032254Y0068873D01*
X0032254Y0068075D02*
X0033054Y0068075D01*
X0033054Y0067276D02*
X0032254Y0067276D01*
X0032254Y0066478D02*
X0033054Y0066478D01*
X0033054Y0065679D02*
X0036178Y0065679D01*
X0036178Y0064881D02*
X0036022Y0064881D01*
X0036022Y0064082D02*
X0036178Y0064082D01*
X0036178Y0063338D02*
X0036881Y0062635D01*
X0040627Y0062635D01*
X0040627Y0050503D01*
X0041330Y0049800D01*
X0048623Y0049800D01*
X0049326Y0050503D01*
X0049326Y0062635D01*
X0050119Y0062635D01*
X0050822Y0063338D01*
X0050822Y0068662D01*
X0050119Y0069365D01*
X0045188Y0069365D01*
X0044485Y0068662D01*
X0044485Y0067500D01*
X0042515Y0067500D01*
X0042515Y0068662D01*
X0041812Y0069365D01*
X0036881Y0069365D01*
X0036178Y0068662D01*
X0036178Y0063338D01*
X0036232Y0063284D02*
X0035921Y0063284D01*
X0034996Y0062485D02*
X0040627Y0062485D01*
X0040627Y0061687D02*
X0031573Y0061687D01*
X0031573Y0060888D02*
X0040627Y0060888D01*
X0040627Y0060090D02*
X0031573Y0060090D01*
X0031573Y0059291D02*
X0040627Y0059291D01*
X0040627Y0058493D02*
X0031573Y0058493D01*
X0031573Y0057694D02*
X0040627Y0057694D01*
X0040627Y0056896D02*
X0027424Y0056896D01*
X0027424Y0057694D02*
X0026624Y0057694D01*
X0026624Y0056896D02*
X0006000Y0056896D01*
X0006000Y0057694D02*
X0022474Y0057694D01*
X0022474Y0058493D02*
X0006000Y0058493D01*
X0006000Y0059291D02*
X0022474Y0059291D01*
X0022474Y0060090D02*
X0006000Y0060090D01*
X0006000Y0060888D02*
X0022474Y0060888D01*
X0022474Y0061687D02*
X0006000Y0061687D01*
X0006000Y0062485D02*
X0022474Y0062485D01*
X0022551Y0063284D02*
X0006000Y0063284D01*
X0006000Y0064082D02*
X0023276Y0064082D01*
X0026624Y0064082D02*
X0027424Y0064082D01*
X0027424Y0063284D02*
X0026624Y0063284D01*
X0026624Y0062485D02*
X0027424Y0062485D01*
X0027424Y0061687D02*
X0026624Y0061687D01*
X0026624Y0060888D02*
X0027424Y0060888D01*
X0027424Y0060090D02*
X0026624Y0060090D01*
X0026624Y0059291D02*
X0027424Y0059291D01*
X0027424Y0058493D02*
X0026624Y0058493D01*
X0026624Y0056097D02*
X0027424Y0056097D01*
X0027424Y0055299D02*
X0026624Y0055299D01*
X0026624Y0054500D02*
X0027424Y0054500D01*
X0027424Y0053702D02*
X0026624Y0053702D01*
X0026624Y0052903D02*
X0027424Y0052903D01*
X0027424Y0052105D02*
X0026624Y0052105D01*
X0026624Y0051306D02*
X0027424Y0051306D01*
X0027424Y0050508D02*
X0026624Y0050508D01*
X0026624Y0049709D02*
X0027424Y0049709D01*
X0023310Y0049709D02*
X0020200Y0049709D01*
X0020200Y0049260D02*
X0019554Y0048614D01*
X0019844Y0048614D01*
X0020546Y0047911D01*
X0020546Y0039830D01*
X0019844Y0039128D01*
X0012156Y0039128D01*
X0011454Y0039830D01*
X0011454Y0047911D01*
X0012156Y0048614D01*
X0012446Y0048614D01*
X0011800Y0049260D01*
X0011800Y0052740D01*
X0014260Y0055200D01*
X0017740Y0055200D01*
X0020200Y0052740D01*
X0020200Y0049260D01*
X0019850Y0048911D02*
X0050760Y0048911D01*
X0050760Y0048112D02*
X0020345Y0048112D01*
X0020546Y0047314D02*
X0050760Y0047314D01*
X0050760Y0046515D02*
X0020546Y0046515D01*
X0020546Y0045717D02*
X0050760Y0045717D01*
X0050760Y0044918D02*
X0020546Y0044918D01*
X0020546Y0044120D02*
X0050760Y0044120D01*
X0050760Y0043321D02*
X0020546Y0043321D01*
X0020546Y0042523D02*
X0050760Y0042523D01*
X0050760Y0041724D02*
X0046471Y0041724D01*
X0046700Y0041495D02*
X0045997Y0042198D01*
X0026003Y0042198D01*
X0025300Y0041495D01*
X0025300Y0023400D01*
X0020258Y0023400D01*
X0020546Y0023689D01*
X0020546Y0031769D01*
X0019844Y0032472D01*
X0012156Y0032472D01*
X0011454Y0031769D01*
X0011454Y0023689D01*
X0012101Y0023041D01*
X0011800Y0022740D01*
X0011800Y0019260D01*
X0014260Y0016800D01*
X0017740Y0016800D01*
X0019540Y0018600D01*
X0025300Y0018600D01*
X0025300Y0018001D01*
X0026003Y0017298D01*
X0045997Y0017298D01*
X0046700Y0018001D01*
X0046700Y0041495D01*
X0046700Y0040926D02*
X0050760Y0040926D01*
X0049296Y0040127D02*
X0046700Y0040127D01*
X0046700Y0039329D02*
X0049091Y0039329D01*
X0049091Y0038530D02*
X0046700Y0038530D01*
X0046700Y0037732D02*
X0049091Y0037732D01*
X0049091Y0036933D02*
X0046700Y0036933D01*
X0046700Y0036134D02*
X0049091Y0036134D01*
X0049091Y0035336D02*
X0046700Y0035336D01*
X0046700Y0034537D02*
X0049091Y0034537D01*
X0049091Y0033739D02*
X0046700Y0033739D01*
X0046700Y0032940D02*
X0049567Y0032940D01*
X0049635Y0032142D02*
X0046700Y0032142D01*
X0046700Y0031343D02*
X0049635Y0031343D01*
X0049635Y0030545D02*
X0046700Y0030545D01*
X0046700Y0029746D02*
X0049635Y0029746D01*
X0049635Y0028948D02*
X0046700Y0028948D01*
X0046700Y0028149D02*
X0049635Y0028149D01*
X0049868Y0026552D02*
X0046700Y0026552D01*
X0046700Y0025754D02*
X0049635Y0025754D01*
X0049635Y0024955D02*
X0046700Y0024955D01*
X0046700Y0024157D02*
X0049635Y0024157D01*
X0049635Y0023358D02*
X0046700Y0023358D01*
X0046700Y0022560D02*
X0049635Y0022560D01*
X0049635Y0021761D02*
X0046700Y0021761D01*
X0046700Y0020963D02*
X0050060Y0020963D01*
X0047800Y0021400D02*
X0051400Y0017800D01*
X0058600Y0017800D01*
X0059200Y0017200D01*
X0059200Y0012600D01*
X0058800Y0012200D01*
X0059200Y0012179D02*
X0065272Y0012179D01*
X0065225Y0011381D02*
X0063200Y0011381D01*
X0063200Y0011800D02*
X0059200Y0011800D01*
X0059200Y0012600D01*
X0063200Y0012600D01*
X0063200Y0014023D01*
X0060623Y0016600D01*
X0059200Y0016600D01*
X0059200Y0012600D01*
X0058400Y0012600D01*
X0058400Y0016600D01*
X0056977Y0016600D01*
X0054400Y0014023D01*
X0054400Y0012600D01*
X0058400Y0012600D01*
X0058400Y0011800D01*
X0059200Y0011800D01*
X0059200Y0007800D01*
X0060623Y0007800D01*
X0063200Y0010377D01*
X0063200Y0011800D01*
X0063200Y0012978D02*
X0065827Y0012978D01*
X0065730Y0013776D02*
X0063200Y0013776D01*
X0062648Y0014575D02*
X0065425Y0014575D01*
X0065425Y0015373D02*
X0061849Y0015373D01*
X0061051Y0016172D02*
X0065425Y0016172D01*
X0065425Y0016970D02*
X0017910Y0016970D01*
X0018708Y0017769D02*
X0025532Y0017769D01*
X0025300Y0018567D02*
X0019507Y0018567D01*
X0014090Y0016970D02*
X0006000Y0016970D01*
X0006000Y0016172D02*
X0046832Y0016172D01*
X0047060Y0016400D02*
X0044600Y0013940D01*
X0044600Y0010460D01*
X0047060Y0008000D01*
X0050540Y0008000D01*
X0053000Y0010460D01*
X0053000Y0013940D01*
X0050540Y0016400D01*
X0047060Y0016400D01*
X0046034Y0015373D02*
X0006000Y0015373D01*
X0006000Y0014575D02*
X0045235Y0014575D01*
X0044600Y0013776D02*
X0006000Y0013776D01*
X0006000Y0012978D02*
X0044600Y0012978D01*
X0044600Y0012179D02*
X0006000Y0012179D01*
X0006000Y0011381D02*
X0044600Y0011381D01*
X0044600Y0010582D02*
X0006000Y0010582D01*
X0006000Y0009784D02*
X0045277Y0009784D01*
X0046075Y0008985D02*
X0006000Y0008985D01*
X0006000Y0008187D02*
X0046874Y0008187D01*
X0050726Y0008187D02*
X0056591Y0008187D01*
X0056977Y0007800D02*
X0058400Y0007800D01*
X0058400Y0011800D01*
X0054400Y0011800D01*
X0054400Y0010377D01*
X0056977Y0007800D01*
X0058400Y0008187D02*
X0059200Y0008187D01*
X0059200Y0008985D02*
X0058400Y0008985D01*
X0058400Y0009784D02*
X0059200Y0009784D01*
X0059200Y0010582D02*
X0058400Y0010582D01*
X0058400Y0011381D02*
X0059200Y0011381D01*
X0058400Y0012179D02*
X0053000Y0012179D01*
X0053000Y0011381D02*
X0054400Y0011381D01*
X0054400Y0010582D02*
X0053000Y0010582D01*
X0052323Y0009784D02*
X0054994Y0009784D01*
X0055792Y0008985D02*
X0051525Y0008985D01*
X0053000Y0012978D02*
X0054400Y0012978D01*
X0054400Y0013776D02*
X0053000Y0013776D01*
X0052365Y0014575D02*
X0054952Y0014575D01*
X0055751Y0015373D02*
X0051566Y0015373D01*
X0050768Y0016172D02*
X0056549Y0016172D01*
X0058400Y0016172D02*
X0059200Y0016172D01*
X0059200Y0015373D02*
X0058400Y0015373D01*
X0058400Y0014575D02*
X0059200Y0014575D01*
X0059200Y0013776D02*
X0058400Y0013776D01*
X0058400Y0012978D02*
X0059200Y0012978D01*
X0063200Y0010582D02*
X0067813Y0010582D01*
X0067813Y0009860D02*
X0065225Y0009860D01*
X0065225Y0008488D01*
X0065321Y0008132D01*
X0065505Y0007813D01*
X0065766Y0007552D01*
X0066085Y0007368D01*
X0066441Y0007272D01*
X0067813Y0007272D01*
X0067813Y0009860D01*
X0067813Y0009784D02*
X0068587Y0009784D01*
X0068587Y0008985D02*
X0067813Y0008985D01*
X0067813Y0008187D02*
X0068587Y0008187D01*
X0068587Y0007388D02*
X0067813Y0007388D01*
X0066050Y0007388D02*
X0006000Y0007388D01*
X0006000Y0017769D02*
X0013292Y0017769D01*
X0012493Y0018567D02*
X0006000Y0018567D01*
X0006000Y0019366D02*
X0011800Y0019366D01*
X0011800Y0020164D02*
X0006000Y0020164D01*
X0006000Y0020963D02*
X0011800Y0020963D01*
X0011800Y0021761D02*
X0006000Y0021761D01*
X0006000Y0022560D02*
X0011800Y0022560D01*
X0011784Y0023358D02*
X0006000Y0023358D01*
X0006000Y0024157D02*
X0011454Y0024157D01*
X0011454Y0024955D02*
X0006000Y0024955D01*
X0006000Y0025754D02*
X0011454Y0025754D01*
X0011454Y0026552D02*
X0006000Y0026552D01*
X0006000Y0027351D02*
X0011454Y0027351D01*
X0011454Y0028149D02*
X0006000Y0028149D01*
X0006000Y0028948D02*
X0011454Y0028948D01*
X0011454Y0029746D02*
X0006000Y0029746D01*
X0006000Y0030545D02*
X0011454Y0030545D01*
X0011454Y0031343D02*
X0006000Y0031343D01*
X0006000Y0032142D02*
X0011826Y0032142D01*
X0006000Y0032940D02*
X0025300Y0032940D01*
X0025300Y0032142D02*
X0020174Y0032142D01*
X0020546Y0031343D02*
X0025300Y0031343D01*
X0025300Y0030545D02*
X0020546Y0030545D01*
X0020546Y0029746D02*
X0025300Y0029746D01*
X0025300Y0028948D02*
X0020546Y0028948D01*
X0020546Y0028149D02*
X0025300Y0028149D01*
X0025300Y0027351D02*
X0020546Y0027351D01*
X0020546Y0026552D02*
X0025300Y0026552D01*
X0025300Y0025754D02*
X0020546Y0025754D01*
X0020546Y0024955D02*
X0025300Y0024955D01*
X0025300Y0024157D02*
X0020546Y0024157D01*
X0025300Y0033739D02*
X0006000Y0033739D01*
X0006000Y0034537D02*
X0025300Y0034537D01*
X0025300Y0035336D02*
X0006000Y0035336D01*
X0006000Y0036134D02*
X0025300Y0036134D01*
X0025300Y0036933D02*
X0006000Y0036933D01*
X0006000Y0037732D02*
X0025300Y0037732D01*
X0025300Y0038530D02*
X0006000Y0038530D01*
X0006000Y0039329D02*
X0011955Y0039329D01*
X0011454Y0040127D02*
X0006000Y0040127D01*
X0006000Y0040926D02*
X0011454Y0040926D01*
X0011454Y0041724D02*
X0006000Y0041724D01*
X0006000Y0042523D02*
X0011454Y0042523D01*
X0011454Y0043321D02*
X0006000Y0043321D01*
X0006000Y0044120D02*
X0011454Y0044120D01*
X0011454Y0044918D02*
X0006000Y0044918D01*
X0006000Y0045717D02*
X0011454Y0045717D01*
X0011454Y0046515D02*
X0006000Y0046515D01*
X0006000Y0047314D02*
X0011454Y0047314D01*
X0011654Y0048112D02*
X0006000Y0048112D01*
X0006000Y0048911D02*
X0012150Y0048911D01*
X0011800Y0049709D02*
X0006000Y0049709D01*
X0006000Y0050508D02*
X0011800Y0050508D01*
X0011800Y0051306D02*
X0006000Y0051306D01*
X0006000Y0052105D02*
X0011800Y0052105D01*
X0011964Y0052903D02*
X0006000Y0052903D01*
X0006000Y0053702D02*
X0012762Y0053702D01*
X0013561Y0054500D02*
X0006000Y0054500D01*
X0006000Y0055299D02*
X0022474Y0055299D01*
X0022474Y0056097D02*
X0006000Y0056097D01*
X0018439Y0054500D02*
X0022474Y0054500D01*
X0022474Y0053702D02*
X0019238Y0053702D01*
X0020036Y0052903D02*
X0022474Y0052903D01*
X0022474Y0052105D02*
X0020200Y0052105D01*
X0020200Y0051306D02*
X0022474Y0051306D01*
X0022557Y0050508D02*
X0020200Y0050508D01*
X0030737Y0049709D02*
X0049570Y0049709D01*
X0049485Y0050508D02*
X0049326Y0050508D01*
X0049326Y0051306D02*
X0049485Y0051306D01*
X0049485Y0052105D02*
X0049326Y0052105D01*
X0049326Y0052903D02*
X0049485Y0052903D01*
X0049485Y0053702D02*
X0049326Y0053702D01*
X0049326Y0054500D02*
X0049654Y0054500D01*
X0049326Y0055299D02*
X0054500Y0055299D01*
X0054500Y0056097D02*
X0049326Y0056097D01*
X0049326Y0056896D02*
X0054500Y0056896D01*
X0053593Y0057694D02*
X0049326Y0057694D01*
X0049326Y0058493D02*
X0053225Y0058493D01*
X0053225Y0059291D02*
X0049326Y0059291D01*
X0049326Y0060090D02*
X0053225Y0060090D01*
X0053225Y0060888D02*
X0049326Y0060888D01*
X0049326Y0061687D02*
X0053225Y0061687D01*
X0053225Y0062485D02*
X0049326Y0062485D01*
X0050768Y0063284D02*
X0051232Y0063284D01*
X0051178Y0064082D02*
X0050822Y0064082D01*
X0050822Y0064881D02*
X0051178Y0064881D01*
X0051178Y0065679D02*
X0050822Y0065679D01*
X0050822Y0066478D02*
X0051178Y0066478D01*
X0051178Y0067276D02*
X0050822Y0067276D01*
X0050822Y0068075D02*
X0051178Y0068075D01*
X0051389Y0068873D02*
X0050611Y0068873D01*
X0044696Y0068873D02*
X0042304Y0068873D01*
X0042515Y0068075D02*
X0044485Y0068075D01*
X0036389Y0068873D02*
X0035830Y0068873D01*
X0036022Y0068075D02*
X0036178Y0068075D01*
X0036178Y0067276D02*
X0036022Y0067276D01*
X0036022Y0066478D02*
X0036178Y0066478D01*
X0033054Y0064881D02*
X0032254Y0064881D01*
X0032253Y0065679D02*
X0006000Y0065679D01*
X0006000Y0064881D02*
X0029285Y0064881D01*
X0029285Y0066478D02*
X0006000Y0066478D01*
X0006000Y0067276D02*
X0029285Y0067276D01*
X0029285Y0068075D02*
X0006000Y0068075D01*
X0006000Y0068873D02*
X0029477Y0068873D01*
X0029746Y0072866D02*
X0028946Y0072866D01*
X0028946Y0073665D02*
X0029746Y0073665D01*
X0029746Y0074463D02*
X0028946Y0074463D01*
X0028946Y0075262D02*
X0029746Y0075262D01*
X0028946Y0076060D02*
X0025822Y0076060D01*
X0025822Y0075262D02*
X0025978Y0075262D01*
X0025978Y0074463D02*
X0025822Y0074463D01*
X0025822Y0073665D02*
X0025978Y0073665D01*
X0026367Y0072866D02*
X0025350Y0072866D01*
X0025822Y0076859D02*
X0025978Y0076859D01*
X0025978Y0077657D02*
X0025822Y0077657D01*
X0025822Y0078456D02*
X0026006Y0078456D01*
X0026487Y0079254D02*
X0025230Y0079254D01*
X0024254Y0080053D02*
X0033123Y0080053D01*
X0032324Y0079254D02*
X0032206Y0079254D01*
X0031828Y0080851D02*
X0034400Y0080851D01*
X0034435Y0081650D02*
X0032515Y0081650D01*
X0032515Y0082448D02*
X0034435Y0082448D01*
X0036000Y0080854D02*
X0037800Y0082654D01*
X0036254Y0084200D01*
X0029346Y0084200D01*
X0026178Y0084045D02*
X0025822Y0084045D01*
X0025822Y0083247D02*
X0026178Y0083247D01*
X0026178Y0082448D02*
X0025822Y0082448D01*
X0025822Y0081650D02*
X0026178Y0081650D01*
X0026864Y0080851D02*
X0025136Y0080851D01*
X0028946Y0079254D02*
X0029746Y0079254D01*
X0029746Y0078456D02*
X0028946Y0078456D01*
X0028946Y0077657D02*
X0029746Y0077657D01*
X0029746Y0076859D02*
X0028946Y0076859D01*
X0036000Y0076000D02*
X0036000Y0080854D01*
X0039676Y0079254D02*
X0042435Y0079254D01*
X0042435Y0078456D02*
X0040287Y0078456D01*
X0041030Y0080053D02*
X0042501Y0080053D01*
X0043164Y0080851D02*
X0041165Y0080851D01*
X0041165Y0081650D02*
X0042866Y0081650D01*
X0042635Y0082448D02*
X0041165Y0082448D01*
X0041165Y0083247D02*
X0042635Y0083247D01*
X0042635Y0084045D02*
X0041165Y0084045D01*
X0044346Y0086000D02*
X0046000Y0084346D01*
X0049346Y0081000D01*
X0052654Y0081000D01*
X0049485Y0083247D02*
X0049365Y0083247D01*
X0049365Y0084045D02*
X0049868Y0084045D01*
X0044346Y0086000D02*
X0035000Y0086000D01*
X0032000Y0089000D01*
X0018800Y0089000D01*
X0016000Y0086200D01*
X0016000Y0086000D01*
X0012897Y0088836D02*
X0006000Y0088836D01*
X0006000Y0088038D02*
X0012098Y0088038D01*
X0011800Y0087239D02*
X0006000Y0087239D01*
X0006000Y0086441D02*
X0011800Y0086441D01*
X0011800Y0085642D02*
X0006000Y0085642D01*
X0006000Y0084844D02*
X0011800Y0084844D01*
X0012015Y0084045D02*
X0006000Y0084045D01*
X0006000Y0083247D02*
X0012814Y0083247D01*
X0013612Y0082448D02*
X0006000Y0082448D01*
X0006000Y0089635D02*
X0013695Y0089635D01*
X0015313Y0092829D02*
X0016687Y0092829D01*
X0016178Y0093627D02*
X0015822Y0093627D01*
X0015822Y0094426D02*
X0016178Y0094426D01*
X0016178Y0095224D02*
X0015822Y0095224D01*
X0015822Y0096023D02*
X0016178Y0096023D01*
X0016178Y0096821D02*
X0015822Y0096821D01*
X0015822Y0097620D02*
X0016178Y0097620D01*
X0016178Y0098418D02*
X0015822Y0098418D01*
X0015268Y0099217D02*
X0016732Y0099217D01*
X0018000Y0100015D02*
X0014254Y0100015D01*
X0014254Y0100814D02*
X0018000Y0100814D01*
X0018350Y0101612D02*
X0014254Y0101612D01*
X0012654Y0102654D02*
X0016000Y0106000D01*
X0016000Y0119346D01*
X0017654Y0121000D01*
X0014485Y0120777D02*
X0006000Y0120777D01*
X0006000Y0121575D02*
X0014485Y0121575D01*
X0014485Y0122374D02*
X0006000Y0122374D01*
X0006000Y0123172D02*
X0014485Y0123172D01*
X0014793Y0123971D02*
X0006000Y0123971D01*
X0006000Y0124769D02*
X0040307Y0124769D01*
X0041105Y0125568D02*
X0006000Y0125568D01*
X0006000Y0126366D02*
X0095100Y0126366D01*
X0095100Y0127165D02*
X0006000Y0127165D01*
X0006000Y0127963D02*
X0095194Y0127963D01*
X0095525Y0128762D02*
X0006000Y0128762D01*
X0006000Y0129560D02*
X0096128Y0129560D01*
X0097240Y0130359D02*
X0006000Y0130359D01*
X0006000Y0131157D02*
X0105843Y0131157D01*
X0106641Y0130359D02*
X0100360Y0130359D01*
X0101472Y0129560D02*
X0107440Y0129560D01*
X0108238Y0128762D02*
X0102075Y0128762D01*
X0102406Y0127963D02*
X0109037Y0127963D01*
X0109835Y0127165D02*
X0102500Y0127165D01*
X0102500Y0126366D02*
X0110634Y0126366D01*
X0111000Y0125568D02*
X0102212Y0125568D01*
X0101802Y0124769D02*
X0111000Y0124769D01*
X0111000Y0123971D02*
X0101003Y0123971D01*
X0100792Y0123172D02*
X0111000Y0123172D01*
X0111000Y0122374D02*
X0100792Y0122374D01*
X0100792Y0121575D02*
X0111000Y0121575D01*
X0111000Y0120777D02*
X0100792Y0120777D01*
X0100792Y0119978D02*
X0111000Y0119978D01*
X0111000Y0119180D02*
X0102352Y0119180D01*
X0102554Y0118381D02*
X0111000Y0118381D01*
X0111000Y0117583D02*
X0102554Y0117583D01*
X0102554Y0116784D02*
X0111000Y0116784D01*
X0111000Y0115986D02*
X0102554Y0115986D01*
X0102554Y0115187D02*
X0111000Y0115187D01*
X0111000Y0114389D02*
X0102554Y0114389D01*
X0102554Y0113590D02*
X0111000Y0113590D01*
X0111000Y0112792D02*
X0102087Y0112792D01*
X0098992Y0116118D02*
X0095118Y0116118D01*
X0096000Y0111993D02*
X0111000Y0111993D01*
X0111000Y0111195D02*
X0096000Y0111195D01*
X0092800Y0111195D02*
X0090946Y0111195D01*
X0090946Y0111993D02*
X0092800Y0111993D01*
X0092800Y0110396D02*
X0090946Y0110396D01*
X0090946Y0109598D02*
X0092800Y0109598D01*
X0092800Y0108799D02*
X0092378Y0108799D01*
X0092515Y0108001D02*
X0092800Y0108001D01*
X0092800Y0107202D02*
X0092515Y0107202D01*
X0092515Y0106403D02*
X0092800Y0106403D01*
X0092800Y0105605D02*
X0092515Y0105605D01*
X0092515Y0104806D02*
X0092800Y0104806D01*
X0092800Y0104008D02*
X0092515Y0104008D01*
X0092387Y0103209D02*
X0092800Y0103209D01*
X0086306Y0103209D02*
X0085694Y0103209D01*
X0085822Y0104008D02*
X0086178Y0104008D01*
X0086178Y0104806D02*
X0085822Y0104806D01*
X0085822Y0105605D02*
X0086178Y0105605D01*
X0086178Y0106403D02*
X0085822Y0106403D01*
X0085822Y0107202D02*
X0086178Y0107202D01*
X0086178Y0108001D02*
X0085822Y0108001D01*
X0085685Y0108799D02*
X0086315Y0108799D01*
X0082654Y0106000D02*
X0082454Y0105800D01*
X0075800Y0105800D01*
X0064400Y0108799D02*
X0063810Y0108799D01*
X0063463Y0109598D02*
X0063012Y0109598D01*
X0062664Y0110396D02*
X0062213Y0110396D01*
X0062202Y0111195D02*
X0061415Y0111195D01*
X0061871Y0111993D02*
X0060616Y0111993D01*
X0060200Y0112792D02*
X0061800Y0112792D01*
X0061800Y0113590D02*
X0060200Y0113590D01*
X0060200Y0114389D02*
X0061800Y0114389D01*
X0061800Y0115187D02*
X0060200Y0115187D01*
X0051800Y0115187D02*
X0050400Y0115187D01*
X0050400Y0114389D02*
X0051800Y0114389D01*
X0051800Y0113590D02*
X0050400Y0113590D01*
X0050400Y0112792D02*
X0051800Y0112792D01*
X0051871Y0111993D02*
X0050295Y0111993D01*
X0050018Y0111195D02*
X0052202Y0111195D01*
X0052664Y0110396D02*
X0049547Y0110396D01*
X0048803Y0109598D02*
X0053463Y0109598D01*
X0050164Y0108001D02*
X0060083Y0108001D01*
X0059285Y0108799D02*
X0047309Y0108799D01*
X0046400Y0108799D02*
X0045600Y0108799D01*
X0045600Y0108699D02*
X0045600Y0105140D01*
X0045600Y0104340D01*
X0041647Y0104340D01*
X0041647Y0101997D01*
X0041743Y0101641D01*
X0041927Y0101321D01*
X0042188Y0101061D01*
X0042444Y0100913D01*
X0041847Y0100316D01*
X0041847Y0098860D01*
X0037318Y0098860D01*
X0036812Y0099365D01*
X0033244Y0099365D01*
X0028992Y0103618D01*
X0029800Y0104426D01*
X0029800Y0107574D01*
X0027574Y0109800D01*
X0025663Y0109800D01*
X0028063Y0112200D01*
X0032263Y0112200D01*
X0042463Y0122400D01*
X0043194Y0122400D01*
X0043134Y0122356D01*
X0042644Y0121866D01*
X0042237Y0121306D01*
X0041922Y0120689D01*
X0041708Y0120030D01*
X0041600Y0119346D01*
X0041600Y0116400D01*
X0045600Y0116400D01*
X0045600Y0115600D01*
X0041600Y0115600D01*
X0041600Y0112654D01*
X0041708Y0111970D01*
X0041922Y0111311D01*
X0042237Y0110694D01*
X0042644Y0110134D01*
X0043134Y0109644D01*
X0043694Y0109237D01*
X0044311Y0108922D01*
X0044970Y0108708D01*
X0045027Y0108699D01*
X0042863Y0108699D01*
X0042507Y0108604D01*
X0042188Y0108419D01*
X0041927Y0108159D01*
X0041743Y0107840D01*
X0041647Y0107484D01*
X0041647Y0105140D01*
X0045600Y0105140D01*
X0046400Y0105140D01*
X0046400Y0108699D01*
X0046400Y0108699D01*
X0046400Y0115600D01*
X0045600Y0115600D01*
X0045600Y0108699D01*
X0045600Y0108699D01*
X0045600Y0108001D02*
X0046400Y0108001D01*
X0046400Y0107202D02*
X0045600Y0107202D01*
X0045600Y0106403D02*
X0046400Y0106403D01*
X0046400Y0105605D02*
X0045600Y0105605D01*
X0045600Y0104806D02*
X0040975Y0104806D01*
X0040974Y0104806D02*
X0041100Y0105599D01*
X0041100Y0105600D01*
X0036400Y0105600D01*
X0036400Y0106400D01*
X0035600Y0106400D01*
X0035600Y0111100D01*
X0035599Y0111100D01*
X0034806Y0110974D01*
X0034042Y0110726D01*
X0033327Y0110362D01*
X0032678Y0109890D01*
X0032110Y0109322D01*
X0031638Y0108673D01*
X0031274Y0107958D01*
X0031026Y0107194D01*
X0030900Y0106401D01*
X0030900Y0106400D01*
X0035600Y0106400D01*
X0035600Y0105600D01*
X0030900Y0105600D01*
X0030900Y0105599D01*
X0031026Y0104806D01*
X0031274Y0104042D01*
X0031638Y0103327D01*
X0032110Y0102678D01*
X0032678Y0102110D01*
X0033327Y0101638D01*
X0034042Y0101274D01*
X0034806Y0101026D01*
X0035599Y0100900D01*
X0035600Y0100900D01*
X0035600Y0105600D01*
X0036400Y0105600D01*
X0036400Y0100900D01*
X0036401Y0100900D01*
X0037194Y0101026D01*
X0037958Y0101274D01*
X0038673Y0101638D01*
X0039322Y0102110D01*
X0039890Y0102678D01*
X0040362Y0103327D01*
X0040726Y0104042D01*
X0040974Y0104806D01*
X0040709Y0104008D02*
X0041647Y0104008D01*
X0041647Y0103209D02*
X0040276Y0103209D01*
X0039623Y0102411D02*
X0041647Y0102411D01*
X0041759Y0101612D02*
X0038623Y0101612D01*
X0036400Y0101612D02*
X0035600Y0101612D01*
X0035600Y0102411D02*
X0036400Y0102411D01*
X0036400Y0103209D02*
X0035600Y0103209D01*
X0035600Y0104008D02*
X0036400Y0104008D01*
X0036400Y0104806D02*
X0035600Y0104806D01*
X0035600Y0105605D02*
X0029800Y0105605D01*
X0029800Y0106403D02*
X0030900Y0106403D01*
X0031028Y0107202D02*
X0029800Y0107202D01*
X0029373Y0108001D02*
X0031295Y0108001D01*
X0031730Y0108799D02*
X0028575Y0108799D01*
X0027776Y0109598D02*
X0032385Y0109598D01*
X0033394Y0110396D02*
X0026259Y0110396D01*
X0027057Y0111195D02*
X0041982Y0111195D01*
X0041705Y0111993D02*
X0027856Y0111993D01*
X0027400Y0113800D02*
X0020800Y0107200D01*
X0020800Y0101800D01*
X0019600Y0100600D01*
X0019600Y0096000D01*
X0019346Y0096000D01*
X0019600Y0096000D02*
X0027654Y0096000D01*
X0030822Y0096023D02*
X0031178Y0096023D01*
X0031178Y0096821D02*
X0030822Y0096821D01*
X0030822Y0095224D02*
X0031178Y0095224D01*
X0031178Y0094426D02*
X0030822Y0094426D01*
X0030822Y0093627D02*
X0031178Y0093627D01*
X0031687Y0092829D02*
X0030313Y0092829D01*
X0032829Y0090433D02*
X0034435Y0090433D01*
X0034435Y0089635D02*
X0033628Y0089635D01*
X0034426Y0088836D02*
X0034435Y0088836D01*
X0037800Y0089346D02*
X0037800Y0092546D01*
X0034346Y0096000D01*
X0026000Y0104346D01*
X0026000Y0106000D01*
X0029382Y0104008D02*
X0031291Y0104008D01*
X0031025Y0104806D02*
X0029800Y0104806D01*
X0029400Y0103209D02*
X0031723Y0103209D01*
X0032377Y0102411D02*
X0030198Y0102411D01*
X0030997Y0101612D02*
X0033377Y0101612D01*
X0031795Y0100814D02*
X0042345Y0100814D01*
X0041847Y0100015D02*
X0032594Y0100015D01*
X0035606Y0097260D02*
X0034346Y0096000D01*
X0035606Y0097260D02*
X0046000Y0097260D01*
X0041847Y0099217D02*
X0036960Y0099217D01*
X0037515Y0095224D02*
X0041847Y0095224D01*
X0041847Y0094426D02*
X0038183Y0094426D01*
X0038982Y0093627D02*
X0042424Y0093627D01*
X0040947Y0092030D02*
X0057119Y0092030D01*
X0057119Y0091232D02*
X0041165Y0091232D01*
X0039400Y0092829D02*
X0057334Y0092829D01*
X0057319Y0093627D02*
X0049576Y0093627D01*
X0050153Y0094426D02*
X0051416Y0094426D01*
X0050709Y0095224D02*
X0050153Y0095224D01*
X0050153Y0096023D02*
X0050635Y0096023D01*
X0050635Y0096821D02*
X0050153Y0096821D01*
X0050153Y0097620D02*
X0053800Y0097620D01*
X0053800Y0098418D02*
X0054600Y0098418D01*
X0054600Y0099217D02*
X0053800Y0099217D01*
X0053800Y0100015D02*
X0054600Y0100015D01*
X0054600Y0100814D02*
X0053800Y0100814D01*
X0051299Y0100814D02*
X0049655Y0100814D01*
X0050153Y0100015D02*
X0050691Y0100015D01*
X0050635Y0099217D02*
X0050153Y0099217D01*
X0050153Y0098418D02*
X0050635Y0098418D01*
X0050241Y0101612D02*
X0051103Y0101612D01*
X0050835Y0102411D02*
X0050353Y0102411D01*
X0050353Y0103209D02*
X0050835Y0103209D01*
X0050835Y0104008D02*
X0050353Y0104008D01*
X0050835Y0104806D02*
X0046400Y0104806D01*
X0050353Y0105605D02*
X0050835Y0105605D01*
X0050835Y0106403D02*
X0050353Y0106403D01*
X0050353Y0107202D02*
X0051225Y0107202D01*
X0046400Y0109598D02*
X0045600Y0109598D01*
X0045600Y0110396D02*
X0046400Y0110396D01*
X0046400Y0111195D02*
X0045600Y0111195D01*
X0045600Y0111993D02*
X0046400Y0111993D01*
X0046400Y0112792D02*
X0045600Y0112792D01*
X0045600Y0113590D02*
X0046400Y0113590D01*
X0046400Y0114389D02*
X0045600Y0114389D01*
X0045600Y0115187D02*
X0046400Y0115187D01*
X0046400Y0115986D02*
X0051800Y0115986D01*
X0051800Y0116784D02*
X0050400Y0116784D01*
X0050400Y0117583D02*
X0051800Y0117583D01*
X0051800Y0118381D02*
X0050400Y0118381D01*
X0050400Y0119180D02*
X0051800Y0119180D01*
X0051859Y0119978D02*
X0050300Y0119978D01*
X0050033Y0120777D02*
X0052190Y0120777D01*
X0052636Y0121575D02*
X0049568Y0121575D01*
X0048842Y0122374D02*
X0053434Y0122374D01*
X0055000Y0124000D02*
X0041800Y0124000D01*
X0031600Y0113800D01*
X0027400Y0113800D01*
X0026524Y0115187D02*
X0024970Y0115187D01*
X0025000Y0114389D02*
X0025726Y0114389D01*
X0024927Y0113590D02*
X0021400Y0113590D01*
X0021400Y0113100D02*
X0021400Y0110063D01*
X0019356Y0108018D01*
X0017600Y0109774D01*
X0017600Y0111243D01*
X0019343Y0109500D01*
X0020600Y0109500D01*
X0020600Y0113100D01*
X0021400Y0113100D01*
X0021400Y0112792D02*
X0020600Y0112792D01*
X0020600Y0111993D02*
X0021400Y0111993D01*
X0021400Y0111195D02*
X0020600Y0111195D01*
X0020600Y0110396D02*
X0021400Y0110396D01*
X0020935Y0109598D02*
X0020600Y0109598D01*
X0020136Y0108799D02*
X0018575Y0108799D01*
X0019246Y0109598D02*
X0017776Y0109598D01*
X0017600Y0110396D02*
X0018447Y0110396D01*
X0017649Y0111195D02*
X0017600Y0111195D01*
X0014400Y0111195D02*
X0006000Y0111195D01*
X0006000Y0111993D02*
X0014400Y0111993D01*
X0014400Y0112792D02*
X0006000Y0112792D01*
X0006000Y0113590D02*
X0014400Y0113590D01*
X0014400Y0114389D02*
X0006000Y0114389D01*
X0006000Y0115187D02*
X0014400Y0115187D01*
X0014400Y0115986D02*
X0006000Y0115986D01*
X0006000Y0116784D02*
X0014400Y0116784D01*
X0014400Y0117583D02*
X0006000Y0117583D01*
X0006000Y0118381D02*
X0014400Y0118381D01*
X0014400Y0119180D02*
X0006000Y0119180D01*
X0006000Y0119978D02*
X0014400Y0119978D01*
X0017600Y0117583D02*
X0021746Y0117583D01*
X0021400Y0116784D02*
X0020600Y0116784D01*
X0020600Y0115986D02*
X0021400Y0115986D01*
X0021400Y0115187D02*
X0020600Y0115187D01*
X0020600Y0114389D02*
X0021400Y0114389D01*
X0024171Y0115986D02*
X0031523Y0115986D01*
X0032321Y0116784D02*
X0023373Y0116784D01*
X0023946Y0117583D02*
X0024746Y0117583D01*
X0024746Y0118381D02*
X0023946Y0118381D01*
X0023946Y0119180D02*
X0024746Y0119180D01*
X0024746Y0119978D02*
X0023946Y0119978D01*
X0023946Y0120777D02*
X0020822Y0120777D01*
X0020822Y0121575D02*
X0020978Y0121575D01*
X0020978Y0122374D02*
X0020822Y0122374D01*
X0020822Y0123172D02*
X0020978Y0123172D01*
X0021226Y0123971D02*
X0020514Y0123971D01*
X0023946Y0123971D02*
X0024746Y0123971D01*
X0024746Y0123172D02*
X0023946Y0123172D01*
X0023946Y0122374D02*
X0024746Y0122374D01*
X0024746Y0121575D02*
X0023946Y0121575D01*
X0024746Y0120777D02*
X0036314Y0120777D01*
X0037112Y0121575D02*
X0027715Y0121575D01*
X0027715Y0122374D02*
X0037911Y0122374D01*
X0038709Y0123172D02*
X0027715Y0123172D01*
X0027467Y0123971D02*
X0039508Y0123971D01*
X0042436Y0122374D02*
X0043158Y0122374D01*
X0042432Y0121575D02*
X0041638Y0121575D01*
X0041967Y0120777D02*
X0040839Y0120777D01*
X0040041Y0119978D02*
X0041700Y0119978D01*
X0041600Y0119180D02*
X0039242Y0119180D01*
X0038444Y0118381D02*
X0041600Y0118381D01*
X0041600Y0117583D02*
X0037645Y0117583D01*
X0036847Y0116784D02*
X0041600Y0116784D01*
X0041600Y0115187D02*
X0035250Y0115187D01*
X0036048Y0115986D02*
X0045600Y0115986D01*
X0041600Y0114389D02*
X0034451Y0114389D01*
X0033653Y0113590D02*
X0041600Y0113590D01*
X0041600Y0112792D02*
X0032854Y0112792D01*
X0035600Y0110396D02*
X0036400Y0110396D01*
X0036400Y0111100D02*
X0036400Y0106400D01*
X0041100Y0106400D01*
X0041100Y0106401D01*
X0040974Y0107194D01*
X0040726Y0107958D01*
X0040362Y0108673D01*
X0039890Y0109322D01*
X0039322Y0109890D01*
X0038673Y0110362D01*
X0037958Y0110726D01*
X0037194Y0110974D01*
X0036401Y0111100D01*
X0036400Y0111100D01*
X0036400Y0109598D02*
X0035600Y0109598D01*
X0035600Y0108799D02*
X0036400Y0108799D01*
X0036400Y0108001D02*
X0035600Y0108001D01*
X0035600Y0107202D02*
X0036400Y0107202D01*
X0036400Y0106403D02*
X0035600Y0106403D01*
X0036400Y0105605D02*
X0041647Y0105605D01*
X0041647Y0106403D02*
X0041100Y0106403D01*
X0040972Y0107202D02*
X0041647Y0107202D01*
X0041836Y0108001D02*
X0040705Y0108001D01*
X0040270Y0108799D02*
X0044691Y0108799D01*
X0043197Y0109598D02*
X0039615Y0109598D01*
X0038606Y0110396D02*
X0042453Y0110396D01*
X0033120Y0117583D02*
X0026946Y0117583D01*
X0027643Y0118381D02*
X0033918Y0118381D01*
X0034717Y0119180D02*
X0027715Y0119180D01*
X0027715Y0119978D02*
X0035515Y0119978D01*
X0020978Y0119978D02*
X0020822Y0119978D01*
X0020822Y0119180D02*
X0020978Y0119180D01*
X0021050Y0118381D02*
X0020822Y0118381D01*
X0018627Y0116784D02*
X0017600Y0116784D01*
X0017600Y0115986D02*
X0017829Y0115986D01*
X0014400Y0110396D02*
X0006000Y0110396D01*
X0006000Y0109598D02*
X0014224Y0109598D01*
X0013425Y0108799D02*
X0006000Y0108799D01*
X0006000Y0108001D02*
X0012627Y0108001D01*
X0012200Y0107202D02*
X0006000Y0107202D01*
X0006000Y0106403D02*
X0012200Y0106403D01*
X0012200Y0105605D02*
X0006000Y0105605D01*
X0006000Y0104806D02*
X0012200Y0104806D01*
X0011745Y0104008D02*
X0006000Y0104008D01*
X0006000Y0103209D02*
X0011054Y0103209D01*
X0011054Y0102411D02*
X0006000Y0102411D01*
X0006000Y0101612D02*
X0011054Y0101612D01*
X0011054Y0100814D02*
X0006000Y0100814D01*
X0006000Y0100015D02*
X0011054Y0100015D01*
X0010040Y0099217D02*
X0006000Y0099217D01*
X0006000Y0098418D02*
X0009485Y0098418D01*
X0009485Y0097620D02*
X0006000Y0097620D01*
X0006000Y0096821D02*
X0009485Y0096821D01*
X0009485Y0096023D02*
X0006000Y0096023D01*
X0006000Y0095224D02*
X0009485Y0095224D01*
X0009485Y0094426D02*
X0006000Y0094426D01*
X0006000Y0093627D02*
X0009485Y0093627D01*
X0009994Y0092829D02*
X0006000Y0092829D01*
X0006000Y0092030D02*
X0034653Y0092030D01*
X0034435Y0091232D02*
X0006000Y0091232D01*
X0006000Y0090433D02*
X0017971Y0090433D01*
X0022006Y0092829D02*
X0024994Y0092829D01*
X0024485Y0093627D02*
X0022515Y0093627D01*
X0025445Y0087239D02*
X0026555Y0087239D01*
X0026178Y0086441D02*
X0025822Y0086441D01*
X0025822Y0085642D02*
X0026178Y0085642D01*
X0026178Y0084844D02*
X0025822Y0084844D01*
X0020077Y0079254D02*
X0018686Y0079254D01*
X0019484Y0078456D02*
X0019485Y0078456D01*
X0006000Y0070470D02*
X0058140Y0070470D01*
X0058140Y0069672D02*
X0006000Y0069672D01*
X0032254Y0064082D02*
X0033054Y0064082D01*
X0033054Y0063284D02*
X0032254Y0063284D01*
X0032254Y0062485D02*
X0033054Y0062485D01*
X0031573Y0056097D02*
X0040627Y0056097D01*
X0040627Y0055299D02*
X0031573Y0055299D01*
X0031573Y0054500D02*
X0040627Y0054500D01*
X0040627Y0053702D02*
X0031573Y0053702D01*
X0031573Y0052903D02*
X0040627Y0052903D01*
X0040627Y0052105D02*
X0031573Y0052105D01*
X0031573Y0051306D02*
X0040627Y0051306D01*
X0040627Y0050508D02*
X0031491Y0050508D01*
X0035800Y0046600D02*
X0045400Y0046600D01*
X0047800Y0044200D01*
X0047800Y0021400D01*
X0046700Y0020164D02*
X0058373Y0020164D01*
X0059171Y0019366D02*
X0046700Y0019366D01*
X0046700Y0018567D02*
X0059970Y0018567D01*
X0061316Y0019484D02*
X0056946Y0023854D01*
X0053000Y0023854D01*
X0056365Y0025754D02*
X0058968Y0025754D01*
X0058107Y0024955D02*
X0063885Y0024955D01*
X0063885Y0025754D02*
X0062632Y0025754D01*
X0064200Y0027600D02*
X0062800Y0029200D01*
X0060800Y0029000D01*
X0057100Y0028948D02*
X0056365Y0028948D01*
X0056365Y0029746D02*
X0057104Y0029746D01*
X0057435Y0030545D02*
X0056365Y0030545D01*
X0056365Y0031343D02*
X0057911Y0031343D01*
X0058717Y0032142D02*
X0056365Y0032142D01*
X0056365Y0032940D02*
X0056765Y0032940D01*
X0056372Y0033739D02*
X0055428Y0033739D01*
X0055428Y0034537D02*
X0056372Y0034537D01*
X0056372Y0035336D02*
X0055428Y0035336D01*
X0055428Y0036134D02*
X0056372Y0036134D01*
X0055428Y0036933D02*
X0059340Y0036933D01*
X0059340Y0036134D02*
X0060140Y0036134D01*
X0060140Y0035336D02*
X0059340Y0035336D01*
X0059340Y0034537D02*
X0060140Y0034537D01*
X0060140Y0033739D02*
X0059340Y0033739D01*
X0059340Y0032940D02*
X0060140Y0032940D01*
X0062716Y0032940D02*
X0063517Y0032940D01*
X0063488Y0033739D02*
X0063109Y0033739D01*
X0063109Y0034537D02*
X0063488Y0034537D01*
X0063109Y0035336D02*
X0066653Y0035336D01*
X0066654Y0036134D02*
X0067454Y0036134D01*
X0067454Y0036933D02*
X0066654Y0036933D01*
X0066654Y0037732D02*
X0067454Y0037732D01*
X0067454Y0038530D02*
X0066654Y0038530D01*
X0064560Y0038530D02*
X0063109Y0038530D01*
X0063109Y0037732D02*
X0063597Y0037732D01*
X0063488Y0036933D02*
X0060140Y0036933D01*
X0060140Y0037732D02*
X0059340Y0037732D01*
X0059340Y0038530D02*
X0060140Y0038530D01*
X0060140Y0039329D02*
X0059340Y0039329D01*
X0059340Y0040127D02*
X0060140Y0040127D01*
X0061412Y0040926D02*
X0053760Y0040926D01*
X0055224Y0040127D02*
X0056560Y0040127D01*
X0056372Y0039329D02*
X0055428Y0039329D01*
X0055428Y0038530D02*
X0056372Y0038530D01*
X0056372Y0037732D02*
X0055428Y0037732D01*
X0053000Y0035929D02*
X0052260Y0036669D01*
X0053000Y0035929D02*
X0053000Y0030546D01*
X0056365Y0028149D02*
X0057147Y0028149D01*
X0057478Y0027351D02*
X0046700Y0027351D01*
X0056132Y0026552D02*
X0058015Y0026552D01*
X0058906Y0024157D02*
X0070835Y0024157D01*
X0070835Y0023358D02*
X0059704Y0023358D01*
X0060503Y0022560D02*
X0070835Y0022560D01*
X0070835Y0021761D02*
X0061301Y0021761D01*
X0057574Y0020963D02*
X0055940Y0020963D01*
X0056365Y0021761D02*
X0056776Y0021761D01*
X0061316Y0019484D02*
X0084513Y0019484D01*
X0084513Y0022043D02*
X0074903Y0022043D01*
X0074200Y0022746D01*
X0070578Y0024955D02*
X0070222Y0024955D01*
X0070222Y0025754D02*
X0070578Y0025754D01*
X0070578Y0026552D02*
X0070222Y0026552D01*
X0070222Y0027351D02*
X0070578Y0027351D01*
X0070578Y0028149D02*
X0070222Y0028149D01*
X0070222Y0028948D02*
X0070578Y0028948D01*
X0070578Y0029746D02*
X0070222Y0029746D01*
X0069940Y0030545D02*
X0070860Y0030545D01*
X0070974Y0032142D02*
X0070109Y0032142D01*
X0067454Y0032142D02*
X0066654Y0032142D01*
X0066654Y0032940D02*
X0067454Y0032940D01*
X0067454Y0033739D02*
X0066654Y0033739D01*
X0066654Y0034537D02*
X0067454Y0034537D01*
X0063998Y0032142D02*
X0062883Y0032142D01*
X0063689Y0031343D02*
X0076628Y0031343D01*
X0076519Y0032142D02*
X0076857Y0032142D01*
X0077112Y0032940D02*
X0077338Y0032940D01*
X0077340Y0033739D02*
X0077112Y0033739D01*
X0079600Y0031000D02*
X0080880Y0032280D01*
X0084513Y0032280D01*
X0107487Y0032280D01*
X0113426Y0032280D01*
X0114800Y0033654D01*
X0114800Y0028946D01*
X0114600Y0028746D01*
X0111235Y0028948D02*
X0110837Y0028948D01*
X0110837Y0028936D02*
X0110837Y0029720D01*
X0107488Y0029720D01*
X0107488Y0029721D01*
X0110837Y0029721D01*
X0110837Y0030505D01*
X0110791Y0030680D01*
X0111235Y0030680D01*
X0111235Y0028228D01*
X0110772Y0028691D01*
X0110837Y0028936D01*
X0110837Y0029746D02*
X0111235Y0029746D01*
X0111235Y0030545D02*
X0110827Y0030545D01*
X0107487Y0029720D02*
X0100080Y0029720D01*
X0100000Y0029800D01*
X0098200Y0026800D01*
X0101200Y0023200D02*
X0101200Y0016146D01*
X0101000Y0015946D01*
X0107487Y0014966D02*
X0108654Y0014400D01*
X0107487Y0014966D02*
X0107487Y0019484D01*
X0110600Y0018800D02*
X0111200Y0018200D01*
X0117800Y0018200D01*
X0118400Y0018800D01*
X0118400Y0021687D01*
X0122713Y0026000D01*
X0117800Y0025400D02*
X0117800Y0030200D01*
X0118400Y0030800D01*
X0112400Y0024800D02*
X0110039Y0027161D01*
X0107487Y0027161D01*
X0107487Y0024602D02*
X0102602Y0024602D01*
X0101200Y0023200D01*
X0107487Y0022043D02*
X0109757Y0022043D01*
X0110600Y0021200D01*
X0110600Y0018800D01*
X0111822Y0016600D02*
X0112178Y0016600D01*
X0112178Y0011738D01*
X0112881Y0011035D01*
X0112940Y0011035D01*
X0112940Y0009387D01*
X0112165Y0009387D01*
X0112165Y0011975D01*
X0111822Y0011975D01*
X0111822Y0016600D01*
X0111822Y0016172D02*
X0112178Y0016172D01*
X0112178Y0015373D02*
X0111822Y0015373D01*
X0111822Y0014575D02*
X0112178Y0014575D01*
X0112178Y0013776D02*
X0111822Y0013776D01*
X0111822Y0012978D02*
X0112178Y0012978D01*
X0112178Y0012179D02*
X0111822Y0012179D01*
X0112165Y0011381D02*
X0112535Y0011381D01*
X0112165Y0010582D02*
X0112940Y0010582D01*
X0112940Y0009784D02*
X0112165Y0009784D01*
X0112165Y0008985D02*
X0109422Y0008985D01*
X0109422Y0008187D02*
X0109578Y0008187D01*
X0109578Y0007388D02*
X0109422Y0007388D01*
X0109083Y0006590D02*
X0109844Y0006590D01*
X0112165Y0006590D02*
X0112940Y0006590D01*
X0112940Y0007388D02*
X0112165Y0007388D01*
X0112165Y0008187D02*
X0112940Y0008187D01*
X0115528Y0007388D02*
X0115949Y0007388D01*
X0115262Y0006590D02*
X0117211Y0006590D01*
X0117400Y0008200D02*
X0120047Y0008200D01*
X0119647Y0009000D01*
X0117400Y0008200D02*
X0115346Y0010254D01*
X0115346Y0014400D01*
X0109578Y0010582D02*
X0109422Y0010582D01*
X0109422Y0009784D02*
X0109578Y0009784D01*
X0106647Y0009000D02*
X0105794Y0009254D01*
X0101000Y0009254D01*
X0097635Y0008985D02*
X0096525Y0008985D01*
X0097323Y0009784D02*
X0097635Y0009784D01*
X0097635Y0008187D02*
X0095726Y0008187D01*
X0091874Y0008187D02*
X0085726Y0008187D01*
X0074200Y0016054D02*
X0068299Y0016054D01*
X0068200Y0016153D01*
X0065425Y0017769D02*
X0046468Y0017769D01*
X0061808Y0008985D02*
X0065225Y0008985D01*
X0065225Y0009784D02*
X0062606Y0009784D01*
X0061009Y0008187D02*
X0065306Y0008187D01*
X0067813Y0011381D02*
X0068587Y0011381D01*
X0068587Y0012179D02*
X0067813Y0012179D01*
X0067813Y0012978D02*
X0068587Y0012978D01*
X0070573Y0012978D02*
X0071445Y0012978D01*
X0070835Y0013776D02*
X0070670Y0013776D01*
X0082398Y0024602D02*
X0079600Y0027400D01*
X0073946Y0027400D01*
X0073746Y0027600D01*
X0067054Y0027600D02*
X0064200Y0027600D01*
X0064165Y0030545D02*
X0064168Y0030545D01*
X0063488Y0036134D02*
X0063109Y0036134D01*
X0063109Y0039329D02*
X0072246Y0039329D01*
X0072246Y0038530D02*
X0069547Y0038530D01*
X0070212Y0040127D02*
X0070588Y0040127D01*
X0070578Y0040926D02*
X0070222Y0040926D01*
X0070222Y0041724D02*
X0070578Y0041724D01*
X0070578Y0042523D02*
X0070222Y0042523D01*
X0070222Y0043321D02*
X0070578Y0043321D01*
X0070578Y0044120D02*
X0070222Y0044120D01*
X0070222Y0044918D02*
X0070578Y0044918D01*
X0070832Y0045717D02*
X0069968Y0045717D01*
X0069600Y0046515D02*
X0075364Y0046515D01*
X0074565Y0047314D02*
X0069600Y0047314D01*
X0069600Y0048112D02*
X0074300Y0048112D01*
X0071943Y0048911D02*
X0069600Y0048911D01*
X0069354Y0049709D02*
X0071454Y0049709D01*
X0071454Y0050508D02*
X0068555Y0050508D01*
X0067757Y0051306D02*
X0071454Y0051306D01*
X0071454Y0052105D02*
X0066958Y0052105D01*
X0066159Y0052903D02*
X0071454Y0052903D01*
X0071594Y0053702D02*
X0062515Y0053702D01*
X0062346Y0054500D02*
X0071254Y0054500D01*
X0071254Y0055299D02*
X0061340Y0055299D01*
X0061340Y0056097D02*
X0075711Y0056097D01*
X0076000Y0056000D02*
X0066600Y0056000D01*
X0066400Y0056200D01*
X0071254Y0056896D02*
X0061340Y0056896D01*
X0061340Y0057694D02*
X0071289Y0057694D01*
X0071789Y0058493D02*
X0061340Y0058493D01*
X0061340Y0059291D02*
X0071454Y0059291D01*
X0071454Y0060090D02*
X0061340Y0060090D01*
X0061340Y0060888D02*
X0071454Y0060888D01*
X0071454Y0061687D02*
X0061340Y0061687D01*
X0061340Y0062485D02*
X0071454Y0062485D01*
X0072138Y0063284D02*
X0061340Y0063284D01*
X0059740Y0065000D02*
X0059740Y0052063D01*
X0064737Y0052063D01*
X0068000Y0048800D01*
X0068000Y0041346D01*
X0067054Y0042800D01*
X0067454Y0041200D01*
X0063400Y0041200D01*
X0062800Y0041800D01*
X0062800Y0046000D01*
X0060710Y0048112D02*
X0059168Y0048112D01*
X0059168Y0047314D02*
X0060128Y0047314D01*
X0059828Y0046515D02*
X0059168Y0046515D01*
X0059168Y0045717D02*
X0059828Y0045717D01*
X0060032Y0044918D02*
X0059168Y0044918D01*
X0059168Y0044120D02*
X0060478Y0044120D01*
X0061200Y0043321D02*
X0059168Y0043321D01*
X0059168Y0042523D02*
X0061200Y0042523D01*
X0061200Y0041724D02*
X0058815Y0041724D01*
X0065772Y0046515D02*
X0066400Y0046515D01*
X0066400Y0047314D02*
X0065472Y0047314D01*
X0064890Y0048112D02*
X0066400Y0048112D01*
X0065627Y0048911D02*
X0063538Y0048911D01*
X0062430Y0049709D02*
X0064828Y0049709D01*
X0062062Y0048911D02*
X0058841Y0048911D01*
X0035800Y0046600D02*
X0035800Y0056200D01*
X0057515Y0064082D02*
X0058140Y0064082D01*
X0058140Y0063284D02*
X0058090Y0063284D01*
X0058140Y0064881D02*
X0057515Y0064881D01*
X0057515Y0065679D02*
X0058140Y0065679D01*
X0058140Y0066478D02*
X0057515Y0066478D01*
X0057515Y0067276D02*
X0058140Y0067276D01*
X0058140Y0068075D02*
X0057515Y0068075D01*
X0057304Y0068873D02*
X0058140Y0068873D01*
X0061340Y0068873D02*
X0066904Y0068873D01*
X0066600Y0069672D02*
X0061340Y0069672D01*
X0061340Y0070470D02*
X0066600Y0070470D01*
X0067703Y0068075D02*
X0061340Y0068075D01*
X0061340Y0067276D02*
X0068501Y0067276D01*
X0053800Y0073000D02*
X0053800Y0073600D01*
X0046400Y0078456D02*
X0045600Y0078456D01*
X0045600Y0079254D02*
X0046400Y0079254D01*
X0046400Y0080053D02*
X0045600Y0080053D01*
X0045600Y0080851D02*
X0046400Y0080851D01*
X0053800Y0094426D02*
X0054600Y0094426D01*
X0054600Y0095224D02*
X0053800Y0095224D01*
X0053800Y0096023D02*
X0054600Y0096023D01*
X0054600Y0096821D02*
X0053800Y0096821D01*
X0056984Y0094426D02*
X0057319Y0094426D01*
X0060881Y0094740D02*
X0060881Y0099228D01*
X0061110Y0104806D02*
X0063277Y0104806D01*
X0062479Y0105605D02*
X0060311Y0105605D01*
X0061680Y0106403D02*
X0057565Y0106403D01*
X0057175Y0107202D02*
X0060882Y0107202D01*
X0077000Y0091232D02*
X0077247Y0091232D01*
X0077247Y0090433D02*
X0077000Y0090433D01*
X0077000Y0089635D02*
X0077247Y0089635D01*
X0085953Y0088038D02*
X0086847Y0088038D01*
X0086847Y0087239D02*
X0085953Y0087239D01*
X0085953Y0086441D02*
X0086847Y0086441D01*
X0086889Y0085642D02*
X0085911Y0085642D01*
X0085383Y0084844D02*
X0087092Y0084844D01*
X0086659Y0084045D02*
X0085753Y0084045D01*
X0085753Y0083247D02*
X0086647Y0083247D01*
X0086647Y0082448D02*
X0085753Y0082448D01*
X0090600Y0082448D02*
X0091400Y0082448D01*
X0091400Y0083247D02*
X0090600Y0083247D01*
X0090600Y0084045D02*
X0091400Y0084045D01*
X0091400Y0084844D02*
X0090600Y0084844D01*
X0095353Y0080851D02*
X0096686Y0080851D01*
X0096990Y0080053D02*
X0095353Y0080053D01*
X0095353Y0079254D02*
X0096191Y0079254D01*
X0096600Y0051306D02*
X0111551Y0051306D01*
X0111110Y0050508D02*
X0096600Y0050508D01*
X0096600Y0049709D02*
X0111096Y0049709D01*
X0111096Y0048911D02*
X0096600Y0048911D01*
X0096600Y0048112D02*
X0111096Y0048112D01*
X0111096Y0046515D02*
X0097148Y0046515D01*
X0096600Y0047314D02*
X0115600Y0047314D01*
X0115600Y0048112D02*
X0116400Y0048112D01*
X0116400Y0047314D02*
X0121296Y0047314D01*
X0121296Y0048112D02*
X0120904Y0048112D01*
X0120904Y0048911D02*
X0121296Y0048911D01*
X0121296Y0049709D02*
X0120904Y0049709D01*
X0120890Y0050508D02*
X0121296Y0050508D01*
X0121834Y0051306D02*
X0120449Y0051306D01*
X0116400Y0051306D02*
X0115600Y0051306D01*
X0115600Y0050508D02*
X0116400Y0050508D01*
X0116400Y0049709D02*
X0115600Y0049709D01*
X0115600Y0048911D02*
X0116400Y0048911D01*
X0120904Y0046515D02*
X0121296Y0046515D01*
X0121296Y0045717D02*
X0120904Y0045717D01*
X0120904Y0044918D02*
X0121296Y0044918D01*
X0121296Y0044120D02*
X0120904Y0044120D01*
X0120631Y0043321D02*
X0121647Y0043321D01*
X0122740Y0042523D02*
X0124600Y0042523D01*
X0125013Y0041724D02*
X0123539Y0041724D01*
X0124313Y0040926D02*
X0125800Y0040926D01*
X0129000Y0040926D02*
X0136000Y0040926D01*
X0136000Y0041724D02*
X0129000Y0041724D01*
X0128740Y0042523D02*
X0136000Y0042523D01*
X0136000Y0043321D02*
X0130353Y0043321D01*
X0130704Y0044120D02*
X0136000Y0044120D01*
X0136000Y0044918D02*
X0130704Y0044918D01*
X0130704Y0045717D02*
X0136000Y0045717D01*
X0136000Y0046515D02*
X0130704Y0046515D01*
X0129000Y0040127D02*
X0136000Y0040127D01*
X0136000Y0039329D02*
X0129000Y0039329D01*
X0129000Y0038530D02*
X0136000Y0038530D01*
X0136000Y0037732D02*
X0129000Y0037732D01*
X0129000Y0036933D02*
X0136000Y0036933D01*
X0136000Y0036134D02*
X0129000Y0036134D01*
X0129000Y0035336D02*
X0136000Y0035336D01*
X0136000Y0034537D02*
X0129000Y0034537D01*
X0129000Y0033739D02*
X0136000Y0033739D01*
X0136000Y0032940D02*
X0129000Y0032940D01*
X0129000Y0032142D02*
X0136000Y0032142D01*
X0136000Y0031343D02*
X0129000Y0031343D01*
X0128808Y0030545D02*
X0136000Y0030545D01*
X0136000Y0029746D02*
X0128009Y0029746D01*
X0126905Y0028948D02*
X0136000Y0028948D01*
X0136000Y0028149D02*
X0126905Y0028149D01*
X0126905Y0027351D02*
X0136000Y0027351D01*
X0136000Y0026552D02*
X0126905Y0026552D01*
X0126905Y0025754D02*
X0136000Y0025754D01*
X0136000Y0024955D02*
X0126905Y0024955D01*
X0126905Y0024157D02*
X0136000Y0024157D01*
X0136000Y0023358D02*
X0126905Y0023358D01*
X0126905Y0022560D02*
X0136000Y0022560D01*
X0136000Y0021761D02*
X0126667Y0021761D01*
X0126741Y0020164D02*
X0136000Y0020164D01*
X0136000Y0019366D02*
X0126905Y0019366D01*
X0126905Y0018567D02*
X0136000Y0018567D01*
X0136000Y0017769D02*
X0126905Y0017769D01*
X0126905Y0016970D02*
X0136000Y0016970D01*
X0136000Y0016172D02*
X0126905Y0016172D01*
X0126905Y0015373D02*
X0136000Y0015373D01*
X0136000Y0014575D02*
X0126905Y0014575D01*
X0126905Y0013776D02*
X0136000Y0013776D01*
X0136000Y0012978D02*
X0126905Y0012978D01*
X0126905Y0012179D02*
X0136000Y0012179D01*
X0136000Y0011381D02*
X0128279Y0011381D01*
X0128528Y0010582D02*
X0136000Y0010582D01*
X0136000Y0009784D02*
X0128528Y0009784D01*
X0128528Y0008613D02*
X0125940Y0008613D01*
X0125940Y0006025D01*
X0127312Y0006025D01*
X0127668Y0006121D01*
X0127987Y0006305D01*
X0128248Y0006566D01*
X0128432Y0006885D01*
X0128528Y0007241D01*
X0128528Y0008613D01*
X0128528Y0008187D02*
X0136000Y0008187D01*
X0136000Y0008985D02*
X0125940Y0008985D01*
X0125165Y0008985D02*
X0122422Y0008985D01*
X0122422Y0008187D02*
X0122578Y0008187D01*
X0122578Y0007388D02*
X0122422Y0007388D01*
X0122083Y0006590D02*
X0122844Y0006590D01*
X0125165Y0006590D02*
X0125940Y0006590D01*
X0125940Y0007388D02*
X0125165Y0007388D01*
X0125165Y0008187D02*
X0125940Y0008187D01*
X0128528Y0007388D02*
X0136000Y0007388D01*
X0136000Y0006590D02*
X0128262Y0006590D01*
X0122578Y0009784D02*
X0122422Y0009784D01*
X0122422Y0010582D02*
X0122578Y0010582D01*
X0120000Y0020963D02*
X0136000Y0020963D01*
X0117800Y0025400D02*
X0117200Y0024800D01*
X0114200Y0024800D01*
X0114200Y0022454D01*
X0114600Y0022054D01*
X0114200Y0024800D02*
X0112400Y0024800D01*
X0122713Y0036000D02*
X0122713Y0040287D01*
X0122000Y0041000D01*
X0115454Y0041000D01*
X0114800Y0040346D01*
X0111435Y0040127D02*
X0110637Y0040127D01*
X0110637Y0039329D02*
X0111435Y0039329D01*
X0111435Y0038530D02*
X0110602Y0038530D01*
X0110637Y0037732D02*
X0111584Y0037732D01*
X0107487Y0037398D02*
X0095602Y0037398D01*
X0093200Y0039200D01*
X0087797Y0044918D02*
X0082700Y0044918D01*
X0082700Y0044316D02*
X0082700Y0050095D01*
X0082960Y0049945D01*
X0083316Y0049850D01*
X0085775Y0049850D01*
X0085775Y0052275D01*
X0086225Y0052275D01*
X0086225Y0049850D01*
X0088684Y0049850D01*
X0088700Y0049854D01*
X0088700Y0045821D01*
X0087077Y0044198D01*
X0086960Y0044316D01*
X0082700Y0044316D01*
X0082700Y0045717D02*
X0088595Y0045717D01*
X0088700Y0046515D02*
X0082700Y0046515D01*
X0082700Y0047314D02*
X0088700Y0047314D01*
X0088700Y0048112D02*
X0082700Y0048112D01*
X0082700Y0048911D02*
X0088700Y0048911D01*
X0088700Y0049709D02*
X0082700Y0049709D01*
X0085775Y0050508D02*
X0086225Y0050508D01*
X0086225Y0051306D02*
X0085775Y0051306D01*
X0085775Y0052105D02*
X0086225Y0052105D01*
X0086000Y0052500D02*
X0086000Y0047600D01*
X0085600Y0047200D01*
X0097946Y0045717D02*
X0111096Y0045717D01*
X0111096Y0044918D02*
X0098745Y0044918D01*
X0099543Y0044120D02*
X0104844Y0044120D01*
X0110131Y0044120D02*
X0111096Y0044120D01*
X0111369Y0043321D02*
X0110637Y0043321D01*
X0110637Y0042523D02*
X0111435Y0042523D01*
X0111435Y0041724D02*
X0110637Y0041724D01*
X0110637Y0040926D02*
X0111435Y0040926D01*
X0118165Y0039329D02*
X0118520Y0039329D01*
X0118520Y0038530D02*
X0118165Y0038530D01*
X0118016Y0037732D02*
X0118520Y0037732D01*
X0084513Y0024602D02*
X0082398Y0024602D01*
X0104167Y0006590D02*
X0104211Y0006590D01*
X0025300Y0039329D02*
X0020044Y0039329D01*
X0020546Y0040127D02*
X0025300Y0040127D01*
X0025300Y0040926D02*
X0020546Y0040926D01*
X0020546Y0041724D02*
X0025529Y0041724D01*
X0012654Y0096000D02*
X0012654Y0102654D01*
X0017785Y0102411D02*
X0019148Y0102411D01*
X0019200Y0103209D02*
X0018583Y0103209D01*
X0006000Y0131956D02*
X0105044Y0131956D01*
X0104246Y0132754D02*
X0006000Y0132754D01*
X0006000Y0133553D02*
X0103447Y0133553D01*
X0102649Y0134351D02*
X0006000Y0134351D01*
X0006000Y0135150D02*
X0101850Y0135150D01*
X0101052Y0135948D02*
X0006000Y0135948D01*
D38*
X0072200Y0090800D03*
X0097000Y0064000D03*
X0085600Y0047200D03*
X0093200Y0039200D03*
X0090800Y0035000D03*
X0079600Y0031000D03*
X0062800Y0046000D03*
X0074800Y0010600D03*
D39*
X0098200Y0026800D03*
X0060800Y0029000D03*
X0066400Y0056200D03*
X0035800Y0056200D03*
X0053800Y0073000D03*
X0053800Y0090400D03*
X0083000Y0122000D03*
X0098800Y0127000D03*
D40*
X0075800Y0105800D03*
X0091000Y0081260D03*
X0106900Y0049900D03*
D41*
X0090200Y0045200D02*
X0090200Y0055400D01*
X0089600Y0056000D01*
X0086000Y0056000D01*
X0081200Y0059600D02*
X0080000Y0060800D01*
X0076076Y0060800D01*
X0076000Y0060724D01*
X0081200Y0059600D02*
X0081200Y0040400D01*
X0081643Y0039957D01*
X0084513Y0039957D01*
X0084513Y0042516D02*
X0087516Y0042516D01*
X0090200Y0045200D01*
X0079400Y0044600D02*
X0075800Y0048200D01*
X0075800Y0051076D01*
X0076000Y0051276D01*
X0079400Y0044600D02*
X0079400Y0038000D01*
X0080002Y0037398D01*
X0084513Y0037398D01*
X0084513Y0034839D02*
X0078361Y0034839D01*
X0076400Y0036800D01*
X0073746Y0036800D01*
X0073746Y0035200D01*
X0073746Y0036800D02*
X0073746Y0042800D01*
X0056000Y0045331D02*
X0056000Y0060331D01*
X0056000Y0064346D01*
X0054346Y0066000D01*
X0047654Y0066000D02*
X0047654Y0059583D01*
X0044976Y0056906D01*
X0052260Y0052063D02*
X0052260Y0036669D01*
X0047654Y0066000D02*
X0039346Y0066000D01*
D42*
X0016000Y0051000D02*
X0016000Y0043871D01*
X0016000Y0027729D02*
X0016000Y0021000D01*
X0097000Y0064000D02*
X0107800Y0064000D01*
X0108400Y0063400D01*
X0108400Y0067546D01*
X0108146Y0067800D01*
X0091000Y0079000D02*
X0091000Y0081260D01*
X0123008Y0105882D02*
X0136382Y0105882D01*
X0141500Y0111000D01*
X0166200Y0096798D02*
X0175800Y0096798D01*
X0176000Y0096598D01*
X0176000Y0085402D02*
X0176000Y0071598D01*
X0166400Y0071198D02*
X0166400Y0065600D01*
X0156398Y0065600D01*
X0156200Y0065798D01*
X0166400Y0065600D02*
X0184400Y0065600D01*
X0176000Y0060402D02*
X0166000Y0060402D01*
X0156400Y0054402D02*
X0156200Y0054602D01*
X0156400Y0054402D02*
X0156400Y0047800D01*
X0159287Y0044913D01*
X0159287Y0036000D01*
X0159087Y0036200D01*
X0166400Y0071198D02*
X0166000Y0071598D01*
X0158008Y0075882D02*
X0158008Y0078808D01*
X0159200Y0080000D01*
X0165200Y0080000D01*
X0166400Y0081200D01*
X0166400Y0085402D01*
X0166200Y0085602D01*
X0158008Y0086118D02*
X0158000Y0086126D01*
X0098992Y0116118D02*
X0098992Y0126808D01*
X0098800Y0127000D01*
D43*
X0123008Y0116118D02*
X0123126Y0116000D01*
X0129200Y0116000D01*
X0132800Y0119600D01*
X0158600Y0119600D01*
X0158008Y0119008D01*
X0158008Y0086118D01*
X0184400Y0105200D02*
X0184400Y0065600D01*
X0196000Y0059800D02*
X0168800Y0032600D01*
X0168800Y0015798D01*
X0168402Y0015400D01*
X0167802Y0016000D01*
X0159287Y0016000D01*
X0179598Y0015400D02*
X0230200Y0015400D01*
X0231800Y0017000D01*
X0231800Y0056000D01*
X0196000Y0059800D02*
X0196000Y0096000D01*
X0206000Y0096000D02*
X0206000Y0111200D01*
X0210200Y0115400D01*
X0225912Y0115400D01*
X0226400Y0114912D01*
X0226512Y0114800D01*
X0231800Y0114800D01*
X0233600Y0113000D01*
X0233600Y0103400D01*
X0241000Y0096000D01*
X0226600Y0094198D02*
X0226600Y0103688D01*
X0226400Y0103888D01*
X0240800Y0116000D02*
X0233600Y0123200D01*
X0187400Y0123200D01*
X0183800Y0119600D01*
X0158600Y0119600D01*
X0184400Y0105200D02*
X0190200Y0111000D01*
X0200500Y0111000D01*
X0200700Y0111200D01*
X0206000Y0111200D01*
X0240800Y0116000D02*
X0241000Y0116000D01*
X0226600Y0083002D02*
X0227000Y0082602D01*
X0036000Y0029748D02*
X0027252Y0021000D01*
X0016000Y0021000D01*
D44*
X0216000Y0087200D02*
X0220000Y0083200D01*
X0226402Y0083200D01*
X0226600Y0083002D01*
X0226402Y0083200D01*
X0227000Y0082602D02*
X0227000Y0077600D01*
X0231800Y0072800D01*
X0231800Y0056000D01*
X0241000Y0056000D01*
X0241000Y0076000D02*
X0248000Y0083000D01*
X0248000Y0109000D01*
X0241000Y0116000D01*
X0216000Y0096000D02*
X0216000Y0087200D01*
M02*
