G75*
%MOIN*%
%OFA0B0*%
%FSLAX25Y25*%
%IPPOS*%
%LPD*%
%AMOC8*
5,1,8,0,0,1.08239X$1,22.5*
%
%ADD10C,0.06000*%
%ADD11C,0.06600*%
%ADD12OC8,0.06000*%
%ADD13C,0.05543*%
%ADD14OC8,0.05200*%
%ADD15C,0.07400*%
%ADD16C,0.03543*%
%ADD17C,0.00800*%
%ADD18C,0.05000*%
%ADD19C,0.02781*%
%ADD20C,0.01200*%
%ADD21C,0.01600*%
%ADD22C,0.00600*%
D10*
X0046000Y0113000D02*
X0046000Y0119000D01*
X0056000Y0119000D02*
X0056000Y0113000D01*
X0066000Y0113000D02*
X0066000Y0119000D01*
X0076000Y0119000D02*
X0076000Y0113000D01*
D11*
X0196000Y0099300D02*
X0196000Y0092700D01*
X0206000Y0092700D02*
X0206000Y0099300D01*
X0216000Y0099300D02*
X0216000Y0092700D01*
D12*
X0241000Y0096000D03*
X0241000Y0076000D03*
X0241000Y0056000D03*
X0200500Y0111000D03*
X0241000Y0116000D03*
X0141500Y0111000D03*
X0090600Y0071000D03*
X0080800Y0071000D03*
X0071000Y0071000D03*
X0016000Y0076000D03*
X0016000Y0086000D03*
X0016000Y0051000D03*
X0016000Y0021000D03*
X0048800Y0012200D03*
X0058800Y0012200D03*
X0083800Y0012200D03*
X0093800Y0012200D03*
D13*
X0105000Y0096000D03*
X0077000Y0096000D03*
D14*
X0026000Y0106000D03*
X0016000Y0106000D03*
X0021000Y0113500D03*
D15*
X0036000Y0106000D03*
X0036000Y0076000D03*
D16*
X0072200Y0090800D03*
X0097000Y0064000D03*
X0085600Y0047200D03*
X0093200Y0039200D03*
X0090800Y0035000D03*
X0079600Y0031000D03*
X0062800Y0046000D03*
X0074800Y0010600D03*
D17*
X0085600Y0021400D01*
X0085600Y0047200D01*
X0090800Y0044600D02*
X0090800Y0035000D01*
X0093200Y0039200D02*
X0093200Y0044000D01*
X0102800Y0053000D01*
X0102800Y0083600D01*
X0110600Y0090800D01*
X0110600Y0112400D01*
X0102200Y0120800D01*
X0084200Y0120800D01*
X0083000Y0122000D01*
X0075800Y0105800D02*
X0095600Y0105800D01*
X0100400Y0101000D01*
X0100400Y0054200D01*
X0090800Y0044600D01*
X0098200Y0042400D02*
X0106900Y0049900D01*
X0107200Y0050200D01*
X0098200Y0042400D02*
X0098200Y0026800D01*
X0079600Y0031000D02*
X0076000Y0031000D01*
X0065800Y0020800D01*
X0061000Y0020800D01*
X0056800Y0025000D01*
X0051400Y0025000D01*
X0049000Y0022600D01*
X0049000Y0012400D01*
X0048800Y0012200D01*
X0056800Y0025000D02*
X0056800Y0041200D01*
X0062800Y0046000D01*
X0072400Y0052600D02*
X0072400Y0037000D01*
X0064600Y0029200D01*
X0061000Y0029200D01*
X0072400Y0052600D02*
X0085600Y0065800D01*
X0085600Y0077400D01*
X0072200Y0090800D01*
X0053800Y0090400D02*
X0053800Y0073000D01*
X0066400Y0056200D02*
X0035800Y0056200D01*
D18*
X0035800Y0056200D03*
X0066400Y0056200D03*
X0053800Y0073000D03*
X0053800Y0090400D03*
X0083000Y0122000D03*
X0098800Y0127000D03*
X0060800Y0029000D03*
X0098200Y0026800D03*
D19*
X0106900Y0049900D03*
X0091000Y0081260D03*
X0075800Y0105800D03*
D20*
X0098800Y0127000D02*
X0014200Y0127000D01*
X0010000Y0122800D01*
X0010000Y0057000D01*
X0016000Y0051000D01*
X0091000Y0081260D02*
X0091140Y0081260D01*
X0097000Y0075400D01*
X0097000Y0064000D01*
D21*
X0006000Y0006000D02*
X0006000Y0136000D01*
X0101000Y0136000D01*
X0116000Y0121000D01*
X0116000Y0091000D01*
X0111000Y0086000D01*
X0111000Y0066000D01*
X0121000Y0056000D01*
X0136000Y0056000D01*
X0136000Y0006000D01*
X0006000Y0006000D01*
X0006000Y0007394D02*
X0136000Y0007394D01*
X0136000Y0008993D02*
X0097098Y0008993D01*
X0098400Y0010295D02*
X0095705Y0007600D01*
X0091895Y0007600D01*
X0089200Y0010295D01*
X0089200Y0014105D01*
X0091895Y0016800D01*
X0095705Y0016800D01*
X0098400Y0014105D01*
X0098400Y0010295D01*
X0098400Y0010591D02*
X0136000Y0010591D01*
X0136000Y0012190D02*
X0098400Y0012190D01*
X0098400Y0013788D02*
X0136000Y0013788D01*
X0136000Y0015387D02*
X0097119Y0015387D01*
X0090481Y0015387D02*
X0087119Y0015387D01*
X0088400Y0014105D02*
X0085705Y0016800D01*
X0081895Y0016800D01*
X0079200Y0014105D01*
X0079200Y0010295D01*
X0081895Y0007600D01*
X0085705Y0007600D01*
X0088400Y0010295D01*
X0088400Y0014105D01*
X0088400Y0013788D02*
X0089200Y0013788D01*
X0089200Y0012190D02*
X0088400Y0012190D01*
X0088400Y0010591D02*
X0089200Y0010591D01*
X0090502Y0008993D02*
X0087098Y0008993D01*
X0080502Y0008993D02*
X0062381Y0008993D01*
X0063600Y0010212D02*
X0060788Y0007400D01*
X0059000Y0007400D01*
X0059000Y0012000D01*
X0059000Y0012400D01*
X0063600Y0012400D01*
X0063600Y0014188D01*
X0060788Y0017000D01*
X0059000Y0017000D01*
X0059000Y0012400D01*
X0058600Y0012400D01*
X0058600Y0017000D01*
X0056812Y0017000D01*
X0054000Y0014188D01*
X0054000Y0012400D01*
X0058600Y0012400D01*
X0058600Y0012000D01*
X0059000Y0012000D01*
X0063600Y0012000D01*
X0063600Y0010212D01*
X0063600Y0010591D02*
X0079200Y0010591D01*
X0079200Y0012190D02*
X0059000Y0012190D01*
X0058600Y0012190D02*
X0053400Y0012190D01*
X0054000Y0012000D02*
X0054000Y0010212D01*
X0056812Y0007400D01*
X0058600Y0007400D01*
X0058600Y0012000D01*
X0054000Y0012000D01*
X0054000Y0010591D02*
X0053400Y0010591D01*
X0053400Y0010295D02*
X0053400Y0014105D01*
X0051000Y0016505D01*
X0051000Y0021772D01*
X0052228Y0023000D01*
X0055972Y0023000D01*
X0060172Y0018800D01*
X0066628Y0018800D01*
X0067800Y0019972D01*
X0076828Y0029000D01*
X0076832Y0029000D01*
X0077690Y0028142D01*
X0078929Y0027628D01*
X0080271Y0027628D01*
X0081510Y0028142D01*
X0082458Y0029090D01*
X0082972Y0030329D01*
X0082972Y0031671D01*
X0082458Y0032910D01*
X0081510Y0033858D01*
X0080271Y0034372D01*
X0078929Y0034372D01*
X0077690Y0033858D01*
X0076832Y0033000D01*
X0075172Y0033000D01*
X0064972Y0022800D01*
X0061828Y0022800D01*
X0059547Y0025081D01*
X0059984Y0024900D01*
X0061616Y0024900D01*
X0063122Y0025524D01*
X0064276Y0026678D01*
X0064492Y0027200D01*
X0065428Y0027200D01*
X0066600Y0028372D01*
X0074400Y0036172D01*
X0074400Y0051772D01*
X0086428Y0063800D01*
X0087600Y0064972D01*
X0087600Y0067495D01*
X0088695Y0066400D01*
X0092505Y0066400D01*
X0095200Y0069095D01*
X0095200Y0072905D01*
X0092505Y0075600D01*
X0088695Y0075600D01*
X0087600Y0074505D01*
X0087600Y0078228D01*
X0075572Y0090257D01*
X0075572Y0091471D01*
X0075377Y0091940D01*
X0076130Y0091628D01*
X0077870Y0091628D01*
X0079476Y0092294D01*
X0080706Y0093524D01*
X0081372Y0095130D01*
X0081372Y0096870D01*
X0080706Y0098476D01*
X0079476Y0099706D01*
X0077870Y0100372D01*
X0076130Y0100372D01*
X0074524Y0099706D01*
X0073294Y0098476D01*
X0072628Y0096870D01*
X0072628Y0095130D01*
X0073058Y0094094D01*
X0072871Y0094172D01*
X0071529Y0094172D01*
X0070290Y0093658D01*
X0069342Y0092710D01*
X0068828Y0091471D01*
X0068828Y0090129D01*
X0069342Y0088890D01*
X0070290Y0087942D01*
X0071529Y0087428D01*
X0072743Y0087428D01*
X0083600Y0076572D01*
X0083600Y0074705D01*
X0082705Y0075600D01*
X0078895Y0075600D01*
X0076200Y0072905D01*
X0076200Y0069095D01*
X0078895Y0066400D01*
X0082705Y0066400D01*
X0083600Y0067295D01*
X0083600Y0066628D01*
X0071572Y0054600D01*
X0070400Y0053428D01*
X0070400Y0037828D01*
X0064085Y0031513D01*
X0063122Y0032476D01*
X0061616Y0033100D01*
X0059984Y0033100D01*
X0058800Y0032609D01*
X0058800Y0040239D01*
X0061904Y0042722D01*
X0062129Y0042628D01*
X0063471Y0042628D01*
X0064710Y0043142D01*
X0065658Y0044090D01*
X0066172Y0045329D01*
X0066172Y0046671D01*
X0065658Y0047910D01*
X0064710Y0048858D01*
X0063471Y0049372D01*
X0062129Y0049372D01*
X0060890Y0048858D01*
X0059942Y0047910D01*
X0059428Y0046671D01*
X0059428Y0045864D01*
X0056098Y0043200D01*
X0055972Y0043200D01*
X0055464Y0042693D01*
X0054904Y0042244D01*
X0054890Y0042118D01*
X0054800Y0042028D01*
X0054800Y0041311D01*
X0054721Y0040597D01*
X0054800Y0040498D01*
X0054800Y0027000D01*
X0050572Y0027000D01*
X0048172Y0024600D01*
X0047000Y0023428D01*
X0047000Y0016800D01*
X0046895Y0016800D01*
X0044200Y0014105D01*
X0044200Y0010295D01*
X0046895Y0007600D01*
X0050705Y0007600D01*
X0053400Y0010295D01*
X0052098Y0008993D02*
X0055219Y0008993D01*
X0058600Y0008993D02*
X0059000Y0008993D01*
X0059000Y0010591D02*
X0058600Y0010591D01*
X0058600Y0013788D02*
X0059000Y0013788D01*
X0059000Y0015387D02*
X0058600Y0015387D01*
X0058600Y0016985D02*
X0059000Y0016985D01*
X0060803Y0016985D02*
X0136000Y0016985D01*
X0136000Y0018584D02*
X0051000Y0018584D01*
X0051000Y0020182D02*
X0058789Y0020182D01*
X0057191Y0021781D02*
X0051009Y0021781D01*
X0047000Y0021781D02*
X0020600Y0021781D01*
X0020600Y0022905D02*
X0017905Y0025600D01*
X0014095Y0025600D01*
X0011400Y0022905D01*
X0011400Y0019095D01*
X0014095Y0016400D01*
X0017905Y0016400D01*
X0020600Y0019095D01*
X0020600Y0022905D01*
X0020126Y0023379D02*
X0047000Y0023379D01*
X0048549Y0024978D02*
X0018528Y0024978D01*
X0013472Y0024978D02*
X0006000Y0024978D01*
X0006000Y0026576D02*
X0050148Y0026576D01*
X0054800Y0028175D02*
X0006000Y0028175D01*
X0006000Y0029773D02*
X0054800Y0029773D01*
X0054800Y0031372D02*
X0006000Y0031372D01*
X0006000Y0032970D02*
X0054800Y0032970D01*
X0054800Y0034569D02*
X0006000Y0034569D01*
X0006000Y0036167D02*
X0054800Y0036167D01*
X0054800Y0037766D02*
X0006000Y0037766D01*
X0006000Y0039364D02*
X0054800Y0039364D01*
X0054761Y0040963D02*
X0006000Y0040963D01*
X0006000Y0042561D02*
X0055300Y0042561D01*
X0057298Y0044160D02*
X0006000Y0044160D01*
X0006000Y0045758D02*
X0059296Y0045758D01*
X0059713Y0047357D02*
X0018862Y0047357D01*
X0017905Y0046400D02*
X0020600Y0049095D01*
X0020600Y0052905D01*
X0017905Y0055600D01*
X0014511Y0055600D01*
X0012200Y0057911D01*
X0012200Y0073295D01*
X0014095Y0071400D01*
X0017905Y0071400D01*
X0020600Y0074095D01*
X0020600Y0077905D01*
X0017905Y0080600D01*
X0014095Y0080600D01*
X0012200Y0078705D01*
X0012200Y0083295D01*
X0014095Y0081400D01*
X0017905Y0081400D01*
X0020600Y0084095D01*
X0020600Y0087905D01*
X0017905Y0090600D01*
X0014095Y0090600D01*
X0012200Y0088705D01*
X0012200Y0103860D01*
X0014260Y0101800D01*
X0017740Y0101800D01*
X0020200Y0104260D01*
X0020200Y0107740D01*
X0017740Y0110200D01*
X0014260Y0110200D01*
X0012200Y0108140D01*
X0012200Y0121889D01*
X0015111Y0124800D01*
X0080002Y0124800D01*
X0079524Y0124322D01*
X0078900Y0122816D01*
X0078900Y0122605D01*
X0078606Y0122900D01*
X0076915Y0123600D01*
X0075085Y0123600D01*
X0073394Y0122900D01*
X0072100Y0121606D01*
X0071400Y0119915D01*
X0071400Y0112085D01*
X0072100Y0110394D01*
X0073394Y0109100D01*
X0074674Y0108570D01*
X0074106Y0108335D01*
X0073265Y0107494D01*
X0072809Y0106395D01*
X0072809Y0105205D01*
X0073265Y0104106D01*
X0074106Y0103265D01*
X0075205Y0102809D01*
X0076395Y0102809D01*
X0077494Y0103265D01*
X0078029Y0103800D01*
X0094772Y0103800D01*
X0098400Y0100172D01*
X0098400Y0055028D01*
X0089972Y0046600D01*
X0088800Y0045428D01*
X0088800Y0037768D01*
X0087942Y0036910D01*
X0087428Y0035671D01*
X0087428Y0034329D01*
X0087942Y0033090D01*
X0088890Y0032142D01*
X0090129Y0031628D01*
X0091471Y0031628D01*
X0092710Y0032142D01*
X0093658Y0033090D01*
X0094172Y0034329D01*
X0094172Y0035671D01*
X0094072Y0035912D01*
X0095110Y0036342D01*
X0096058Y0037290D01*
X0096572Y0038529D01*
X0096572Y0039871D01*
X0096058Y0041110D01*
X0095200Y0041968D01*
X0095200Y0043134D01*
X0103591Y0051000D01*
X0103628Y0051000D01*
X0104191Y0051563D01*
X0104772Y0052108D01*
X0104773Y0052145D01*
X0104800Y0052172D01*
X0104800Y0052968D01*
X0104826Y0053764D01*
X0104800Y0053791D01*
X0104800Y0082724D01*
X0111382Y0088800D01*
X0111428Y0088800D01*
X0111986Y0089357D01*
X0112565Y0089892D01*
X0112567Y0089939D01*
X0112600Y0089972D01*
X0112600Y0090760D01*
X0112631Y0091548D01*
X0112600Y0091582D01*
X0112600Y0113228D01*
X0104200Y0121628D01*
X0103028Y0122800D01*
X0087100Y0122800D01*
X0087100Y0122816D01*
X0086476Y0124322D01*
X0085998Y0124800D01*
X0095273Y0124800D01*
X0095324Y0124678D01*
X0096478Y0123524D01*
X0097984Y0122900D01*
X0099616Y0122900D01*
X0101122Y0123524D01*
X0102276Y0124678D01*
X0102900Y0126184D01*
X0102900Y0127816D01*
X0102276Y0129322D01*
X0101122Y0130476D01*
X0099616Y0131100D01*
X0097984Y0131100D01*
X0096478Y0130476D01*
X0095324Y0129322D01*
X0095273Y0129200D01*
X0013289Y0129200D01*
X0009089Y0125000D01*
X0007800Y0123711D01*
X0007800Y0056089D01*
X0011400Y0052489D01*
X0011400Y0049095D01*
X0014095Y0046400D01*
X0017905Y0046400D01*
X0020461Y0048955D02*
X0061124Y0048955D01*
X0064476Y0048955D02*
X0070400Y0048955D01*
X0070400Y0047357D02*
X0065887Y0047357D01*
X0066172Y0045758D02*
X0070400Y0045758D01*
X0070400Y0044160D02*
X0065687Y0044160D01*
X0061703Y0042561D02*
X0070400Y0042561D01*
X0070400Y0040963D02*
X0059705Y0040963D01*
X0058800Y0039364D02*
X0070400Y0039364D01*
X0070337Y0037766D02*
X0058800Y0037766D01*
X0058800Y0036167D02*
X0068739Y0036167D01*
X0067140Y0034569D02*
X0058800Y0034569D01*
X0058800Y0032970D02*
X0059671Y0032970D01*
X0061929Y0032970D02*
X0065542Y0032970D01*
X0069600Y0031372D02*
X0073543Y0031372D01*
X0075142Y0032970D02*
X0071199Y0032970D01*
X0072797Y0034569D02*
X0087428Y0034569D01*
X0087634Y0036167D02*
X0074396Y0036167D01*
X0074400Y0037766D02*
X0088798Y0037766D01*
X0088800Y0039364D02*
X0074400Y0039364D01*
X0074400Y0040963D02*
X0088800Y0040963D01*
X0088800Y0042561D02*
X0074400Y0042561D01*
X0074400Y0044160D02*
X0088800Y0044160D01*
X0089130Y0045758D02*
X0074400Y0045758D01*
X0074400Y0047357D02*
X0090728Y0047357D01*
X0092327Y0048955D02*
X0074400Y0048955D01*
X0074400Y0050554D02*
X0093925Y0050554D01*
X0095524Y0052152D02*
X0074781Y0052152D01*
X0076379Y0053751D02*
X0097122Y0053751D01*
X0098400Y0055349D02*
X0077978Y0055349D01*
X0079576Y0056948D02*
X0098400Y0056948D01*
X0098400Y0058546D02*
X0081175Y0058546D01*
X0082773Y0060145D02*
X0098400Y0060145D01*
X0098400Y0061743D02*
X0084372Y0061743D01*
X0085970Y0063342D02*
X0098400Y0063342D01*
X0098400Y0064940D02*
X0087569Y0064940D01*
X0087600Y0066539D02*
X0088556Y0066539D01*
X0092644Y0066539D02*
X0098400Y0066539D01*
X0098400Y0068137D02*
X0094243Y0068137D01*
X0095200Y0069736D02*
X0098400Y0069736D01*
X0098400Y0071334D02*
X0095200Y0071334D01*
X0095172Y0072933D02*
X0098400Y0072933D01*
X0098400Y0074532D02*
X0093574Y0074532D01*
X0098400Y0076130D02*
X0087600Y0076130D01*
X0087600Y0074532D02*
X0087626Y0074532D01*
X0087600Y0077729D02*
X0098400Y0077729D01*
X0098400Y0079327D02*
X0086501Y0079327D01*
X0082443Y0077729D02*
X0041021Y0077729D01*
X0041300Y0077054D02*
X0040493Y0079002D01*
X0039002Y0080493D01*
X0037054Y0081300D01*
X0034946Y0081300D01*
X0032998Y0080493D01*
X0031507Y0079002D01*
X0030700Y0077054D01*
X0030700Y0074946D01*
X0031507Y0072998D01*
X0032998Y0071507D01*
X0034946Y0070700D01*
X0037054Y0070700D01*
X0039002Y0071507D01*
X0040493Y0072998D01*
X0041300Y0074946D01*
X0041300Y0077054D01*
X0041300Y0076130D02*
X0083600Y0076130D01*
X0080845Y0079327D02*
X0040168Y0079327D01*
X0037958Y0080926D02*
X0079246Y0080926D01*
X0077647Y0082524D02*
X0019029Y0082524D01*
X0020600Y0084123D02*
X0076049Y0084123D01*
X0074450Y0085721D02*
X0020600Y0085721D01*
X0020600Y0087320D02*
X0072852Y0087320D01*
X0069330Y0088918D02*
X0019587Y0088918D01*
X0017989Y0090517D02*
X0068828Y0090517D01*
X0069095Y0092115D02*
X0012200Y0092115D01*
X0012200Y0090517D02*
X0014011Y0090517D01*
X0012413Y0088918D02*
X0012200Y0088918D01*
X0007800Y0088918D02*
X0006000Y0088918D01*
X0006000Y0087320D02*
X0007800Y0087320D01*
X0007800Y0085721D02*
X0006000Y0085721D01*
X0006000Y0084123D02*
X0007800Y0084123D01*
X0007800Y0082524D02*
X0006000Y0082524D01*
X0006000Y0080926D02*
X0007800Y0080926D01*
X0012200Y0080926D02*
X0034042Y0080926D01*
X0031832Y0079327D02*
X0019178Y0079327D01*
X0020600Y0077729D02*
X0030979Y0077729D01*
X0030700Y0076130D02*
X0020600Y0076130D01*
X0020600Y0074532D02*
X0030872Y0074532D01*
X0031572Y0072933D02*
X0019438Y0072933D01*
X0012562Y0072933D02*
X0012200Y0072933D01*
X0012200Y0071334D02*
X0033414Y0071334D01*
X0038586Y0071334D02*
X0066200Y0071334D01*
X0066200Y0071200D02*
X0070800Y0071200D01*
X0070800Y0075800D01*
X0069012Y0075800D01*
X0066200Y0072988D01*
X0066200Y0071200D01*
X0066200Y0070800D02*
X0066200Y0069012D01*
X0069012Y0066200D01*
X0070800Y0066200D01*
X0070800Y0070800D01*
X0071200Y0070800D01*
X0071200Y0071200D01*
X0075800Y0071200D01*
X0075800Y0072988D01*
X0072988Y0075800D01*
X0071200Y0075800D01*
X0071200Y0071200D01*
X0070800Y0071200D01*
X0070800Y0070800D01*
X0066200Y0070800D01*
X0066200Y0069736D02*
X0012200Y0069736D01*
X0007800Y0069736D02*
X0006000Y0069736D01*
X0006000Y0071334D02*
X0007800Y0071334D01*
X0007800Y0072933D02*
X0006000Y0072933D01*
X0006000Y0074532D02*
X0007800Y0074532D01*
X0007800Y0076130D02*
X0006000Y0076130D01*
X0006000Y0077729D02*
X0007800Y0077729D01*
X0007800Y0079327D02*
X0006000Y0079327D01*
X0012200Y0079327D02*
X0012822Y0079327D01*
X0012971Y0082524D02*
X0012200Y0082524D01*
X0007800Y0090517D02*
X0006000Y0090517D01*
X0006000Y0092115D02*
X0007800Y0092115D01*
X0007800Y0093714D02*
X0006000Y0093714D01*
X0006000Y0095312D02*
X0007800Y0095312D01*
X0007800Y0096911D02*
X0006000Y0096911D01*
X0006000Y0098509D02*
X0007800Y0098509D01*
X0007800Y0100108D02*
X0006000Y0100108D01*
X0006000Y0101706D02*
X0007800Y0101706D01*
X0007800Y0103305D02*
X0006000Y0103305D01*
X0006000Y0104903D02*
X0007800Y0104903D01*
X0012200Y0103305D02*
X0012756Y0103305D01*
X0012200Y0101706D02*
X0032553Y0101706D01*
X0032417Y0101805D02*
X0033117Y0101296D01*
X0033889Y0100903D01*
X0034712Y0100635D01*
X0035567Y0100500D01*
X0035914Y0100500D01*
X0035914Y0105914D01*
X0030500Y0105914D01*
X0030500Y0105567D01*
X0030635Y0104712D01*
X0030903Y0103889D01*
X0031296Y0103117D01*
X0031805Y0102417D01*
X0032417Y0101805D01*
X0031201Y0103305D02*
X0029244Y0103305D01*
X0030200Y0104260D02*
X0027740Y0101800D01*
X0024260Y0101800D01*
X0021800Y0104260D01*
X0021800Y0107740D01*
X0024260Y0110200D01*
X0027740Y0110200D01*
X0030200Y0107740D01*
X0030200Y0104260D01*
X0030200Y0104903D02*
X0030605Y0104903D01*
X0030500Y0106086D02*
X0035914Y0106086D01*
X0035914Y0111500D01*
X0035567Y0111500D01*
X0034712Y0111365D01*
X0033889Y0111097D01*
X0033117Y0110704D01*
X0032417Y0110195D01*
X0031805Y0109583D01*
X0031296Y0108883D01*
X0030903Y0108111D01*
X0030635Y0107288D01*
X0030500Y0106433D01*
X0030500Y0106086D01*
X0030511Y0106502D02*
X0030200Y0106502D01*
X0029839Y0108100D02*
X0030899Y0108100D01*
X0031921Y0109699D02*
X0028241Y0109699D01*
X0025400Y0111677D02*
X0025400Y0113500D01*
X0025400Y0115323D01*
X0022823Y0117900D01*
X0021000Y0117900D01*
X0021000Y0113500D01*
X0025400Y0113500D01*
X0021000Y0113500D01*
X0021000Y0113500D01*
X0021000Y0113500D01*
X0021000Y0109100D01*
X0022823Y0109100D01*
X0025400Y0111677D01*
X0025020Y0111297D02*
X0034505Y0111297D01*
X0035914Y0111297D02*
X0036086Y0111297D01*
X0036086Y0111500D02*
X0036086Y0106086D01*
X0035914Y0106086D01*
X0035914Y0105914D01*
X0036086Y0105914D01*
X0036086Y0106086D01*
X0041500Y0106086D01*
X0041500Y0106433D01*
X0041365Y0107288D01*
X0041097Y0108111D01*
X0040704Y0108883D01*
X0040195Y0109583D01*
X0039583Y0110195D01*
X0038883Y0110704D01*
X0038111Y0111097D01*
X0037288Y0111365D01*
X0036433Y0111500D01*
X0036086Y0111500D01*
X0037495Y0111297D02*
X0041506Y0111297D01*
X0041552Y0111157D02*
X0041895Y0110484D01*
X0042339Y0109873D01*
X0042873Y0109339D01*
X0043484Y0108895D01*
X0044157Y0108552D01*
X0044876Y0108318D01*
X0045622Y0108200D01*
X0045800Y0108200D01*
X0045800Y0115800D01*
X0046200Y0115800D01*
X0046200Y0116200D01*
X0050800Y0116200D01*
X0050800Y0119378D01*
X0050682Y0120124D01*
X0050448Y0120843D01*
X0050105Y0121516D01*
X0049661Y0122127D01*
X0049127Y0122661D01*
X0048516Y0123105D01*
X0047843Y0123448D01*
X0047124Y0123682D01*
X0046378Y0123800D01*
X0046200Y0123800D01*
X0046200Y0116200D01*
X0045800Y0116200D01*
X0045800Y0123800D01*
X0045622Y0123800D01*
X0044876Y0123682D01*
X0044157Y0123448D01*
X0043484Y0123105D01*
X0042873Y0122661D01*
X0042339Y0122127D01*
X0041895Y0121516D01*
X0041552Y0120843D01*
X0041318Y0120124D01*
X0041200Y0119378D01*
X0041200Y0116200D01*
X0045800Y0116200D01*
X0045800Y0115800D01*
X0041200Y0115800D01*
X0041200Y0112622D01*
X0041318Y0111876D01*
X0041552Y0111157D01*
X0042513Y0109699D02*
X0040079Y0109699D01*
X0041101Y0108100D02*
X0073871Y0108100D01*
X0072854Y0106502D02*
X0041489Y0106502D01*
X0041500Y0105914D02*
X0036086Y0105914D01*
X0036086Y0100500D01*
X0036433Y0100500D01*
X0037288Y0100635D01*
X0038111Y0100903D01*
X0038883Y0101296D01*
X0039583Y0101805D01*
X0040195Y0102417D01*
X0040704Y0103117D01*
X0041097Y0103889D01*
X0041365Y0104712D01*
X0041500Y0105567D01*
X0041500Y0105914D01*
X0041395Y0104903D02*
X0072934Y0104903D01*
X0074066Y0103305D02*
X0040799Y0103305D01*
X0039447Y0101706D02*
X0096865Y0101706D01*
X0098400Y0100108D02*
X0078507Y0100108D01*
X0080673Y0098509D02*
X0098400Y0098509D01*
X0098400Y0096911D02*
X0081355Y0096911D01*
X0081372Y0095312D02*
X0098400Y0095312D01*
X0098400Y0093714D02*
X0080785Y0093714D01*
X0079045Y0092115D02*
X0098400Y0092115D01*
X0098400Y0090517D02*
X0075572Y0090517D01*
X0076910Y0088918D02*
X0098400Y0088918D01*
X0098400Y0087320D02*
X0078509Y0087320D01*
X0080107Y0085721D02*
X0098400Y0085721D01*
X0098400Y0084123D02*
X0081706Y0084123D01*
X0083304Y0082524D02*
X0098400Y0082524D01*
X0098400Y0080926D02*
X0084903Y0080926D01*
X0077826Y0074532D02*
X0074257Y0074532D01*
X0075800Y0072933D02*
X0076228Y0072933D01*
X0076200Y0071334D02*
X0075800Y0071334D01*
X0075800Y0070800D02*
X0071200Y0070800D01*
X0071200Y0066200D01*
X0072988Y0066200D01*
X0075800Y0069012D01*
X0075800Y0070800D01*
X0075800Y0069736D02*
X0076200Y0069736D01*
X0077157Y0068137D02*
X0074926Y0068137D01*
X0073327Y0066539D02*
X0078756Y0066539D01*
X0081912Y0064940D02*
X0012200Y0064940D01*
X0012200Y0063342D02*
X0080314Y0063342D01*
X0078715Y0061743D02*
X0012200Y0061743D01*
X0012200Y0060145D02*
X0077116Y0060145D01*
X0075518Y0058546D02*
X0012200Y0058546D01*
X0013163Y0056948D02*
X0073919Y0056948D01*
X0072321Y0055349D02*
X0018156Y0055349D01*
X0019754Y0053751D02*
X0070722Y0053751D01*
X0070400Y0052152D02*
X0020600Y0052152D01*
X0020600Y0050554D02*
X0070400Y0050554D01*
X0095200Y0042561D02*
X0136000Y0042561D01*
X0136000Y0040963D02*
X0096119Y0040963D01*
X0096572Y0039364D02*
X0136000Y0039364D01*
X0136000Y0037766D02*
X0096255Y0037766D01*
X0094689Y0036167D02*
X0136000Y0036167D01*
X0136000Y0034569D02*
X0094172Y0034569D01*
X0093538Y0032970D02*
X0136000Y0032970D01*
X0136000Y0031372D02*
X0082972Y0031372D01*
X0082398Y0032970D02*
X0088062Y0032970D01*
X0082741Y0029773D02*
X0136000Y0029773D01*
X0136000Y0028175D02*
X0081543Y0028175D01*
X0077657Y0028175D02*
X0076003Y0028175D01*
X0074405Y0026576D02*
X0136000Y0026576D01*
X0136000Y0024978D02*
X0072806Y0024978D01*
X0071208Y0023379D02*
X0136000Y0023379D01*
X0136000Y0021781D02*
X0069609Y0021781D01*
X0068011Y0020182D02*
X0136000Y0020182D01*
X0136000Y0044160D02*
X0096295Y0044160D01*
X0098000Y0045758D02*
X0136000Y0045758D01*
X0136000Y0047357D02*
X0099705Y0047357D01*
X0101410Y0048955D02*
X0136000Y0048955D01*
X0136000Y0050554D02*
X0103115Y0050554D01*
X0104781Y0052152D02*
X0136000Y0052152D01*
X0136000Y0053751D02*
X0104825Y0053751D01*
X0104800Y0055349D02*
X0136000Y0055349D01*
X0120052Y0056948D02*
X0104800Y0056948D01*
X0104800Y0058546D02*
X0118454Y0058546D01*
X0116855Y0060145D02*
X0104800Y0060145D01*
X0104800Y0061743D02*
X0115257Y0061743D01*
X0113658Y0063342D02*
X0104800Y0063342D01*
X0104800Y0064940D02*
X0112060Y0064940D01*
X0111000Y0066539D02*
X0104800Y0066539D01*
X0104800Y0068137D02*
X0111000Y0068137D01*
X0111000Y0069736D02*
X0104800Y0069736D01*
X0104800Y0071334D02*
X0111000Y0071334D01*
X0111000Y0072933D02*
X0104800Y0072933D01*
X0104800Y0074532D02*
X0111000Y0074532D01*
X0111000Y0076130D02*
X0104800Y0076130D01*
X0104800Y0077729D02*
X0111000Y0077729D01*
X0111000Y0079327D02*
X0104800Y0079327D01*
X0104800Y0080926D02*
X0111000Y0080926D01*
X0111000Y0082524D02*
X0104800Y0082524D01*
X0106315Y0084123D02*
X0111000Y0084123D01*
X0111000Y0085721D02*
X0108046Y0085721D01*
X0109778Y0087320D02*
X0112320Y0087320D01*
X0111547Y0088918D02*
X0113918Y0088918D01*
X0112600Y0090517D02*
X0115517Y0090517D01*
X0116000Y0092115D02*
X0112600Y0092115D01*
X0112600Y0093714D02*
X0116000Y0093714D01*
X0116000Y0095312D02*
X0112600Y0095312D01*
X0112600Y0096911D02*
X0116000Y0096911D01*
X0116000Y0098509D02*
X0112600Y0098509D01*
X0112600Y0100108D02*
X0116000Y0100108D01*
X0116000Y0101706D02*
X0112600Y0101706D01*
X0112600Y0103305D02*
X0116000Y0103305D01*
X0116000Y0104903D02*
X0112600Y0104903D01*
X0112600Y0106502D02*
X0116000Y0106502D01*
X0116000Y0108100D02*
X0112600Y0108100D01*
X0112600Y0109699D02*
X0116000Y0109699D01*
X0116000Y0111297D02*
X0112600Y0111297D01*
X0112600Y0112896D02*
X0116000Y0112896D01*
X0116000Y0114494D02*
X0111334Y0114494D01*
X0109736Y0116093D02*
X0116000Y0116093D01*
X0116000Y0117691D02*
X0108137Y0117691D01*
X0106539Y0119290D02*
X0116000Y0119290D01*
X0116000Y0120888D02*
X0104940Y0120888D01*
X0103342Y0122487D02*
X0114513Y0122487D01*
X0112915Y0124085D02*
X0101684Y0124085D01*
X0102693Y0125684D02*
X0111316Y0125684D01*
X0109718Y0127282D02*
X0102900Y0127282D01*
X0102459Y0128881D02*
X0108119Y0128881D01*
X0106521Y0130479D02*
X0101114Y0130479D01*
X0104922Y0132078D02*
X0006000Y0132078D01*
X0006000Y0133676D02*
X0103324Y0133676D01*
X0101725Y0135275D02*
X0006000Y0135275D01*
X0006000Y0130479D02*
X0096486Y0130479D01*
X0095916Y0124085D02*
X0086574Y0124085D01*
X0079426Y0124085D02*
X0014397Y0124085D01*
X0012798Y0122487D02*
X0042699Y0122487D01*
X0041575Y0120888D02*
X0012200Y0120888D01*
X0012200Y0119290D02*
X0041200Y0119290D01*
X0045800Y0119290D02*
X0046200Y0119290D01*
X0046200Y0120888D02*
X0045800Y0120888D01*
X0045800Y0122487D02*
X0046200Y0122487D01*
X0049301Y0122487D02*
X0052981Y0122487D01*
X0053394Y0122900D02*
X0052100Y0121606D01*
X0051400Y0119915D01*
X0051400Y0112085D01*
X0052100Y0110394D01*
X0053394Y0109100D01*
X0055085Y0108400D01*
X0056915Y0108400D01*
X0058606Y0109100D01*
X0059900Y0110394D01*
X0060600Y0112085D01*
X0060600Y0119915D01*
X0059900Y0121606D01*
X0058606Y0122900D01*
X0056915Y0123600D01*
X0055085Y0123600D01*
X0053394Y0122900D01*
X0051803Y0120888D02*
X0050425Y0120888D01*
X0050800Y0119290D02*
X0051400Y0119290D01*
X0051400Y0117691D02*
X0050800Y0117691D01*
X0051400Y0116093D02*
X0046200Y0116093D01*
X0046200Y0115800D02*
X0050800Y0115800D01*
X0050800Y0112622D01*
X0050682Y0111876D01*
X0050448Y0111157D01*
X0050105Y0110484D01*
X0049661Y0109873D01*
X0049127Y0109339D01*
X0048516Y0108895D01*
X0047843Y0108552D01*
X0047124Y0108318D01*
X0046378Y0108200D01*
X0046200Y0108200D01*
X0046200Y0115800D01*
X0045800Y0116093D02*
X0024630Y0116093D01*
X0025400Y0114494D02*
X0041200Y0114494D01*
X0041200Y0112896D02*
X0025400Y0112896D01*
X0021000Y0112896D02*
X0021000Y0112896D01*
X0021000Y0113500D02*
X0021000Y0113500D01*
X0021000Y0113500D01*
X0016600Y0113500D01*
X0016600Y0115323D01*
X0019177Y0117900D01*
X0021000Y0117900D01*
X0021000Y0113500D01*
X0021000Y0109100D01*
X0019177Y0109100D01*
X0016600Y0111677D01*
X0016600Y0113500D01*
X0021000Y0113500D01*
X0021000Y0114494D02*
X0021000Y0114494D01*
X0021000Y0116093D02*
X0021000Y0116093D01*
X0021000Y0117691D02*
X0021000Y0117691D01*
X0023031Y0117691D02*
X0041200Y0117691D01*
X0045800Y0117691D02*
X0046200Y0117691D01*
X0046200Y0114494D02*
X0045800Y0114494D01*
X0045800Y0112896D02*
X0046200Y0112896D01*
X0046200Y0111297D02*
X0045800Y0111297D01*
X0045800Y0109699D02*
X0046200Y0109699D01*
X0049487Y0109699D02*
X0052796Y0109699D01*
X0051726Y0111297D02*
X0050494Y0111297D01*
X0050800Y0112896D02*
X0051400Y0112896D01*
X0051400Y0114494D02*
X0050800Y0114494D01*
X0059204Y0109699D02*
X0062796Y0109699D01*
X0063394Y0109100D02*
X0062100Y0110394D01*
X0061400Y0112085D01*
X0061400Y0119915D01*
X0062100Y0121606D01*
X0063394Y0122900D01*
X0065085Y0123600D01*
X0066915Y0123600D01*
X0068606Y0122900D01*
X0069900Y0121606D01*
X0070600Y0119915D01*
X0070600Y0112085D01*
X0069900Y0110394D01*
X0068606Y0109100D01*
X0066915Y0108400D01*
X0065085Y0108400D01*
X0063394Y0109100D01*
X0061726Y0111297D02*
X0060274Y0111297D01*
X0060600Y0112896D02*
X0061400Y0112896D01*
X0061400Y0114494D02*
X0060600Y0114494D01*
X0060600Y0116093D02*
X0061400Y0116093D01*
X0061400Y0117691D02*
X0060600Y0117691D01*
X0060600Y0119290D02*
X0061400Y0119290D01*
X0061803Y0120888D02*
X0060197Y0120888D01*
X0059019Y0122487D02*
X0062981Y0122487D01*
X0069019Y0122487D02*
X0072981Y0122487D01*
X0071803Y0120888D02*
X0070197Y0120888D01*
X0070600Y0119290D02*
X0071400Y0119290D01*
X0071400Y0117691D02*
X0070600Y0117691D01*
X0070600Y0116093D02*
X0071400Y0116093D01*
X0071400Y0114494D02*
X0070600Y0114494D01*
X0070600Y0112896D02*
X0071400Y0112896D01*
X0071726Y0111297D02*
X0070274Y0111297D01*
X0069204Y0109699D02*
X0072796Y0109699D01*
X0077126Y0108488D02*
X0078606Y0109100D01*
X0079900Y0110394D01*
X0080600Y0112085D01*
X0080600Y0118602D01*
X0080678Y0118524D01*
X0082184Y0117900D01*
X0083816Y0117900D01*
X0085322Y0118524D01*
X0085598Y0118800D01*
X0101372Y0118800D01*
X0108600Y0111572D01*
X0108600Y0098823D01*
X0108487Y0098978D01*
X0107978Y0099487D01*
X0107396Y0099910D01*
X0106755Y0100237D01*
X0106071Y0100459D01*
X0105360Y0100572D01*
X0105086Y0100572D01*
X0105086Y0096086D01*
X0104914Y0096086D01*
X0104914Y0100572D01*
X0104640Y0100572D01*
X0103929Y0100459D01*
X0103245Y0100237D01*
X0102604Y0099910D01*
X0102400Y0099762D01*
X0102400Y0100172D01*
X0102400Y0101828D01*
X0096428Y0107800D01*
X0078029Y0107800D01*
X0077494Y0108335D01*
X0077126Y0108488D01*
X0077729Y0108100D02*
X0108600Y0108100D01*
X0108600Y0106502D02*
X0097727Y0106502D01*
X0099325Y0104903D02*
X0108600Y0104903D01*
X0108600Y0103305D02*
X0100924Y0103305D01*
X0102400Y0101706D02*
X0108600Y0101706D01*
X0108600Y0100108D02*
X0107008Y0100108D01*
X0105086Y0100108D02*
X0104914Y0100108D01*
X0104914Y0098509D02*
X0105086Y0098509D01*
X0105086Y0096911D02*
X0104914Y0096911D01*
X0104914Y0095914D02*
X0105086Y0095914D01*
X0105086Y0091428D01*
X0105360Y0091428D01*
X0106071Y0091541D01*
X0106755Y0091763D01*
X0107396Y0092090D01*
X0107978Y0092513D01*
X0108487Y0093022D01*
X0108600Y0093177D01*
X0108600Y0091676D01*
X0102400Y0085953D01*
X0102400Y0092238D01*
X0102604Y0092090D01*
X0103245Y0091763D01*
X0103929Y0091541D01*
X0104640Y0091428D01*
X0104914Y0091428D01*
X0104914Y0095914D01*
X0104914Y0095312D02*
X0105086Y0095312D01*
X0105086Y0093714D02*
X0104914Y0093714D01*
X0104914Y0092115D02*
X0105086Y0092115D01*
X0107431Y0092115D02*
X0108600Y0092115D01*
X0107344Y0090517D02*
X0102400Y0090517D01*
X0102400Y0092115D02*
X0102569Y0092115D01*
X0102400Y0088918D02*
X0105613Y0088918D01*
X0103881Y0087320D02*
X0102400Y0087320D01*
X0102400Y0100108D02*
X0102992Y0100108D01*
X0095267Y0103305D02*
X0077534Y0103305D01*
X0075493Y0100108D02*
X0012200Y0100108D01*
X0012200Y0098509D02*
X0073327Y0098509D01*
X0072645Y0096911D02*
X0012200Y0096911D01*
X0012200Y0095312D02*
X0072628Y0095312D01*
X0070424Y0093714D02*
X0012200Y0093714D01*
X0019244Y0103305D02*
X0022756Y0103305D01*
X0021800Y0104903D02*
X0020200Y0104903D01*
X0020200Y0106502D02*
X0021800Y0106502D01*
X0022161Y0108100D02*
X0019839Y0108100D01*
X0021000Y0109699D02*
X0021000Y0109699D01*
X0021000Y0111297D02*
X0021000Y0111297D01*
X0023421Y0109699D02*
X0023759Y0109699D01*
X0018579Y0109699D02*
X0018241Y0109699D01*
X0016980Y0111297D02*
X0012200Y0111297D01*
X0012200Y0109699D02*
X0013759Y0109699D01*
X0012200Y0112896D02*
X0016600Y0112896D01*
X0016600Y0114494D02*
X0012200Y0114494D01*
X0012200Y0116093D02*
X0017370Y0116093D01*
X0018969Y0117691D02*
X0012200Y0117691D01*
X0007800Y0117691D02*
X0006000Y0117691D01*
X0006000Y0116093D02*
X0007800Y0116093D01*
X0007800Y0114494D02*
X0006000Y0114494D01*
X0006000Y0112896D02*
X0007800Y0112896D01*
X0007800Y0111297D02*
X0006000Y0111297D01*
X0006000Y0109699D02*
X0007800Y0109699D01*
X0007800Y0108100D02*
X0006000Y0108100D01*
X0006000Y0106502D02*
X0007800Y0106502D01*
X0007800Y0119290D02*
X0006000Y0119290D01*
X0006000Y0120888D02*
X0007800Y0120888D01*
X0007800Y0122487D02*
X0006000Y0122487D01*
X0006000Y0124085D02*
X0008174Y0124085D01*
X0009773Y0125684D02*
X0006000Y0125684D01*
X0006000Y0127282D02*
X0011371Y0127282D01*
X0012970Y0128881D02*
X0006000Y0128881D01*
X0035914Y0109699D02*
X0036086Y0109699D01*
X0036086Y0108100D02*
X0035914Y0108100D01*
X0035914Y0106502D02*
X0036086Y0106502D01*
X0036086Y0104903D02*
X0035914Y0104903D01*
X0035914Y0103305D02*
X0036086Y0103305D01*
X0036086Y0101706D02*
X0035914Y0101706D01*
X0079204Y0109699D02*
X0108600Y0109699D01*
X0108600Y0111297D02*
X0080274Y0111297D01*
X0080600Y0112896D02*
X0107276Y0112896D01*
X0105677Y0114494D02*
X0080600Y0114494D01*
X0080600Y0116093D02*
X0104079Y0116093D01*
X0102480Y0117691D02*
X0080600Y0117691D01*
X0071200Y0074532D02*
X0070800Y0074532D01*
X0070800Y0072933D02*
X0071200Y0072933D01*
X0071200Y0071334D02*
X0070800Y0071334D01*
X0070800Y0069736D02*
X0071200Y0069736D01*
X0071200Y0068137D02*
X0070800Y0068137D01*
X0070800Y0066539D02*
X0071200Y0066539D01*
X0068673Y0066539D02*
X0012200Y0066539D01*
X0012200Y0068137D02*
X0067074Y0068137D01*
X0066200Y0072933D02*
X0040428Y0072933D01*
X0041128Y0074532D02*
X0067743Y0074532D01*
X0082844Y0066539D02*
X0083511Y0066539D01*
X0071945Y0029773D02*
X0068002Y0029773D01*
X0066403Y0028175D02*
X0070346Y0028175D01*
X0068748Y0026576D02*
X0064174Y0026576D01*
X0061803Y0024978D02*
X0067149Y0024978D01*
X0065551Y0023379D02*
X0061249Y0023379D01*
X0059797Y0024978D02*
X0059651Y0024978D01*
X0047000Y0020182D02*
X0020600Y0020182D01*
X0020089Y0018584D02*
X0047000Y0018584D01*
X0047000Y0016985D02*
X0018490Y0016985D01*
X0013509Y0016985D02*
X0006000Y0016985D01*
X0006000Y0015387D02*
X0045481Y0015387D01*
X0044200Y0013788D02*
X0006000Y0013788D01*
X0006000Y0012190D02*
X0044200Y0012190D01*
X0044200Y0010591D02*
X0006000Y0010591D01*
X0006000Y0008993D02*
X0045502Y0008993D01*
X0053400Y0013788D02*
X0054000Y0013788D01*
X0055198Y0015387D02*
X0052119Y0015387D01*
X0051000Y0016985D02*
X0056797Y0016985D01*
X0062402Y0015387D02*
X0080481Y0015387D01*
X0079200Y0013788D02*
X0063600Y0013788D01*
X0011911Y0018584D02*
X0006000Y0018584D01*
X0006000Y0020182D02*
X0011400Y0020182D01*
X0011400Y0021781D02*
X0006000Y0021781D01*
X0006000Y0023379D02*
X0011874Y0023379D01*
X0013138Y0047357D02*
X0006000Y0047357D01*
X0006000Y0048955D02*
X0011539Y0048955D01*
X0011400Y0050554D02*
X0006000Y0050554D01*
X0006000Y0052152D02*
X0011400Y0052152D01*
X0010138Y0053751D02*
X0006000Y0053751D01*
X0006000Y0055349D02*
X0008539Y0055349D01*
X0007800Y0056948D02*
X0006000Y0056948D01*
X0006000Y0058546D02*
X0007800Y0058546D01*
X0007800Y0060145D02*
X0006000Y0060145D01*
X0006000Y0061743D02*
X0007800Y0061743D01*
X0007800Y0063342D02*
X0006000Y0063342D01*
X0006000Y0064940D02*
X0007800Y0064940D01*
X0007800Y0066539D02*
X0006000Y0066539D01*
X0006000Y0068137D02*
X0007800Y0068137D01*
D22*
X0060800Y0029000D02*
X0061000Y0029200D01*
M02*
