G75*
%MOIN*%
%OFA0B0*%
%FSLAX25Y25*%
%IPPOS*%
%LPD*%
%AMOC8*
5,1,8,0,0,1.08239X$1,22.5*
%
%ADD10R,0.06706X0.05918*%
%ADD11R,0.05131X0.04737*%
%ADD12R,0.07887X0.07099*%
%ADD13C,0.06800*%
%ADD14R,0.07808X0.06902*%
%ADD15R,0.06784X0.07808*%
%ADD16R,0.04737X0.05131*%
%ADD17R,0.07898X0.07099*%
%ADD18R,0.07099X0.07898*%
%ADD19R,0.05800X0.03300*%
%ADD20C,0.07400*%
%ADD21C,0.13800*%
%ADD22R,0.05524X0.02965*%
%ADD23R,0.04700X0.02000*%
%ADD24R,0.02965X0.05524*%
%ADD25R,0.07493X0.03556*%
%ADD26OC8,0.06800*%
%ADD27C,0.06343*%
%ADD28R,0.05524X0.05524*%
%ADD29R,0.03280X0.04068*%
%ADD30OC8,0.06000*%
%ADD31C,0.08200*%
%ADD32R,0.07099X0.12611*%
%ADD33R,0.19800X0.23300*%
%ADD34R,0.04737X0.06312*%
%ADD35R,0.03950X0.04343*%
%ADD36R,0.03950X0.03950*%
%ADD37C,0.03581*%
D10*
X0103995Y0081316D03*
X0113395Y0081516D03*
X0103995Y0088796D03*
X0113395Y0088996D03*
X0068395Y0097516D03*
X0068395Y0104996D03*
D11*
X0076595Y0104602D03*
X0076595Y0097909D03*
X0060195Y0089602D03*
X0068395Y0084602D03*
X0060195Y0082909D03*
X0068395Y0077909D03*
X0123849Y0068056D03*
X0130542Y0068056D03*
X0137195Y0040602D03*
X0137195Y0033909D03*
X0136995Y0029002D03*
X0136995Y0022309D03*
X0123395Y0016202D03*
X0123395Y0009509D03*
X0096595Y0016309D03*
X0096595Y0023002D03*
X0075395Y0024109D03*
X0075395Y0030802D03*
X0089449Y0035456D03*
X0096142Y0035456D03*
D12*
X0248795Y0104144D03*
X0248795Y0115168D03*
D13*
X0098395Y0113256D02*
X0098395Y0119256D01*
X0088395Y0119256D02*
X0088395Y0113256D01*
X0078395Y0113256D02*
X0078395Y0119256D01*
X0068395Y0119256D02*
X0068395Y0113256D01*
D14*
X0138395Y0075035D03*
X0148395Y0075035D03*
X0148395Y0047476D03*
X0138395Y0047476D03*
D15*
X0145108Y0036256D03*
X0145108Y0026256D03*
X0145108Y0016256D03*
X0181683Y0016256D03*
X0181683Y0026256D03*
X0181683Y0036256D03*
D16*
X0137742Y0014656D03*
X0131049Y0014656D03*
X0096142Y0027856D03*
X0089449Y0027856D03*
X0089449Y0043056D03*
X0096142Y0043056D03*
X0076742Y0066256D03*
X0070049Y0066256D03*
X0061742Y0066256D03*
X0055049Y0066256D03*
X0051742Y0076256D03*
X0045049Y0076256D03*
X0045049Y0084456D03*
X0051742Y0084456D03*
X0050049Y0096256D03*
X0056742Y0096256D03*
X0041742Y0096256D03*
X0035049Y0096256D03*
X0075049Y0081256D03*
X0081742Y0081256D03*
X0090049Y0081256D03*
X0096742Y0081256D03*
X0091742Y0101256D03*
X0085049Y0101256D03*
X0105049Y0106256D03*
X0111742Y0106256D03*
X0111742Y0116256D03*
X0105049Y0116256D03*
X0140049Y0081256D03*
X0146742Y0081256D03*
X0046742Y0121256D03*
X0040049Y0121256D03*
D17*
X0178595Y0066054D03*
X0188395Y0071854D03*
X0198395Y0071854D03*
X0198395Y0060657D03*
X0188395Y0060657D03*
X0178595Y0054857D03*
X0188595Y0085857D03*
X0198395Y0085657D03*
X0198395Y0096854D03*
X0188595Y0097054D03*
X0248995Y0094454D03*
X0248995Y0083257D03*
D18*
X0201994Y0015656D03*
X0190797Y0015656D03*
D19*
X0108395Y0052756D03*
X0108395Y0056256D03*
X0108395Y0059756D03*
D20*
X0218395Y0092956D02*
X0218395Y0099556D01*
X0228395Y0099556D02*
X0228395Y0092956D01*
X0238395Y0092956D02*
X0238395Y0099556D01*
D21*
X0228395Y0027256D03*
D22*
X0093514Y0087516D03*
X0093514Y0094996D03*
X0083277Y0094996D03*
X0083277Y0091256D03*
X0083277Y0087516D03*
D23*
X0106908Y0042772D03*
X0106908Y0040213D03*
X0106908Y0037654D03*
X0106908Y0035094D03*
X0106908Y0032535D03*
X0106908Y0029976D03*
X0106908Y0027417D03*
X0106908Y0024858D03*
X0106908Y0022299D03*
X0106908Y0019740D03*
X0129883Y0019740D03*
X0129883Y0022299D03*
X0129883Y0024858D03*
X0129883Y0027417D03*
X0129883Y0029976D03*
X0129883Y0032535D03*
X0129883Y0035094D03*
X0129883Y0037654D03*
X0129883Y0040213D03*
X0129883Y0042772D03*
D24*
X0130935Y0076137D03*
X0123455Y0076137D03*
X0123455Y0086374D03*
X0127195Y0086374D03*
X0130935Y0086374D03*
D25*
X0098395Y0060980D03*
X0098395Y0056256D03*
X0098395Y0051531D03*
D26*
X0038395Y0021256D03*
X0071195Y0012456D03*
X0081195Y0012456D03*
X0106195Y0012456D03*
X0116195Y0012456D03*
X0038395Y0051256D03*
X0038395Y0076256D03*
X0038395Y0086256D03*
X0093395Y0071256D03*
X0103195Y0071256D03*
X0112995Y0071256D03*
X0163895Y0111256D03*
X0222895Y0111256D03*
X0263395Y0116256D03*
X0263395Y0096256D03*
X0263395Y0076256D03*
X0263395Y0056256D03*
D27*
X0127395Y0096256D03*
X0099395Y0096256D03*
D28*
X0121387Y0106138D03*
X0121387Y0116374D03*
X0145403Y0116374D03*
X0145403Y0106138D03*
X0156387Y0086374D03*
X0156387Y0076138D03*
X0180403Y0076138D03*
X0180403Y0086374D03*
D29*
X0147923Y0091256D03*
X0138868Y0091256D03*
D30*
X0048395Y0106256D03*
X0038395Y0106256D03*
X0043395Y0113756D03*
D31*
X0058395Y0106256D03*
X0058395Y0076256D03*
D32*
X0049419Y0057161D03*
X0067372Y0057161D03*
D33*
X0058395Y0030004D03*
D34*
X0074655Y0036925D03*
X0082135Y0036925D03*
X0078395Y0045587D03*
D35*
X0074655Y0052319D03*
X0082135Y0052319D03*
X0078395Y0060587D03*
D36*
X0090595Y0016409D03*
X0090595Y0010503D03*
X0129042Y0009256D03*
X0134948Y0009256D03*
X0142042Y0009256D03*
X0147948Y0009256D03*
D37*
X0122395Y0028856D03*
X0113195Y0035256D03*
X0116795Y0038856D03*
X0107995Y0047456D03*
X0088795Y0056456D03*
X0085195Y0046256D03*
X0101995Y0031256D03*
X0085595Y0025056D03*
X0097195Y0010856D03*
X0129295Y0050156D03*
X0119395Y0064256D03*
X0113395Y0081516D03*
X0094595Y0091056D03*
X0076195Y0090656D03*
X0098195Y0106056D03*
X0105395Y0122256D03*
X0121195Y0127256D03*
X0076195Y0073256D03*
X0058195Y0056456D03*
M02*
