%
M48
M72
T01C0.00787
T02C0.01181
T03C0.03200
T04C0.03543
T05C0.04000
T06C0.04400
T07C0.13000
%
T01
X98800Y127000
T02
X74800Y10600
X98200Y26800
X90800Y35000
X93200Y39200
X85600Y47200
X66400Y56200
X62800Y46000
X35800Y56200
X53800Y73000
X97000Y64000
X106900Y49900
X79600Y31000
X60800Y29000
X83000Y122000
X75800Y105800
X72200Y90800
X53800Y90400
X91000Y81260
T03
X16000Y106000
X21000Y113500
X26000Y106000
T04
X36000Y76000
X36000Y106000
X77000Y96000
X105000Y96000
T05
X16000Y21000
X48800Y12200
X58800Y12200
X83800Y12200
X93800Y12200
X16000Y51000
X16000Y76000
X16000Y86000
X46000Y116000
X56000Y116000
X66000Y116000
X76000Y116000
X71000Y71000
X80800Y71000
X90600Y71000
X141500Y111000
X200500Y111000
X241000Y116000
X241000Y96000
X241000Y76000
X241000Y56000
T06
X216000Y96000
X206000Y96000
X196000Y96000
T07
X206000Y27000
M30
