G75*
%MOIN*%
%OFA0B0*%
%FSLAX25Y25*%
%IPPOS*%
%LPD*%
%AMOC8*
5,1,8,0,0,1.08239X$1,22.5*
%
%ADD10C,0.01606*%
%ADD11C,0.01378*%
%ADD12C,0.06106*%
%ADD13C,0.01807*%
%ADD14C,0.01205*%
%ADD15C,0.00197*%
%ADD16C,0.06000*%
%ADD17C,0.06600*%
%ADD18OC8,0.06000*%
%ADD19C,0.05543*%
%ADD20OC8,0.05200*%
%ADD21C,0.07400*%
%ADD22C,0.03543*%
%ADD23C,0.00800*%
%ADD24C,0.05000*%
%ADD25C,0.02781*%
%ADD26C,0.01200*%
%ADD27C,0.01600*%
%ADD28C,0.00600*%
D10*
X0014606Y0021000D02*
X0014608Y0021074D01*
X0014614Y0021148D01*
X0014624Y0021222D01*
X0014637Y0021295D01*
X0014655Y0021367D01*
X0014677Y0021438D01*
X0014702Y0021508D01*
X0014731Y0021576D01*
X0014763Y0021643D01*
X0014799Y0021708D01*
X0014838Y0021771D01*
X0014881Y0021831D01*
X0014927Y0021890D01*
X0014976Y0021946D01*
X0015028Y0021999D01*
X0015082Y0022049D01*
X0015139Y0022096D01*
X0015199Y0022141D01*
X0015261Y0022182D01*
X0015325Y0022219D01*
X0015390Y0022254D01*
X0015458Y0022284D01*
X0015527Y0022311D01*
X0015598Y0022335D01*
X0015669Y0022354D01*
X0015742Y0022370D01*
X0015815Y0022382D01*
X0015889Y0022390D01*
X0015963Y0022394D01*
X0016037Y0022394D01*
X0016111Y0022390D01*
X0016185Y0022382D01*
X0016258Y0022370D01*
X0016331Y0022354D01*
X0016402Y0022335D01*
X0016473Y0022311D01*
X0016542Y0022284D01*
X0016610Y0022254D01*
X0016675Y0022219D01*
X0016739Y0022182D01*
X0016801Y0022141D01*
X0016861Y0022096D01*
X0016918Y0022049D01*
X0016972Y0021999D01*
X0017024Y0021946D01*
X0017073Y0021890D01*
X0017119Y0021831D01*
X0017162Y0021771D01*
X0017201Y0021708D01*
X0017237Y0021643D01*
X0017269Y0021576D01*
X0017298Y0021508D01*
X0017323Y0021438D01*
X0017345Y0021367D01*
X0017363Y0021295D01*
X0017376Y0021222D01*
X0017386Y0021148D01*
X0017392Y0021074D01*
X0017394Y0021000D01*
X0017392Y0020926D01*
X0017386Y0020852D01*
X0017376Y0020778D01*
X0017363Y0020705D01*
X0017345Y0020633D01*
X0017323Y0020562D01*
X0017298Y0020492D01*
X0017269Y0020424D01*
X0017237Y0020357D01*
X0017201Y0020292D01*
X0017162Y0020229D01*
X0017119Y0020169D01*
X0017073Y0020110D01*
X0017024Y0020054D01*
X0016972Y0020001D01*
X0016918Y0019951D01*
X0016861Y0019904D01*
X0016801Y0019859D01*
X0016739Y0019818D01*
X0016675Y0019781D01*
X0016610Y0019746D01*
X0016542Y0019716D01*
X0016473Y0019689D01*
X0016402Y0019665D01*
X0016331Y0019646D01*
X0016258Y0019630D01*
X0016185Y0019618D01*
X0016111Y0019610D01*
X0016037Y0019606D01*
X0015963Y0019606D01*
X0015889Y0019610D01*
X0015815Y0019618D01*
X0015742Y0019630D01*
X0015669Y0019646D01*
X0015598Y0019665D01*
X0015527Y0019689D01*
X0015458Y0019716D01*
X0015390Y0019746D01*
X0015325Y0019781D01*
X0015261Y0019818D01*
X0015199Y0019859D01*
X0015139Y0019904D01*
X0015082Y0019951D01*
X0015028Y0020001D01*
X0014976Y0020054D01*
X0014927Y0020110D01*
X0014881Y0020169D01*
X0014838Y0020229D01*
X0014799Y0020292D01*
X0014763Y0020357D01*
X0014731Y0020424D01*
X0014702Y0020492D01*
X0014677Y0020562D01*
X0014655Y0020633D01*
X0014637Y0020705D01*
X0014624Y0020778D01*
X0014614Y0020852D01*
X0014608Y0020926D01*
X0014606Y0021000D01*
X0047405Y0012201D02*
X0047407Y0012275D01*
X0047413Y0012349D01*
X0047423Y0012423D01*
X0047436Y0012496D01*
X0047454Y0012568D01*
X0047476Y0012639D01*
X0047501Y0012709D01*
X0047530Y0012777D01*
X0047562Y0012844D01*
X0047598Y0012909D01*
X0047637Y0012972D01*
X0047680Y0013032D01*
X0047726Y0013091D01*
X0047775Y0013147D01*
X0047827Y0013200D01*
X0047881Y0013250D01*
X0047938Y0013297D01*
X0047998Y0013342D01*
X0048060Y0013383D01*
X0048124Y0013420D01*
X0048189Y0013455D01*
X0048257Y0013485D01*
X0048326Y0013512D01*
X0048397Y0013536D01*
X0048468Y0013555D01*
X0048541Y0013571D01*
X0048614Y0013583D01*
X0048688Y0013591D01*
X0048762Y0013595D01*
X0048836Y0013595D01*
X0048910Y0013591D01*
X0048984Y0013583D01*
X0049057Y0013571D01*
X0049130Y0013555D01*
X0049201Y0013536D01*
X0049272Y0013512D01*
X0049341Y0013485D01*
X0049409Y0013455D01*
X0049474Y0013420D01*
X0049538Y0013383D01*
X0049600Y0013342D01*
X0049660Y0013297D01*
X0049717Y0013250D01*
X0049771Y0013200D01*
X0049823Y0013147D01*
X0049872Y0013091D01*
X0049918Y0013032D01*
X0049961Y0012972D01*
X0050000Y0012909D01*
X0050036Y0012844D01*
X0050068Y0012777D01*
X0050097Y0012709D01*
X0050122Y0012639D01*
X0050144Y0012568D01*
X0050162Y0012496D01*
X0050175Y0012423D01*
X0050185Y0012349D01*
X0050191Y0012275D01*
X0050193Y0012201D01*
X0050191Y0012127D01*
X0050185Y0012053D01*
X0050175Y0011979D01*
X0050162Y0011906D01*
X0050144Y0011834D01*
X0050122Y0011763D01*
X0050097Y0011693D01*
X0050068Y0011625D01*
X0050036Y0011558D01*
X0050000Y0011493D01*
X0049961Y0011430D01*
X0049918Y0011370D01*
X0049872Y0011311D01*
X0049823Y0011255D01*
X0049771Y0011202D01*
X0049717Y0011152D01*
X0049660Y0011105D01*
X0049600Y0011060D01*
X0049538Y0011019D01*
X0049474Y0010982D01*
X0049409Y0010947D01*
X0049341Y0010917D01*
X0049272Y0010890D01*
X0049201Y0010866D01*
X0049130Y0010847D01*
X0049057Y0010831D01*
X0048984Y0010819D01*
X0048910Y0010811D01*
X0048836Y0010807D01*
X0048762Y0010807D01*
X0048688Y0010811D01*
X0048614Y0010819D01*
X0048541Y0010831D01*
X0048468Y0010847D01*
X0048397Y0010866D01*
X0048326Y0010890D01*
X0048257Y0010917D01*
X0048189Y0010947D01*
X0048124Y0010982D01*
X0048060Y0011019D01*
X0047998Y0011060D01*
X0047938Y0011105D01*
X0047881Y0011152D01*
X0047827Y0011202D01*
X0047775Y0011255D01*
X0047726Y0011311D01*
X0047680Y0011370D01*
X0047637Y0011430D01*
X0047598Y0011493D01*
X0047562Y0011558D01*
X0047530Y0011625D01*
X0047501Y0011693D01*
X0047476Y0011763D01*
X0047454Y0011834D01*
X0047436Y0011906D01*
X0047423Y0011979D01*
X0047413Y0012053D01*
X0047407Y0012127D01*
X0047405Y0012201D01*
X0057405Y0012201D02*
X0057407Y0012275D01*
X0057413Y0012349D01*
X0057423Y0012423D01*
X0057436Y0012496D01*
X0057454Y0012568D01*
X0057476Y0012639D01*
X0057501Y0012709D01*
X0057530Y0012777D01*
X0057562Y0012844D01*
X0057598Y0012909D01*
X0057637Y0012972D01*
X0057680Y0013032D01*
X0057726Y0013091D01*
X0057775Y0013147D01*
X0057827Y0013200D01*
X0057881Y0013250D01*
X0057938Y0013297D01*
X0057998Y0013342D01*
X0058060Y0013383D01*
X0058124Y0013420D01*
X0058189Y0013455D01*
X0058257Y0013485D01*
X0058326Y0013512D01*
X0058397Y0013536D01*
X0058468Y0013555D01*
X0058541Y0013571D01*
X0058614Y0013583D01*
X0058688Y0013591D01*
X0058762Y0013595D01*
X0058836Y0013595D01*
X0058910Y0013591D01*
X0058984Y0013583D01*
X0059057Y0013571D01*
X0059130Y0013555D01*
X0059201Y0013536D01*
X0059272Y0013512D01*
X0059341Y0013485D01*
X0059409Y0013455D01*
X0059474Y0013420D01*
X0059538Y0013383D01*
X0059600Y0013342D01*
X0059660Y0013297D01*
X0059717Y0013250D01*
X0059771Y0013200D01*
X0059823Y0013147D01*
X0059872Y0013091D01*
X0059918Y0013032D01*
X0059961Y0012972D01*
X0060000Y0012909D01*
X0060036Y0012844D01*
X0060068Y0012777D01*
X0060097Y0012709D01*
X0060122Y0012639D01*
X0060144Y0012568D01*
X0060162Y0012496D01*
X0060175Y0012423D01*
X0060185Y0012349D01*
X0060191Y0012275D01*
X0060193Y0012201D01*
X0060191Y0012127D01*
X0060185Y0012053D01*
X0060175Y0011979D01*
X0060162Y0011906D01*
X0060144Y0011834D01*
X0060122Y0011763D01*
X0060097Y0011693D01*
X0060068Y0011625D01*
X0060036Y0011558D01*
X0060000Y0011493D01*
X0059961Y0011430D01*
X0059918Y0011370D01*
X0059872Y0011311D01*
X0059823Y0011255D01*
X0059771Y0011202D01*
X0059717Y0011152D01*
X0059660Y0011105D01*
X0059600Y0011060D01*
X0059538Y0011019D01*
X0059474Y0010982D01*
X0059409Y0010947D01*
X0059341Y0010917D01*
X0059272Y0010890D01*
X0059201Y0010866D01*
X0059130Y0010847D01*
X0059057Y0010831D01*
X0058984Y0010819D01*
X0058910Y0010811D01*
X0058836Y0010807D01*
X0058762Y0010807D01*
X0058688Y0010811D01*
X0058614Y0010819D01*
X0058541Y0010831D01*
X0058468Y0010847D01*
X0058397Y0010866D01*
X0058326Y0010890D01*
X0058257Y0010917D01*
X0058189Y0010947D01*
X0058124Y0010982D01*
X0058060Y0011019D01*
X0057998Y0011060D01*
X0057938Y0011105D01*
X0057881Y0011152D01*
X0057827Y0011202D01*
X0057775Y0011255D01*
X0057726Y0011311D01*
X0057680Y0011370D01*
X0057637Y0011430D01*
X0057598Y0011493D01*
X0057562Y0011558D01*
X0057530Y0011625D01*
X0057501Y0011693D01*
X0057476Y0011763D01*
X0057454Y0011834D01*
X0057436Y0011906D01*
X0057423Y0011979D01*
X0057413Y0012053D01*
X0057407Y0012127D01*
X0057405Y0012201D01*
X0082405Y0012201D02*
X0082407Y0012275D01*
X0082413Y0012349D01*
X0082423Y0012423D01*
X0082436Y0012496D01*
X0082454Y0012568D01*
X0082476Y0012639D01*
X0082501Y0012709D01*
X0082530Y0012777D01*
X0082562Y0012844D01*
X0082598Y0012909D01*
X0082637Y0012972D01*
X0082680Y0013032D01*
X0082726Y0013091D01*
X0082775Y0013147D01*
X0082827Y0013200D01*
X0082881Y0013250D01*
X0082938Y0013297D01*
X0082998Y0013342D01*
X0083060Y0013383D01*
X0083124Y0013420D01*
X0083189Y0013455D01*
X0083257Y0013485D01*
X0083326Y0013512D01*
X0083397Y0013536D01*
X0083468Y0013555D01*
X0083541Y0013571D01*
X0083614Y0013583D01*
X0083688Y0013591D01*
X0083762Y0013595D01*
X0083836Y0013595D01*
X0083910Y0013591D01*
X0083984Y0013583D01*
X0084057Y0013571D01*
X0084130Y0013555D01*
X0084201Y0013536D01*
X0084272Y0013512D01*
X0084341Y0013485D01*
X0084409Y0013455D01*
X0084474Y0013420D01*
X0084538Y0013383D01*
X0084600Y0013342D01*
X0084660Y0013297D01*
X0084717Y0013250D01*
X0084771Y0013200D01*
X0084823Y0013147D01*
X0084872Y0013091D01*
X0084918Y0013032D01*
X0084961Y0012972D01*
X0085000Y0012909D01*
X0085036Y0012844D01*
X0085068Y0012777D01*
X0085097Y0012709D01*
X0085122Y0012639D01*
X0085144Y0012568D01*
X0085162Y0012496D01*
X0085175Y0012423D01*
X0085185Y0012349D01*
X0085191Y0012275D01*
X0085193Y0012201D01*
X0085191Y0012127D01*
X0085185Y0012053D01*
X0085175Y0011979D01*
X0085162Y0011906D01*
X0085144Y0011834D01*
X0085122Y0011763D01*
X0085097Y0011693D01*
X0085068Y0011625D01*
X0085036Y0011558D01*
X0085000Y0011493D01*
X0084961Y0011430D01*
X0084918Y0011370D01*
X0084872Y0011311D01*
X0084823Y0011255D01*
X0084771Y0011202D01*
X0084717Y0011152D01*
X0084660Y0011105D01*
X0084600Y0011060D01*
X0084538Y0011019D01*
X0084474Y0010982D01*
X0084409Y0010947D01*
X0084341Y0010917D01*
X0084272Y0010890D01*
X0084201Y0010866D01*
X0084130Y0010847D01*
X0084057Y0010831D01*
X0083984Y0010819D01*
X0083910Y0010811D01*
X0083836Y0010807D01*
X0083762Y0010807D01*
X0083688Y0010811D01*
X0083614Y0010819D01*
X0083541Y0010831D01*
X0083468Y0010847D01*
X0083397Y0010866D01*
X0083326Y0010890D01*
X0083257Y0010917D01*
X0083189Y0010947D01*
X0083124Y0010982D01*
X0083060Y0011019D01*
X0082998Y0011060D01*
X0082938Y0011105D01*
X0082881Y0011152D01*
X0082827Y0011202D01*
X0082775Y0011255D01*
X0082726Y0011311D01*
X0082680Y0011370D01*
X0082637Y0011430D01*
X0082598Y0011493D01*
X0082562Y0011558D01*
X0082530Y0011625D01*
X0082501Y0011693D01*
X0082476Y0011763D01*
X0082454Y0011834D01*
X0082436Y0011906D01*
X0082423Y0011979D01*
X0082413Y0012053D01*
X0082407Y0012127D01*
X0082405Y0012201D01*
X0092405Y0012201D02*
X0092407Y0012275D01*
X0092413Y0012349D01*
X0092423Y0012423D01*
X0092436Y0012496D01*
X0092454Y0012568D01*
X0092476Y0012639D01*
X0092501Y0012709D01*
X0092530Y0012777D01*
X0092562Y0012844D01*
X0092598Y0012909D01*
X0092637Y0012972D01*
X0092680Y0013032D01*
X0092726Y0013091D01*
X0092775Y0013147D01*
X0092827Y0013200D01*
X0092881Y0013250D01*
X0092938Y0013297D01*
X0092998Y0013342D01*
X0093060Y0013383D01*
X0093124Y0013420D01*
X0093189Y0013455D01*
X0093257Y0013485D01*
X0093326Y0013512D01*
X0093397Y0013536D01*
X0093468Y0013555D01*
X0093541Y0013571D01*
X0093614Y0013583D01*
X0093688Y0013591D01*
X0093762Y0013595D01*
X0093836Y0013595D01*
X0093910Y0013591D01*
X0093984Y0013583D01*
X0094057Y0013571D01*
X0094130Y0013555D01*
X0094201Y0013536D01*
X0094272Y0013512D01*
X0094341Y0013485D01*
X0094409Y0013455D01*
X0094474Y0013420D01*
X0094538Y0013383D01*
X0094600Y0013342D01*
X0094660Y0013297D01*
X0094717Y0013250D01*
X0094771Y0013200D01*
X0094823Y0013147D01*
X0094872Y0013091D01*
X0094918Y0013032D01*
X0094961Y0012972D01*
X0095000Y0012909D01*
X0095036Y0012844D01*
X0095068Y0012777D01*
X0095097Y0012709D01*
X0095122Y0012639D01*
X0095144Y0012568D01*
X0095162Y0012496D01*
X0095175Y0012423D01*
X0095185Y0012349D01*
X0095191Y0012275D01*
X0095193Y0012201D01*
X0095191Y0012127D01*
X0095185Y0012053D01*
X0095175Y0011979D01*
X0095162Y0011906D01*
X0095144Y0011834D01*
X0095122Y0011763D01*
X0095097Y0011693D01*
X0095068Y0011625D01*
X0095036Y0011558D01*
X0095000Y0011493D01*
X0094961Y0011430D01*
X0094918Y0011370D01*
X0094872Y0011311D01*
X0094823Y0011255D01*
X0094771Y0011202D01*
X0094717Y0011152D01*
X0094660Y0011105D01*
X0094600Y0011060D01*
X0094538Y0011019D01*
X0094474Y0010982D01*
X0094409Y0010947D01*
X0094341Y0010917D01*
X0094272Y0010890D01*
X0094201Y0010866D01*
X0094130Y0010847D01*
X0094057Y0010831D01*
X0093984Y0010819D01*
X0093910Y0010811D01*
X0093836Y0010807D01*
X0093762Y0010807D01*
X0093688Y0010811D01*
X0093614Y0010819D01*
X0093541Y0010831D01*
X0093468Y0010847D01*
X0093397Y0010866D01*
X0093326Y0010890D01*
X0093257Y0010917D01*
X0093189Y0010947D01*
X0093124Y0010982D01*
X0093060Y0011019D01*
X0092998Y0011060D01*
X0092938Y0011105D01*
X0092881Y0011152D01*
X0092827Y0011202D01*
X0092775Y0011255D01*
X0092726Y0011311D01*
X0092680Y0011370D01*
X0092637Y0011430D01*
X0092598Y0011493D01*
X0092562Y0011558D01*
X0092530Y0011625D01*
X0092501Y0011693D01*
X0092476Y0011763D01*
X0092454Y0011834D01*
X0092436Y0011906D01*
X0092423Y0011979D01*
X0092413Y0012053D01*
X0092407Y0012127D01*
X0092405Y0012201D01*
X0014606Y0051000D02*
X0014608Y0051074D01*
X0014614Y0051148D01*
X0014624Y0051222D01*
X0014637Y0051295D01*
X0014655Y0051367D01*
X0014677Y0051438D01*
X0014702Y0051508D01*
X0014731Y0051576D01*
X0014763Y0051643D01*
X0014799Y0051708D01*
X0014838Y0051771D01*
X0014881Y0051831D01*
X0014927Y0051890D01*
X0014976Y0051946D01*
X0015028Y0051999D01*
X0015082Y0052049D01*
X0015139Y0052096D01*
X0015199Y0052141D01*
X0015261Y0052182D01*
X0015325Y0052219D01*
X0015390Y0052254D01*
X0015458Y0052284D01*
X0015527Y0052311D01*
X0015598Y0052335D01*
X0015669Y0052354D01*
X0015742Y0052370D01*
X0015815Y0052382D01*
X0015889Y0052390D01*
X0015963Y0052394D01*
X0016037Y0052394D01*
X0016111Y0052390D01*
X0016185Y0052382D01*
X0016258Y0052370D01*
X0016331Y0052354D01*
X0016402Y0052335D01*
X0016473Y0052311D01*
X0016542Y0052284D01*
X0016610Y0052254D01*
X0016675Y0052219D01*
X0016739Y0052182D01*
X0016801Y0052141D01*
X0016861Y0052096D01*
X0016918Y0052049D01*
X0016972Y0051999D01*
X0017024Y0051946D01*
X0017073Y0051890D01*
X0017119Y0051831D01*
X0017162Y0051771D01*
X0017201Y0051708D01*
X0017237Y0051643D01*
X0017269Y0051576D01*
X0017298Y0051508D01*
X0017323Y0051438D01*
X0017345Y0051367D01*
X0017363Y0051295D01*
X0017376Y0051222D01*
X0017386Y0051148D01*
X0017392Y0051074D01*
X0017394Y0051000D01*
X0017392Y0050926D01*
X0017386Y0050852D01*
X0017376Y0050778D01*
X0017363Y0050705D01*
X0017345Y0050633D01*
X0017323Y0050562D01*
X0017298Y0050492D01*
X0017269Y0050424D01*
X0017237Y0050357D01*
X0017201Y0050292D01*
X0017162Y0050229D01*
X0017119Y0050169D01*
X0017073Y0050110D01*
X0017024Y0050054D01*
X0016972Y0050001D01*
X0016918Y0049951D01*
X0016861Y0049904D01*
X0016801Y0049859D01*
X0016739Y0049818D01*
X0016675Y0049781D01*
X0016610Y0049746D01*
X0016542Y0049716D01*
X0016473Y0049689D01*
X0016402Y0049665D01*
X0016331Y0049646D01*
X0016258Y0049630D01*
X0016185Y0049618D01*
X0016111Y0049610D01*
X0016037Y0049606D01*
X0015963Y0049606D01*
X0015889Y0049610D01*
X0015815Y0049618D01*
X0015742Y0049630D01*
X0015669Y0049646D01*
X0015598Y0049665D01*
X0015527Y0049689D01*
X0015458Y0049716D01*
X0015390Y0049746D01*
X0015325Y0049781D01*
X0015261Y0049818D01*
X0015199Y0049859D01*
X0015139Y0049904D01*
X0015082Y0049951D01*
X0015028Y0050001D01*
X0014976Y0050054D01*
X0014927Y0050110D01*
X0014881Y0050169D01*
X0014838Y0050229D01*
X0014799Y0050292D01*
X0014763Y0050357D01*
X0014731Y0050424D01*
X0014702Y0050492D01*
X0014677Y0050562D01*
X0014655Y0050633D01*
X0014637Y0050705D01*
X0014624Y0050778D01*
X0014614Y0050852D01*
X0014608Y0050926D01*
X0014606Y0051000D01*
X0014606Y0076000D02*
X0014608Y0076074D01*
X0014614Y0076148D01*
X0014624Y0076222D01*
X0014637Y0076295D01*
X0014655Y0076367D01*
X0014677Y0076438D01*
X0014702Y0076508D01*
X0014731Y0076576D01*
X0014763Y0076643D01*
X0014799Y0076708D01*
X0014838Y0076771D01*
X0014881Y0076831D01*
X0014927Y0076890D01*
X0014976Y0076946D01*
X0015028Y0076999D01*
X0015082Y0077049D01*
X0015139Y0077096D01*
X0015199Y0077141D01*
X0015261Y0077182D01*
X0015325Y0077219D01*
X0015390Y0077254D01*
X0015458Y0077284D01*
X0015527Y0077311D01*
X0015598Y0077335D01*
X0015669Y0077354D01*
X0015742Y0077370D01*
X0015815Y0077382D01*
X0015889Y0077390D01*
X0015963Y0077394D01*
X0016037Y0077394D01*
X0016111Y0077390D01*
X0016185Y0077382D01*
X0016258Y0077370D01*
X0016331Y0077354D01*
X0016402Y0077335D01*
X0016473Y0077311D01*
X0016542Y0077284D01*
X0016610Y0077254D01*
X0016675Y0077219D01*
X0016739Y0077182D01*
X0016801Y0077141D01*
X0016861Y0077096D01*
X0016918Y0077049D01*
X0016972Y0076999D01*
X0017024Y0076946D01*
X0017073Y0076890D01*
X0017119Y0076831D01*
X0017162Y0076771D01*
X0017201Y0076708D01*
X0017237Y0076643D01*
X0017269Y0076576D01*
X0017298Y0076508D01*
X0017323Y0076438D01*
X0017345Y0076367D01*
X0017363Y0076295D01*
X0017376Y0076222D01*
X0017386Y0076148D01*
X0017392Y0076074D01*
X0017394Y0076000D01*
X0017392Y0075926D01*
X0017386Y0075852D01*
X0017376Y0075778D01*
X0017363Y0075705D01*
X0017345Y0075633D01*
X0017323Y0075562D01*
X0017298Y0075492D01*
X0017269Y0075424D01*
X0017237Y0075357D01*
X0017201Y0075292D01*
X0017162Y0075229D01*
X0017119Y0075169D01*
X0017073Y0075110D01*
X0017024Y0075054D01*
X0016972Y0075001D01*
X0016918Y0074951D01*
X0016861Y0074904D01*
X0016801Y0074859D01*
X0016739Y0074818D01*
X0016675Y0074781D01*
X0016610Y0074746D01*
X0016542Y0074716D01*
X0016473Y0074689D01*
X0016402Y0074665D01*
X0016331Y0074646D01*
X0016258Y0074630D01*
X0016185Y0074618D01*
X0016111Y0074610D01*
X0016037Y0074606D01*
X0015963Y0074606D01*
X0015889Y0074610D01*
X0015815Y0074618D01*
X0015742Y0074630D01*
X0015669Y0074646D01*
X0015598Y0074665D01*
X0015527Y0074689D01*
X0015458Y0074716D01*
X0015390Y0074746D01*
X0015325Y0074781D01*
X0015261Y0074818D01*
X0015199Y0074859D01*
X0015139Y0074904D01*
X0015082Y0074951D01*
X0015028Y0075001D01*
X0014976Y0075054D01*
X0014927Y0075110D01*
X0014881Y0075169D01*
X0014838Y0075229D01*
X0014799Y0075292D01*
X0014763Y0075357D01*
X0014731Y0075424D01*
X0014702Y0075492D01*
X0014677Y0075562D01*
X0014655Y0075633D01*
X0014637Y0075705D01*
X0014624Y0075778D01*
X0014614Y0075852D01*
X0014608Y0075926D01*
X0014606Y0076000D01*
X0014606Y0086000D02*
X0014608Y0086074D01*
X0014614Y0086148D01*
X0014624Y0086222D01*
X0014637Y0086295D01*
X0014655Y0086367D01*
X0014677Y0086438D01*
X0014702Y0086508D01*
X0014731Y0086576D01*
X0014763Y0086643D01*
X0014799Y0086708D01*
X0014838Y0086771D01*
X0014881Y0086831D01*
X0014927Y0086890D01*
X0014976Y0086946D01*
X0015028Y0086999D01*
X0015082Y0087049D01*
X0015139Y0087096D01*
X0015199Y0087141D01*
X0015261Y0087182D01*
X0015325Y0087219D01*
X0015390Y0087254D01*
X0015458Y0087284D01*
X0015527Y0087311D01*
X0015598Y0087335D01*
X0015669Y0087354D01*
X0015742Y0087370D01*
X0015815Y0087382D01*
X0015889Y0087390D01*
X0015963Y0087394D01*
X0016037Y0087394D01*
X0016111Y0087390D01*
X0016185Y0087382D01*
X0016258Y0087370D01*
X0016331Y0087354D01*
X0016402Y0087335D01*
X0016473Y0087311D01*
X0016542Y0087284D01*
X0016610Y0087254D01*
X0016675Y0087219D01*
X0016739Y0087182D01*
X0016801Y0087141D01*
X0016861Y0087096D01*
X0016918Y0087049D01*
X0016972Y0086999D01*
X0017024Y0086946D01*
X0017073Y0086890D01*
X0017119Y0086831D01*
X0017162Y0086771D01*
X0017201Y0086708D01*
X0017237Y0086643D01*
X0017269Y0086576D01*
X0017298Y0086508D01*
X0017323Y0086438D01*
X0017345Y0086367D01*
X0017363Y0086295D01*
X0017376Y0086222D01*
X0017386Y0086148D01*
X0017392Y0086074D01*
X0017394Y0086000D01*
X0017392Y0085926D01*
X0017386Y0085852D01*
X0017376Y0085778D01*
X0017363Y0085705D01*
X0017345Y0085633D01*
X0017323Y0085562D01*
X0017298Y0085492D01*
X0017269Y0085424D01*
X0017237Y0085357D01*
X0017201Y0085292D01*
X0017162Y0085229D01*
X0017119Y0085169D01*
X0017073Y0085110D01*
X0017024Y0085054D01*
X0016972Y0085001D01*
X0016918Y0084951D01*
X0016861Y0084904D01*
X0016801Y0084859D01*
X0016739Y0084818D01*
X0016675Y0084781D01*
X0016610Y0084746D01*
X0016542Y0084716D01*
X0016473Y0084689D01*
X0016402Y0084665D01*
X0016331Y0084646D01*
X0016258Y0084630D01*
X0016185Y0084618D01*
X0016111Y0084610D01*
X0016037Y0084606D01*
X0015963Y0084606D01*
X0015889Y0084610D01*
X0015815Y0084618D01*
X0015742Y0084630D01*
X0015669Y0084646D01*
X0015598Y0084665D01*
X0015527Y0084689D01*
X0015458Y0084716D01*
X0015390Y0084746D01*
X0015325Y0084781D01*
X0015261Y0084818D01*
X0015199Y0084859D01*
X0015139Y0084904D01*
X0015082Y0084951D01*
X0015028Y0085001D01*
X0014976Y0085054D01*
X0014927Y0085110D01*
X0014881Y0085169D01*
X0014838Y0085229D01*
X0014799Y0085292D01*
X0014763Y0085357D01*
X0014731Y0085424D01*
X0014702Y0085492D01*
X0014677Y0085562D01*
X0014655Y0085633D01*
X0014637Y0085705D01*
X0014624Y0085778D01*
X0014614Y0085852D01*
X0014608Y0085926D01*
X0014606Y0086000D01*
X0044606Y0116000D02*
X0044608Y0116074D01*
X0044614Y0116148D01*
X0044624Y0116222D01*
X0044637Y0116295D01*
X0044655Y0116367D01*
X0044677Y0116438D01*
X0044702Y0116508D01*
X0044731Y0116576D01*
X0044763Y0116643D01*
X0044799Y0116708D01*
X0044838Y0116771D01*
X0044881Y0116831D01*
X0044927Y0116890D01*
X0044976Y0116946D01*
X0045028Y0116999D01*
X0045082Y0117049D01*
X0045139Y0117096D01*
X0045199Y0117141D01*
X0045261Y0117182D01*
X0045325Y0117219D01*
X0045390Y0117254D01*
X0045458Y0117284D01*
X0045527Y0117311D01*
X0045598Y0117335D01*
X0045669Y0117354D01*
X0045742Y0117370D01*
X0045815Y0117382D01*
X0045889Y0117390D01*
X0045963Y0117394D01*
X0046037Y0117394D01*
X0046111Y0117390D01*
X0046185Y0117382D01*
X0046258Y0117370D01*
X0046331Y0117354D01*
X0046402Y0117335D01*
X0046473Y0117311D01*
X0046542Y0117284D01*
X0046610Y0117254D01*
X0046675Y0117219D01*
X0046739Y0117182D01*
X0046801Y0117141D01*
X0046861Y0117096D01*
X0046918Y0117049D01*
X0046972Y0116999D01*
X0047024Y0116946D01*
X0047073Y0116890D01*
X0047119Y0116831D01*
X0047162Y0116771D01*
X0047201Y0116708D01*
X0047237Y0116643D01*
X0047269Y0116576D01*
X0047298Y0116508D01*
X0047323Y0116438D01*
X0047345Y0116367D01*
X0047363Y0116295D01*
X0047376Y0116222D01*
X0047386Y0116148D01*
X0047392Y0116074D01*
X0047394Y0116000D01*
X0047392Y0115926D01*
X0047386Y0115852D01*
X0047376Y0115778D01*
X0047363Y0115705D01*
X0047345Y0115633D01*
X0047323Y0115562D01*
X0047298Y0115492D01*
X0047269Y0115424D01*
X0047237Y0115357D01*
X0047201Y0115292D01*
X0047162Y0115229D01*
X0047119Y0115169D01*
X0047073Y0115110D01*
X0047024Y0115054D01*
X0046972Y0115001D01*
X0046918Y0114951D01*
X0046861Y0114904D01*
X0046801Y0114859D01*
X0046739Y0114818D01*
X0046675Y0114781D01*
X0046610Y0114746D01*
X0046542Y0114716D01*
X0046473Y0114689D01*
X0046402Y0114665D01*
X0046331Y0114646D01*
X0046258Y0114630D01*
X0046185Y0114618D01*
X0046111Y0114610D01*
X0046037Y0114606D01*
X0045963Y0114606D01*
X0045889Y0114610D01*
X0045815Y0114618D01*
X0045742Y0114630D01*
X0045669Y0114646D01*
X0045598Y0114665D01*
X0045527Y0114689D01*
X0045458Y0114716D01*
X0045390Y0114746D01*
X0045325Y0114781D01*
X0045261Y0114818D01*
X0045199Y0114859D01*
X0045139Y0114904D01*
X0045082Y0114951D01*
X0045028Y0115001D01*
X0044976Y0115054D01*
X0044927Y0115110D01*
X0044881Y0115169D01*
X0044838Y0115229D01*
X0044799Y0115292D01*
X0044763Y0115357D01*
X0044731Y0115424D01*
X0044702Y0115492D01*
X0044677Y0115562D01*
X0044655Y0115633D01*
X0044637Y0115705D01*
X0044624Y0115778D01*
X0044614Y0115852D01*
X0044608Y0115926D01*
X0044606Y0116000D01*
X0054606Y0116000D02*
X0054608Y0116074D01*
X0054614Y0116148D01*
X0054624Y0116222D01*
X0054637Y0116295D01*
X0054655Y0116367D01*
X0054677Y0116438D01*
X0054702Y0116508D01*
X0054731Y0116576D01*
X0054763Y0116643D01*
X0054799Y0116708D01*
X0054838Y0116771D01*
X0054881Y0116831D01*
X0054927Y0116890D01*
X0054976Y0116946D01*
X0055028Y0116999D01*
X0055082Y0117049D01*
X0055139Y0117096D01*
X0055199Y0117141D01*
X0055261Y0117182D01*
X0055325Y0117219D01*
X0055390Y0117254D01*
X0055458Y0117284D01*
X0055527Y0117311D01*
X0055598Y0117335D01*
X0055669Y0117354D01*
X0055742Y0117370D01*
X0055815Y0117382D01*
X0055889Y0117390D01*
X0055963Y0117394D01*
X0056037Y0117394D01*
X0056111Y0117390D01*
X0056185Y0117382D01*
X0056258Y0117370D01*
X0056331Y0117354D01*
X0056402Y0117335D01*
X0056473Y0117311D01*
X0056542Y0117284D01*
X0056610Y0117254D01*
X0056675Y0117219D01*
X0056739Y0117182D01*
X0056801Y0117141D01*
X0056861Y0117096D01*
X0056918Y0117049D01*
X0056972Y0116999D01*
X0057024Y0116946D01*
X0057073Y0116890D01*
X0057119Y0116831D01*
X0057162Y0116771D01*
X0057201Y0116708D01*
X0057237Y0116643D01*
X0057269Y0116576D01*
X0057298Y0116508D01*
X0057323Y0116438D01*
X0057345Y0116367D01*
X0057363Y0116295D01*
X0057376Y0116222D01*
X0057386Y0116148D01*
X0057392Y0116074D01*
X0057394Y0116000D01*
X0057392Y0115926D01*
X0057386Y0115852D01*
X0057376Y0115778D01*
X0057363Y0115705D01*
X0057345Y0115633D01*
X0057323Y0115562D01*
X0057298Y0115492D01*
X0057269Y0115424D01*
X0057237Y0115357D01*
X0057201Y0115292D01*
X0057162Y0115229D01*
X0057119Y0115169D01*
X0057073Y0115110D01*
X0057024Y0115054D01*
X0056972Y0115001D01*
X0056918Y0114951D01*
X0056861Y0114904D01*
X0056801Y0114859D01*
X0056739Y0114818D01*
X0056675Y0114781D01*
X0056610Y0114746D01*
X0056542Y0114716D01*
X0056473Y0114689D01*
X0056402Y0114665D01*
X0056331Y0114646D01*
X0056258Y0114630D01*
X0056185Y0114618D01*
X0056111Y0114610D01*
X0056037Y0114606D01*
X0055963Y0114606D01*
X0055889Y0114610D01*
X0055815Y0114618D01*
X0055742Y0114630D01*
X0055669Y0114646D01*
X0055598Y0114665D01*
X0055527Y0114689D01*
X0055458Y0114716D01*
X0055390Y0114746D01*
X0055325Y0114781D01*
X0055261Y0114818D01*
X0055199Y0114859D01*
X0055139Y0114904D01*
X0055082Y0114951D01*
X0055028Y0115001D01*
X0054976Y0115054D01*
X0054927Y0115110D01*
X0054881Y0115169D01*
X0054838Y0115229D01*
X0054799Y0115292D01*
X0054763Y0115357D01*
X0054731Y0115424D01*
X0054702Y0115492D01*
X0054677Y0115562D01*
X0054655Y0115633D01*
X0054637Y0115705D01*
X0054624Y0115778D01*
X0054614Y0115852D01*
X0054608Y0115926D01*
X0054606Y0116000D01*
X0064606Y0116000D02*
X0064608Y0116074D01*
X0064614Y0116148D01*
X0064624Y0116222D01*
X0064637Y0116295D01*
X0064655Y0116367D01*
X0064677Y0116438D01*
X0064702Y0116508D01*
X0064731Y0116576D01*
X0064763Y0116643D01*
X0064799Y0116708D01*
X0064838Y0116771D01*
X0064881Y0116831D01*
X0064927Y0116890D01*
X0064976Y0116946D01*
X0065028Y0116999D01*
X0065082Y0117049D01*
X0065139Y0117096D01*
X0065199Y0117141D01*
X0065261Y0117182D01*
X0065325Y0117219D01*
X0065390Y0117254D01*
X0065458Y0117284D01*
X0065527Y0117311D01*
X0065598Y0117335D01*
X0065669Y0117354D01*
X0065742Y0117370D01*
X0065815Y0117382D01*
X0065889Y0117390D01*
X0065963Y0117394D01*
X0066037Y0117394D01*
X0066111Y0117390D01*
X0066185Y0117382D01*
X0066258Y0117370D01*
X0066331Y0117354D01*
X0066402Y0117335D01*
X0066473Y0117311D01*
X0066542Y0117284D01*
X0066610Y0117254D01*
X0066675Y0117219D01*
X0066739Y0117182D01*
X0066801Y0117141D01*
X0066861Y0117096D01*
X0066918Y0117049D01*
X0066972Y0116999D01*
X0067024Y0116946D01*
X0067073Y0116890D01*
X0067119Y0116831D01*
X0067162Y0116771D01*
X0067201Y0116708D01*
X0067237Y0116643D01*
X0067269Y0116576D01*
X0067298Y0116508D01*
X0067323Y0116438D01*
X0067345Y0116367D01*
X0067363Y0116295D01*
X0067376Y0116222D01*
X0067386Y0116148D01*
X0067392Y0116074D01*
X0067394Y0116000D01*
X0067392Y0115926D01*
X0067386Y0115852D01*
X0067376Y0115778D01*
X0067363Y0115705D01*
X0067345Y0115633D01*
X0067323Y0115562D01*
X0067298Y0115492D01*
X0067269Y0115424D01*
X0067237Y0115357D01*
X0067201Y0115292D01*
X0067162Y0115229D01*
X0067119Y0115169D01*
X0067073Y0115110D01*
X0067024Y0115054D01*
X0066972Y0115001D01*
X0066918Y0114951D01*
X0066861Y0114904D01*
X0066801Y0114859D01*
X0066739Y0114818D01*
X0066675Y0114781D01*
X0066610Y0114746D01*
X0066542Y0114716D01*
X0066473Y0114689D01*
X0066402Y0114665D01*
X0066331Y0114646D01*
X0066258Y0114630D01*
X0066185Y0114618D01*
X0066111Y0114610D01*
X0066037Y0114606D01*
X0065963Y0114606D01*
X0065889Y0114610D01*
X0065815Y0114618D01*
X0065742Y0114630D01*
X0065669Y0114646D01*
X0065598Y0114665D01*
X0065527Y0114689D01*
X0065458Y0114716D01*
X0065390Y0114746D01*
X0065325Y0114781D01*
X0065261Y0114818D01*
X0065199Y0114859D01*
X0065139Y0114904D01*
X0065082Y0114951D01*
X0065028Y0115001D01*
X0064976Y0115054D01*
X0064927Y0115110D01*
X0064881Y0115169D01*
X0064838Y0115229D01*
X0064799Y0115292D01*
X0064763Y0115357D01*
X0064731Y0115424D01*
X0064702Y0115492D01*
X0064677Y0115562D01*
X0064655Y0115633D01*
X0064637Y0115705D01*
X0064624Y0115778D01*
X0064614Y0115852D01*
X0064608Y0115926D01*
X0064606Y0116000D01*
X0074606Y0116000D02*
X0074608Y0116074D01*
X0074614Y0116148D01*
X0074624Y0116222D01*
X0074637Y0116295D01*
X0074655Y0116367D01*
X0074677Y0116438D01*
X0074702Y0116508D01*
X0074731Y0116576D01*
X0074763Y0116643D01*
X0074799Y0116708D01*
X0074838Y0116771D01*
X0074881Y0116831D01*
X0074927Y0116890D01*
X0074976Y0116946D01*
X0075028Y0116999D01*
X0075082Y0117049D01*
X0075139Y0117096D01*
X0075199Y0117141D01*
X0075261Y0117182D01*
X0075325Y0117219D01*
X0075390Y0117254D01*
X0075458Y0117284D01*
X0075527Y0117311D01*
X0075598Y0117335D01*
X0075669Y0117354D01*
X0075742Y0117370D01*
X0075815Y0117382D01*
X0075889Y0117390D01*
X0075963Y0117394D01*
X0076037Y0117394D01*
X0076111Y0117390D01*
X0076185Y0117382D01*
X0076258Y0117370D01*
X0076331Y0117354D01*
X0076402Y0117335D01*
X0076473Y0117311D01*
X0076542Y0117284D01*
X0076610Y0117254D01*
X0076675Y0117219D01*
X0076739Y0117182D01*
X0076801Y0117141D01*
X0076861Y0117096D01*
X0076918Y0117049D01*
X0076972Y0116999D01*
X0077024Y0116946D01*
X0077073Y0116890D01*
X0077119Y0116831D01*
X0077162Y0116771D01*
X0077201Y0116708D01*
X0077237Y0116643D01*
X0077269Y0116576D01*
X0077298Y0116508D01*
X0077323Y0116438D01*
X0077345Y0116367D01*
X0077363Y0116295D01*
X0077376Y0116222D01*
X0077386Y0116148D01*
X0077392Y0116074D01*
X0077394Y0116000D01*
X0077392Y0115926D01*
X0077386Y0115852D01*
X0077376Y0115778D01*
X0077363Y0115705D01*
X0077345Y0115633D01*
X0077323Y0115562D01*
X0077298Y0115492D01*
X0077269Y0115424D01*
X0077237Y0115357D01*
X0077201Y0115292D01*
X0077162Y0115229D01*
X0077119Y0115169D01*
X0077073Y0115110D01*
X0077024Y0115054D01*
X0076972Y0115001D01*
X0076918Y0114951D01*
X0076861Y0114904D01*
X0076801Y0114859D01*
X0076739Y0114818D01*
X0076675Y0114781D01*
X0076610Y0114746D01*
X0076542Y0114716D01*
X0076473Y0114689D01*
X0076402Y0114665D01*
X0076331Y0114646D01*
X0076258Y0114630D01*
X0076185Y0114618D01*
X0076111Y0114610D01*
X0076037Y0114606D01*
X0075963Y0114606D01*
X0075889Y0114610D01*
X0075815Y0114618D01*
X0075742Y0114630D01*
X0075669Y0114646D01*
X0075598Y0114665D01*
X0075527Y0114689D01*
X0075458Y0114716D01*
X0075390Y0114746D01*
X0075325Y0114781D01*
X0075261Y0114818D01*
X0075199Y0114859D01*
X0075139Y0114904D01*
X0075082Y0114951D01*
X0075028Y0115001D01*
X0074976Y0115054D01*
X0074927Y0115110D01*
X0074881Y0115169D01*
X0074838Y0115229D01*
X0074799Y0115292D01*
X0074763Y0115357D01*
X0074731Y0115424D01*
X0074702Y0115492D01*
X0074677Y0115562D01*
X0074655Y0115633D01*
X0074637Y0115705D01*
X0074624Y0115778D01*
X0074614Y0115852D01*
X0074608Y0115926D01*
X0074606Y0116000D01*
X0140106Y0111000D02*
X0140108Y0111074D01*
X0140114Y0111148D01*
X0140124Y0111222D01*
X0140137Y0111295D01*
X0140155Y0111367D01*
X0140177Y0111438D01*
X0140202Y0111508D01*
X0140231Y0111576D01*
X0140263Y0111643D01*
X0140299Y0111708D01*
X0140338Y0111771D01*
X0140381Y0111831D01*
X0140427Y0111890D01*
X0140476Y0111946D01*
X0140528Y0111999D01*
X0140582Y0112049D01*
X0140639Y0112096D01*
X0140699Y0112141D01*
X0140761Y0112182D01*
X0140825Y0112219D01*
X0140890Y0112254D01*
X0140958Y0112284D01*
X0141027Y0112311D01*
X0141098Y0112335D01*
X0141169Y0112354D01*
X0141242Y0112370D01*
X0141315Y0112382D01*
X0141389Y0112390D01*
X0141463Y0112394D01*
X0141537Y0112394D01*
X0141611Y0112390D01*
X0141685Y0112382D01*
X0141758Y0112370D01*
X0141831Y0112354D01*
X0141902Y0112335D01*
X0141973Y0112311D01*
X0142042Y0112284D01*
X0142110Y0112254D01*
X0142175Y0112219D01*
X0142239Y0112182D01*
X0142301Y0112141D01*
X0142361Y0112096D01*
X0142418Y0112049D01*
X0142472Y0111999D01*
X0142524Y0111946D01*
X0142573Y0111890D01*
X0142619Y0111831D01*
X0142662Y0111771D01*
X0142701Y0111708D01*
X0142737Y0111643D01*
X0142769Y0111576D01*
X0142798Y0111508D01*
X0142823Y0111438D01*
X0142845Y0111367D01*
X0142863Y0111295D01*
X0142876Y0111222D01*
X0142886Y0111148D01*
X0142892Y0111074D01*
X0142894Y0111000D01*
X0142892Y0110926D01*
X0142886Y0110852D01*
X0142876Y0110778D01*
X0142863Y0110705D01*
X0142845Y0110633D01*
X0142823Y0110562D01*
X0142798Y0110492D01*
X0142769Y0110424D01*
X0142737Y0110357D01*
X0142701Y0110292D01*
X0142662Y0110229D01*
X0142619Y0110169D01*
X0142573Y0110110D01*
X0142524Y0110054D01*
X0142472Y0110001D01*
X0142418Y0109951D01*
X0142361Y0109904D01*
X0142301Y0109859D01*
X0142239Y0109818D01*
X0142175Y0109781D01*
X0142110Y0109746D01*
X0142042Y0109716D01*
X0141973Y0109689D01*
X0141902Y0109665D01*
X0141831Y0109646D01*
X0141758Y0109630D01*
X0141685Y0109618D01*
X0141611Y0109610D01*
X0141537Y0109606D01*
X0141463Y0109606D01*
X0141389Y0109610D01*
X0141315Y0109618D01*
X0141242Y0109630D01*
X0141169Y0109646D01*
X0141098Y0109665D01*
X0141027Y0109689D01*
X0140958Y0109716D01*
X0140890Y0109746D01*
X0140825Y0109781D01*
X0140761Y0109818D01*
X0140699Y0109859D01*
X0140639Y0109904D01*
X0140582Y0109951D01*
X0140528Y0110001D01*
X0140476Y0110054D01*
X0140427Y0110110D01*
X0140381Y0110169D01*
X0140338Y0110229D01*
X0140299Y0110292D01*
X0140263Y0110357D01*
X0140231Y0110424D01*
X0140202Y0110492D01*
X0140177Y0110562D01*
X0140155Y0110633D01*
X0140137Y0110705D01*
X0140124Y0110778D01*
X0140114Y0110852D01*
X0140108Y0110926D01*
X0140106Y0111000D01*
X0199106Y0111000D02*
X0199108Y0111074D01*
X0199114Y0111148D01*
X0199124Y0111222D01*
X0199137Y0111295D01*
X0199155Y0111367D01*
X0199177Y0111438D01*
X0199202Y0111508D01*
X0199231Y0111576D01*
X0199263Y0111643D01*
X0199299Y0111708D01*
X0199338Y0111771D01*
X0199381Y0111831D01*
X0199427Y0111890D01*
X0199476Y0111946D01*
X0199528Y0111999D01*
X0199582Y0112049D01*
X0199639Y0112096D01*
X0199699Y0112141D01*
X0199761Y0112182D01*
X0199825Y0112219D01*
X0199890Y0112254D01*
X0199958Y0112284D01*
X0200027Y0112311D01*
X0200098Y0112335D01*
X0200169Y0112354D01*
X0200242Y0112370D01*
X0200315Y0112382D01*
X0200389Y0112390D01*
X0200463Y0112394D01*
X0200537Y0112394D01*
X0200611Y0112390D01*
X0200685Y0112382D01*
X0200758Y0112370D01*
X0200831Y0112354D01*
X0200902Y0112335D01*
X0200973Y0112311D01*
X0201042Y0112284D01*
X0201110Y0112254D01*
X0201175Y0112219D01*
X0201239Y0112182D01*
X0201301Y0112141D01*
X0201361Y0112096D01*
X0201418Y0112049D01*
X0201472Y0111999D01*
X0201524Y0111946D01*
X0201573Y0111890D01*
X0201619Y0111831D01*
X0201662Y0111771D01*
X0201701Y0111708D01*
X0201737Y0111643D01*
X0201769Y0111576D01*
X0201798Y0111508D01*
X0201823Y0111438D01*
X0201845Y0111367D01*
X0201863Y0111295D01*
X0201876Y0111222D01*
X0201886Y0111148D01*
X0201892Y0111074D01*
X0201894Y0111000D01*
X0201892Y0110926D01*
X0201886Y0110852D01*
X0201876Y0110778D01*
X0201863Y0110705D01*
X0201845Y0110633D01*
X0201823Y0110562D01*
X0201798Y0110492D01*
X0201769Y0110424D01*
X0201737Y0110357D01*
X0201701Y0110292D01*
X0201662Y0110229D01*
X0201619Y0110169D01*
X0201573Y0110110D01*
X0201524Y0110054D01*
X0201472Y0110001D01*
X0201418Y0109951D01*
X0201361Y0109904D01*
X0201301Y0109859D01*
X0201239Y0109818D01*
X0201175Y0109781D01*
X0201110Y0109746D01*
X0201042Y0109716D01*
X0200973Y0109689D01*
X0200902Y0109665D01*
X0200831Y0109646D01*
X0200758Y0109630D01*
X0200685Y0109618D01*
X0200611Y0109610D01*
X0200537Y0109606D01*
X0200463Y0109606D01*
X0200389Y0109610D01*
X0200315Y0109618D01*
X0200242Y0109630D01*
X0200169Y0109646D01*
X0200098Y0109665D01*
X0200027Y0109689D01*
X0199958Y0109716D01*
X0199890Y0109746D01*
X0199825Y0109781D01*
X0199761Y0109818D01*
X0199699Y0109859D01*
X0199639Y0109904D01*
X0199582Y0109951D01*
X0199528Y0110001D01*
X0199476Y0110054D01*
X0199427Y0110110D01*
X0199381Y0110169D01*
X0199338Y0110229D01*
X0199299Y0110292D01*
X0199263Y0110357D01*
X0199231Y0110424D01*
X0199202Y0110492D01*
X0199177Y0110562D01*
X0199155Y0110633D01*
X0199137Y0110705D01*
X0199124Y0110778D01*
X0199114Y0110852D01*
X0199108Y0110926D01*
X0199106Y0111000D01*
X0239606Y0116000D02*
X0239608Y0116074D01*
X0239614Y0116148D01*
X0239624Y0116222D01*
X0239637Y0116295D01*
X0239655Y0116367D01*
X0239677Y0116438D01*
X0239702Y0116508D01*
X0239731Y0116576D01*
X0239763Y0116643D01*
X0239799Y0116708D01*
X0239838Y0116771D01*
X0239881Y0116831D01*
X0239927Y0116890D01*
X0239976Y0116946D01*
X0240028Y0116999D01*
X0240082Y0117049D01*
X0240139Y0117096D01*
X0240199Y0117141D01*
X0240261Y0117182D01*
X0240325Y0117219D01*
X0240390Y0117254D01*
X0240458Y0117284D01*
X0240527Y0117311D01*
X0240598Y0117335D01*
X0240669Y0117354D01*
X0240742Y0117370D01*
X0240815Y0117382D01*
X0240889Y0117390D01*
X0240963Y0117394D01*
X0241037Y0117394D01*
X0241111Y0117390D01*
X0241185Y0117382D01*
X0241258Y0117370D01*
X0241331Y0117354D01*
X0241402Y0117335D01*
X0241473Y0117311D01*
X0241542Y0117284D01*
X0241610Y0117254D01*
X0241675Y0117219D01*
X0241739Y0117182D01*
X0241801Y0117141D01*
X0241861Y0117096D01*
X0241918Y0117049D01*
X0241972Y0116999D01*
X0242024Y0116946D01*
X0242073Y0116890D01*
X0242119Y0116831D01*
X0242162Y0116771D01*
X0242201Y0116708D01*
X0242237Y0116643D01*
X0242269Y0116576D01*
X0242298Y0116508D01*
X0242323Y0116438D01*
X0242345Y0116367D01*
X0242363Y0116295D01*
X0242376Y0116222D01*
X0242386Y0116148D01*
X0242392Y0116074D01*
X0242394Y0116000D01*
X0242392Y0115926D01*
X0242386Y0115852D01*
X0242376Y0115778D01*
X0242363Y0115705D01*
X0242345Y0115633D01*
X0242323Y0115562D01*
X0242298Y0115492D01*
X0242269Y0115424D01*
X0242237Y0115357D01*
X0242201Y0115292D01*
X0242162Y0115229D01*
X0242119Y0115169D01*
X0242073Y0115110D01*
X0242024Y0115054D01*
X0241972Y0115001D01*
X0241918Y0114951D01*
X0241861Y0114904D01*
X0241801Y0114859D01*
X0241739Y0114818D01*
X0241675Y0114781D01*
X0241610Y0114746D01*
X0241542Y0114716D01*
X0241473Y0114689D01*
X0241402Y0114665D01*
X0241331Y0114646D01*
X0241258Y0114630D01*
X0241185Y0114618D01*
X0241111Y0114610D01*
X0241037Y0114606D01*
X0240963Y0114606D01*
X0240889Y0114610D01*
X0240815Y0114618D01*
X0240742Y0114630D01*
X0240669Y0114646D01*
X0240598Y0114665D01*
X0240527Y0114689D01*
X0240458Y0114716D01*
X0240390Y0114746D01*
X0240325Y0114781D01*
X0240261Y0114818D01*
X0240199Y0114859D01*
X0240139Y0114904D01*
X0240082Y0114951D01*
X0240028Y0115001D01*
X0239976Y0115054D01*
X0239927Y0115110D01*
X0239881Y0115169D01*
X0239838Y0115229D01*
X0239799Y0115292D01*
X0239763Y0115357D01*
X0239731Y0115424D01*
X0239702Y0115492D01*
X0239677Y0115562D01*
X0239655Y0115633D01*
X0239637Y0115705D01*
X0239624Y0115778D01*
X0239614Y0115852D01*
X0239608Y0115926D01*
X0239606Y0116000D01*
X0239606Y0096000D02*
X0239608Y0096074D01*
X0239614Y0096148D01*
X0239624Y0096222D01*
X0239637Y0096295D01*
X0239655Y0096367D01*
X0239677Y0096438D01*
X0239702Y0096508D01*
X0239731Y0096576D01*
X0239763Y0096643D01*
X0239799Y0096708D01*
X0239838Y0096771D01*
X0239881Y0096831D01*
X0239927Y0096890D01*
X0239976Y0096946D01*
X0240028Y0096999D01*
X0240082Y0097049D01*
X0240139Y0097096D01*
X0240199Y0097141D01*
X0240261Y0097182D01*
X0240325Y0097219D01*
X0240390Y0097254D01*
X0240458Y0097284D01*
X0240527Y0097311D01*
X0240598Y0097335D01*
X0240669Y0097354D01*
X0240742Y0097370D01*
X0240815Y0097382D01*
X0240889Y0097390D01*
X0240963Y0097394D01*
X0241037Y0097394D01*
X0241111Y0097390D01*
X0241185Y0097382D01*
X0241258Y0097370D01*
X0241331Y0097354D01*
X0241402Y0097335D01*
X0241473Y0097311D01*
X0241542Y0097284D01*
X0241610Y0097254D01*
X0241675Y0097219D01*
X0241739Y0097182D01*
X0241801Y0097141D01*
X0241861Y0097096D01*
X0241918Y0097049D01*
X0241972Y0096999D01*
X0242024Y0096946D01*
X0242073Y0096890D01*
X0242119Y0096831D01*
X0242162Y0096771D01*
X0242201Y0096708D01*
X0242237Y0096643D01*
X0242269Y0096576D01*
X0242298Y0096508D01*
X0242323Y0096438D01*
X0242345Y0096367D01*
X0242363Y0096295D01*
X0242376Y0096222D01*
X0242386Y0096148D01*
X0242392Y0096074D01*
X0242394Y0096000D01*
X0242392Y0095926D01*
X0242386Y0095852D01*
X0242376Y0095778D01*
X0242363Y0095705D01*
X0242345Y0095633D01*
X0242323Y0095562D01*
X0242298Y0095492D01*
X0242269Y0095424D01*
X0242237Y0095357D01*
X0242201Y0095292D01*
X0242162Y0095229D01*
X0242119Y0095169D01*
X0242073Y0095110D01*
X0242024Y0095054D01*
X0241972Y0095001D01*
X0241918Y0094951D01*
X0241861Y0094904D01*
X0241801Y0094859D01*
X0241739Y0094818D01*
X0241675Y0094781D01*
X0241610Y0094746D01*
X0241542Y0094716D01*
X0241473Y0094689D01*
X0241402Y0094665D01*
X0241331Y0094646D01*
X0241258Y0094630D01*
X0241185Y0094618D01*
X0241111Y0094610D01*
X0241037Y0094606D01*
X0240963Y0094606D01*
X0240889Y0094610D01*
X0240815Y0094618D01*
X0240742Y0094630D01*
X0240669Y0094646D01*
X0240598Y0094665D01*
X0240527Y0094689D01*
X0240458Y0094716D01*
X0240390Y0094746D01*
X0240325Y0094781D01*
X0240261Y0094818D01*
X0240199Y0094859D01*
X0240139Y0094904D01*
X0240082Y0094951D01*
X0240028Y0095001D01*
X0239976Y0095054D01*
X0239927Y0095110D01*
X0239881Y0095169D01*
X0239838Y0095229D01*
X0239799Y0095292D01*
X0239763Y0095357D01*
X0239731Y0095424D01*
X0239702Y0095492D01*
X0239677Y0095562D01*
X0239655Y0095633D01*
X0239637Y0095705D01*
X0239624Y0095778D01*
X0239614Y0095852D01*
X0239608Y0095926D01*
X0239606Y0096000D01*
X0239606Y0076000D02*
X0239608Y0076074D01*
X0239614Y0076148D01*
X0239624Y0076222D01*
X0239637Y0076295D01*
X0239655Y0076367D01*
X0239677Y0076438D01*
X0239702Y0076508D01*
X0239731Y0076576D01*
X0239763Y0076643D01*
X0239799Y0076708D01*
X0239838Y0076771D01*
X0239881Y0076831D01*
X0239927Y0076890D01*
X0239976Y0076946D01*
X0240028Y0076999D01*
X0240082Y0077049D01*
X0240139Y0077096D01*
X0240199Y0077141D01*
X0240261Y0077182D01*
X0240325Y0077219D01*
X0240390Y0077254D01*
X0240458Y0077284D01*
X0240527Y0077311D01*
X0240598Y0077335D01*
X0240669Y0077354D01*
X0240742Y0077370D01*
X0240815Y0077382D01*
X0240889Y0077390D01*
X0240963Y0077394D01*
X0241037Y0077394D01*
X0241111Y0077390D01*
X0241185Y0077382D01*
X0241258Y0077370D01*
X0241331Y0077354D01*
X0241402Y0077335D01*
X0241473Y0077311D01*
X0241542Y0077284D01*
X0241610Y0077254D01*
X0241675Y0077219D01*
X0241739Y0077182D01*
X0241801Y0077141D01*
X0241861Y0077096D01*
X0241918Y0077049D01*
X0241972Y0076999D01*
X0242024Y0076946D01*
X0242073Y0076890D01*
X0242119Y0076831D01*
X0242162Y0076771D01*
X0242201Y0076708D01*
X0242237Y0076643D01*
X0242269Y0076576D01*
X0242298Y0076508D01*
X0242323Y0076438D01*
X0242345Y0076367D01*
X0242363Y0076295D01*
X0242376Y0076222D01*
X0242386Y0076148D01*
X0242392Y0076074D01*
X0242394Y0076000D01*
X0242392Y0075926D01*
X0242386Y0075852D01*
X0242376Y0075778D01*
X0242363Y0075705D01*
X0242345Y0075633D01*
X0242323Y0075562D01*
X0242298Y0075492D01*
X0242269Y0075424D01*
X0242237Y0075357D01*
X0242201Y0075292D01*
X0242162Y0075229D01*
X0242119Y0075169D01*
X0242073Y0075110D01*
X0242024Y0075054D01*
X0241972Y0075001D01*
X0241918Y0074951D01*
X0241861Y0074904D01*
X0241801Y0074859D01*
X0241739Y0074818D01*
X0241675Y0074781D01*
X0241610Y0074746D01*
X0241542Y0074716D01*
X0241473Y0074689D01*
X0241402Y0074665D01*
X0241331Y0074646D01*
X0241258Y0074630D01*
X0241185Y0074618D01*
X0241111Y0074610D01*
X0241037Y0074606D01*
X0240963Y0074606D01*
X0240889Y0074610D01*
X0240815Y0074618D01*
X0240742Y0074630D01*
X0240669Y0074646D01*
X0240598Y0074665D01*
X0240527Y0074689D01*
X0240458Y0074716D01*
X0240390Y0074746D01*
X0240325Y0074781D01*
X0240261Y0074818D01*
X0240199Y0074859D01*
X0240139Y0074904D01*
X0240082Y0074951D01*
X0240028Y0075001D01*
X0239976Y0075054D01*
X0239927Y0075110D01*
X0239881Y0075169D01*
X0239838Y0075229D01*
X0239799Y0075292D01*
X0239763Y0075357D01*
X0239731Y0075424D01*
X0239702Y0075492D01*
X0239677Y0075562D01*
X0239655Y0075633D01*
X0239637Y0075705D01*
X0239624Y0075778D01*
X0239614Y0075852D01*
X0239608Y0075926D01*
X0239606Y0076000D01*
X0239606Y0056000D02*
X0239608Y0056074D01*
X0239614Y0056148D01*
X0239624Y0056222D01*
X0239637Y0056295D01*
X0239655Y0056367D01*
X0239677Y0056438D01*
X0239702Y0056508D01*
X0239731Y0056576D01*
X0239763Y0056643D01*
X0239799Y0056708D01*
X0239838Y0056771D01*
X0239881Y0056831D01*
X0239927Y0056890D01*
X0239976Y0056946D01*
X0240028Y0056999D01*
X0240082Y0057049D01*
X0240139Y0057096D01*
X0240199Y0057141D01*
X0240261Y0057182D01*
X0240325Y0057219D01*
X0240390Y0057254D01*
X0240458Y0057284D01*
X0240527Y0057311D01*
X0240598Y0057335D01*
X0240669Y0057354D01*
X0240742Y0057370D01*
X0240815Y0057382D01*
X0240889Y0057390D01*
X0240963Y0057394D01*
X0241037Y0057394D01*
X0241111Y0057390D01*
X0241185Y0057382D01*
X0241258Y0057370D01*
X0241331Y0057354D01*
X0241402Y0057335D01*
X0241473Y0057311D01*
X0241542Y0057284D01*
X0241610Y0057254D01*
X0241675Y0057219D01*
X0241739Y0057182D01*
X0241801Y0057141D01*
X0241861Y0057096D01*
X0241918Y0057049D01*
X0241972Y0056999D01*
X0242024Y0056946D01*
X0242073Y0056890D01*
X0242119Y0056831D01*
X0242162Y0056771D01*
X0242201Y0056708D01*
X0242237Y0056643D01*
X0242269Y0056576D01*
X0242298Y0056508D01*
X0242323Y0056438D01*
X0242345Y0056367D01*
X0242363Y0056295D01*
X0242376Y0056222D01*
X0242386Y0056148D01*
X0242392Y0056074D01*
X0242394Y0056000D01*
X0242392Y0055926D01*
X0242386Y0055852D01*
X0242376Y0055778D01*
X0242363Y0055705D01*
X0242345Y0055633D01*
X0242323Y0055562D01*
X0242298Y0055492D01*
X0242269Y0055424D01*
X0242237Y0055357D01*
X0242201Y0055292D01*
X0242162Y0055229D01*
X0242119Y0055169D01*
X0242073Y0055110D01*
X0242024Y0055054D01*
X0241972Y0055001D01*
X0241918Y0054951D01*
X0241861Y0054904D01*
X0241801Y0054859D01*
X0241739Y0054818D01*
X0241675Y0054781D01*
X0241610Y0054746D01*
X0241542Y0054716D01*
X0241473Y0054689D01*
X0241402Y0054665D01*
X0241331Y0054646D01*
X0241258Y0054630D01*
X0241185Y0054618D01*
X0241111Y0054610D01*
X0241037Y0054606D01*
X0240963Y0054606D01*
X0240889Y0054610D01*
X0240815Y0054618D01*
X0240742Y0054630D01*
X0240669Y0054646D01*
X0240598Y0054665D01*
X0240527Y0054689D01*
X0240458Y0054716D01*
X0240390Y0054746D01*
X0240325Y0054781D01*
X0240261Y0054818D01*
X0240199Y0054859D01*
X0240139Y0054904D01*
X0240082Y0054951D01*
X0240028Y0055001D01*
X0239976Y0055054D01*
X0239927Y0055110D01*
X0239881Y0055169D01*
X0239838Y0055229D01*
X0239799Y0055292D01*
X0239763Y0055357D01*
X0239731Y0055424D01*
X0239702Y0055492D01*
X0239677Y0055562D01*
X0239655Y0055633D01*
X0239637Y0055705D01*
X0239624Y0055778D01*
X0239614Y0055852D01*
X0239608Y0055926D01*
X0239606Y0056000D01*
X0089204Y0071000D02*
X0089206Y0071074D01*
X0089212Y0071148D01*
X0089222Y0071222D01*
X0089235Y0071295D01*
X0089253Y0071367D01*
X0089275Y0071438D01*
X0089300Y0071508D01*
X0089329Y0071576D01*
X0089361Y0071643D01*
X0089397Y0071708D01*
X0089436Y0071771D01*
X0089479Y0071831D01*
X0089525Y0071890D01*
X0089574Y0071946D01*
X0089626Y0071999D01*
X0089680Y0072049D01*
X0089737Y0072096D01*
X0089797Y0072141D01*
X0089859Y0072182D01*
X0089923Y0072219D01*
X0089988Y0072254D01*
X0090056Y0072284D01*
X0090125Y0072311D01*
X0090196Y0072335D01*
X0090267Y0072354D01*
X0090340Y0072370D01*
X0090413Y0072382D01*
X0090487Y0072390D01*
X0090561Y0072394D01*
X0090635Y0072394D01*
X0090709Y0072390D01*
X0090783Y0072382D01*
X0090856Y0072370D01*
X0090929Y0072354D01*
X0091000Y0072335D01*
X0091071Y0072311D01*
X0091140Y0072284D01*
X0091208Y0072254D01*
X0091273Y0072219D01*
X0091337Y0072182D01*
X0091399Y0072141D01*
X0091459Y0072096D01*
X0091516Y0072049D01*
X0091570Y0071999D01*
X0091622Y0071946D01*
X0091671Y0071890D01*
X0091717Y0071831D01*
X0091760Y0071771D01*
X0091799Y0071708D01*
X0091835Y0071643D01*
X0091867Y0071576D01*
X0091896Y0071508D01*
X0091921Y0071438D01*
X0091943Y0071367D01*
X0091961Y0071295D01*
X0091974Y0071222D01*
X0091984Y0071148D01*
X0091990Y0071074D01*
X0091992Y0071000D01*
X0091990Y0070926D01*
X0091984Y0070852D01*
X0091974Y0070778D01*
X0091961Y0070705D01*
X0091943Y0070633D01*
X0091921Y0070562D01*
X0091896Y0070492D01*
X0091867Y0070424D01*
X0091835Y0070357D01*
X0091799Y0070292D01*
X0091760Y0070229D01*
X0091717Y0070169D01*
X0091671Y0070110D01*
X0091622Y0070054D01*
X0091570Y0070001D01*
X0091516Y0069951D01*
X0091459Y0069904D01*
X0091399Y0069859D01*
X0091337Y0069818D01*
X0091273Y0069781D01*
X0091208Y0069746D01*
X0091140Y0069716D01*
X0091071Y0069689D01*
X0091000Y0069665D01*
X0090929Y0069646D01*
X0090856Y0069630D01*
X0090783Y0069618D01*
X0090709Y0069610D01*
X0090635Y0069606D01*
X0090561Y0069606D01*
X0090487Y0069610D01*
X0090413Y0069618D01*
X0090340Y0069630D01*
X0090267Y0069646D01*
X0090196Y0069665D01*
X0090125Y0069689D01*
X0090056Y0069716D01*
X0089988Y0069746D01*
X0089923Y0069781D01*
X0089859Y0069818D01*
X0089797Y0069859D01*
X0089737Y0069904D01*
X0089680Y0069951D01*
X0089626Y0070001D01*
X0089574Y0070054D01*
X0089525Y0070110D01*
X0089479Y0070169D01*
X0089436Y0070229D01*
X0089397Y0070292D01*
X0089361Y0070357D01*
X0089329Y0070424D01*
X0089300Y0070492D01*
X0089275Y0070562D01*
X0089253Y0070633D01*
X0089235Y0070705D01*
X0089222Y0070778D01*
X0089212Y0070852D01*
X0089206Y0070926D01*
X0089204Y0071000D01*
X0079405Y0071000D02*
X0079407Y0071074D01*
X0079413Y0071148D01*
X0079423Y0071222D01*
X0079436Y0071295D01*
X0079454Y0071367D01*
X0079476Y0071438D01*
X0079501Y0071508D01*
X0079530Y0071576D01*
X0079562Y0071643D01*
X0079598Y0071708D01*
X0079637Y0071771D01*
X0079680Y0071831D01*
X0079726Y0071890D01*
X0079775Y0071946D01*
X0079827Y0071999D01*
X0079881Y0072049D01*
X0079938Y0072096D01*
X0079998Y0072141D01*
X0080060Y0072182D01*
X0080124Y0072219D01*
X0080189Y0072254D01*
X0080257Y0072284D01*
X0080326Y0072311D01*
X0080397Y0072335D01*
X0080468Y0072354D01*
X0080541Y0072370D01*
X0080614Y0072382D01*
X0080688Y0072390D01*
X0080762Y0072394D01*
X0080836Y0072394D01*
X0080910Y0072390D01*
X0080984Y0072382D01*
X0081057Y0072370D01*
X0081130Y0072354D01*
X0081201Y0072335D01*
X0081272Y0072311D01*
X0081341Y0072284D01*
X0081409Y0072254D01*
X0081474Y0072219D01*
X0081538Y0072182D01*
X0081600Y0072141D01*
X0081660Y0072096D01*
X0081717Y0072049D01*
X0081771Y0071999D01*
X0081823Y0071946D01*
X0081872Y0071890D01*
X0081918Y0071831D01*
X0081961Y0071771D01*
X0082000Y0071708D01*
X0082036Y0071643D01*
X0082068Y0071576D01*
X0082097Y0071508D01*
X0082122Y0071438D01*
X0082144Y0071367D01*
X0082162Y0071295D01*
X0082175Y0071222D01*
X0082185Y0071148D01*
X0082191Y0071074D01*
X0082193Y0071000D01*
X0082191Y0070926D01*
X0082185Y0070852D01*
X0082175Y0070778D01*
X0082162Y0070705D01*
X0082144Y0070633D01*
X0082122Y0070562D01*
X0082097Y0070492D01*
X0082068Y0070424D01*
X0082036Y0070357D01*
X0082000Y0070292D01*
X0081961Y0070229D01*
X0081918Y0070169D01*
X0081872Y0070110D01*
X0081823Y0070054D01*
X0081771Y0070001D01*
X0081717Y0069951D01*
X0081660Y0069904D01*
X0081600Y0069859D01*
X0081538Y0069818D01*
X0081474Y0069781D01*
X0081409Y0069746D01*
X0081341Y0069716D01*
X0081272Y0069689D01*
X0081201Y0069665D01*
X0081130Y0069646D01*
X0081057Y0069630D01*
X0080984Y0069618D01*
X0080910Y0069610D01*
X0080836Y0069606D01*
X0080762Y0069606D01*
X0080688Y0069610D01*
X0080614Y0069618D01*
X0080541Y0069630D01*
X0080468Y0069646D01*
X0080397Y0069665D01*
X0080326Y0069689D01*
X0080257Y0069716D01*
X0080189Y0069746D01*
X0080124Y0069781D01*
X0080060Y0069818D01*
X0079998Y0069859D01*
X0079938Y0069904D01*
X0079881Y0069951D01*
X0079827Y0070001D01*
X0079775Y0070054D01*
X0079726Y0070110D01*
X0079680Y0070169D01*
X0079637Y0070229D01*
X0079598Y0070292D01*
X0079562Y0070357D01*
X0079530Y0070424D01*
X0079501Y0070492D01*
X0079476Y0070562D01*
X0079454Y0070633D01*
X0079436Y0070705D01*
X0079423Y0070778D01*
X0079413Y0070852D01*
X0079407Y0070926D01*
X0079405Y0071000D01*
X0069606Y0071000D02*
X0069608Y0071074D01*
X0069614Y0071148D01*
X0069624Y0071222D01*
X0069637Y0071295D01*
X0069655Y0071367D01*
X0069677Y0071438D01*
X0069702Y0071508D01*
X0069731Y0071576D01*
X0069763Y0071643D01*
X0069799Y0071708D01*
X0069838Y0071771D01*
X0069881Y0071831D01*
X0069927Y0071890D01*
X0069976Y0071946D01*
X0070028Y0071999D01*
X0070082Y0072049D01*
X0070139Y0072096D01*
X0070199Y0072141D01*
X0070261Y0072182D01*
X0070325Y0072219D01*
X0070390Y0072254D01*
X0070458Y0072284D01*
X0070527Y0072311D01*
X0070598Y0072335D01*
X0070669Y0072354D01*
X0070742Y0072370D01*
X0070815Y0072382D01*
X0070889Y0072390D01*
X0070963Y0072394D01*
X0071037Y0072394D01*
X0071111Y0072390D01*
X0071185Y0072382D01*
X0071258Y0072370D01*
X0071331Y0072354D01*
X0071402Y0072335D01*
X0071473Y0072311D01*
X0071542Y0072284D01*
X0071610Y0072254D01*
X0071675Y0072219D01*
X0071739Y0072182D01*
X0071801Y0072141D01*
X0071861Y0072096D01*
X0071918Y0072049D01*
X0071972Y0071999D01*
X0072024Y0071946D01*
X0072073Y0071890D01*
X0072119Y0071831D01*
X0072162Y0071771D01*
X0072201Y0071708D01*
X0072237Y0071643D01*
X0072269Y0071576D01*
X0072298Y0071508D01*
X0072323Y0071438D01*
X0072345Y0071367D01*
X0072363Y0071295D01*
X0072376Y0071222D01*
X0072386Y0071148D01*
X0072392Y0071074D01*
X0072394Y0071000D01*
X0072392Y0070926D01*
X0072386Y0070852D01*
X0072376Y0070778D01*
X0072363Y0070705D01*
X0072345Y0070633D01*
X0072323Y0070562D01*
X0072298Y0070492D01*
X0072269Y0070424D01*
X0072237Y0070357D01*
X0072201Y0070292D01*
X0072162Y0070229D01*
X0072119Y0070169D01*
X0072073Y0070110D01*
X0072024Y0070054D01*
X0071972Y0070001D01*
X0071918Y0069951D01*
X0071861Y0069904D01*
X0071801Y0069859D01*
X0071739Y0069818D01*
X0071675Y0069781D01*
X0071610Y0069746D01*
X0071542Y0069716D01*
X0071473Y0069689D01*
X0071402Y0069665D01*
X0071331Y0069646D01*
X0071258Y0069630D01*
X0071185Y0069618D01*
X0071111Y0069610D01*
X0071037Y0069606D01*
X0070963Y0069606D01*
X0070889Y0069610D01*
X0070815Y0069618D01*
X0070742Y0069630D01*
X0070669Y0069646D01*
X0070598Y0069665D01*
X0070527Y0069689D01*
X0070458Y0069716D01*
X0070390Y0069746D01*
X0070325Y0069781D01*
X0070261Y0069818D01*
X0070199Y0069859D01*
X0070139Y0069904D01*
X0070082Y0069951D01*
X0070028Y0070001D01*
X0069976Y0070054D01*
X0069927Y0070110D01*
X0069881Y0070169D01*
X0069838Y0070229D01*
X0069799Y0070292D01*
X0069763Y0070357D01*
X0069731Y0070424D01*
X0069702Y0070492D01*
X0069677Y0070562D01*
X0069655Y0070633D01*
X0069637Y0070705D01*
X0069624Y0070778D01*
X0069614Y0070852D01*
X0069608Y0070926D01*
X0069606Y0071000D01*
D11*
X0034720Y0076000D02*
X0034722Y0076071D01*
X0034728Y0076142D01*
X0034738Y0076213D01*
X0034752Y0076282D01*
X0034769Y0076351D01*
X0034791Y0076419D01*
X0034816Y0076486D01*
X0034845Y0076551D01*
X0034877Y0076614D01*
X0034913Y0076676D01*
X0034952Y0076735D01*
X0034995Y0076792D01*
X0035040Y0076847D01*
X0035089Y0076899D01*
X0035140Y0076948D01*
X0035194Y0076994D01*
X0035251Y0077038D01*
X0035309Y0077078D01*
X0035370Y0077114D01*
X0035433Y0077148D01*
X0035498Y0077177D01*
X0035564Y0077203D01*
X0035632Y0077226D01*
X0035700Y0077244D01*
X0035770Y0077259D01*
X0035840Y0077270D01*
X0035911Y0077277D01*
X0035982Y0077280D01*
X0036053Y0077279D01*
X0036124Y0077274D01*
X0036195Y0077265D01*
X0036265Y0077252D01*
X0036334Y0077236D01*
X0036402Y0077215D01*
X0036469Y0077191D01*
X0036535Y0077163D01*
X0036598Y0077131D01*
X0036660Y0077096D01*
X0036720Y0077058D01*
X0036778Y0077016D01*
X0036833Y0076972D01*
X0036886Y0076924D01*
X0036936Y0076873D01*
X0036983Y0076820D01*
X0037027Y0076764D01*
X0037068Y0076706D01*
X0037106Y0076645D01*
X0037140Y0076583D01*
X0037170Y0076518D01*
X0037197Y0076453D01*
X0037221Y0076385D01*
X0037240Y0076317D01*
X0037256Y0076248D01*
X0037268Y0076177D01*
X0037276Y0076107D01*
X0037280Y0076036D01*
X0037280Y0075964D01*
X0037276Y0075893D01*
X0037268Y0075823D01*
X0037256Y0075752D01*
X0037240Y0075683D01*
X0037221Y0075615D01*
X0037197Y0075547D01*
X0037170Y0075482D01*
X0037140Y0075417D01*
X0037106Y0075355D01*
X0037068Y0075294D01*
X0037027Y0075236D01*
X0036983Y0075180D01*
X0036936Y0075127D01*
X0036886Y0075076D01*
X0036833Y0075028D01*
X0036778Y0074984D01*
X0036720Y0074942D01*
X0036660Y0074904D01*
X0036598Y0074869D01*
X0036535Y0074837D01*
X0036469Y0074809D01*
X0036402Y0074785D01*
X0036334Y0074764D01*
X0036265Y0074748D01*
X0036195Y0074735D01*
X0036124Y0074726D01*
X0036053Y0074721D01*
X0035982Y0074720D01*
X0035911Y0074723D01*
X0035840Y0074730D01*
X0035770Y0074741D01*
X0035700Y0074756D01*
X0035632Y0074774D01*
X0035564Y0074797D01*
X0035498Y0074823D01*
X0035433Y0074852D01*
X0035370Y0074886D01*
X0035309Y0074922D01*
X0035251Y0074962D01*
X0035194Y0075006D01*
X0035140Y0075052D01*
X0035089Y0075101D01*
X0035040Y0075153D01*
X0034995Y0075208D01*
X0034952Y0075265D01*
X0034913Y0075324D01*
X0034877Y0075386D01*
X0034845Y0075449D01*
X0034816Y0075514D01*
X0034791Y0075581D01*
X0034769Y0075649D01*
X0034752Y0075718D01*
X0034738Y0075787D01*
X0034728Y0075858D01*
X0034722Y0075929D01*
X0034720Y0076000D01*
X0075720Y0096000D02*
X0075722Y0096071D01*
X0075728Y0096142D01*
X0075738Y0096213D01*
X0075752Y0096282D01*
X0075769Y0096351D01*
X0075791Y0096419D01*
X0075816Y0096486D01*
X0075845Y0096551D01*
X0075877Y0096614D01*
X0075913Y0096676D01*
X0075952Y0096735D01*
X0075995Y0096792D01*
X0076040Y0096847D01*
X0076089Y0096899D01*
X0076140Y0096948D01*
X0076194Y0096994D01*
X0076251Y0097038D01*
X0076309Y0097078D01*
X0076370Y0097114D01*
X0076433Y0097148D01*
X0076498Y0097177D01*
X0076564Y0097203D01*
X0076632Y0097226D01*
X0076700Y0097244D01*
X0076770Y0097259D01*
X0076840Y0097270D01*
X0076911Y0097277D01*
X0076982Y0097280D01*
X0077053Y0097279D01*
X0077124Y0097274D01*
X0077195Y0097265D01*
X0077265Y0097252D01*
X0077334Y0097236D01*
X0077402Y0097215D01*
X0077469Y0097191D01*
X0077535Y0097163D01*
X0077598Y0097131D01*
X0077660Y0097096D01*
X0077720Y0097058D01*
X0077778Y0097016D01*
X0077833Y0096972D01*
X0077886Y0096924D01*
X0077936Y0096873D01*
X0077983Y0096820D01*
X0078027Y0096764D01*
X0078068Y0096706D01*
X0078106Y0096645D01*
X0078140Y0096583D01*
X0078170Y0096518D01*
X0078197Y0096453D01*
X0078221Y0096385D01*
X0078240Y0096317D01*
X0078256Y0096248D01*
X0078268Y0096177D01*
X0078276Y0096107D01*
X0078280Y0096036D01*
X0078280Y0095964D01*
X0078276Y0095893D01*
X0078268Y0095823D01*
X0078256Y0095752D01*
X0078240Y0095683D01*
X0078221Y0095615D01*
X0078197Y0095547D01*
X0078170Y0095482D01*
X0078140Y0095417D01*
X0078106Y0095355D01*
X0078068Y0095294D01*
X0078027Y0095236D01*
X0077983Y0095180D01*
X0077936Y0095127D01*
X0077886Y0095076D01*
X0077833Y0095028D01*
X0077778Y0094984D01*
X0077720Y0094942D01*
X0077660Y0094904D01*
X0077598Y0094869D01*
X0077535Y0094837D01*
X0077469Y0094809D01*
X0077402Y0094785D01*
X0077334Y0094764D01*
X0077265Y0094748D01*
X0077195Y0094735D01*
X0077124Y0094726D01*
X0077053Y0094721D01*
X0076982Y0094720D01*
X0076911Y0094723D01*
X0076840Y0094730D01*
X0076770Y0094741D01*
X0076700Y0094756D01*
X0076632Y0094774D01*
X0076564Y0094797D01*
X0076498Y0094823D01*
X0076433Y0094852D01*
X0076370Y0094886D01*
X0076309Y0094922D01*
X0076251Y0094962D01*
X0076194Y0095006D01*
X0076140Y0095052D01*
X0076089Y0095101D01*
X0076040Y0095153D01*
X0075995Y0095208D01*
X0075952Y0095265D01*
X0075913Y0095324D01*
X0075877Y0095386D01*
X0075845Y0095449D01*
X0075816Y0095514D01*
X0075791Y0095581D01*
X0075769Y0095649D01*
X0075752Y0095718D01*
X0075738Y0095787D01*
X0075728Y0095858D01*
X0075722Y0095929D01*
X0075720Y0096000D01*
X0103720Y0096000D02*
X0103722Y0096071D01*
X0103728Y0096142D01*
X0103738Y0096213D01*
X0103752Y0096282D01*
X0103769Y0096351D01*
X0103791Y0096419D01*
X0103816Y0096486D01*
X0103845Y0096551D01*
X0103877Y0096614D01*
X0103913Y0096676D01*
X0103952Y0096735D01*
X0103995Y0096792D01*
X0104040Y0096847D01*
X0104089Y0096899D01*
X0104140Y0096948D01*
X0104194Y0096994D01*
X0104251Y0097038D01*
X0104309Y0097078D01*
X0104370Y0097114D01*
X0104433Y0097148D01*
X0104498Y0097177D01*
X0104564Y0097203D01*
X0104632Y0097226D01*
X0104700Y0097244D01*
X0104770Y0097259D01*
X0104840Y0097270D01*
X0104911Y0097277D01*
X0104982Y0097280D01*
X0105053Y0097279D01*
X0105124Y0097274D01*
X0105195Y0097265D01*
X0105265Y0097252D01*
X0105334Y0097236D01*
X0105402Y0097215D01*
X0105469Y0097191D01*
X0105535Y0097163D01*
X0105598Y0097131D01*
X0105660Y0097096D01*
X0105720Y0097058D01*
X0105778Y0097016D01*
X0105833Y0096972D01*
X0105886Y0096924D01*
X0105936Y0096873D01*
X0105983Y0096820D01*
X0106027Y0096764D01*
X0106068Y0096706D01*
X0106106Y0096645D01*
X0106140Y0096583D01*
X0106170Y0096518D01*
X0106197Y0096453D01*
X0106221Y0096385D01*
X0106240Y0096317D01*
X0106256Y0096248D01*
X0106268Y0096177D01*
X0106276Y0096107D01*
X0106280Y0096036D01*
X0106280Y0095964D01*
X0106276Y0095893D01*
X0106268Y0095823D01*
X0106256Y0095752D01*
X0106240Y0095683D01*
X0106221Y0095615D01*
X0106197Y0095547D01*
X0106170Y0095482D01*
X0106140Y0095417D01*
X0106106Y0095355D01*
X0106068Y0095294D01*
X0106027Y0095236D01*
X0105983Y0095180D01*
X0105936Y0095127D01*
X0105886Y0095076D01*
X0105833Y0095028D01*
X0105778Y0094984D01*
X0105720Y0094942D01*
X0105660Y0094904D01*
X0105598Y0094869D01*
X0105535Y0094837D01*
X0105469Y0094809D01*
X0105402Y0094785D01*
X0105334Y0094764D01*
X0105265Y0094748D01*
X0105195Y0094735D01*
X0105124Y0094726D01*
X0105053Y0094721D01*
X0104982Y0094720D01*
X0104911Y0094723D01*
X0104840Y0094730D01*
X0104770Y0094741D01*
X0104700Y0094756D01*
X0104632Y0094774D01*
X0104564Y0094797D01*
X0104498Y0094823D01*
X0104433Y0094852D01*
X0104370Y0094886D01*
X0104309Y0094922D01*
X0104251Y0094962D01*
X0104194Y0095006D01*
X0104140Y0095052D01*
X0104089Y0095101D01*
X0104040Y0095153D01*
X0103995Y0095208D01*
X0103952Y0095265D01*
X0103913Y0095324D01*
X0103877Y0095386D01*
X0103845Y0095449D01*
X0103816Y0095514D01*
X0103791Y0095581D01*
X0103769Y0095649D01*
X0103752Y0095718D01*
X0103738Y0095787D01*
X0103728Y0095858D01*
X0103722Y0095929D01*
X0103720Y0096000D01*
X0034720Y0106000D02*
X0034722Y0106071D01*
X0034728Y0106142D01*
X0034738Y0106213D01*
X0034752Y0106282D01*
X0034769Y0106351D01*
X0034791Y0106419D01*
X0034816Y0106486D01*
X0034845Y0106551D01*
X0034877Y0106614D01*
X0034913Y0106676D01*
X0034952Y0106735D01*
X0034995Y0106792D01*
X0035040Y0106847D01*
X0035089Y0106899D01*
X0035140Y0106948D01*
X0035194Y0106994D01*
X0035251Y0107038D01*
X0035309Y0107078D01*
X0035370Y0107114D01*
X0035433Y0107148D01*
X0035498Y0107177D01*
X0035564Y0107203D01*
X0035632Y0107226D01*
X0035700Y0107244D01*
X0035770Y0107259D01*
X0035840Y0107270D01*
X0035911Y0107277D01*
X0035982Y0107280D01*
X0036053Y0107279D01*
X0036124Y0107274D01*
X0036195Y0107265D01*
X0036265Y0107252D01*
X0036334Y0107236D01*
X0036402Y0107215D01*
X0036469Y0107191D01*
X0036535Y0107163D01*
X0036598Y0107131D01*
X0036660Y0107096D01*
X0036720Y0107058D01*
X0036778Y0107016D01*
X0036833Y0106972D01*
X0036886Y0106924D01*
X0036936Y0106873D01*
X0036983Y0106820D01*
X0037027Y0106764D01*
X0037068Y0106706D01*
X0037106Y0106645D01*
X0037140Y0106583D01*
X0037170Y0106518D01*
X0037197Y0106453D01*
X0037221Y0106385D01*
X0037240Y0106317D01*
X0037256Y0106248D01*
X0037268Y0106177D01*
X0037276Y0106107D01*
X0037280Y0106036D01*
X0037280Y0105964D01*
X0037276Y0105893D01*
X0037268Y0105823D01*
X0037256Y0105752D01*
X0037240Y0105683D01*
X0037221Y0105615D01*
X0037197Y0105547D01*
X0037170Y0105482D01*
X0037140Y0105417D01*
X0037106Y0105355D01*
X0037068Y0105294D01*
X0037027Y0105236D01*
X0036983Y0105180D01*
X0036936Y0105127D01*
X0036886Y0105076D01*
X0036833Y0105028D01*
X0036778Y0104984D01*
X0036720Y0104942D01*
X0036660Y0104904D01*
X0036598Y0104869D01*
X0036535Y0104837D01*
X0036469Y0104809D01*
X0036402Y0104785D01*
X0036334Y0104764D01*
X0036265Y0104748D01*
X0036195Y0104735D01*
X0036124Y0104726D01*
X0036053Y0104721D01*
X0035982Y0104720D01*
X0035911Y0104723D01*
X0035840Y0104730D01*
X0035770Y0104741D01*
X0035700Y0104756D01*
X0035632Y0104774D01*
X0035564Y0104797D01*
X0035498Y0104823D01*
X0035433Y0104852D01*
X0035370Y0104886D01*
X0035309Y0104922D01*
X0035251Y0104962D01*
X0035194Y0105006D01*
X0035140Y0105052D01*
X0035089Y0105101D01*
X0035040Y0105153D01*
X0034995Y0105208D01*
X0034952Y0105265D01*
X0034913Y0105324D01*
X0034877Y0105386D01*
X0034845Y0105449D01*
X0034816Y0105514D01*
X0034791Y0105581D01*
X0034769Y0105649D01*
X0034752Y0105718D01*
X0034738Y0105787D01*
X0034728Y0105858D01*
X0034722Y0105929D01*
X0034720Y0106000D01*
D12*
X0202358Y0027000D02*
X0202360Y0027120D01*
X0202366Y0027241D01*
X0202376Y0027361D01*
X0202390Y0027480D01*
X0202408Y0027599D01*
X0202429Y0027718D01*
X0202455Y0027836D01*
X0202485Y0027952D01*
X0202518Y0028068D01*
X0202555Y0028183D01*
X0202596Y0028296D01*
X0202641Y0028408D01*
X0202689Y0028518D01*
X0202741Y0028627D01*
X0202797Y0028733D01*
X0202856Y0028838D01*
X0202919Y0028941D01*
X0202984Y0029042D01*
X0203054Y0029141D01*
X0203126Y0029237D01*
X0203201Y0029331D01*
X0203280Y0029422D01*
X0203362Y0029511D01*
X0203446Y0029596D01*
X0203533Y0029680D01*
X0203623Y0029760D01*
X0203716Y0029837D01*
X0203811Y0029911D01*
X0203908Y0029981D01*
X0204008Y0030049D01*
X0204110Y0030113D01*
X0204214Y0030174D01*
X0204320Y0030231D01*
X0204428Y0030285D01*
X0204537Y0030335D01*
X0204648Y0030382D01*
X0204761Y0030425D01*
X0204875Y0030464D01*
X0204990Y0030499D01*
X0205106Y0030531D01*
X0205223Y0030558D01*
X0205341Y0030582D01*
X0205460Y0030602D01*
X0205579Y0030618D01*
X0205699Y0030630D01*
X0205819Y0030638D01*
X0205940Y0030642D01*
X0206060Y0030642D01*
X0206181Y0030638D01*
X0206301Y0030630D01*
X0206421Y0030618D01*
X0206540Y0030602D01*
X0206659Y0030582D01*
X0206777Y0030558D01*
X0206894Y0030531D01*
X0207010Y0030499D01*
X0207125Y0030464D01*
X0207239Y0030425D01*
X0207352Y0030382D01*
X0207463Y0030335D01*
X0207572Y0030285D01*
X0207680Y0030231D01*
X0207786Y0030174D01*
X0207890Y0030113D01*
X0207992Y0030049D01*
X0208092Y0029981D01*
X0208189Y0029911D01*
X0208284Y0029837D01*
X0208377Y0029760D01*
X0208467Y0029680D01*
X0208554Y0029596D01*
X0208638Y0029511D01*
X0208720Y0029422D01*
X0208799Y0029331D01*
X0208874Y0029237D01*
X0208946Y0029141D01*
X0209016Y0029042D01*
X0209081Y0028941D01*
X0209144Y0028838D01*
X0209203Y0028733D01*
X0209259Y0028627D01*
X0209311Y0028518D01*
X0209359Y0028408D01*
X0209404Y0028296D01*
X0209445Y0028183D01*
X0209482Y0028068D01*
X0209515Y0027952D01*
X0209545Y0027836D01*
X0209571Y0027718D01*
X0209592Y0027599D01*
X0209610Y0027480D01*
X0209624Y0027361D01*
X0209634Y0027241D01*
X0209640Y0027120D01*
X0209642Y0027000D01*
X0209640Y0026880D01*
X0209634Y0026759D01*
X0209624Y0026639D01*
X0209610Y0026520D01*
X0209592Y0026401D01*
X0209571Y0026282D01*
X0209545Y0026164D01*
X0209515Y0026048D01*
X0209482Y0025932D01*
X0209445Y0025817D01*
X0209404Y0025704D01*
X0209359Y0025592D01*
X0209311Y0025482D01*
X0209259Y0025373D01*
X0209203Y0025267D01*
X0209144Y0025162D01*
X0209081Y0025059D01*
X0209016Y0024958D01*
X0208946Y0024859D01*
X0208874Y0024763D01*
X0208799Y0024669D01*
X0208720Y0024578D01*
X0208638Y0024489D01*
X0208554Y0024404D01*
X0208467Y0024320D01*
X0208377Y0024240D01*
X0208284Y0024163D01*
X0208189Y0024089D01*
X0208092Y0024019D01*
X0207992Y0023951D01*
X0207890Y0023887D01*
X0207786Y0023826D01*
X0207680Y0023769D01*
X0207572Y0023715D01*
X0207463Y0023665D01*
X0207352Y0023618D01*
X0207239Y0023575D01*
X0207125Y0023536D01*
X0207010Y0023501D01*
X0206894Y0023469D01*
X0206777Y0023442D01*
X0206659Y0023418D01*
X0206540Y0023398D01*
X0206421Y0023382D01*
X0206301Y0023370D01*
X0206181Y0023362D01*
X0206060Y0023358D01*
X0205940Y0023358D01*
X0205819Y0023362D01*
X0205699Y0023370D01*
X0205579Y0023382D01*
X0205460Y0023398D01*
X0205341Y0023418D01*
X0205223Y0023442D01*
X0205106Y0023469D01*
X0204990Y0023501D01*
X0204875Y0023536D01*
X0204761Y0023575D01*
X0204648Y0023618D01*
X0204537Y0023665D01*
X0204428Y0023715D01*
X0204320Y0023769D01*
X0204214Y0023826D01*
X0204110Y0023887D01*
X0204008Y0023951D01*
X0203908Y0024019D01*
X0203811Y0024089D01*
X0203716Y0024163D01*
X0203623Y0024240D01*
X0203533Y0024320D01*
X0203446Y0024404D01*
X0203362Y0024489D01*
X0203280Y0024578D01*
X0203201Y0024669D01*
X0203126Y0024763D01*
X0203054Y0024859D01*
X0202984Y0024958D01*
X0202919Y0025059D01*
X0202856Y0025162D01*
X0202797Y0025267D01*
X0202741Y0025373D01*
X0202689Y0025482D01*
X0202641Y0025592D01*
X0202596Y0025704D01*
X0202555Y0025817D01*
X0202518Y0025932D01*
X0202485Y0026048D01*
X0202455Y0026164D01*
X0202429Y0026282D01*
X0202408Y0026401D01*
X0202390Y0026520D01*
X0202376Y0026639D01*
X0202366Y0026759D01*
X0202360Y0026880D01*
X0202358Y0027000D01*
D13*
X0204508Y0096000D02*
X0204510Y0096077D01*
X0204516Y0096153D01*
X0204526Y0096230D01*
X0204540Y0096305D01*
X0204557Y0096380D01*
X0204579Y0096454D01*
X0204604Y0096526D01*
X0204633Y0096597D01*
X0204665Y0096667D01*
X0204702Y0096735D01*
X0204741Y0096801D01*
X0204784Y0096864D01*
X0204830Y0096926D01*
X0204879Y0096985D01*
X0204932Y0097041D01*
X0204987Y0097095D01*
X0205044Y0097146D01*
X0205104Y0097193D01*
X0205167Y0097238D01*
X0205232Y0097279D01*
X0205299Y0097317D01*
X0205368Y0097351D01*
X0205438Y0097382D01*
X0205510Y0097409D01*
X0205583Y0097433D01*
X0205657Y0097452D01*
X0205733Y0097468D01*
X0205808Y0097480D01*
X0205885Y0097488D01*
X0205962Y0097492D01*
X0206038Y0097492D01*
X0206115Y0097488D01*
X0206192Y0097480D01*
X0206267Y0097468D01*
X0206343Y0097452D01*
X0206417Y0097433D01*
X0206490Y0097409D01*
X0206562Y0097382D01*
X0206632Y0097351D01*
X0206701Y0097317D01*
X0206768Y0097279D01*
X0206833Y0097238D01*
X0206896Y0097193D01*
X0206956Y0097146D01*
X0207013Y0097095D01*
X0207068Y0097041D01*
X0207121Y0096985D01*
X0207170Y0096926D01*
X0207216Y0096864D01*
X0207259Y0096801D01*
X0207298Y0096735D01*
X0207335Y0096667D01*
X0207367Y0096597D01*
X0207396Y0096526D01*
X0207421Y0096454D01*
X0207443Y0096380D01*
X0207460Y0096305D01*
X0207474Y0096230D01*
X0207484Y0096153D01*
X0207490Y0096077D01*
X0207492Y0096000D01*
X0207490Y0095923D01*
X0207484Y0095847D01*
X0207474Y0095770D01*
X0207460Y0095695D01*
X0207443Y0095620D01*
X0207421Y0095546D01*
X0207396Y0095474D01*
X0207367Y0095403D01*
X0207335Y0095333D01*
X0207298Y0095265D01*
X0207259Y0095199D01*
X0207216Y0095136D01*
X0207170Y0095074D01*
X0207121Y0095015D01*
X0207068Y0094959D01*
X0207013Y0094905D01*
X0206956Y0094854D01*
X0206896Y0094807D01*
X0206833Y0094762D01*
X0206768Y0094721D01*
X0206701Y0094683D01*
X0206632Y0094649D01*
X0206562Y0094618D01*
X0206490Y0094591D01*
X0206417Y0094567D01*
X0206343Y0094548D01*
X0206267Y0094532D01*
X0206192Y0094520D01*
X0206115Y0094512D01*
X0206038Y0094508D01*
X0205962Y0094508D01*
X0205885Y0094512D01*
X0205808Y0094520D01*
X0205733Y0094532D01*
X0205657Y0094548D01*
X0205583Y0094567D01*
X0205510Y0094591D01*
X0205438Y0094618D01*
X0205368Y0094649D01*
X0205299Y0094683D01*
X0205232Y0094721D01*
X0205167Y0094762D01*
X0205104Y0094807D01*
X0205044Y0094854D01*
X0204987Y0094905D01*
X0204932Y0094959D01*
X0204879Y0095015D01*
X0204830Y0095074D01*
X0204784Y0095136D01*
X0204741Y0095199D01*
X0204702Y0095265D01*
X0204665Y0095333D01*
X0204633Y0095403D01*
X0204604Y0095474D01*
X0204579Y0095546D01*
X0204557Y0095620D01*
X0204540Y0095695D01*
X0204526Y0095770D01*
X0204516Y0095847D01*
X0204510Y0095923D01*
X0204508Y0096000D01*
X0194508Y0096000D02*
X0194510Y0096077D01*
X0194516Y0096153D01*
X0194526Y0096230D01*
X0194540Y0096305D01*
X0194557Y0096380D01*
X0194579Y0096454D01*
X0194604Y0096526D01*
X0194633Y0096597D01*
X0194665Y0096667D01*
X0194702Y0096735D01*
X0194741Y0096801D01*
X0194784Y0096864D01*
X0194830Y0096926D01*
X0194879Y0096985D01*
X0194932Y0097041D01*
X0194987Y0097095D01*
X0195044Y0097146D01*
X0195104Y0097193D01*
X0195167Y0097238D01*
X0195232Y0097279D01*
X0195299Y0097317D01*
X0195368Y0097351D01*
X0195438Y0097382D01*
X0195510Y0097409D01*
X0195583Y0097433D01*
X0195657Y0097452D01*
X0195733Y0097468D01*
X0195808Y0097480D01*
X0195885Y0097488D01*
X0195962Y0097492D01*
X0196038Y0097492D01*
X0196115Y0097488D01*
X0196192Y0097480D01*
X0196267Y0097468D01*
X0196343Y0097452D01*
X0196417Y0097433D01*
X0196490Y0097409D01*
X0196562Y0097382D01*
X0196632Y0097351D01*
X0196701Y0097317D01*
X0196768Y0097279D01*
X0196833Y0097238D01*
X0196896Y0097193D01*
X0196956Y0097146D01*
X0197013Y0097095D01*
X0197068Y0097041D01*
X0197121Y0096985D01*
X0197170Y0096926D01*
X0197216Y0096864D01*
X0197259Y0096801D01*
X0197298Y0096735D01*
X0197335Y0096667D01*
X0197367Y0096597D01*
X0197396Y0096526D01*
X0197421Y0096454D01*
X0197443Y0096380D01*
X0197460Y0096305D01*
X0197474Y0096230D01*
X0197484Y0096153D01*
X0197490Y0096077D01*
X0197492Y0096000D01*
X0197490Y0095923D01*
X0197484Y0095847D01*
X0197474Y0095770D01*
X0197460Y0095695D01*
X0197443Y0095620D01*
X0197421Y0095546D01*
X0197396Y0095474D01*
X0197367Y0095403D01*
X0197335Y0095333D01*
X0197298Y0095265D01*
X0197259Y0095199D01*
X0197216Y0095136D01*
X0197170Y0095074D01*
X0197121Y0095015D01*
X0197068Y0094959D01*
X0197013Y0094905D01*
X0196956Y0094854D01*
X0196896Y0094807D01*
X0196833Y0094762D01*
X0196768Y0094721D01*
X0196701Y0094683D01*
X0196632Y0094649D01*
X0196562Y0094618D01*
X0196490Y0094591D01*
X0196417Y0094567D01*
X0196343Y0094548D01*
X0196267Y0094532D01*
X0196192Y0094520D01*
X0196115Y0094512D01*
X0196038Y0094508D01*
X0195962Y0094508D01*
X0195885Y0094512D01*
X0195808Y0094520D01*
X0195733Y0094532D01*
X0195657Y0094548D01*
X0195583Y0094567D01*
X0195510Y0094591D01*
X0195438Y0094618D01*
X0195368Y0094649D01*
X0195299Y0094683D01*
X0195232Y0094721D01*
X0195167Y0094762D01*
X0195104Y0094807D01*
X0195044Y0094854D01*
X0194987Y0094905D01*
X0194932Y0094959D01*
X0194879Y0095015D01*
X0194830Y0095074D01*
X0194784Y0095136D01*
X0194741Y0095199D01*
X0194702Y0095265D01*
X0194665Y0095333D01*
X0194633Y0095403D01*
X0194604Y0095474D01*
X0194579Y0095546D01*
X0194557Y0095620D01*
X0194540Y0095695D01*
X0194526Y0095770D01*
X0194516Y0095847D01*
X0194510Y0095923D01*
X0194508Y0096000D01*
X0214508Y0096000D02*
X0214510Y0096077D01*
X0214516Y0096153D01*
X0214526Y0096230D01*
X0214540Y0096305D01*
X0214557Y0096380D01*
X0214579Y0096454D01*
X0214604Y0096526D01*
X0214633Y0096597D01*
X0214665Y0096667D01*
X0214702Y0096735D01*
X0214741Y0096801D01*
X0214784Y0096864D01*
X0214830Y0096926D01*
X0214879Y0096985D01*
X0214932Y0097041D01*
X0214987Y0097095D01*
X0215044Y0097146D01*
X0215104Y0097193D01*
X0215167Y0097238D01*
X0215232Y0097279D01*
X0215299Y0097317D01*
X0215368Y0097351D01*
X0215438Y0097382D01*
X0215510Y0097409D01*
X0215583Y0097433D01*
X0215657Y0097452D01*
X0215733Y0097468D01*
X0215808Y0097480D01*
X0215885Y0097488D01*
X0215962Y0097492D01*
X0216038Y0097492D01*
X0216115Y0097488D01*
X0216192Y0097480D01*
X0216267Y0097468D01*
X0216343Y0097452D01*
X0216417Y0097433D01*
X0216490Y0097409D01*
X0216562Y0097382D01*
X0216632Y0097351D01*
X0216701Y0097317D01*
X0216768Y0097279D01*
X0216833Y0097238D01*
X0216896Y0097193D01*
X0216956Y0097146D01*
X0217013Y0097095D01*
X0217068Y0097041D01*
X0217121Y0096985D01*
X0217170Y0096926D01*
X0217216Y0096864D01*
X0217259Y0096801D01*
X0217298Y0096735D01*
X0217335Y0096667D01*
X0217367Y0096597D01*
X0217396Y0096526D01*
X0217421Y0096454D01*
X0217443Y0096380D01*
X0217460Y0096305D01*
X0217474Y0096230D01*
X0217484Y0096153D01*
X0217490Y0096077D01*
X0217492Y0096000D01*
X0217490Y0095923D01*
X0217484Y0095847D01*
X0217474Y0095770D01*
X0217460Y0095695D01*
X0217443Y0095620D01*
X0217421Y0095546D01*
X0217396Y0095474D01*
X0217367Y0095403D01*
X0217335Y0095333D01*
X0217298Y0095265D01*
X0217259Y0095199D01*
X0217216Y0095136D01*
X0217170Y0095074D01*
X0217121Y0095015D01*
X0217068Y0094959D01*
X0217013Y0094905D01*
X0216956Y0094854D01*
X0216896Y0094807D01*
X0216833Y0094762D01*
X0216768Y0094721D01*
X0216701Y0094683D01*
X0216632Y0094649D01*
X0216562Y0094618D01*
X0216490Y0094591D01*
X0216417Y0094567D01*
X0216343Y0094548D01*
X0216267Y0094532D01*
X0216192Y0094520D01*
X0216115Y0094512D01*
X0216038Y0094508D01*
X0215962Y0094508D01*
X0215885Y0094512D01*
X0215808Y0094520D01*
X0215733Y0094532D01*
X0215657Y0094548D01*
X0215583Y0094567D01*
X0215510Y0094591D01*
X0215438Y0094618D01*
X0215368Y0094649D01*
X0215299Y0094683D01*
X0215232Y0094721D01*
X0215167Y0094762D01*
X0215104Y0094807D01*
X0215044Y0094854D01*
X0214987Y0094905D01*
X0214932Y0094959D01*
X0214879Y0095015D01*
X0214830Y0095074D01*
X0214784Y0095136D01*
X0214741Y0095199D01*
X0214702Y0095265D01*
X0214665Y0095333D01*
X0214633Y0095403D01*
X0214604Y0095474D01*
X0214579Y0095546D01*
X0214557Y0095620D01*
X0214540Y0095695D01*
X0214526Y0095770D01*
X0214516Y0095847D01*
X0214510Y0095923D01*
X0214508Y0096000D01*
D14*
X0024807Y0106000D02*
X0024809Y0106069D01*
X0024815Y0106137D01*
X0024825Y0106205D01*
X0024839Y0106273D01*
X0024856Y0106339D01*
X0024878Y0106404D01*
X0024903Y0106468D01*
X0024932Y0106531D01*
X0024964Y0106592D01*
X0025000Y0106650D01*
X0025039Y0106707D01*
X0025081Y0106761D01*
X0025127Y0106813D01*
X0025175Y0106862D01*
X0025226Y0106908D01*
X0025279Y0106951D01*
X0025335Y0106991D01*
X0025394Y0107027D01*
X0025454Y0107061D01*
X0025516Y0107090D01*
X0025579Y0107116D01*
X0025644Y0107139D01*
X0025711Y0107157D01*
X0025778Y0107172D01*
X0025846Y0107183D01*
X0025914Y0107190D01*
X0025983Y0107193D01*
X0026052Y0107192D01*
X0026120Y0107187D01*
X0026188Y0107178D01*
X0026256Y0107165D01*
X0026323Y0107149D01*
X0026388Y0107128D01*
X0026453Y0107104D01*
X0026515Y0107076D01*
X0026577Y0107044D01*
X0026636Y0107009D01*
X0026693Y0106971D01*
X0026748Y0106930D01*
X0026800Y0106885D01*
X0026850Y0106837D01*
X0026896Y0106787D01*
X0026940Y0106734D01*
X0026981Y0106679D01*
X0027019Y0106621D01*
X0027053Y0106561D01*
X0027083Y0106500D01*
X0027110Y0106437D01*
X0027134Y0106372D01*
X0027153Y0106306D01*
X0027169Y0106239D01*
X0027181Y0106171D01*
X0027189Y0106103D01*
X0027193Y0106034D01*
X0027193Y0105966D01*
X0027189Y0105897D01*
X0027181Y0105829D01*
X0027169Y0105761D01*
X0027153Y0105694D01*
X0027134Y0105628D01*
X0027110Y0105563D01*
X0027083Y0105500D01*
X0027053Y0105439D01*
X0027019Y0105379D01*
X0026981Y0105321D01*
X0026940Y0105266D01*
X0026896Y0105213D01*
X0026850Y0105163D01*
X0026800Y0105115D01*
X0026748Y0105070D01*
X0026693Y0105029D01*
X0026636Y0104991D01*
X0026577Y0104956D01*
X0026515Y0104924D01*
X0026453Y0104896D01*
X0026388Y0104872D01*
X0026323Y0104851D01*
X0026256Y0104835D01*
X0026188Y0104822D01*
X0026120Y0104813D01*
X0026052Y0104808D01*
X0025983Y0104807D01*
X0025914Y0104810D01*
X0025846Y0104817D01*
X0025778Y0104828D01*
X0025711Y0104843D01*
X0025644Y0104861D01*
X0025579Y0104884D01*
X0025516Y0104910D01*
X0025454Y0104939D01*
X0025394Y0104973D01*
X0025335Y0105009D01*
X0025279Y0105049D01*
X0025226Y0105092D01*
X0025175Y0105138D01*
X0025127Y0105187D01*
X0025081Y0105239D01*
X0025039Y0105293D01*
X0025000Y0105350D01*
X0024964Y0105408D01*
X0024932Y0105469D01*
X0024903Y0105532D01*
X0024878Y0105596D01*
X0024856Y0105661D01*
X0024839Y0105727D01*
X0024825Y0105795D01*
X0024815Y0105863D01*
X0024809Y0105931D01*
X0024807Y0106000D01*
X0014807Y0106000D02*
X0014809Y0106069D01*
X0014815Y0106137D01*
X0014825Y0106205D01*
X0014839Y0106273D01*
X0014856Y0106339D01*
X0014878Y0106404D01*
X0014903Y0106468D01*
X0014932Y0106531D01*
X0014964Y0106592D01*
X0015000Y0106650D01*
X0015039Y0106707D01*
X0015081Y0106761D01*
X0015127Y0106813D01*
X0015175Y0106862D01*
X0015226Y0106908D01*
X0015279Y0106951D01*
X0015335Y0106991D01*
X0015394Y0107027D01*
X0015454Y0107061D01*
X0015516Y0107090D01*
X0015579Y0107116D01*
X0015644Y0107139D01*
X0015711Y0107157D01*
X0015778Y0107172D01*
X0015846Y0107183D01*
X0015914Y0107190D01*
X0015983Y0107193D01*
X0016052Y0107192D01*
X0016120Y0107187D01*
X0016188Y0107178D01*
X0016256Y0107165D01*
X0016323Y0107149D01*
X0016388Y0107128D01*
X0016453Y0107104D01*
X0016515Y0107076D01*
X0016577Y0107044D01*
X0016636Y0107009D01*
X0016693Y0106971D01*
X0016748Y0106930D01*
X0016800Y0106885D01*
X0016850Y0106837D01*
X0016896Y0106787D01*
X0016940Y0106734D01*
X0016981Y0106679D01*
X0017019Y0106621D01*
X0017053Y0106561D01*
X0017083Y0106500D01*
X0017110Y0106437D01*
X0017134Y0106372D01*
X0017153Y0106306D01*
X0017169Y0106239D01*
X0017181Y0106171D01*
X0017189Y0106103D01*
X0017193Y0106034D01*
X0017193Y0105966D01*
X0017189Y0105897D01*
X0017181Y0105829D01*
X0017169Y0105761D01*
X0017153Y0105694D01*
X0017134Y0105628D01*
X0017110Y0105563D01*
X0017083Y0105500D01*
X0017053Y0105439D01*
X0017019Y0105379D01*
X0016981Y0105321D01*
X0016940Y0105266D01*
X0016896Y0105213D01*
X0016850Y0105163D01*
X0016800Y0105115D01*
X0016748Y0105070D01*
X0016693Y0105029D01*
X0016636Y0104991D01*
X0016577Y0104956D01*
X0016515Y0104924D01*
X0016453Y0104896D01*
X0016388Y0104872D01*
X0016323Y0104851D01*
X0016256Y0104835D01*
X0016188Y0104822D01*
X0016120Y0104813D01*
X0016052Y0104808D01*
X0015983Y0104807D01*
X0015914Y0104810D01*
X0015846Y0104817D01*
X0015778Y0104828D01*
X0015711Y0104843D01*
X0015644Y0104861D01*
X0015579Y0104884D01*
X0015516Y0104910D01*
X0015454Y0104939D01*
X0015394Y0104973D01*
X0015335Y0105009D01*
X0015279Y0105049D01*
X0015226Y0105092D01*
X0015175Y0105138D01*
X0015127Y0105187D01*
X0015081Y0105239D01*
X0015039Y0105293D01*
X0015000Y0105350D01*
X0014964Y0105408D01*
X0014932Y0105469D01*
X0014903Y0105532D01*
X0014878Y0105596D01*
X0014856Y0105661D01*
X0014839Y0105727D01*
X0014825Y0105795D01*
X0014815Y0105863D01*
X0014809Y0105931D01*
X0014807Y0106000D01*
X0019807Y0113500D02*
X0019809Y0113569D01*
X0019815Y0113637D01*
X0019825Y0113705D01*
X0019839Y0113773D01*
X0019856Y0113839D01*
X0019878Y0113904D01*
X0019903Y0113968D01*
X0019932Y0114031D01*
X0019964Y0114092D01*
X0020000Y0114150D01*
X0020039Y0114207D01*
X0020081Y0114261D01*
X0020127Y0114313D01*
X0020175Y0114362D01*
X0020226Y0114408D01*
X0020279Y0114451D01*
X0020335Y0114491D01*
X0020394Y0114527D01*
X0020454Y0114561D01*
X0020516Y0114590D01*
X0020579Y0114616D01*
X0020644Y0114639D01*
X0020711Y0114657D01*
X0020778Y0114672D01*
X0020846Y0114683D01*
X0020914Y0114690D01*
X0020983Y0114693D01*
X0021052Y0114692D01*
X0021120Y0114687D01*
X0021188Y0114678D01*
X0021256Y0114665D01*
X0021323Y0114649D01*
X0021388Y0114628D01*
X0021453Y0114604D01*
X0021515Y0114576D01*
X0021577Y0114544D01*
X0021636Y0114509D01*
X0021693Y0114471D01*
X0021748Y0114430D01*
X0021800Y0114385D01*
X0021850Y0114337D01*
X0021896Y0114287D01*
X0021940Y0114234D01*
X0021981Y0114179D01*
X0022019Y0114121D01*
X0022053Y0114061D01*
X0022083Y0114000D01*
X0022110Y0113937D01*
X0022134Y0113872D01*
X0022153Y0113806D01*
X0022169Y0113739D01*
X0022181Y0113671D01*
X0022189Y0113603D01*
X0022193Y0113534D01*
X0022193Y0113466D01*
X0022189Y0113397D01*
X0022181Y0113329D01*
X0022169Y0113261D01*
X0022153Y0113194D01*
X0022134Y0113128D01*
X0022110Y0113063D01*
X0022083Y0113000D01*
X0022053Y0112939D01*
X0022019Y0112879D01*
X0021981Y0112821D01*
X0021940Y0112766D01*
X0021896Y0112713D01*
X0021850Y0112663D01*
X0021800Y0112615D01*
X0021748Y0112570D01*
X0021693Y0112529D01*
X0021636Y0112491D01*
X0021577Y0112456D01*
X0021515Y0112424D01*
X0021453Y0112396D01*
X0021388Y0112372D01*
X0021323Y0112351D01*
X0021256Y0112335D01*
X0021188Y0112322D01*
X0021120Y0112313D01*
X0021052Y0112308D01*
X0020983Y0112307D01*
X0020914Y0112310D01*
X0020846Y0112317D01*
X0020778Y0112328D01*
X0020711Y0112343D01*
X0020644Y0112361D01*
X0020579Y0112384D01*
X0020516Y0112410D01*
X0020454Y0112439D01*
X0020394Y0112473D01*
X0020335Y0112509D01*
X0020279Y0112549D01*
X0020226Y0112592D01*
X0020175Y0112638D01*
X0020127Y0112687D01*
X0020081Y0112739D01*
X0020039Y0112793D01*
X0020000Y0112850D01*
X0019964Y0112908D01*
X0019932Y0112969D01*
X0019903Y0113032D01*
X0019878Y0113096D01*
X0019856Y0113161D01*
X0019839Y0113227D01*
X0019825Y0113295D01*
X0019815Y0113363D01*
X0019809Y0113431D01*
X0019807Y0113500D01*
D15*
X0053110Y0090402D02*
X0053112Y0090454D01*
X0053118Y0090506D01*
X0053128Y0090557D01*
X0053141Y0090607D01*
X0053159Y0090657D01*
X0053180Y0090704D01*
X0053204Y0090750D01*
X0053233Y0090794D01*
X0053264Y0090836D01*
X0053298Y0090875D01*
X0053335Y0090912D01*
X0053375Y0090945D01*
X0053418Y0090976D01*
X0053462Y0091003D01*
X0053508Y0091027D01*
X0053557Y0091047D01*
X0053606Y0091063D01*
X0053657Y0091076D01*
X0053708Y0091085D01*
X0053760Y0091090D01*
X0053812Y0091091D01*
X0053864Y0091088D01*
X0053916Y0091081D01*
X0053967Y0091070D01*
X0054017Y0091056D01*
X0054066Y0091037D01*
X0054113Y0091015D01*
X0054158Y0090990D01*
X0054202Y0090961D01*
X0054243Y0090929D01*
X0054282Y0090894D01*
X0054317Y0090856D01*
X0054350Y0090815D01*
X0054380Y0090773D01*
X0054406Y0090728D01*
X0054429Y0090681D01*
X0054448Y0090632D01*
X0054464Y0090582D01*
X0054476Y0090532D01*
X0054484Y0090480D01*
X0054488Y0090428D01*
X0054488Y0090376D01*
X0054484Y0090324D01*
X0054476Y0090272D01*
X0054464Y0090222D01*
X0054448Y0090172D01*
X0054429Y0090123D01*
X0054406Y0090076D01*
X0054380Y0090031D01*
X0054350Y0089989D01*
X0054317Y0089948D01*
X0054282Y0089910D01*
X0054243Y0089875D01*
X0054202Y0089843D01*
X0054158Y0089814D01*
X0054113Y0089789D01*
X0054066Y0089767D01*
X0054017Y0089748D01*
X0053967Y0089734D01*
X0053916Y0089723D01*
X0053864Y0089716D01*
X0053812Y0089713D01*
X0053760Y0089714D01*
X0053708Y0089719D01*
X0053657Y0089728D01*
X0053606Y0089741D01*
X0053557Y0089757D01*
X0053508Y0089777D01*
X0053462Y0089801D01*
X0053418Y0089828D01*
X0053375Y0089859D01*
X0053335Y0089892D01*
X0053298Y0089929D01*
X0053264Y0089968D01*
X0053233Y0090010D01*
X0053204Y0090054D01*
X0053180Y0090100D01*
X0053159Y0090147D01*
X0053141Y0090197D01*
X0053128Y0090247D01*
X0053118Y0090298D01*
X0053112Y0090350D01*
X0053110Y0090402D01*
X0071512Y0090799D02*
X0071514Y0090851D01*
X0071520Y0090903D01*
X0071530Y0090954D01*
X0071543Y0091004D01*
X0071561Y0091054D01*
X0071582Y0091101D01*
X0071606Y0091147D01*
X0071635Y0091191D01*
X0071666Y0091233D01*
X0071700Y0091272D01*
X0071737Y0091309D01*
X0071777Y0091342D01*
X0071820Y0091373D01*
X0071864Y0091400D01*
X0071910Y0091424D01*
X0071959Y0091444D01*
X0072008Y0091460D01*
X0072059Y0091473D01*
X0072110Y0091482D01*
X0072162Y0091487D01*
X0072214Y0091488D01*
X0072266Y0091485D01*
X0072318Y0091478D01*
X0072369Y0091467D01*
X0072419Y0091453D01*
X0072468Y0091434D01*
X0072515Y0091412D01*
X0072560Y0091387D01*
X0072604Y0091358D01*
X0072645Y0091326D01*
X0072684Y0091291D01*
X0072719Y0091253D01*
X0072752Y0091212D01*
X0072782Y0091170D01*
X0072808Y0091125D01*
X0072831Y0091078D01*
X0072850Y0091029D01*
X0072866Y0090979D01*
X0072878Y0090929D01*
X0072886Y0090877D01*
X0072890Y0090825D01*
X0072890Y0090773D01*
X0072886Y0090721D01*
X0072878Y0090669D01*
X0072866Y0090619D01*
X0072850Y0090569D01*
X0072831Y0090520D01*
X0072808Y0090473D01*
X0072782Y0090428D01*
X0072752Y0090386D01*
X0072719Y0090345D01*
X0072684Y0090307D01*
X0072645Y0090272D01*
X0072604Y0090240D01*
X0072560Y0090211D01*
X0072515Y0090186D01*
X0072468Y0090164D01*
X0072419Y0090145D01*
X0072369Y0090131D01*
X0072318Y0090120D01*
X0072266Y0090113D01*
X0072214Y0090110D01*
X0072162Y0090111D01*
X0072110Y0090116D01*
X0072059Y0090125D01*
X0072008Y0090138D01*
X0071959Y0090154D01*
X0071910Y0090174D01*
X0071864Y0090198D01*
X0071820Y0090225D01*
X0071777Y0090256D01*
X0071737Y0090289D01*
X0071700Y0090326D01*
X0071666Y0090365D01*
X0071635Y0090407D01*
X0071606Y0090451D01*
X0071582Y0090497D01*
X0071561Y0090544D01*
X0071543Y0090594D01*
X0071530Y0090644D01*
X0071520Y0090695D01*
X0071514Y0090747D01*
X0071512Y0090799D01*
X0090311Y0081260D02*
X0090313Y0081312D01*
X0090319Y0081364D01*
X0090329Y0081415D01*
X0090342Y0081465D01*
X0090360Y0081515D01*
X0090381Y0081562D01*
X0090405Y0081608D01*
X0090434Y0081652D01*
X0090465Y0081694D01*
X0090499Y0081733D01*
X0090536Y0081770D01*
X0090576Y0081803D01*
X0090619Y0081834D01*
X0090663Y0081861D01*
X0090709Y0081885D01*
X0090758Y0081905D01*
X0090807Y0081921D01*
X0090858Y0081934D01*
X0090909Y0081943D01*
X0090961Y0081948D01*
X0091013Y0081949D01*
X0091065Y0081946D01*
X0091117Y0081939D01*
X0091168Y0081928D01*
X0091218Y0081914D01*
X0091267Y0081895D01*
X0091314Y0081873D01*
X0091359Y0081848D01*
X0091403Y0081819D01*
X0091444Y0081787D01*
X0091483Y0081752D01*
X0091518Y0081714D01*
X0091551Y0081673D01*
X0091581Y0081631D01*
X0091607Y0081586D01*
X0091630Y0081539D01*
X0091649Y0081490D01*
X0091665Y0081440D01*
X0091677Y0081390D01*
X0091685Y0081338D01*
X0091689Y0081286D01*
X0091689Y0081234D01*
X0091685Y0081182D01*
X0091677Y0081130D01*
X0091665Y0081080D01*
X0091649Y0081030D01*
X0091630Y0080981D01*
X0091607Y0080934D01*
X0091581Y0080889D01*
X0091551Y0080847D01*
X0091518Y0080806D01*
X0091483Y0080768D01*
X0091444Y0080733D01*
X0091403Y0080701D01*
X0091359Y0080672D01*
X0091314Y0080647D01*
X0091267Y0080625D01*
X0091218Y0080606D01*
X0091168Y0080592D01*
X0091117Y0080581D01*
X0091065Y0080574D01*
X0091013Y0080571D01*
X0090961Y0080572D01*
X0090909Y0080577D01*
X0090858Y0080586D01*
X0090807Y0080599D01*
X0090758Y0080615D01*
X0090709Y0080635D01*
X0090663Y0080659D01*
X0090619Y0080686D01*
X0090576Y0080717D01*
X0090536Y0080750D01*
X0090499Y0080787D01*
X0090465Y0080826D01*
X0090434Y0080868D01*
X0090405Y0080912D01*
X0090381Y0080958D01*
X0090360Y0081005D01*
X0090342Y0081055D01*
X0090329Y0081105D01*
X0090319Y0081156D01*
X0090313Y0081208D01*
X0090311Y0081260D01*
X0096311Y0064000D02*
X0096313Y0064052D01*
X0096319Y0064104D01*
X0096329Y0064155D01*
X0096342Y0064205D01*
X0096360Y0064255D01*
X0096381Y0064302D01*
X0096405Y0064348D01*
X0096434Y0064392D01*
X0096465Y0064434D01*
X0096499Y0064473D01*
X0096536Y0064510D01*
X0096576Y0064543D01*
X0096619Y0064574D01*
X0096663Y0064601D01*
X0096709Y0064625D01*
X0096758Y0064645D01*
X0096807Y0064661D01*
X0096858Y0064674D01*
X0096909Y0064683D01*
X0096961Y0064688D01*
X0097013Y0064689D01*
X0097065Y0064686D01*
X0097117Y0064679D01*
X0097168Y0064668D01*
X0097218Y0064654D01*
X0097267Y0064635D01*
X0097314Y0064613D01*
X0097359Y0064588D01*
X0097403Y0064559D01*
X0097444Y0064527D01*
X0097483Y0064492D01*
X0097518Y0064454D01*
X0097551Y0064413D01*
X0097581Y0064371D01*
X0097607Y0064326D01*
X0097630Y0064279D01*
X0097649Y0064230D01*
X0097665Y0064180D01*
X0097677Y0064130D01*
X0097685Y0064078D01*
X0097689Y0064026D01*
X0097689Y0063974D01*
X0097685Y0063922D01*
X0097677Y0063870D01*
X0097665Y0063820D01*
X0097649Y0063770D01*
X0097630Y0063721D01*
X0097607Y0063674D01*
X0097581Y0063629D01*
X0097551Y0063587D01*
X0097518Y0063546D01*
X0097483Y0063508D01*
X0097444Y0063473D01*
X0097403Y0063441D01*
X0097359Y0063412D01*
X0097314Y0063387D01*
X0097267Y0063365D01*
X0097218Y0063346D01*
X0097168Y0063332D01*
X0097117Y0063321D01*
X0097065Y0063314D01*
X0097013Y0063311D01*
X0096961Y0063312D01*
X0096909Y0063317D01*
X0096858Y0063326D01*
X0096807Y0063339D01*
X0096758Y0063355D01*
X0096709Y0063375D01*
X0096663Y0063399D01*
X0096619Y0063426D01*
X0096576Y0063457D01*
X0096536Y0063490D01*
X0096499Y0063527D01*
X0096465Y0063566D01*
X0096434Y0063608D01*
X0096405Y0063652D01*
X0096381Y0063698D01*
X0096360Y0063745D01*
X0096342Y0063795D01*
X0096329Y0063845D01*
X0096319Y0063896D01*
X0096313Y0063948D01*
X0096311Y0064000D01*
X0106213Y0049902D02*
X0106215Y0049954D01*
X0106221Y0050006D01*
X0106231Y0050057D01*
X0106244Y0050107D01*
X0106262Y0050157D01*
X0106283Y0050204D01*
X0106307Y0050250D01*
X0106336Y0050294D01*
X0106367Y0050336D01*
X0106401Y0050375D01*
X0106438Y0050412D01*
X0106478Y0050445D01*
X0106521Y0050476D01*
X0106565Y0050503D01*
X0106611Y0050527D01*
X0106660Y0050547D01*
X0106709Y0050563D01*
X0106760Y0050576D01*
X0106811Y0050585D01*
X0106863Y0050590D01*
X0106915Y0050591D01*
X0106967Y0050588D01*
X0107019Y0050581D01*
X0107070Y0050570D01*
X0107120Y0050556D01*
X0107169Y0050537D01*
X0107216Y0050515D01*
X0107261Y0050490D01*
X0107305Y0050461D01*
X0107346Y0050429D01*
X0107385Y0050394D01*
X0107420Y0050356D01*
X0107453Y0050315D01*
X0107483Y0050273D01*
X0107509Y0050228D01*
X0107532Y0050181D01*
X0107551Y0050132D01*
X0107567Y0050082D01*
X0107579Y0050032D01*
X0107587Y0049980D01*
X0107591Y0049928D01*
X0107591Y0049876D01*
X0107587Y0049824D01*
X0107579Y0049772D01*
X0107567Y0049722D01*
X0107551Y0049672D01*
X0107532Y0049623D01*
X0107509Y0049576D01*
X0107483Y0049531D01*
X0107453Y0049489D01*
X0107420Y0049448D01*
X0107385Y0049410D01*
X0107346Y0049375D01*
X0107305Y0049343D01*
X0107261Y0049314D01*
X0107216Y0049289D01*
X0107169Y0049267D01*
X0107120Y0049248D01*
X0107070Y0049234D01*
X0107019Y0049223D01*
X0106967Y0049216D01*
X0106915Y0049213D01*
X0106863Y0049214D01*
X0106811Y0049219D01*
X0106760Y0049228D01*
X0106709Y0049241D01*
X0106660Y0049257D01*
X0106611Y0049277D01*
X0106565Y0049301D01*
X0106521Y0049328D01*
X0106478Y0049359D01*
X0106438Y0049392D01*
X0106401Y0049429D01*
X0106367Y0049468D01*
X0106336Y0049510D01*
X0106307Y0049554D01*
X0106283Y0049600D01*
X0106262Y0049647D01*
X0106244Y0049697D01*
X0106231Y0049747D01*
X0106221Y0049798D01*
X0106215Y0049850D01*
X0106213Y0049902D01*
X0092512Y0039201D02*
X0092514Y0039253D01*
X0092520Y0039305D01*
X0092530Y0039356D01*
X0092543Y0039406D01*
X0092561Y0039456D01*
X0092582Y0039503D01*
X0092606Y0039549D01*
X0092635Y0039593D01*
X0092666Y0039635D01*
X0092700Y0039674D01*
X0092737Y0039711D01*
X0092777Y0039744D01*
X0092820Y0039775D01*
X0092864Y0039802D01*
X0092910Y0039826D01*
X0092959Y0039846D01*
X0093008Y0039862D01*
X0093059Y0039875D01*
X0093110Y0039884D01*
X0093162Y0039889D01*
X0093214Y0039890D01*
X0093266Y0039887D01*
X0093318Y0039880D01*
X0093369Y0039869D01*
X0093419Y0039855D01*
X0093468Y0039836D01*
X0093515Y0039814D01*
X0093560Y0039789D01*
X0093604Y0039760D01*
X0093645Y0039728D01*
X0093684Y0039693D01*
X0093719Y0039655D01*
X0093752Y0039614D01*
X0093782Y0039572D01*
X0093808Y0039527D01*
X0093831Y0039480D01*
X0093850Y0039431D01*
X0093866Y0039381D01*
X0093878Y0039331D01*
X0093886Y0039279D01*
X0093890Y0039227D01*
X0093890Y0039175D01*
X0093886Y0039123D01*
X0093878Y0039071D01*
X0093866Y0039021D01*
X0093850Y0038971D01*
X0093831Y0038922D01*
X0093808Y0038875D01*
X0093782Y0038830D01*
X0093752Y0038788D01*
X0093719Y0038747D01*
X0093684Y0038709D01*
X0093645Y0038674D01*
X0093604Y0038642D01*
X0093560Y0038613D01*
X0093515Y0038588D01*
X0093468Y0038566D01*
X0093419Y0038547D01*
X0093369Y0038533D01*
X0093318Y0038522D01*
X0093266Y0038515D01*
X0093214Y0038512D01*
X0093162Y0038513D01*
X0093110Y0038518D01*
X0093059Y0038527D01*
X0093008Y0038540D01*
X0092959Y0038556D01*
X0092910Y0038576D01*
X0092864Y0038600D01*
X0092820Y0038627D01*
X0092777Y0038658D01*
X0092737Y0038691D01*
X0092700Y0038728D01*
X0092666Y0038767D01*
X0092635Y0038809D01*
X0092606Y0038853D01*
X0092582Y0038899D01*
X0092561Y0038946D01*
X0092543Y0038996D01*
X0092530Y0039046D01*
X0092520Y0039097D01*
X0092514Y0039149D01*
X0092512Y0039201D01*
X0090110Y0035000D02*
X0090112Y0035052D01*
X0090118Y0035104D01*
X0090128Y0035155D01*
X0090141Y0035205D01*
X0090159Y0035255D01*
X0090180Y0035302D01*
X0090204Y0035348D01*
X0090233Y0035392D01*
X0090264Y0035434D01*
X0090298Y0035473D01*
X0090335Y0035510D01*
X0090375Y0035543D01*
X0090418Y0035574D01*
X0090462Y0035601D01*
X0090508Y0035625D01*
X0090557Y0035645D01*
X0090606Y0035661D01*
X0090657Y0035674D01*
X0090708Y0035683D01*
X0090760Y0035688D01*
X0090812Y0035689D01*
X0090864Y0035686D01*
X0090916Y0035679D01*
X0090967Y0035668D01*
X0091017Y0035654D01*
X0091066Y0035635D01*
X0091113Y0035613D01*
X0091158Y0035588D01*
X0091202Y0035559D01*
X0091243Y0035527D01*
X0091282Y0035492D01*
X0091317Y0035454D01*
X0091350Y0035413D01*
X0091380Y0035371D01*
X0091406Y0035326D01*
X0091429Y0035279D01*
X0091448Y0035230D01*
X0091464Y0035180D01*
X0091476Y0035130D01*
X0091484Y0035078D01*
X0091488Y0035026D01*
X0091488Y0034974D01*
X0091484Y0034922D01*
X0091476Y0034870D01*
X0091464Y0034820D01*
X0091448Y0034770D01*
X0091429Y0034721D01*
X0091406Y0034674D01*
X0091380Y0034629D01*
X0091350Y0034587D01*
X0091317Y0034546D01*
X0091282Y0034508D01*
X0091243Y0034473D01*
X0091202Y0034441D01*
X0091158Y0034412D01*
X0091113Y0034387D01*
X0091066Y0034365D01*
X0091017Y0034346D01*
X0090967Y0034332D01*
X0090916Y0034321D01*
X0090864Y0034314D01*
X0090812Y0034311D01*
X0090760Y0034312D01*
X0090708Y0034317D01*
X0090657Y0034326D01*
X0090606Y0034339D01*
X0090557Y0034355D01*
X0090508Y0034375D01*
X0090462Y0034399D01*
X0090418Y0034426D01*
X0090375Y0034457D01*
X0090335Y0034490D01*
X0090298Y0034527D01*
X0090264Y0034566D01*
X0090233Y0034608D01*
X0090204Y0034652D01*
X0090180Y0034698D01*
X0090159Y0034745D01*
X0090141Y0034795D01*
X0090128Y0034845D01*
X0090118Y0034896D01*
X0090112Y0034948D01*
X0090110Y0035000D01*
X0078909Y0031000D02*
X0078911Y0031052D01*
X0078917Y0031104D01*
X0078927Y0031155D01*
X0078940Y0031205D01*
X0078958Y0031255D01*
X0078979Y0031302D01*
X0079003Y0031348D01*
X0079032Y0031392D01*
X0079063Y0031434D01*
X0079097Y0031473D01*
X0079134Y0031510D01*
X0079174Y0031543D01*
X0079217Y0031574D01*
X0079261Y0031601D01*
X0079307Y0031625D01*
X0079356Y0031645D01*
X0079405Y0031661D01*
X0079456Y0031674D01*
X0079507Y0031683D01*
X0079559Y0031688D01*
X0079611Y0031689D01*
X0079663Y0031686D01*
X0079715Y0031679D01*
X0079766Y0031668D01*
X0079816Y0031654D01*
X0079865Y0031635D01*
X0079912Y0031613D01*
X0079957Y0031588D01*
X0080001Y0031559D01*
X0080042Y0031527D01*
X0080081Y0031492D01*
X0080116Y0031454D01*
X0080149Y0031413D01*
X0080179Y0031371D01*
X0080205Y0031326D01*
X0080228Y0031279D01*
X0080247Y0031230D01*
X0080263Y0031180D01*
X0080275Y0031130D01*
X0080283Y0031078D01*
X0080287Y0031026D01*
X0080287Y0030974D01*
X0080283Y0030922D01*
X0080275Y0030870D01*
X0080263Y0030820D01*
X0080247Y0030770D01*
X0080228Y0030721D01*
X0080205Y0030674D01*
X0080179Y0030629D01*
X0080149Y0030587D01*
X0080116Y0030546D01*
X0080081Y0030508D01*
X0080042Y0030473D01*
X0080001Y0030441D01*
X0079957Y0030412D01*
X0079912Y0030387D01*
X0079865Y0030365D01*
X0079816Y0030346D01*
X0079766Y0030332D01*
X0079715Y0030321D01*
X0079663Y0030314D01*
X0079611Y0030311D01*
X0079559Y0030312D01*
X0079507Y0030317D01*
X0079456Y0030326D01*
X0079405Y0030339D01*
X0079356Y0030355D01*
X0079307Y0030375D01*
X0079261Y0030399D01*
X0079217Y0030426D01*
X0079174Y0030457D01*
X0079134Y0030490D01*
X0079097Y0030527D01*
X0079063Y0030566D01*
X0079032Y0030608D01*
X0079003Y0030652D01*
X0078979Y0030698D01*
X0078958Y0030745D01*
X0078940Y0030795D01*
X0078927Y0030845D01*
X0078917Y0030896D01*
X0078911Y0030948D01*
X0078909Y0031000D01*
X0060110Y0029000D02*
X0060112Y0029052D01*
X0060118Y0029104D01*
X0060128Y0029155D01*
X0060141Y0029205D01*
X0060159Y0029255D01*
X0060180Y0029302D01*
X0060204Y0029348D01*
X0060233Y0029392D01*
X0060264Y0029434D01*
X0060298Y0029473D01*
X0060335Y0029510D01*
X0060375Y0029543D01*
X0060418Y0029574D01*
X0060462Y0029601D01*
X0060508Y0029625D01*
X0060557Y0029645D01*
X0060606Y0029661D01*
X0060657Y0029674D01*
X0060708Y0029683D01*
X0060760Y0029688D01*
X0060812Y0029689D01*
X0060864Y0029686D01*
X0060916Y0029679D01*
X0060967Y0029668D01*
X0061017Y0029654D01*
X0061066Y0029635D01*
X0061113Y0029613D01*
X0061158Y0029588D01*
X0061202Y0029559D01*
X0061243Y0029527D01*
X0061282Y0029492D01*
X0061317Y0029454D01*
X0061350Y0029413D01*
X0061380Y0029371D01*
X0061406Y0029326D01*
X0061429Y0029279D01*
X0061448Y0029230D01*
X0061464Y0029180D01*
X0061476Y0029130D01*
X0061484Y0029078D01*
X0061488Y0029026D01*
X0061488Y0028974D01*
X0061484Y0028922D01*
X0061476Y0028870D01*
X0061464Y0028820D01*
X0061448Y0028770D01*
X0061429Y0028721D01*
X0061406Y0028674D01*
X0061380Y0028629D01*
X0061350Y0028587D01*
X0061317Y0028546D01*
X0061282Y0028508D01*
X0061243Y0028473D01*
X0061202Y0028441D01*
X0061158Y0028412D01*
X0061113Y0028387D01*
X0061066Y0028365D01*
X0061017Y0028346D01*
X0060967Y0028332D01*
X0060916Y0028321D01*
X0060864Y0028314D01*
X0060812Y0028311D01*
X0060760Y0028312D01*
X0060708Y0028317D01*
X0060657Y0028326D01*
X0060606Y0028339D01*
X0060557Y0028355D01*
X0060508Y0028375D01*
X0060462Y0028399D01*
X0060418Y0028426D01*
X0060375Y0028457D01*
X0060335Y0028490D01*
X0060298Y0028527D01*
X0060264Y0028566D01*
X0060233Y0028608D01*
X0060204Y0028652D01*
X0060180Y0028698D01*
X0060159Y0028745D01*
X0060141Y0028795D01*
X0060128Y0028845D01*
X0060118Y0028896D01*
X0060112Y0028948D01*
X0060110Y0029000D01*
X0062110Y0046000D02*
X0062112Y0046052D01*
X0062118Y0046104D01*
X0062128Y0046155D01*
X0062141Y0046205D01*
X0062159Y0046255D01*
X0062180Y0046302D01*
X0062204Y0046348D01*
X0062233Y0046392D01*
X0062264Y0046434D01*
X0062298Y0046473D01*
X0062335Y0046510D01*
X0062375Y0046543D01*
X0062418Y0046574D01*
X0062462Y0046601D01*
X0062508Y0046625D01*
X0062557Y0046645D01*
X0062606Y0046661D01*
X0062657Y0046674D01*
X0062708Y0046683D01*
X0062760Y0046688D01*
X0062812Y0046689D01*
X0062864Y0046686D01*
X0062916Y0046679D01*
X0062967Y0046668D01*
X0063017Y0046654D01*
X0063066Y0046635D01*
X0063113Y0046613D01*
X0063158Y0046588D01*
X0063202Y0046559D01*
X0063243Y0046527D01*
X0063282Y0046492D01*
X0063317Y0046454D01*
X0063350Y0046413D01*
X0063380Y0046371D01*
X0063406Y0046326D01*
X0063429Y0046279D01*
X0063448Y0046230D01*
X0063464Y0046180D01*
X0063476Y0046130D01*
X0063484Y0046078D01*
X0063488Y0046026D01*
X0063488Y0045974D01*
X0063484Y0045922D01*
X0063476Y0045870D01*
X0063464Y0045820D01*
X0063448Y0045770D01*
X0063429Y0045721D01*
X0063406Y0045674D01*
X0063380Y0045629D01*
X0063350Y0045587D01*
X0063317Y0045546D01*
X0063282Y0045508D01*
X0063243Y0045473D01*
X0063202Y0045441D01*
X0063158Y0045412D01*
X0063113Y0045387D01*
X0063066Y0045365D01*
X0063017Y0045346D01*
X0062967Y0045332D01*
X0062916Y0045321D01*
X0062864Y0045314D01*
X0062812Y0045311D01*
X0062760Y0045312D01*
X0062708Y0045317D01*
X0062657Y0045326D01*
X0062606Y0045339D01*
X0062557Y0045355D01*
X0062508Y0045375D01*
X0062462Y0045399D01*
X0062418Y0045426D01*
X0062375Y0045457D01*
X0062335Y0045490D01*
X0062298Y0045527D01*
X0062264Y0045566D01*
X0062233Y0045608D01*
X0062204Y0045652D01*
X0062180Y0045698D01*
X0062159Y0045745D01*
X0062141Y0045795D01*
X0062128Y0045845D01*
X0062118Y0045896D01*
X0062112Y0045948D01*
X0062110Y0046000D01*
X0065713Y0056201D02*
X0065715Y0056253D01*
X0065721Y0056305D01*
X0065731Y0056356D01*
X0065744Y0056406D01*
X0065762Y0056456D01*
X0065783Y0056503D01*
X0065807Y0056549D01*
X0065836Y0056593D01*
X0065867Y0056635D01*
X0065901Y0056674D01*
X0065938Y0056711D01*
X0065978Y0056744D01*
X0066021Y0056775D01*
X0066065Y0056802D01*
X0066111Y0056826D01*
X0066160Y0056846D01*
X0066209Y0056862D01*
X0066260Y0056875D01*
X0066311Y0056884D01*
X0066363Y0056889D01*
X0066415Y0056890D01*
X0066467Y0056887D01*
X0066519Y0056880D01*
X0066570Y0056869D01*
X0066620Y0056855D01*
X0066669Y0056836D01*
X0066716Y0056814D01*
X0066761Y0056789D01*
X0066805Y0056760D01*
X0066846Y0056728D01*
X0066885Y0056693D01*
X0066920Y0056655D01*
X0066953Y0056614D01*
X0066983Y0056572D01*
X0067009Y0056527D01*
X0067032Y0056480D01*
X0067051Y0056431D01*
X0067067Y0056381D01*
X0067079Y0056331D01*
X0067087Y0056279D01*
X0067091Y0056227D01*
X0067091Y0056175D01*
X0067087Y0056123D01*
X0067079Y0056071D01*
X0067067Y0056021D01*
X0067051Y0055971D01*
X0067032Y0055922D01*
X0067009Y0055875D01*
X0066983Y0055830D01*
X0066953Y0055788D01*
X0066920Y0055747D01*
X0066885Y0055709D01*
X0066846Y0055674D01*
X0066805Y0055642D01*
X0066761Y0055613D01*
X0066716Y0055588D01*
X0066669Y0055566D01*
X0066620Y0055547D01*
X0066570Y0055533D01*
X0066519Y0055522D01*
X0066467Y0055515D01*
X0066415Y0055512D01*
X0066363Y0055513D01*
X0066311Y0055518D01*
X0066260Y0055527D01*
X0066209Y0055540D01*
X0066160Y0055556D01*
X0066111Y0055576D01*
X0066065Y0055600D01*
X0066021Y0055627D01*
X0065978Y0055658D01*
X0065938Y0055691D01*
X0065901Y0055728D01*
X0065867Y0055767D01*
X0065836Y0055809D01*
X0065807Y0055853D01*
X0065783Y0055899D01*
X0065762Y0055946D01*
X0065744Y0055996D01*
X0065731Y0056046D01*
X0065721Y0056097D01*
X0065715Y0056149D01*
X0065713Y0056201D01*
X0084909Y0047201D02*
X0084911Y0047253D01*
X0084917Y0047305D01*
X0084927Y0047356D01*
X0084940Y0047406D01*
X0084958Y0047456D01*
X0084979Y0047503D01*
X0085003Y0047549D01*
X0085032Y0047593D01*
X0085063Y0047635D01*
X0085097Y0047674D01*
X0085134Y0047711D01*
X0085174Y0047744D01*
X0085217Y0047775D01*
X0085261Y0047802D01*
X0085307Y0047826D01*
X0085356Y0047846D01*
X0085405Y0047862D01*
X0085456Y0047875D01*
X0085507Y0047884D01*
X0085559Y0047889D01*
X0085611Y0047890D01*
X0085663Y0047887D01*
X0085715Y0047880D01*
X0085766Y0047869D01*
X0085816Y0047855D01*
X0085865Y0047836D01*
X0085912Y0047814D01*
X0085957Y0047789D01*
X0086001Y0047760D01*
X0086042Y0047728D01*
X0086081Y0047693D01*
X0086116Y0047655D01*
X0086149Y0047614D01*
X0086179Y0047572D01*
X0086205Y0047527D01*
X0086228Y0047480D01*
X0086247Y0047431D01*
X0086263Y0047381D01*
X0086275Y0047331D01*
X0086283Y0047279D01*
X0086287Y0047227D01*
X0086287Y0047175D01*
X0086283Y0047123D01*
X0086275Y0047071D01*
X0086263Y0047021D01*
X0086247Y0046971D01*
X0086228Y0046922D01*
X0086205Y0046875D01*
X0086179Y0046830D01*
X0086149Y0046788D01*
X0086116Y0046747D01*
X0086081Y0046709D01*
X0086042Y0046674D01*
X0086001Y0046642D01*
X0085957Y0046613D01*
X0085912Y0046588D01*
X0085865Y0046566D01*
X0085816Y0046547D01*
X0085766Y0046533D01*
X0085715Y0046522D01*
X0085663Y0046515D01*
X0085611Y0046512D01*
X0085559Y0046513D01*
X0085507Y0046518D01*
X0085456Y0046527D01*
X0085405Y0046540D01*
X0085356Y0046556D01*
X0085307Y0046576D01*
X0085261Y0046600D01*
X0085217Y0046627D01*
X0085174Y0046658D01*
X0085134Y0046691D01*
X0085097Y0046728D01*
X0085063Y0046767D01*
X0085032Y0046809D01*
X0085003Y0046853D01*
X0084979Y0046899D01*
X0084958Y0046946D01*
X0084940Y0046996D01*
X0084927Y0047046D01*
X0084917Y0047097D01*
X0084911Y0047149D01*
X0084909Y0047201D01*
X0097512Y0026799D02*
X0097514Y0026851D01*
X0097520Y0026903D01*
X0097530Y0026954D01*
X0097543Y0027004D01*
X0097561Y0027054D01*
X0097582Y0027101D01*
X0097606Y0027147D01*
X0097635Y0027191D01*
X0097666Y0027233D01*
X0097700Y0027272D01*
X0097737Y0027309D01*
X0097777Y0027342D01*
X0097820Y0027373D01*
X0097864Y0027400D01*
X0097910Y0027424D01*
X0097959Y0027444D01*
X0098008Y0027460D01*
X0098059Y0027473D01*
X0098110Y0027482D01*
X0098162Y0027487D01*
X0098214Y0027488D01*
X0098266Y0027485D01*
X0098318Y0027478D01*
X0098369Y0027467D01*
X0098419Y0027453D01*
X0098468Y0027434D01*
X0098515Y0027412D01*
X0098560Y0027387D01*
X0098604Y0027358D01*
X0098645Y0027326D01*
X0098684Y0027291D01*
X0098719Y0027253D01*
X0098752Y0027212D01*
X0098782Y0027170D01*
X0098808Y0027125D01*
X0098831Y0027078D01*
X0098850Y0027029D01*
X0098866Y0026979D01*
X0098878Y0026929D01*
X0098886Y0026877D01*
X0098890Y0026825D01*
X0098890Y0026773D01*
X0098886Y0026721D01*
X0098878Y0026669D01*
X0098866Y0026619D01*
X0098850Y0026569D01*
X0098831Y0026520D01*
X0098808Y0026473D01*
X0098782Y0026428D01*
X0098752Y0026386D01*
X0098719Y0026345D01*
X0098684Y0026307D01*
X0098645Y0026272D01*
X0098604Y0026240D01*
X0098560Y0026211D01*
X0098515Y0026186D01*
X0098468Y0026164D01*
X0098419Y0026145D01*
X0098369Y0026131D01*
X0098318Y0026120D01*
X0098266Y0026113D01*
X0098214Y0026110D01*
X0098162Y0026111D01*
X0098110Y0026116D01*
X0098059Y0026125D01*
X0098008Y0026138D01*
X0097959Y0026154D01*
X0097910Y0026174D01*
X0097864Y0026198D01*
X0097820Y0026225D01*
X0097777Y0026256D01*
X0097737Y0026289D01*
X0097700Y0026326D01*
X0097666Y0026365D01*
X0097635Y0026407D01*
X0097606Y0026451D01*
X0097582Y0026497D01*
X0097561Y0026544D01*
X0097543Y0026594D01*
X0097530Y0026644D01*
X0097520Y0026695D01*
X0097514Y0026747D01*
X0097512Y0026799D01*
X0074110Y0010598D02*
X0074112Y0010650D01*
X0074118Y0010702D01*
X0074128Y0010753D01*
X0074141Y0010803D01*
X0074159Y0010853D01*
X0074180Y0010900D01*
X0074204Y0010946D01*
X0074233Y0010990D01*
X0074264Y0011032D01*
X0074298Y0011071D01*
X0074335Y0011108D01*
X0074375Y0011141D01*
X0074418Y0011172D01*
X0074462Y0011199D01*
X0074508Y0011223D01*
X0074557Y0011243D01*
X0074606Y0011259D01*
X0074657Y0011272D01*
X0074708Y0011281D01*
X0074760Y0011286D01*
X0074812Y0011287D01*
X0074864Y0011284D01*
X0074916Y0011277D01*
X0074967Y0011266D01*
X0075017Y0011252D01*
X0075066Y0011233D01*
X0075113Y0011211D01*
X0075158Y0011186D01*
X0075202Y0011157D01*
X0075243Y0011125D01*
X0075282Y0011090D01*
X0075317Y0011052D01*
X0075350Y0011011D01*
X0075380Y0010969D01*
X0075406Y0010924D01*
X0075429Y0010877D01*
X0075448Y0010828D01*
X0075464Y0010778D01*
X0075476Y0010728D01*
X0075484Y0010676D01*
X0075488Y0010624D01*
X0075488Y0010572D01*
X0075484Y0010520D01*
X0075476Y0010468D01*
X0075464Y0010418D01*
X0075448Y0010368D01*
X0075429Y0010319D01*
X0075406Y0010272D01*
X0075380Y0010227D01*
X0075350Y0010185D01*
X0075317Y0010144D01*
X0075282Y0010106D01*
X0075243Y0010071D01*
X0075202Y0010039D01*
X0075158Y0010010D01*
X0075113Y0009985D01*
X0075066Y0009963D01*
X0075017Y0009944D01*
X0074967Y0009930D01*
X0074916Y0009919D01*
X0074864Y0009912D01*
X0074812Y0009909D01*
X0074760Y0009910D01*
X0074708Y0009915D01*
X0074657Y0009924D01*
X0074606Y0009937D01*
X0074557Y0009953D01*
X0074508Y0009973D01*
X0074462Y0009997D01*
X0074418Y0010024D01*
X0074375Y0010055D01*
X0074335Y0010088D01*
X0074298Y0010125D01*
X0074264Y0010164D01*
X0074233Y0010206D01*
X0074204Y0010250D01*
X0074180Y0010296D01*
X0074159Y0010343D01*
X0074141Y0010393D01*
X0074128Y0010443D01*
X0074118Y0010494D01*
X0074112Y0010546D01*
X0074110Y0010598D01*
X0035110Y0056201D02*
X0035112Y0056253D01*
X0035118Y0056305D01*
X0035128Y0056356D01*
X0035141Y0056406D01*
X0035159Y0056456D01*
X0035180Y0056503D01*
X0035204Y0056549D01*
X0035233Y0056593D01*
X0035264Y0056635D01*
X0035298Y0056674D01*
X0035335Y0056711D01*
X0035375Y0056744D01*
X0035418Y0056775D01*
X0035462Y0056802D01*
X0035508Y0056826D01*
X0035557Y0056846D01*
X0035606Y0056862D01*
X0035657Y0056875D01*
X0035708Y0056884D01*
X0035760Y0056889D01*
X0035812Y0056890D01*
X0035864Y0056887D01*
X0035916Y0056880D01*
X0035967Y0056869D01*
X0036017Y0056855D01*
X0036066Y0056836D01*
X0036113Y0056814D01*
X0036158Y0056789D01*
X0036202Y0056760D01*
X0036243Y0056728D01*
X0036282Y0056693D01*
X0036317Y0056655D01*
X0036350Y0056614D01*
X0036380Y0056572D01*
X0036406Y0056527D01*
X0036429Y0056480D01*
X0036448Y0056431D01*
X0036464Y0056381D01*
X0036476Y0056331D01*
X0036484Y0056279D01*
X0036488Y0056227D01*
X0036488Y0056175D01*
X0036484Y0056123D01*
X0036476Y0056071D01*
X0036464Y0056021D01*
X0036448Y0055971D01*
X0036429Y0055922D01*
X0036406Y0055875D01*
X0036380Y0055830D01*
X0036350Y0055788D01*
X0036317Y0055747D01*
X0036282Y0055709D01*
X0036243Y0055674D01*
X0036202Y0055642D01*
X0036158Y0055613D01*
X0036113Y0055588D01*
X0036066Y0055566D01*
X0036017Y0055547D01*
X0035967Y0055533D01*
X0035916Y0055522D01*
X0035864Y0055515D01*
X0035812Y0055512D01*
X0035760Y0055513D01*
X0035708Y0055518D01*
X0035657Y0055527D01*
X0035606Y0055540D01*
X0035557Y0055556D01*
X0035508Y0055576D01*
X0035462Y0055600D01*
X0035418Y0055627D01*
X0035375Y0055658D01*
X0035335Y0055691D01*
X0035298Y0055728D01*
X0035264Y0055767D01*
X0035233Y0055809D01*
X0035204Y0055853D01*
X0035180Y0055899D01*
X0035159Y0055946D01*
X0035141Y0055996D01*
X0035128Y0056046D01*
X0035118Y0056097D01*
X0035112Y0056149D01*
X0035110Y0056201D01*
X0053110Y0073000D02*
X0053112Y0073052D01*
X0053118Y0073104D01*
X0053128Y0073155D01*
X0053141Y0073205D01*
X0053159Y0073255D01*
X0053180Y0073302D01*
X0053204Y0073348D01*
X0053233Y0073392D01*
X0053264Y0073434D01*
X0053298Y0073473D01*
X0053335Y0073510D01*
X0053375Y0073543D01*
X0053418Y0073574D01*
X0053462Y0073601D01*
X0053508Y0073625D01*
X0053557Y0073645D01*
X0053606Y0073661D01*
X0053657Y0073674D01*
X0053708Y0073683D01*
X0053760Y0073688D01*
X0053812Y0073689D01*
X0053864Y0073686D01*
X0053916Y0073679D01*
X0053967Y0073668D01*
X0054017Y0073654D01*
X0054066Y0073635D01*
X0054113Y0073613D01*
X0054158Y0073588D01*
X0054202Y0073559D01*
X0054243Y0073527D01*
X0054282Y0073492D01*
X0054317Y0073454D01*
X0054350Y0073413D01*
X0054380Y0073371D01*
X0054406Y0073326D01*
X0054429Y0073279D01*
X0054448Y0073230D01*
X0054464Y0073180D01*
X0054476Y0073130D01*
X0054484Y0073078D01*
X0054488Y0073026D01*
X0054488Y0072974D01*
X0054484Y0072922D01*
X0054476Y0072870D01*
X0054464Y0072820D01*
X0054448Y0072770D01*
X0054429Y0072721D01*
X0054406Y0072674D01*
X0054380Y0072629D01*
X0054350Y0072587D01*
X0054317Y0072546D01*
X0054282Y0072508D01*
X0054243Y0072473D01*
X0054202Y0072441D01*
X0054158Y0072412D01*
X0054113Y0072387D01*
X0054066Y0072365D01*
X0054017Y0072346D01*
X0053967Y0072332D01*
X0053916Y0072321D01*
X0053864Y0072314D01*
X0053812Y0072311D01*
X0053760Y0072312D01*
X0053708Y0072317D01*
X0053657Y0072326D01*
X0053606Y0072339D01*
X0053557Y0072355D01*
X0053508Y0072375D01*
X0053462Y0072399D01*
X0053418Y0072426D01*
X0053375Y0072457D01*
X0053335Y0072490D01*
X0053298Y0072527D01*
X0053264Y0072566D01*
X0053233Y0072608D01*
X0053204Y0072652D01*
X0053180Y0072698D01*
X0053159Y0072745D01*
X0053141Y0072795D01*
X0053128Y0072845D01*
X0053118Y0072896D01*
X0053112Y0072948D01*
X0053110Y0073000D01*
X0075110Y0105799D02*
X0075112Y0105851D01*
X0075118Y0105903D01*
X0075128Y0105954D01*
X0075141Y0106004D01*
X0075159Y0106054D01*
X0075180Y0106101D01*
X0075204Y0106147D01*
X0075233Y0106191D01*
X0075264Y0106233D01*
X0075298Y0106272D01*
X0075335Y0106309D01*
X0075375Y0106342D01*
X0075418Y0106373D01*
X0075462Y0106400D01*
X0075508Y0106424D01*
X0075557Y0106444D01*
X0075606Y0106460D01*
X0075657Y0106473D01*
X0075708Y0106482D01*
X0075760Y0106487D01*
X0075812Y0106488D01*
X0075864Y0106485D01*
X0075916Y0106478D01*
X0075967Y0106467D01*
X0076017Y0106453D01*
X0076066Y0106434D01*
X0076113Y0106412D01*
X0076158Y0106387D01*
X0076202Y0106358D01*
X0076243Y0106326D01*
X0076282Y0106291D01*
X0076317Y0106253D01*
X0076350Y0106212D01*
X0076380Y0106170D01*
X0076406Y0106125D01*
X0076429Y0106078D01*
X0076448Y0106029D01*
X0076464Y0105979D01*
X0076476Y0105929D01*
X0076484Y0105877D01*
X0076488Y0105825D01*
X0076488Y0105773D01*
X0076484Y0105721D01*
X0076476Y0105669D01*
X0076464Y0105619D01*
X0076448Y0105569D01*
X0076429Y0105520D01*
X0076406Y0105473D01*
X0076380Y0105428D01*
X0076350Y0105386D01*
X0076317Y0105345D01*
X0076282Y0105307D01*
X0076243Y0105272D01*
X0076202Y0105240D01*
X0076158Y0105211D01*
X0076113Y0105186D01*
X0076066Y0105164D01*
X0076017Y0105145D01*
X0075967Y0105131D01*
X0075916Y0105120D01*
X0075864Y0105113D01*
X0075812Y0105110D01*
X0075760Y0105111D01*
X0075708Y0105116D01*
X0075657Y0105125D01*
X0075606Y0105138D01*
X0075557Y0105154D01*
X0075508Y0105174D01*
X0075462Y0105198D01*
X0075418Y0105225D01*
X0075375Y0105256D01*
X0075335Y0105289D01*
X0075298Y0105326D01*
X0075264Y0105365D01*
X0075233Y0105407D01*
X0075204Y0105451D01*
X0075180Y0105497D01*
X0075159Y0105544D01*
X0075141Y0105594D01*
X0075128Y0105644D01*
X0075118Y0105695D01*
X0075112Y0105747D01*
X0075110Y0105799D01*
X0082311Y0122000D02*
X0082313Y0122052D01*
X0082319Y0122104D01*
X0082329Y0122155D01*
X0082342Y0122205D01*
X0082360Y0122255D01*
X0082381Y0122302D01*
X0082405Y0122348D01*
X0082434Y0122392D01*
X0082465Y0122434D01*
X0082499Y0122473D01*
X0082536Y0122510D01*
X0082576Y0122543D01*
X0082619Y0122574D01*
X0082663Y0122601D01*
X0082709Y0122625D01*
X0082758Y0122645D01*
X0082807Y0122661D01*
X0082858Y0122674D01*
X0082909Y0122683D01*
X0082961Y0122688D01*
X0083013Y0122689D01*
X0083065Y0122686D01*
X0083117Y0122679D01*
X0083168Y0122668D01*
X0083218Y0122654D01*
X0083267Y0122635D01*
X0083314Y0122613D01*
X0083359Y0122588D01*
X0083403Y0122559D01*
X0083444Y0122527D01*
X0083483Y0122492D01*
X0083518Y0122454D01*
X0083551Y0122413D01*
X0083581Y0122371D01*
X0083607Y0122326D01*
X0083630Y0122279D01*
X0083649Y0122230D01*
X0083665Y0122180D01*
X0083677Y0122130D01*
X0083685Y0122078D01*
X0083689Y0122026D01*
X0083689Y0121974D01*
X0083685Y0121922D01*
X0083677Y0121870D01*
X0083665Y0121820D01*
X0083649Y0121770D01*
X0083630Y0121721D01*
X0083607Y0121674D01*
X0083581Y0121629D01*
X0083551Y0121587D01*
X0083518Y0121546D01*
X0083483Y0121508D01*
X0083444Y0121473D01*
X0083403Y0121441D01*
X0083359Y0121412D01*
X0083314Y0121387D01*
X0083267Y0121365D01*
X0083218Y0121346D01*
X0083168Y0121332D01*
X0083117Y0121321D01*
X0083065Y0121314D01*
X0083013Y0121311D01*
X0082961Y0121312D01*
X0082909Y0121317D01*
X0082858Y0121326D01*
X0082807Y0121339D01*
X0082758Y0121355D01*
X0082709Y0121375D01*
X0082663Y0121399D01*
X0082619Y0121426D01*
X0082576Y0121457D01*
X0082536Y0121490D01*
X0082499Y0121527D01*
X0082465Y0121566D01*
X0082434Y0121608D01*
X0082405Y0121652D01*
X0082381Y0121698D01*
X0082360Y0121745D01*
X0082342Y0121795D01*
X0082329Y0121845D01*
X0082319Y0121896D01*
X0082313Y0121948D01*
X0082311Y0122000D01*
D16*
X0076000Y0119000D02*
X0076000Y0113000D01*
X0066000Y0113000D02*
X0066000Y0119000D01*
X0056000Y0119000D02*
X0056000Y0113000D01*
X0046000Y0113000D02*
X0046000Y0119000D01*
D17*
X0196000Y0099300D02*
X0196000Y0092700D01*
X0206000Y0092700D02*
X0206000Y0099300D01*
X0216000Y0099300D02*
X0216000Y0092700D01*
D18*
X0241000Y0096000D03*
X0241000Y0076000D03*
X0241000Y0056000D03*
X0200500Y0111000D03*
X0241000Y0116000D03*
X0141500Y0111000D03*
X0090600Y0071000D03*
X0080800Y0071000D03*
X0071000Y0071000D03*
X0016000Y0076000D03*
X0016000Y0086000D03*
X0016000Y0051000D03*
X0016000Y0021000D03*
X0048800Y0012200D03*
X0058800Y0012200D03*
X0083800Y0012200D03*
X0093800Y0012200D03*
D19*
X0105000Y0096000D03*
X0077000Y0096000D03*
D20*
X0026000Y0106000D03*
X0016000Y0106000D03*
X0021000Y0113500D03*
D21*
X0036000Y0106000D03*
X0036000Y0076000D03*
D22*
X0072200Y0090800D03*
X0097000Y0064000D03*
X0085600Y0047200D03*
X0093200Y0039200D03*
X0090800Y0035000D03*
X0079600Y0031000D03*
X0062800Y0046000D03*
X0074800Y0010600D03*
D23*
X0085600Y0021400D01*
X0085600Y0047200D01*
X0090800Y0044600D02*
X0090800Y0035000D01*
X0093200Y0039200D02*
X0093200Y0044000D01*
X0102800Y0053000D01*
X0102800Y0083600D01*
X0110600Y0090800D01*
X0110600Y0112400D01*
X0102200Y0120800D01*
X0084200Y0120800D01*
X0083000Y0122000D01*
X0075800Y0105800D02*
X0095600Y0105800D01*
X0100400Y0101000D01*
X0100400Y0054200D01*
X0090800Y0044600D01*
X0098200Y0042400D02*
X0106900Y0049900D01*
X0107200Y0050200D01*
X0098200Y0042400D02*
X0098200Y0026800D01*
X0079600Y0031000D02*
X0076000Y0031000D01*
X0065800Y0020800D01*
X0061000Y0020800D01*
X0056800Y0025000D01*
X0051400Y0025000D01*
X0049000Y0022600D01*
X0049000Y0012400D01*
X0048800Y0012200D01*
X0056800Y0025000D02*
X0056800Y0041200D01*
X0062800Y0046000D01*
X0072400Y0052600D02*
X0072400Y0037000D01*
X0064600Y0029200D01*
X0061000Y0029200D01*
X0072400Y0052600D02*
X0085600Y0065800D01*
X0085600Y0077400D01*
X0072200Y0090800D01*
X0053800Y0090400D02*
X0053800Y0073000D01*
X0066400Y0056200D02*
X0035800Y0056200D01*
D24*
X0035800Y0056200D03*
X0066400Y0056200D03*
X0053800Y0073000D03*
X0053800Y0090400D03*
X0083000Y0122000D03*
X0098800Y0127000D03*
X0060800Y0029000D03*
X0098200Y0026800D03*
D25*
X0106900Y0049900D03*
X0091000Y0081260D03*
X0075800Y0105800D03*
D26*
X0098800Y0127000D02*
X0014200Y0127000D01*
X0010000Y0122800D01*
X0010000Y0057000D01*
X0016000Y0051000D01*
X0091000Y0081260D02*
X0091140Y0081260D01*
X0097000Y0075400D01*
X0097000Y0064000D01*
D27*
X0006000Y0006000D02*
X0006000Y0136000D01*
X0101000Y0136000D01*
X0116000Y0121000D01*
X0116000Y0091000D01*
X0111000Y0086000D01*
X0111000Y0066000D01*
X0121000Y0056000D01*
X0136000Y0056000D01*
X0136000Y0006000D01*
X0006000Y0006000D01*
X0006000Y0007394D02*
X0136000Y0007394D01*
X0136000Y0008993D02*
X0097098Y0008993D01*
X0098400Y0010295D02*
X0095705Y0007600D01*
X0091895Y0007600D01*
X0089200Y0010295D01*
X0089200Y0014105D01*
X0091895Y0016800D01*
X0095705Y0016800D01*
X0098400Y0014105D01*
X0098400Y0010295D01*
X0098400Y0010591D02*
X0136000Y0010591D01*
X0136000Y0012190D02*
X0098400Y0012190D01*
X0098400Y0013788D02*
X0136000Y0013788D01*
X0136000Y0015387D02*
X0097119Y0015387D01*
X0090481Y0015387D02*
X0087119Y0015387D01*
X0088400Y0014105D02*
X0085705Y0016800D01*
X0081895Y0016800D01*
X0079200Y0014105D01*
X0079200Y0010295D01*
X0081895Y0007600D01*
X0085705Y0007600D01*
X0088400Y0010295D01*
X0088400Y0014105D01*
X0088400Y0013788D02*
X0089200Y0013788D01*
X0089200Y0012190D02*
X0088400Y0012190D01*
X0088400Y0010591D02*
X0089200Y0010591D01*
X0090502Y0008993D02*
X0087098Y0008993D01*
X0080502Y0008993D02*
X0062381Y0008993D01*
X0063600Y0010212D02*
X0060788Y0007400D01*
X0059000Y0007400D01*
X0059000Y0012000D01*
X0059000Y0012400D01*
X0063600Y0012400D01*
X0063600Y0014188D01*
X0060788Y0017000D01*
X0059000Y0017000D01*
X0059000Y0012400D01*
X0058600Y0012400D01*
X0058600Y0017000D01*
X0056812Y0017000D01*
X0054000Y0014188D01*
X0054000Y0012400D01*
X0058600Y0012400D01*
X0058600Y0012000D01*
X0059000Y0012000D01*
X0063600Y0012000D01*
X0063600Y0010212D01*
X0063600Y0010591D02*
X0079200Y0010591D01*
X0079200Y0012190D02*
X0059000Y0012190D01*
X0058600Y0012190D02*
X0053400Y0012190D01*
X0054000Y0012000D02*
X0054000Y0010212D01*
X0056812Y0007400D01*
X0058600Y0007400D01*
X0058600Y0012000D01*
X0054000Y0012000D01*
X0054000Y0010591D02*
X0053400Y0010591D01*
X0053400Y0010295D02*
X0053400Y0014105D01*
X0051000Y0016505D01*
X0051000Y0021772D01*
X0052228Y0023000D01*
X0055972Y0023000D01*
X0060172Y0018800D01*
X0066628Y0018800D01*
X0067800Y0019972D01*
X0076828Y0029000D01*
X0076832Y0029000D01*
X0077690Y0028142D01*
X0078929Y0027628D01*
X0080271Y0027628D01*
X0081510Y0028142D01*
X0082458Y0029090D01*
X0082972Y0030329D01*
X0082972Y0031671D01*
X0082458Y0032910D01*
X0081510Y0033858D01*
X0080271Y0034372D01*
X0078929Y0034372D01*
X0077690Y0033858D01*
X0076832Y0033000D01*
X0075172Y0033000D01*
X0064972Y0022800D01*
X0061828Y0022800D01*
X0059547Y0025081D01*
X0059984Y0024900D01*
X0061616Y0024900D01*
X0063122Y0025524D01*
X0064276Y0026678D01*
X0064492Y0027200D01*
X0065428Y0027200D01*
X0066600Y0028372D01*
X0074400Y0036172D01*
X0074400Y0051772D01*
X0086428Y0063800D01*
X0087600Y0064972D01*
X0087600Y0067495D01*
X0088695Y0066400D01*
X0092505Y0066400D01*
X0095200Y0069095D01*
X0095200Y0072905D01*
X0092505Y0075600D01*
X0088695Y0075600D01*
X0087600Y0074505D01*
X0087600Y0078228D01*
X0075572Y0090257D01*
X0075572Y0091471D01*
X0075377Y0091940D01*
X0076130Y0091628D01*
X0077870Y0091628D01*
X0079476Y0092294D01*
X0080706Y0093524D01*
X0081372Y0095130D01*
X0081372Y0096870D01*
X0080706Y0098476D01*
X0079476Y0099706D01*
X0077870Y0100372D01*
X0076130Y0100372D01*
X0074524Y0099706D01*
X0073294Y0098476D01*
X0072628Y0096870D01*
X0072628Y0095130D01*
X0073058Y0094094D01*
X0072871Y0094172D01*
X0071529Y0094172D01*
X0070290Y0093658D01*
X0069342Y0092710D01*
X0068828Y0091471D01*
X0068828Y0090129D01*
X0069342Y0088890D01*
X0070290Y0087942D01*
X0071529Y0087428D01*
X0072743Y0087428D01*
X0083600Y0076572D01*
X0083600Y0074705D01*
X0082705Y0075600D01*
X0078895Y0075600D01*
X0076200Y0072905D01*
X0076200Y0069095D01*
X0078895Y0066400D01*
X0082705Y0066400D01*
X0083600Y0067295D01*
X0083600Y0066628D01*
X0071572Y0054600D01*
X0070400Y0053428D01*
X0070400Y0037828D01*
X0064085Y0031513D01*
X0063122Y0032476D01*
X0061616Y0033100D01*
X0059984Y0033100D01*
X0058800Y0032609D01*
X0058800Y0040239D01*
X0061904Y0042722D01*
X0062129Y0042628D01*
X0063471Y0042628D01*
X0064710Y0043142D01*
X0065658Y0044090D01*
X0066172Y0045329D01*
X0066172Y0046671D01*
X0065658Y0047910D01*
X0064710Y0048858D01*
X0063471Y0049372D01*
X0062129Y0049372D01*
X0060890Y0048858D01*
X0059942Y0047910D01*
X0059428Y0046671D01*
X0059428Y0045864D01*
X0056098Y0043200D01*
X0055972Y0043200D01*
X0055464Y0042693D01*
X0054904Y0042244D01*
X0054890Y0042118D01*
X0054800Y0042028D01*
X0054800Y0041311D01*
X0054721Y0040597D01*
X0054800Y0040498D01*
X0054800Y0027000D01*
X0050572Y0027000D01*
X0048172Y0024600D01*
X0047000Y0023428D01*
X0047000Y0016800D01*
X0046895Y0016800D01*
X0044200Y0014105D01*
X0044200Y0010295D01*
X0046895Y0007600D01*
X0050705Y0007600D01*
X0053400Y0010295D01*
X0052098Y0008993D02*
X0055219Y0008993D01*
X0058600Y0008993D02*
X0059000Y0008993D01*
X0059000Y0010591D02*
X0058600Y0010591D01*
X0058600Y0013788D02*
X0059000Y0013788D01*
X0059000Y0015387D02*
X0058600Y0015387D01*
X0058600Y0016985D02*
X0059000Y0016985D01*
X0060803Y0016985D02*
X0136000Y0016985D01*
X0136000Y0018584D02*
X0051000Y0018584D01*
X0051000Y0020182D02*
X0058789Y0020182D01*
X0057191Y0021781D02*
X0051009Y0021781D01*
X0047000Y0021781D02*
X0020600Y0021781D01*
X0020600Y0022905D02*
X0017905Y0025600D01*
X0014095Y0025600D01*
X0011400Y0022905D01*
X0011400Y0019095D01*
X0014095Y0016400D01*
X0017905Y0016400D01*
X0020600Y0019095D01*
X0020600Y0022905D01*
X0020126Y0023379D02*
X0047000Y0023379D01*
X0048549Y0024978D02*
X0018528Y0024978D01*
X0013472Y0024978D02*
X0006000Y0024978D01*
X0006000Y0026576D02*
X0050148Y0026576D01*
X0054800Y0028175D02*
X0006000Y0028175D01*
X0006000Y0029773D02*
X0054800Y0029773D01*
X0054800Y0031372D02*
X0006000Y0031372D01*
X0006000Y0032970D02*
X0054800Y0032970D01*
X0054800Y0034569D02*
X0006000Y0034569D01*
X0006000Y0036167D02*
X0054800Y0036167D01*
X0054800Y0037766D02*
X0006000Y0037766D01*
X0006000Y0039364D02*
X0054800Y0039364D01*
X0054761Y0040963D02*
X0006000Y0040963D01*
X0006000Y0042561D02*
X0055300Y0042561D01*
X0057298Y0044160D02*
X0006000Y0044160D01*
X0006000Y0045758D02*
X0059296Y0045758D01*
X0059713Y0047357D02*
X0018862Y0047357D01*
X0017905Y0046400D02*
X0020600Y0049095D01*
X0020600Y0052905D01*
X0017905Y0055600D01*
X0014511Y0055600D01*
X0012200Y0057911D01*
X0012200Y0073295D01*
X0014095Y0071400D01*
X0017905Y0071400D01*
X0020600Y0074095D01*
X0020600Y0077905D01*
X0017905Y0080600D01*
X0014095Y0080600D01*
X0012200Y0078705D01*
X0012200Y0083295D01*
X0014095Y0081400D01*
X0017905Y0081400D01*
X0020600Y0084095D01*
X0020600Y0087905D01*
X0017905Y0090600D01*
X0014095Y0090600D01*
X0012200Y0088705D01*
X0012200Y0103860D01*
X0014260Y0101800D01*
X0017740Y0101800D01*
X0020200Y0104260D01*
X0020200Y0107740D01*
X0017740Y0110200D01*
X0014260Y0110200D01*
X0012200Y0108140D01*
X0012200Y0121889D01*
X0015111Y0124800D01*
X0080002Y0124800D01*
X0079524Y0124322D01*
X0078900Y0122816D01*
X0078900Y0122605D01*
X0078606Y0122900D01*
X0076915Y0123600D01*
X0075085Y0123600D01*
X0073394Y0122900D01*
X0072100Y0121606D01*
X0071400Y0119915D01*
X0071400Y0112085D01*
X0072100Y0110394D01*
X0073394Y0109100D01*
X0074674Y0108570D01*
X0074106Y0108335D01*
X0073265Y0107494D01*
X0072809Y0106395D01*
X0072809Y0105205D01*
X0073265Y0104106D01*
X0074106Y0103265D01*
X0075205Y0102809D01*
X0076395Y0102809D01*
X0077494Y0103265D01*
X0078029Y0103800D01*
X0094772Y0103800D01*
X0098400Y0100172D01*
X0098400Y0055028D01*
X0089972Y0046600D01*
X0088800Y0045428D01*
X0088800Y0037768D01*
X0087942Y0036910D01*
X0087428Y0035671D01*
X0087428Y0034329D01*
X0087942Y0033090D01*
X0088890Y0032142D01*
X0090129Y0031628D01*
X0091471Y0031628D01*
X0092710Y0032142D01*
X0093658Y0033090D01*
X0094172Y0034329D01*
X0094172Y0035671D01*
X0094072Y0035912D01*
X0095110Y0036342D01*
X0096058Y0037290D01*
X0096572Y0038529D01*
X0096572Y0039871D01*
X0096058Y0041110D01*
X0095200Y0041968D01*
X0095200Y0043134D01*
X0103591Y0051000D01*
X0103628Y0051000D01*
X0104191Y0051563D01*
X0104772Y0052108D01*
X0104773Y0052145D01*
X0104800Y0052172D01*
X0104800Y0052968D01*
X0104826Y0053764D01*
X0104800Y0053791D01*
X0104800Y0082724D01*
X0111382Y0088800D01*
X0111428Y0088800D01*
X0111986Y0089357D01*
X0112565Y0089892D01*
X0112567Y0089939D01*
X0112600Y0089972D01*
X0112600Y0090760D01*
X0112631Y0091548D01*
X0112600Y0091582D01*
X0112600Y0113228D01*
X0104200Y0121628D01*
X0103028Y0122800D01*
X0087100Y0122800D01*
X0087100Y0122816D01*
X0086476Y0124322D01*
X0085998Y0124800D01*
X0095273Y0124800D01*
X0095324Y0124678D01*
X0096478Y0123524D01*
X0097984Y0122900D01*
X0099616Y0122900D01*
X0101122Y0123524D01*
X0102276Y0124678D01*
X0102900Y0126184D01*
X0102900Y0127816D01*
X0102276Y0129322D01*
X0101122Y0130476D01*
X0099616Y0131100D01*
X0097984Y0131100D01*
X0096478Y0130476D01*
X0095324Y0129322D01*
X0095273Y0129200D01*
X0013289Y0129200D01*
X0009089Y0125000D01*
X0007800Y0123711D01*
X0007800Y0056089D01*
X0011400Y0052489D01*
X0011400Y0049095D01*
X0014095Y0046400D01*
X0017905Y0046400D01*
X0020461Y0048955D02*
X0061124Y0048955D01*
X0064476Y0048955D02*
X0070400Y0048955D01*
X0070400Y0047357D02*
X0065887Y0047357D01*
X0066172Y0045758D02*
X0070400Y0045758D01*
X0070400Y0044160D02*
X0065687Y0044160D01*
X0061703Y0042561D02*
X0070400Y0042561D01*
X0070400Y0040963D02*
X0059705Y0040963D01*
X0058800Y0039364D02*
X0070400Y0039364D01*
X0070337Y0037766D02*
X0058800Y0037766D01*
X0058800Y0036167D02*
X0068739Y0036167D01*
X0067140Y0034569D02*
X0058800Y0034569D01*
X0058800Y0032970D02*
X0059671Y0032970D01*
X0061929Y0032970D02*
X0065542Y0032970D01*
X0069600Y0031372D02*
X0073543Y0031372D01*
X0075142Y0032970D02*
X0071199Y0032970D01*
X0072797Y0034569D02*
X0087428Y0034569D01*
X0087634Y0036167D02*
X0074396Y0036167D01*
X0074400Y0037766D02*
X0088798Y0037766D01*
X0088800Y0039364D02*
X0074400Y0039364D01*
X0074400Y0040963D02*
X0088800Y0040963D01*
X0088800Y0042561D02*
X0074400Y0042561D01*
X0074400Y0044160D02*
X0088800Y0044160D01*
X0089130Y0045758D02*
X0074400Y0045758D01*
X0074400Y0047357D02*
X0090728Y0047357D01*
X0092327Y0048955D02*
X0074400Y0048955D01*
X0074400Y0050554D02*
X0093925Y0050554D01*
X0095524Y0052152D02*
X0074781Y0052152D01*
X0076379Y0053751D02*
X0097122Y0053751D01*
X0098400Y0055349D02*
X0077978Y0055349D01*
X0079576Y0056948D02*
X0098400Y0056948D01*
X0098400Y0058546D02*
X0081175Y0058546D01*
X0082773Y0060145D02*
X0098400Y0060145D01*
X0098400Y0061743D02*
X0084372Y0061743D01*
X0085970Y0063342D02*
X0098400Y0063342D01*
X0098400Y0064940D02*
X0087569Y0064940D01*
X0087600Y0066539D02*
X0088556Y0066539D01*
X0092644Y0066539D02*
X0098400Y0066539D01*
X0098400Y0068137D02*
X0094243Y0068137D01*
X0095200Y0069736D02*
X0098400Y0069736D01*
X0098400Y0071334D02*
X0095200Y0071334D01*
X0095172Y0072933D02*
X0098400Y0072933D01*
X0098400Y0074532D02*
X0093574Y0074532D01*
X0098400Y0076130D02*
X0087600Y0076130D01*
X0087600Y0074532D02*
X0087626Y0074532D01*
X0087600Y0077729D02*
X0098400Y0077729D01*
X0098400Y0079327D02*
X0086501Y0079327D01*
X0082443Y0077729D02*
X0041021Y0077729D01*
X0041300Y0077054D02*
X0040493Y0079002D01*
X0039002Y0080493D01*
X0037054Y0081300D01*
X0034946Y0081300D01*
X0032998Y0080493D01*
X0031507Y0079002D01*
X0030700Y0077054D01*
X0030700Y0074946D01*
X0031507Y0072998D01*
X0032998Y0071507D01*
X0034946Y0070700D01*
X0037054Y0070700D01*
X0039002Y0071507D01*
X0040493Y0072998D01*
X0041300Y0074946D01*
X0041300Y0077054D01*
X0041300Y0076130D02*
X0083600Y0076130D01*
X0080845Y0079327D02*
X0040168Y0079327D01*
X0037958Y0080926D02*
X0079246Y0080926D01*
X0077647Y0082524D02*
X0019029Y0082524D01*
X0020600Y0084123D02*
X0076049Y0084123D01*
X0074450Y0085721D02*
X0020600Y0085721D01*
X0020600Y0087320D02*
X0072852Y0087320D01*
X0069330Y0088918D02*
X0019587Y0088918D01*
X0017989Y0090517D02*
X0068828Y0090517D01*
X0069095Y0092115D02*
X0012200Y0092115D01*
X0012200Y0090517D02*
X0014011Y0090517D01*
X0012413Y0088918D02*
X0012200Y0088918D01*
X0007800Y0088918D02*
X0006000Y0088918D01*
X0006000Y0087320D02*
X0007800Y0087320D01*
X0007800Y0085721D02*
X0006000Y0085721D01*
X0006000Y0084123D02*
X0007800Y0084123D01*
X0007800Y0082524D02*
X0006000Y0082524D01*
X0006000Y0080926D02*
X0007800Y0080926D01*
X0012200Y0080926D02*
X0034042Y0080926D01*
X0031832Y0079327D02*
X0019178Y0079327D01*
X0020600Y0077729D02*
X0030979Y0077729D01*
X0030700Y0076130D02*
X0020600Y0076130D01*
X0020600Y0074532D02*
X0030872Y0074532D01*
X0031572Y0072933D02*
X0019438Y0072933D01*
X0012562Y0072933D02*
X0012200Y0072933D01*
X0012200Y0071334D02*
X0033414Y0071334D01*
X0038586Y0071334D02*
X0066200Y0071334D01*
X0066200Y0071200D02*
X0070800Y0071200D01*
X0070800Y0075800D01*
X0069012Y0075800D01*
X0066200Y0072988D01*
X0066200Y0071200D01*
X0066200Y0070800D02*
X0066200Y0069012D01*
X0069012Y0066200D01*
X0070800Y0066200D01*
X0070800Y0070800D01*
X0071200Y0070800D01*
X0071200Y0071200D01*
X0075800Y0071200D01*
X0075800Y0072988D01*
X0072988Y0075800D01*
X0071200Y0075800D01*
X0071200Y0071200D01*
X0070800Y0071200D01*
X0070800Y0070800D01*
X0066200Y0070800D01*
X0066200Y0069736D02*
X0012200Y0069736D01*
X0007800Y0069736D02*
X0006000Y0069736D01*
X0006000Y0071334D02*
X0007800Y0071334D01*
X0007800Y0072933D02*
X0006000Y0072933D01*
X0006000Y0074532D02*
X0007800Y0074532D01*
X0007800Y0076130D02*
X0006000Y0076130D01*
X0006000Y0077729D02*
X0007800Y0077729D01*
X0007800Y0079327D02*
X0006000Y0079327D01*
X0012200Y0079327D02*
X0012822Y0079327D01*
X0012971Y0082524D02*
X0012200Y0082524D01*
X0007800Y0090517D02*
X0006000Y0090517D01*
X0006000Y0092115D02*
X0007800Y0092115D01*
X0007800Y0093714D02*
X0006000Y0093714D01*
X0006000Y0095312D02*
X0007800Y0095312D01*
X0007800Y0096911D02*
X0006000Y0096911D01*
X0006000Y0098509D02*
X0007800Y0098509D01*
X0007800Y0100108D02*
X0006000Y0100108D01*
X0006000Y0101706D02*
X0007800Y0101706D01*
X0007800Y0103305D02*
X0006000Y0103305D01*
X0006000Y0104903D02*
X0007800Y0104903D01*
X0012200Y0103305D02*
X0012756Y0103305D01*
X0012200Y0101706D02*
X0032553Y0101706D01*
X0032417Y0101805D02*
X0033117Y0101296D01*
X0033889Y0100903D01*
X0034712Y0100635D01*
X0035567Y0100500D01*
X0035914Y0100500D01*
X0035914Y0105914D01*
X0030500Y0105914D01*
X0030500Y0105567D01*
X0030635Y0104712D01*
X0030903Y0103889D01*
X0031296Y0103117D01*
X0031805Y0102417D01*
X0032417Y0101805D01*
X0031201Y0103305D02*
X0029244Y0103305D01*
X0030200Y0104260D02*
X0027740Y0101800D01*
X0024260Y0101800D01*
X0021800Y0104260D01*
X0021800Y0107740D01*
X0024260Y0110200D01*
X0027740Y0110200D01*
X0030200Y0107740D01*
X0030200Y0104260D01*
X0030200Y0104903D02*
X0030605Y0104903D01*
X0030500Y0106086D02*
X0035914Y0106086D01*
X0035914Y0111500D01*
X0035567Y0111500D01*
X0034712Y0111365D01*
X0033889Y0111097D01*
X0033117Y0110704D01*
X0032417Y0110195D01*
X0031805Y0109583D01*
X0031296Y0108883D01*
X0030903Y0108111D01*
X0030635Y0107288D01*
X0030500Y0106433D01*
X0030500Y0106086D01*
X0030511Y0106502D02*
X0030200Y0106502D01*
X0029839Y0108100D02*
X0030899Y0108100D01*
X0031921Y0109699D02*
X0028241Y0109699D01*
X0025400Y0111677D02*
X0025400Y0113500D01*
X0025400Y0115323D01*
X0022823Y0117900D01*
X0021000Y0117900D01*
X0021000Y0113500D01*
X0025400Y0113500D01*
X0021000Y0113500D01*
X0021000Y0113500D01*
X0021000Y0113500D01*
X0021000Y0109100D01*
X0022823Y0109100D01*
X0025400Y0111677D01*
X0025020Y0111297D02*
X0034505Y0111297D01*
X0035914Y0111297D02*
X0036086Y0111297D01*
X0036086Y0111500D02*
X0036086Y0106086D01*
X0035914Y0106086D01*
X0035914Y0105914D01*
X0036086Y0105914D01*
X0036086Y0106086D01*
X0041500Y0106086D01*
X0041500Y0106433D01*
X0041365Y0107288D01*
X0041097Y0108111D01*
X0040704Y0108883D01*
X0040195Y0109583D01*
X0039583Y0110195D01*
X0038883Y0110704D01*
X0038111Y0111097D01*
X0037288Y0111365D01*
X0036433Y0111500D01*
X0036086Y0111500D01*
X0037495Y0111297D02*
X0041506Y0111297D01*
X0041552Y0111157D02*
X0041895Y0110484D01*
X0042339Y0109873D01*
X0042873Y0109339D01*
X0043484Y0108895D01*
X0044157Y0108552D01*
X0044876Y0108318D01*
X0045622Y0108200D01*
X0045800Y0108200D01*
X0045800Y0115800D01*
X0046200Y0115800D01*
X0046200Y0116200D01*
X0050800Y0116200D01*
X0050800Y0119378D01*
X0050682Y0120124D01*
X0050448Y0120843D01*
X0050105Y0121516D01*
X0049661Y0122127D01*
X0049127Y0122661D01*
X0048516Y0123105D01*
X0047843Y0123448D01*
X0047124Y0123682D01*
X0046378Y0123800D01*
X0046200Y0123800D01*
X0046200Y0116200D01*
X0045800Y0116200D01*
X0045800Y0123800D01*
X0045622Y0123800D01*
X0044876Y0123682D01*
X0044157Y0123448D01*
X0043484Y0123105D01*
X0042873Y0122661D01*
X0042339Y0122127D01*
X0041895Y0121516D01*
X0041552Y0120843D01*
X0041318Y0120124D01*
X0041200Y0119378D01*
X0041200Y0116200D01*
X0045800Y0116200D01*
X0045800Y0115800D01*
X0041200Y0115800D01*
X0041200Y0112622D01*
X0041318Y0111876D01*
X0041552Y0111157D01*
X0042513Y0109699D02*
X0040079Y0109699D01*
X0041101Y0108100D02*
X0073871Y0108100D01*
X0072854Y0106502D02*
X0041489Y0106502D01*
X0041500Y0105914D02*
X0036086Y0105914D01*
X0036086Y0100500D01*
X0036433Y0100500D01*
X0037288Y0100635D01*
X0038111Y0100903D01*
X0038883Y0101296D01*
X0039583Y0101805D01*
X0040195Y0102417D01*
X0040704Y0103117D01*
X0041097Y0103889D01*
X0041365Y0104712D01*
X0041500Y0105567D01*
X0041500Y0105914D01*
X0041395Y0104903D02*
X0072934Y0104903D01*
X0074066Y0103305D02*
X0040799Y0103305D01*
X0039447Y0101706D02*
X0096865Y0101706D01*
X0098400Y0100108D02*
X0078507Y0100108D01*
X0080673Y0098509D02*
X0098400Y0098509D01*
X0098400Y0096911D02*
X0081355Y0096911D01*
X0081372Y0095312D02*
X0098400Y0095312D01*
X0098400Y0093714D02*
X0080785Y0093714D01*
X0079045Y0092115D02*
X0098400Y0092115D01*
X0098400Y0090517D02*
X0075572Y0090517D01*
X0076910Y0088918D02*
X0098400Y0088918D01*
X0098400Y0087320D02*
X0078509Y0087320D01*
X0080107Y0085721D02*
X0098400Y0085721D01*
X0098400Y0084123D02*
X0081706Y0084123D01*
X0083304Y0082524D02*
X0098400Y0082524D01*
X0098400Y0080926D02*
X0084903Y0080926D01*
X0077826Y0074532D02*
X0074257Y0074532D01*
X0075800Y0072933D02*
X0076228Y0072933D01*
X0076200Y0071334D02*
X0075800Y0071334D01*
X0075800Y0070800D02*
X0071200Y0070800D01*
X0071200Y0066200D01*
X0072988Y0066200D01*
X0075800Y0069012D01*
X0075800Y0070800D01*
X0075800Y0069736D02*
X0076200Y0069736D01*
X0077157Y0068137D02*
X0074926Y0068137D01*
X0073327Y0066539D02*
X0078756Y0066539D01*
X0081912Y0064940D02*
X0012200Y0064940D01*
X0012200Y0063342D02*
X0080314Y0063342D01*
X0078715Y0061743D02*
X0012200Y0061743D01*
X0012200Y0060145D02*
X0077116Y0060145D01*
X0075518Y0058546D02*
X0012200Y0058546D01*
X0013163Y0056948D02*
X0073919Y0056948D01*
X0072321Y0055349D02*
X0018156Y0055349D01*
X0019754Y0053751D02*
X0070722Y0053751D01*
X0070400Y0052152D02*
X0020600Y0052152D01*
X0020600Y0050554D02*
X0070400Y0050554D01*
X0095200Y0042561D02*
X0136000Y0042561D01*
X0136000Y0040963D02*
X0096119Y0040963D01*
X0096572Y0039364D02*
X0136000Y0039364D01*
X0136000Y0037766D02*
X0096255Y0037766D01*
X0094689Y0036167D02*
X0136000Y0036167D01*
X0136000Y0034569D02*
X0094172Y0034569D01*
X0093538Y0032970D02*
X0136000Y0032970D01*
X0136000Y0031372D02*
X0082972Y0031372D01*
X0082398Y0032970D02*
X0088062Y0032970D01*
X0082741Y0029773D02*
X0136000Y0029773D01*
X0136000Y0028175D02*
X0081543Y0028175D01*
X0077657Y0028175D02*
X0076003Y0028175D01*
X0074405Y0026576D02*
X0136000Y0026576D01*
X0136000Y0024978D02*
X0072806Y0024978D01*
X0071208Y0023379D02*
X0136000Y0023379D01*
X0136000Y0021781D02*
X0069609Y0021781D01*
X0068011Y0020182D02*
X0136000Y0020182D01*
X0136000Y0044160D02*
X0096295Y0044160D01*
X0098000Y0045758D02*
X0136000Y0045758D01*
X0136000Y0047357D02*
X0099705Y0047357D01*
X0101410Y0048955D02*
X0136000Y0048955D01*
X0136000Y0050554D02*
X0103115Y0050554D01*
X0104781Y0052152D02*
X0136000Y0052152D01*
X0136000Y0053751D02*
X0104825Y0053751D01*
X0104800Y0055349D02*
X0136000Y0055349D01*
X0120052Y0056948D02*
X0104800Y0056948D01*
X0104800Y0058546D02*
X0118454Y0058546D01*
X0116855Y0060145D02*
X0104800Y0060145D01*
X0104800Y0061743D02*
X0115257Y0061743D01*
X0113658Y0063342D02*
X0104800Y0063342D01*
X0104800Y0064940D02*
X0112060Y0064940D01*
X0111000Y0066539D02*
X0104800Y0066539D01*
X0104800Y0068137D02*
X0111000Y0068137D01*
X0111000Y0069736D02*
X0104800Y0069736D01*
X0104800Y0071334D02*
X0111000Y0071334D01*
X0111000Y0072933D02*
X0104800Y0072933D01*
X0104800Y0074532D02*
X0111000Y0074532D01*
X0111000Y0076130D02*
X0104800Y0076130D01*
X0104800Y0077729D02*
X0111000Y0077729D01*
X0111000Y0079327D02*
X0104800Y0079327D01*
X0104800Y0080926D02*
X0111000Y0080926D01*
X0111000Y0082524D02*
X0104800Y0082524D01*
X0106315Y0084123D02*
X0111000Y0084123D01*
X0111000Y0085721D02*
X0108046Y0085721D01*
X0109778Y0087320D02*
X0112320Y0087320D01*
X0111547Y0088918D02*
X0113918Y0088918D01*
X0112600Y0090517D02*
X0115517Y0090517D01*
X0116000Y0092115D02*
X0112600Y0092115D01*
X0112600Y0093714D02*
X0116000Y0093714D01*
X0116000Y0095312D02*
X0112600Y0095312D01*
X0112600Y0096911D02*
X0116000Y0096911D01*
X0116000Y0098509D02*
X0112600Y0098509D01*
X0112600Y0100108D02*
X0116000Y0100108D01*
X0116000Y0101706D02*
X0112600Y0101706D01*
X0112600Y0103305D02*
X0116000Y0103305D01*
X0116000Y0104903D02*
X0112600Y0104903D01*
X0112600Y0106502D02*
X0116000Y0106502D01*
X0116000Y0108100D02*
X0112600Y0108100D01*
X0112600Y0109699D02*
X0116000Y0109699D01*
X0116000Y0111297D02*
X0112600Y0111297D01*
X0112600Y0112896D02*
X0116000Y0112896D01*
X0116000Y0114494D02*
X0111334Y0114494D01*
X0109736Y0116093D02*
X0116000Y0116093D01*
X0116000Y0117691D02*
X0108137Y0117691D01*
X0106539Y0119290D02*
X0116000Y0119290D01*
X0116000Y0120888D02*
X0104940Y0120888D01*
X0103342Y0122487D02*
X0114513Y0122487D01*
X0112915Y0124085D02*
X0101684Y0124085D01*
X0102693Y0125684D02*
X0111316Y0125684D01*
X0109718Y0127282D02*
X0102900Y0127282D01*
X0102459Y0128881D02*
X0108119Y0128881D01*
X0106521Y0130479D02*
X0101114Y0130479D01*
X0104922Y0132078D02*
X0006000Y0132078D01*
X0006000Y0133676D02*
X0103324Y0133676D01*
X0101725Y0135275D02*
X0006000Y0135275D01*
X0006000Y0130479D02*
X0096486Y0130479D01*
X0095916Y0124085D02*
X0086574Y0124085D01*
X0079426Y0124085D02*
X0014397Y0124085D01*
X0012798Y0122487D02*
X0042699Y0122487D01*
X0041575Y0120888D02*
X0012200Y0120888D01*
X0012200Y0119290D02*
X0041200Y0119290D01*
X0045800Y0119290D02*
X0046200Y0119290D01*
X0046200Y0120888D02*
X0045800Y0120888D01*
X0045800Y0122487D02*
X0046200Y0122487D01*
X0049301Y0122487D02*
X0052981Y0122487D01*
X0053394Y0122900D02*
X0052100Y0121606D01*
X0051400Y0119915D01*
X0051400Y0112085D01*
X0052100Y0110394D01*
X0053394Y0109100D01*
X0055085Y0108400D01*
X0056915Y0108400D01*
X0058606Y0109100D01*
X0059900Y0110394D01*
X0060600Y0112085D01*
X0060600Y0119915D01*
X0059900Y0121606D01*
X0058606Y0122900D01*
X0056915Y0123600D01*
X0055085Y0123600D01*
X0053394Y0122900D01*
X0051803Y0120888D02*
X0050425Y0120888D01*
X0050800Y0119290D02*
X0051400Y0119290D01*
X0051400Y0117691D02*
X0050800Y0117691D01*
X0051400Y0116093D02*
X0046200Y0116093D01*
X0046200Y0115800D02*
X0050800Y0115800D01*
X0050800Y0112622D01*
X0050682Y0111876D01*
X0050448Y0111157D01*
X0050105Y0110484D01*
X0049661Y0109873D01*
X0049127Y0109339D01*
X0048516Y0108895D01*
X0047843Y0108552D01*
X0047124Y0108318D01*
X0046378Y0108200D01*
X0046200Y0108200D01*
X0046200Y0115800D01*
X0045800Y0116093D02*
X0024630Y0116093D01*
X0025400Y0114494D02*
X0041200Y0114494D01*
X0041200Y0112896D02*
X0025400Y0112896D01*
X0021000Y0112896D02*
X0021000Y0112896D01*
X0021000Y0113500D02*
X0021000Y0113500D01*
X0021000Y0113500D01*
X0016600Y0113500D01*
X0016600Y0115323D01*
X0019177Y0117900D01*
X0021000Y0117900D01*
X0021000Y0113500D01*
X0021000Y0109100D01*
X0019177Y0109100D01*
X0016600Y0111677D01*
X0016600Y0113500D01*
X0021000Y0113500D01*
X0021000Y0114494D02*
X0021000Y0114494D01*
X0021000Y0116093D02*
X0021000Y0116093D01*
X0021000Y0117691D02*
X0021000Y0117691D01*
X0023031Y0117691D02*
X0041200Y0117691D01*
X0045800Y0117691D02*
X0046200Y0117691D01*
X0046200Y0114494D02*
X0045800Y0114494D01*
X0045800Y0112896D02*
X0046200Y0112896D01*
X0046200Y0111297D02*
X0045800Y0111297D01*
X0045800Y0109699D02*
X0046200Y0109699D01*
X0049487Y0109699D02*
X0052796Y0109699D01*
X0051726Y0111297D02*
X0050494Y0111297D01*
X0050800Y0112896D02*
X0051400Y0112896D01*
X0051400Y0114494D02*
X0050800Y0114494D01*
X0059204Y0109699D02*
X0062796Y0109699D01*
X0063394Y0109100D02*
X0062100Y0110394D01*
X0061400Y0112085D01*
X0061400Y0119915D01*
X0062100Y0121606D01*
X0063394Y0122900D01*
X0065085Y0123600D01*
X0066915Y0123600D01*
X0068606Y0122900D01*
X0069900Y0121606D01*
X0070600Y0119915D01*
X0070600Y0112085D01*
X0069900Y0110394D01*
X0068606Y0109100D01*
X0066915Y0108400D01*
X0065085Y0108400D01*
X0063394Y0109100D01*
X0061726Y0111297D02*
X0060274Y0111297D01*
X0060600Y0112896D02*
X0061400Y0112896D01*
X0061400Y0114494D02*
X0060600Y0114494D01*
X0060600Y0116093D02*
X0061400Y0116093D01*
X0061400Y0117691D02*
X0060600Y0117691D01*
X0060600Y0119290D02*
X0061400Y0119290D01*
X0061803Y0120888D02*
X0060197Y0120888D01*
X0059019Y0122487D02*
X0062981Y0122487D01*
X0069019Y0122487D02*
X0072981Y0122487D01*
X0071803Y0120888D02*
X0070197Y0120888D01*
X0070600Y0119290D02*
X0071400Y0119290D01*
X0071400Y0117691D02*
X0070600Y0117691D01*
X0070600Y0116093D02*
X0071400Y0116093D01*
X0071400Y0114494D02*
X0070600Y0114494D01*
X0070600Y0112896D02*
X0071400Y0112896D01*
X0071726Y0111297D02*
X0070274Y0111297D01*
X0069204Y0109699D02*
X0072796Y0109699D01*
X0077126Y0108488D02*
X0078606Y0109100D01*
X0079900Y0110394D01*
X0080600Y0112085D01*
X0080600Y0118602D01*
X0080678Y0118524D01*
X0082184Y0117900D01*
X0083816Y0117900D01*
X0085322Y0118524D01*
X0085598Y0118800D01*
X0101372Y0118800D01*
X0108600Y0111572D01*
X0108600Y0098823D01*
X0108487Y0098978D01*
X0107978Y0099487D01*
X0107396Y0099910D01*
X0106755Y0100237D01*
X0106071Y0100459D01*
X0105360Y0100572D01*
X0105086Y0100572D01*
X0105086Y0096086D01*
X0104914Y0096086D01*
X0104914Y0100572D01*
X0104640Y0100572D01*
X0103929Y0100459D01*
X0103245Y0100237D01*
X0102604Y0099910D01*
X0102400Y0099762D01*
X0102400Y0100172D01*
X0102400Y0101828D01*
X0096428Y0107800D01*
X0078029Y0107800D01*
X0077494Y0108335D01*
X0077126Y0108488D01*
X0077729Y0108100D02*
X0108600Y0108100D01*
X0108600Y0106502D02*
X0097727Y0106502D01*
X0099325Y0104903D02*
X0108600Y0104903D01*
X0108600Y0103305D02*
X0100924Y0103305D01*
X0102400Y0101706D02*
X0108600Y0101706D01*
X0108600Y0100108D02*
X0107008Y0100108D01*
X0105086Y0100108D02*
X0104914Y0100108D01*
X0104914Y0098509D02*
X0105086Y0098509D01*
X0105086Y0096911D02*
X0104914Y0096911D01*
X0104914Y0095914D02*
X0105086Y0095914D01*
X0105086Y0091428D01*
X0105360Y0091428D01*
X0106071Y0091541D01*
X0106755Y0091763D01*
X0107396Y0092090D01*
X0107978Y0092513D01*
X0108487Y0093022D01*
X0108600Y0093177D01*
X0108600Y0091676D01*
X0102400Y0085953D01*
X0102400Y0092238D01*
X0102604Y0092090D01*
X0103245Y0091763D01*
X0103929Y0091541D01*
X0104640Y0091428D01*
X0104914Y0091428D01*
X0104914Y0095914D01*
X0104914Y0095312D02*
X0105086Y0095312D01*
X0105086Y0093714D02*
X0104914Y0093714D01*
X0104914Y0092115D02*
X0105086Y0092115D01*
X0107431Y0092115D02*
X0108600Y0092115D01*
X0107344Y0090517D02*
X0102400Y0090517D01*
X0102400Y0092115D02*
X0102569Y0092115D01*
X0102400Y0088918D02*
X0105613Y0088918D01*
X0103881Y0087320D02*
X0102400Y0087320D01*
X0102400Y0100108D02*
X0102992Y0100108D01*
X0095267Y0103305D02*
X0077534Y0103305D01*
X0075493Y0100108D02*
X0012200Y0100108D01*
X0012200Y0098509D02*
X0073327Y0098509D01*
X0072645Y0096911D02*
X0012200Y0096911D01*
X0012200Y0095312D02*
X0072628Y0095312D01*
X0070424Y0093714D02*
X0012200Y0093714D01*
X0019244Y0103305D02*
X0022756Y0103305D01*
X0021800Y0104903D02*
X0020200Y0104903D01*
X0020200Y0106502D02*
X0021800Y0106502D01*
X0022161Y0108100D02*
X0019839Y0108100D01*
X0021000Y0109699D02*
X0021000Y0109699D01*
X0021000Y0111297D02*
X0021000Y0111297D01*
X0023421Y0109699D02*
X0023759Y0109699D01*
X0018579Y0109699D02*
X0018241Y0109699D01*
X0016980Y0111297D02*
X0012200Y0111297D01*
X0012200Y0109699D02*
X0013759Y0109699D01*
X0012200Y0112896D02*
X0016600Y0112896D01*
X0016600Y0114494D02*
X0012200Y0114494D01*
X0012200Y0116093D02*
X0017370Y0116093D01*
X0018969Y0117691D02*
X0012200Y0117691D01*
X0007800Y0117691D02*
X0006000Y0117691D01*
X0006000Y0116093D02*
X0007800Y0116093D01*
X0007800Y0114494D02*
X0006000Y0114494D01*
X0006000Y0112896D02*
X0007800Y0112896D01*
X0007800Y0111297D02*
X0006000Y0111297D01*
X0006000Y0109699D02*
X0007800Y0109699D01*
X0007800Y0108100D02*
X0006000Y0108100D01*
X0006000Y0106502D02*
X0007800Y0106502D01*
X0007800Y0119290D02*
X0006000Y0119290D01*
X0006000Y0120888D02*
X0007800Y0120888D01*
X0007800Y0122487D02*
X0006000Y0122487D01*
X0006000Y0124085D02*
X0008174Y0124085D01*
X0009773Y0125684D02*
X0006000Y0125684D01*
X0006000Y0127282D02*
X0011371Y0127282D01*
X0012970Y0128881D02*
X0006000Y0128881D01*
X0035914Y0109699D02*
X0036086Y0109699D01*
X0036086Y0108100D02*
X0035914Y0108100D01*
X0035914Y0106502D02*
X0036086Y0106502D01*
X0036086Y0104903D02*
X0035914Y0104903D01*
X0035914Y0103305D02*
X0036086Y0103305D01*
X0036086Y0101706D02*
X0035914Y0101706D01*
X0079204Y0109699D02*
X0108600Y0109699D01*
X0108600Y0111297D02*
X0080274Y0111297D01*
X0080600Y0112896D02*
X0107276Y0112896D01*
X0105677Y0114494D02*
X0080600Y0114494D01*
X0080600Y0116093D02*
X0104079Y0116093D01*
X0102480Y0117691D02*
X0080600Y0117691D01*
X0071200Y0074532D02*
X0070800Y0074532D01*
X0070800Y0072933D02*
X0071200Y0072933D01*
X0071200Y0071334D02*
X0070800Y0071334D01*
X0070800Y0069736D02*
X0071200Y0069736D01*
X0071200Y0068137D02*
X0070800Y0068137D01*
X0070800Y0066539D02*
X0071200Y0066539D01*
X0068673Y0066539D02*
X0012200Y0066539D01*
X0012200Y0068137D02*
X0067074Y0068137D01*
X0066200Y0072933D02*
X0040428Y0072933D01*
X0041128Y0074532D02*
X0067743Y0074532D01*
X0082844Y0066539D02*
X0083511Y0066539D01*
X0071945Y0029773D02*
X0068002Y0029773D01*
X0066403Y0028175D02*
X0070346Y0028175D01*
X0068748Y0026576D02*
X0064174Y0026576D01*
X0061803Y0024978D02*
X0067149Y0024978D01*
X0065551Y0023379D02*
X0061249Y0023379D01*
X0059797Y0024978D02*
X0059651Y0024978D01*
X0047000Y0020182D02*
X0020600Y0020182D01*
X0020089Y0018584D02*
X0047000Y0018584D01*
X0047000Y0016985D02*
X0018490Y0016985D01*
X0013509Y0016985D02*
X0006000Y0016985D01*
X0006000Y0015387D02*
X0045481Y0015387D01*
X0044200Y0013788D02*
X0006000Y0013788D01*
X0006000Y0012190D02*
X0044200Y0012190D01*
X0044200Y0010591D02*
X0006000Y0010591D01*
X0006000Y0008993D02*
X0045502Y0008993D01*
X0053400Y0013788D02*
X0054000Y0013788D01*
X0055198Y0015387D02*
X0052119Y0015387D01*
X0051000Y0016985D02*
X0056797Y0016985D01*
X0062402Y0015387D02*
X0080481Y0015387D01*
X0079200Y0013788D02*
X0063600Y0013788D01*
X0011911Y0018584D02*
X0006000Y0018584D01*
X0006000Y0020182D02*
X0011400Y0020182D01*
X0011400Y0021781D02*
X0006000Y0021781D01*
X0006000Y0023379D02*
X0011874Y0023379D01*
X0013138Y0047357D02*
X0006000Y0047357D01*
X0006000Y0048955D02*
X0011539Y0048955D01*
X0011400Y0050554D02*
X0006000Y0050554D01*
X0006000Y0052152D02*
X0011400Y0052152D01*
X0010138Y0053751D02*
X0006000Y0053751D01*
X0006000Y0055349D02*
X0008539Y0055349D01*
X0007800Y0056948D02*
X0006000Y0056948D01*
X0006000Y0058546D02*
X0007800Y0058546D01*
X0007800Y0060145D02*
X0006000Y0060145D01*
X0006000Y0061743D02*
X0007800Y0061743D01*
X0007800Y0063342D02*
X0006000Y0063342D01*
X0006000Y0064940D02*
X0007800Y0064940D01*
X0007800Y0066539D02*
X0006000Y0066539D01*
X0006000Y0068137D02*
X0007800Y0068137D01*
D28*
X0060800Y0029000D02*
X0061000Y0029200D01*
M02*
