G75*
%MOIN*%
%OFA0B0*%
%FSLAX25Y25*%
%IPPOS*%
%LPD*%
%AMOC8*
5,1,8,0,0,1.08239X$1,22.5*
%
%ADD10R,0.06706X0.05918*%
%ADD11R,0.05131X0.04737*%
%ADD12R,0.07887X0.07099*%
%ADD13C,0.06800*%
%ADD14R,0.07808X0.06902*%
%ADD15R,0.06784X0.07808*%
%ADD16R,0.04737X0.05131*%
%ADD17R,0.07898X0.07099*%
%ADD18R,0.07099X0.07898*%
%ADD19R,0.05800X0.03300*%
%ADD20C,0.07400*%
%ADD21C,0.13800*%
%ADD22R,0.05524X0.02965*%
%ADD23R,0.04700X0.02000*%
%ADD24R,0.02965X0.05524*%
%ADD25R,0.07493X0.03556*%
%ADD26OC8,0.06800*%
%ADD27C,0.06343*%
%ADD28R,0.05524X0.05524*%
%ADD29R,0.03280X0.04068*%
%ADD30OC8,0.06000*%
%ADD31C,0.08200*%
%ADD32R,0.07099X0.12611*%
%ADD33R,0.19800X0.23300*%
%ADD34R,0.04737X0.06312*%
%ADD35R,0.03950X0.04343*%
%ADD36R,0.03950X0.03950*%
%ADD37R,0.07493X0.07887*%
%ADD38C,0.04343*%
%ADD39C,0.05800*%
%ADD40C,0.03581*%
D10*
X0081600Y0081060D03*
X0091000Y0081260D03*
X0091000Y0088740D03*
X0081600Y0088540D03*
X0046000Y0097260D03*
X0046000Y0104740D03*
D11*
X0054200Y0104346D03*
X0054200Y0097654D03*
X0037800Y0089346D03*
X0046000Y0084346D03*
X0037800Y0082654D03*
X0046000Y0077654D03*
X0101454Y0067800D03*
X0108146Y0067800D03*
X0114800Y0040346D03*
X0114800Y0033654D03*
X0114600Y0028746D03*
X0114600Y0022054D03*
X0101000Y0015946D03*
X0101000Y0009254D03*
X0074200Y0016054D03*
X0074200Y0022746D03*
X0073746Y0035200D03*
X0067054Y0035200D03*
X0053000Y0030546D03*
X0053000Y0023854D03*
D12*
X0226400Y0103888D03*
X0226400Y0114912D03*
D13*
X0076000Y0113000D02*
X0076000Y0119000D01*
X0066000Y0119000D02*
X0066000Y0113000D01*
X0056000Y0113000D02*
X0056000Y0119000D01*
X0046000Y0119000D02*
X0046000Y0113000D01*
D14*
X0116000Y0074780D03*
X0126000Y0074780D03*
X0126000Y0047220D03*
X0116000Y0047220D03*
D15*
X0122713Y0036000D03*
X0122713Y0026000D03*
X0122713Y0016000D03*
X0159287Y0016000D03*
X0159287Y0026000D03*
X0159287Y0036000D03*
D16*
X0115346Y0014400D03*
X0108654Y0014400D03*
X0073746Y0027600D03*
X0067054Y0027600D03*
X0067054Y0042800D03*
X0073746Y0042800D03*
X0054346Y0066000D03*
X0047654Y0066000D03*
X0039346Y0066000D03*
X0032654Y0066000D03*
X0029346Y0076000D03*
X0022654Y0076000D03*
X0022654Y0084200D03*
X0029346Y0084200D03*
X0027654Y0096000D03*
X0034346Y0096000D03*
X0019346Y0096000D03*
X0012654Y0096000D03*
X0052654Y0081000D03*
X0059346Y0081000D03*
X0067654Y0081000D03*
X0074346Y0081000D03*
X0069346Y0101000D03*
X0062654Y0101000D03*
X0082654Y0106000D03*
X0089346Y0106000D03*
X0089346Y0116000D03*
X0082654Y0116000D03*
X0024346Y0121000D03*
X0017654Y0121000D03*
X0117654Y0081000D03*
X0124346Y0081000D03*
D17*
X0156200Y0065798D03*
X0166000Y0060402D03*
X0176000Y0060402D03*
X0156200Y0054602D03*
X0166000Y0071598D03*
X0176000Y0071598D03*
X0176000Y0085402D03*
X0166200Y0085602D03*
X0166200Y0096798D03*
X0176000Y0096598D03*
X0226600Y0094198D03*
X0226600Y0083002D03*
D18*
X0179598Y0015400D03*
X0168402Y0015400D03*
D19*
X0086000Y0052500D03*
X0086000Y0056000D03*
X0086000Y0059500D03*
D20*
X0196000Y0092700D02*
X0196000Y0099300D01*
X0206000Y0099300D02*
X0206000Y0092700D01*
X0216000Y0092700D02*
X0216000Y0099300D01*
D21*
X0206000Y0027000D03*
D22*
X0071119Y0087260D03*
X0060881Y0087260D03*
X0060881Y0091000D03*
X0060881Y0094740D03*
X0071119Y0094740D03*
D23*
X0084513Y0042516D03*
X0084513Y0039957D03*
X0084513Y0037398D03*
X0084513Y0034839D03*
X0084513Y0032280D03*
X0084513Y0029720D03*
X0084513Y0027161D03*
X0084513Y0024602D03*
X0084513Y0022043D03*
X0084513Y0019484D03*
X0107487Y0019484D03*
X0107487Y0022043D03*
X0107487Y0024602D03*
X0107487Y0027161D03*
X0107487Y0029720D03*
X0107487Y0032280D03*
X0107487Y0034839D03*
X0107487Y0037398D03*
X0107487Y0039957D03*
X0107487Y0042516D03*
D24*
X0108540Y0075881D03*
X0101060Y0075881D03*
X0101060Y0086119D03*
X0104800Y0086119D03*
X0108540Y0086119D03*
D25*
X0076000Y0060724D03*
X0076000Y0056000D03*
X0076000Y0051276D03*
D26*
X0016000Y0021000D03*
X0048800Y0012200D03*
X0058800Y0012200D03*
X0083800Y0012200D03*
X0093800Y0012200D03*
X0016000Y0051000D03*
X0016000Y0076000D03*
X0016000Y0086000D03*
X0071000Y0071000D03*
X0080800Y0071000D03*
X0090600Y0071000D03*
X0141500Y0111000D03*
X0200500Y0111000D03*
X0241000Y0116000D03*
X0241000Y0096000D03*
X0241000Y0076000D03*
X0241000Y0056000D03*
D27*
X0105000Y0096000D03*
X0077000Y0096000D03*
D28*
X0098992Y0105882D03*
X0098992Y0116118D03*
X0123008Y0116118D03*
X0123008Y0105882D03*
X0133992Y0086118D03*
X0133992Y0075882D03*
X0158008Y0075882D03*
X0158008Y0086118D03*
D29*
X0125528Y0091000D03*
X0116472Y0091000D03*
D30*
X0026000Y0106000D03*
X0016000Y0106000D03*
X0021000Y0113500D03*
D31*
X0036000Y0106000D03*
X0036000Y0076000D03*
D32*
X0027024Y0056906D03*
X0044976Y0056906D03*
D33*
X0036000Y0029748D03*
D34*
X0052260Y0036669D03*
X0059740Y0036669D03*
X0056000Y0045331D03*
D35*
X0052260Y0052063D03*
X0059740Y0052063D03*
X0056000Y0060331D03*
D36*
X0068200Y0016153D03*
X0068200Y0010247D03*
X0106647Y0009000D03*
X0112553Y0009000D03*
X0119647Y0009000D03*
X0125553Y0009000D03*
D37*
X0016000Y0027729D03*
X0016000Y0043871D03*
D38*
X0062800Y0046000D03*
X0085600Y0047200D03*
X0093200Y0039200D03*
X0090800Y0035000D03*
X0079600Y0031000D03*
X0074800Y0010600D03*
X0097000Y0064000D03*
X0072200Y0090800D03*
D39*
X0053800Y0090400D03*
X0053800Y0073000D03*
X0066400Y0056200D03*
X0035800Y0056200D03*
X0060800Y0029000D03*
X0098200Y0026800D03*
X0083000Y0122000D03*
X0098800Y0127000D03*
D40*
X0075800Y0105800D03*
X0091000Y0081260D03*
X0106900Y0049900D03*
M02*
