G75*
%MOIN*%
%OFA0B0*%
%FSLAX25Y25*%
%IPPOS*%
%LPD*%
%AMOC8*
5,1,8,0,0,1.08239X$1,22.5*
%
%ADD10C,0.06800*%
%ADD11C,0.07400*%
%ADD12C,0.13800*%
%ADD13OC8,0.06800*%
%ADD14C,0.06343*%
%ADD15OC8,0.06000*%
%ADD16C,0.08200*%
%ADD17C,0.04343*%
%ADD18C,0.05800*%
%ADD19C,0.03581*%
D10*
X0046000Y0113000D02*
X0046000Y0119000D01*
X0056000Y0119000D02*
X0056000Y0113000D01*
X0066000Y0113000D02*
X0066000Y0119000D01*
X0076000Y0119000D02*
X0076000Y0113000D01*
D11*
X0196000Y0099300D02*
X0196000Y0092700D01*
X0206000Y0092700D02*
X0206000Y0099300D01*
X0216000Y0099300D02*
X0216000Y0092700D01*
D12*
X0206000Y0027000D03*
D13*
X0016000Y0021000D03*
X0048800Y0012200D03*
X0058800Y0012200D03*
X0083800Y0012200D03*
X0093800Y0012200D03*
X0016000Y0051000D03*
X0016000Y0076000D03*
X0016000Y0086000D03*
X0071000Y0071000D03*
X0080800Y0071000D03*
X0090600Y0071000D03*
X0141500Y0111000D03*
X0200500Y0111000D03*
X0241000Y0116000D03*
X0241000Y0096000D03*
X0241000Y0076000D03*
X0241000Y0056000D03*
D14*
X0105000Y0096000D03*
X0077000Y0096000D03*
D15*
X0026000Y0106000D03*
X0016000Y0106000D03*
X0021000Y0113500D03*
D16*
X0036000Y0106000D03*
X0036000Y0076000D03*
D17*
X0072200Y0090800D03*
X0097000Y0064000D03*
X0085600Y0047200D03*
X0093200Y0039200D03*
X0090800Y0035000D03*
X0079600Y0031000D03*
X0062800Y0046000D03*
X0074800Y0010600D03*
D18*
X0098200Y0026800D03*
X0060800Y0029000D03*
X0066400Y0056200D03*
X0035800Y0056200D03*
X0053800Y0073000D03*
X0053800Y0090400D03*
X0083000Y0122000D03*
X0098800Y0127000D03*
D19*
X0075800Y0105800D03*
X0091000Y0081260D03*
X0106900Y0049900D03*
M02*
